<?xml version="1.0" encoding="UTF-8" standalone="no"?><svg xmlns="http://www.w3.org/2000/svg" xmlns:xlink="http://www.w3.org/1999/xlink" contentStyleType="text/css" height="944px" preserveAspectRatio="none" style="width:1247px;height:944px;background:#FFFFFF;" version="1.1" viewBox="0 0 1247 944" width="1247px" zoomAndPan="magnify"><defs/><g><!--MD5=[dd4d5b141f92fc6e84a3da1ac896cbb0]
cluster Span-A--><g id="cluster_Span-A"><polygon fill="none" points="16,6,71,6,78,29.6094,1230,29.6094,1230,937,16,937,16,6" style="stroke:#000000;stroke-width:1.5;"/><line style="stroke:#000000;stroke-width:1.5;" x1="16" x2="78" y1="29.6094" y2="29.6094"/><text fill="#000000" font-family="sans-serif" font-size="14" font-weight="bold" lengthAdjust="spacing" textLength="49" x="20" y="22.5332">Span-A</text></g><!--MD5=[3642741a7cbdd4f86b1e399ce54afc71]
cluster Span-B--><g id="cluster_Span-B"><polygon fill="none" points="40,346,96,346,103,369.6094,430,369.6094,430,687,40,687,40,346" style="stroke:#000000;stroke-width:1.5;"/><line style="stroke:#000000;stroke-width:1.5;" x1="40" x2="103" y1="369.6094" y2="369.6094"/><text fill="#000000" font-family="sans-serif" font-size="14" font-weight="bold" lengthAdjust="spacing" textLength="50" x="44" y="362.5332">Span-B</text></g><!--MD5=[c1b6778327dcf29b5eccd7df921023b6]
cluster Span-D--><g id="cluster_Span-D"><polygon fill="none" points="64,536,120,536,127,559.6094,406,559.6094,406,663,64,663,64,536" style="stroke:#000000;stroke-width:1.5;"/><line style="stroke:#000000;stroke-width:1.5;" x1="64" x2="127" y1="559.6094" y2="559.6094"/><text fill="#000000" font-family="sans-serif" font-size="14" font-weight="bold" lengthAdjust="spacing" textLength="50" x="68" y="552.5332">Span-D</text></g><!--MD5=[04d18bf4e12e2fc55edc0527236ee2a8]
cluster Span-C--><g id="cluster_Span-C"><polygon fill="none" points="454,569.5,510,569.5,517,593.1094,1206,593.1094,1206,913,454,913,454,569.5" style="stroke:#000000;stroke-width:1.5;"/><line style="stroke:#000000;stroke-width:1.5;" x1="454" x2="517" y1="593.1094" y2="593.1094"/><text fill="#000000" font-family="sans-serif" font-size="14" font-weight="bold" lengthAdjust="spacing" textLength="50" x="458" y="586.0332">Span-C</text></g><!--MD5=[742789e33009fb331a924390ed5505cf]
cluster Span-E--><g id="cluster_Span-E"><polygon fill="none" points="478,762,533,762,540,785.6094,818,785.6094,818,889,478,889,478,762" style="stroke:#000000;stroke-width:1.5;"/><line style="stroke:#000000;stroke-width:1.5;" x1="478" x2="540" y1="785.6094" y2="785.6094"/><text fill="#000000" font-family="sans-serif" font-size="14" font-weight="bold" lengthAdjust="spacing" textLength="49" x="482" y="778.5332">Span-E</text></g><!--MD5=[f39bf94c59b4545a241eec9adea1bd1a]
cluster Span-F--><g id="cluster_Span-F"><polygon fill="none" points="842,762,897,762,904,785.6094,1182,785.6094,1182,889,842,889,842,762" style="stroke:#000000;stroke-width:1.5;"/><line style="stroke:#000000;stroke-width:1.5;" x1="842" x2="904" y1="785.6094" y2="785.6094"/><text fill="#000000" font-family="sans-serif" font-size="14" font-weight="bold" lengthAdjust="spacing" textLength="49" x="846" y="778.5332">Span-F</text></g><ellipse cx="335" cy="52" fill="#222222" rx="10" ry="10" style="stroke:none;stroke-width:1.0;"/><rect fill="#F1F1F1" height="35.0938" rx="12.5" ry="12.5" style="stroke:#181818;stroke-width:0.5;" width="63" x="303.5" y="129"/><text fill="#000000" font-family="sans-serif" font-size="12" lengthAdjust="spacing" textLength="43" x="313.5" y="151.457">action A</text><g id="elem_GMN6"><path d="M386.5,117 L386.5,142.5 L366.75,146.5 L386.5,150.5 L386.5,176.0547 A0,0 0 0 0 386.5,176.0547 L537.5,176.0547 A0,0 0 0 0 537.5,176.0547 L537.5,127 L527.5,117 L386.5,117 A0,0 0 0 0 386.5,117 " fill="#FEFFDD" style="stroke:#181818;stroke-width:0.5;"/><path d="M527.5,117 L527.5,127 L537.5,127 L527.5,117 " fill="#FEFFDD" style="stroke:#181818;stroke-width:0.5;"/><text fill="#000000" font-family="sans-serif" font-size="13" lengthAdjust="spacing" textLength="130" x="392.5" y="135.4951">Log entries labelled as</text><text fill="#000000" font-family="sans-serif" font-size="13" lengthAdjust="spacing" textLength="96" x="392.5" y="151.8467">trace-ID Span-A,</text><text fill="#000000" font-family="sans-serif" font-size="13" lengthAdjust="spacing" textLength="75" x="392.5" y="168.1982">span Span-A</text></g><rect fill="#555555" height="8" style="stroke:none;stroke-width:1.0;" width="80" x="295" y="259"/><rect fill="#F1F1F1" height="35.0938" rx="12.5" ry="12.5" style="stroke:#181818;stroke-width:0.5;" width="67" x="469.5" y="402"/><text fill="#000000" font-family="sans-serif" font-size="12" lengthAdjust="spacing" textLength="47" x="479.5" y="424.457">Activity C</text><g id="elem_GMN25"><path d="M556.5,390 L556.5,415.5 L536.51,419.5 L556.5,423.5 L556.5,449.0547 A0,0 0 0 0 556.5,449.0547 L707.5,449.0547 A0,0 0 0 0 707.5,449.0547 L707.5,400 L697.5,390 L556.5,390 A0,0 0 0 0 556.5,390 " fill="#FEFFDD" style="stroke:#181818;stroke-width:0.5;"/><path d="M697.5,390 L697.5,400 L707.5,400 L697.5,390 " fill="#FEFFDD" style="stroke:#181818;stroke-width:0.5;"/><text fill="#000000" font-family="sans-serif" font-size="13" lengthAdjust="spacing" textLength="130" x="562.5" y="408.4951">Log entries labelled as</text><text fill="#000000" font-family="sans-serif" font-size="13" lengthAdjust="spacing" textLength="96" x="562.5" y="424.8467">trace-ID Span-A,</text><text fill="#000000" font-family="sans-serif" font-size="13" lengthAdjust="spacing" textLength="75" x="562.5" y="441.1982">span Span-A</text></g><rect fill="#F1F1F1" height="35.0938" rx="12.5" ry="12.5" style="stroke:#181818;stroke-width:0.5;" width="66" x="135" y="402"/><text fill="#000000" font-family="sans-serif" font-size="12" lengthAdjust="spacing" textLength="46" x="145" y="424.457">Activity B</text><g id="elem_GMN14"><path d="M221.5,382 L221.5,415.5 L201.09,419.5 L221.5,423.5 L221.5,457.4063 A0,0 0 0 0 221.5,457.4063 L394.5,457.4063 A0,0 0 0 0 394.5,457.4063 L394.5,392 L384.5,382 L221.5,382 A0,0 0 0 0 221.5,382 " fill="#FEFFDD" style="stroke:#181818;stroke-width:0.5;"/><path d="M384.5,382 L384.5,392 L394.5,392 L384.5,382 " fill="#FEFFDD" style="stroke:#181818;stroke-width:0.5;"/><text fill="#000000" font-family="sans-serif" font-size="13" lengthAdjust="spacing" textLength="130" x="227.5" y="400.4951">Log entries labelled as</text><text fill="#000000" font-family="sans-serif" font-size="13" lengthAdjust="spacing" textLength="96" x="227.5" y="416.8467">trace-ID Span-A,</text><text fill="#000000" font-family="sans-serif" font-size="13" lengthAdjust="spacing" textLength="75" x="227.5" y="433.1982">span Span-B</text><text fill="#000000" font-family="sans-serif" font-size="13" lengthAdjust="spacing" textLength="152" x="227.5" y="449.5498">trace-state child of span-A</text></g><rect fill="#F1F1F1" height="35.0938" rx="12.5" ry="12.5" style="stroke:#181818;stroke-width:0.5;" width="67" x="80.5" y="592"/><text fill="#000000" font-family="sans-serif" font-size="12" lengthAdjust="spacing" textLength="47" x="90.5" y="614.457">Activity D</text><g id="elem_GMN20"><path d="M168,572 L168,605.5 L147.52,609.5 L168,613.5 L168,647.4063 A0,0 0 0 0 168,647.4063 L390,647.4063 A0,0 0 0 0 390,647.4063 L390,582 L380,572 L168,572 A0,0 0 0 0 168,572 " fill="#FEFFDD" style="stroke:#181818;stroke-width:0.5;"/><path d="M380,572 L380,582 L390,582 L380,572 " fill="#FEFFDD" style="stroke:#181818;stroke-width:0.5;"/><text fill="#000000" font-family="sans-serif" font-size="13" lengthAdjust="spacing" textLength="126" x="174" y="590.4951">Logentries labelled as</text><text fill="#000000" font-family="sans-serif" font-size="13" lengthAdjust="spacing" textLength="96" x="174" y="606.8467">trace-ID Span-A,</text><text fill="#000000" font-family="sans-serif" font-size="13" lengthAdjust="spacing" textLength="79" x="174" y="623.1982">span Span-D,</text><text fill="#000000" font-family="sans-serif" font-size="13" lengthAdjust="spacing" textLength="201" x="174" y="639.5498">trace-state child of span-A, span-B</text></g><rect fill="#555555" height="8" style="stroke:none;stroke-width:1.0;" width="80" x="487" y="605.5"/><rect fill="#F1F1F1" height="35.0938" rx="12.5" ry="12.5" style="stroke:#181818;stroke-width:0.5;" width="66" x="494" y="818"/><text fill="#000000" font-family="sans-serif" font-size="12" lengthAdjust="spacing" textLength="46" x="504" y="840.457">Activity E</text><g id="elem_GMN34"><path d="M580,798 L580,831.5 L560.31,835.5 L580,839.5 L580,873.4063 A0,0 0 0 0 580,873.4063 L802,873.4063 A0,0 0 0 0 802,873.4063 L802,808 L792,798 L580,798 A0,0 0 0 0 580,798 " fill="#FEFFDD" style="stroke:#181818;stroke-width:0.5;"/><path d="M792,798 L792,808 L802,808 L792,798 " fill="#FEFFDD" style="stroke:#181818;stroke-width:0.5;"/><text fill="#000000" font-family="sans-serif" font-size="13" lengthAdjust="spacing" textLength="130" x="586" y="816.4951">Log entries labelled as</text><text fill="#000000" font-family="sans-serif" font-size="13" lengthAdjust="spacing" textLength="96" x="586" y="832.8467">trace-ID Span-A,</text><text fill="#000000" font-family="sans-serif" font-size="13" lengthAdjust="spacing" textLength="79" x="586" y="849.1982">span Span-E,</text><text fill="#000000" font-family="sans-serif" font-size="13" lengthAdjust="spacing" textLength="201" x="586" y="865.5498">trace-state child of span-A, span-C</text></g><rect fill="#F1F1F1" height="35.0938" rx="12.5" ry="12.5" style="stroke:#181818;stroke-width:0.5;" width="65" x="858.5" y="818"/><text fill="#000000" font-family="sans-serif" font-size="12" lengthAdjust="spacing" textLength="45" x="868.5" y="840.457">Activity F</text><g id="elem_GMN40"><path d="M944,798 L944,831.5 L923.67,835.5 L944,839.5 L944,873.4063 A0,0 0 0 0 944,873.4063 L1166,873.4063 A0,0 0 0 0 1166,873.4063 L1166,808 L1156,798 L944,798 A0,0 0 0 0 944,798 " fill="#FEFFDD" style="stroke:#181818;stroke-width:0.5;"/><path d="M1156,798 L1156,808 L1166,808 L1156,798 " fill="#FEFFDD" style="stroke:#181818;stroke-width:0.5;"/><text fill="#000000" font-family="sans-serif" font-size="13" lengthAdjust="spacing" textLength="130" x="950" y="816.4951">Log entries labelled as</text><text fill="#000000" font-family="sans-serif" font-size="13" lengthAdjust="spacing" textLength="96" x="950" y="832.8467">trace-ID Span-A,</text><text fill="#000000" font-family="sans-serif" font-size="13" lengthAdjust="spacing" textLength="78" x="950" y="849.1982">span Span-F,</text><text fill="#000000" font-family="sans-serif" font-size="13" lengthAdjust="spacing" textLength="201" x="950" y="865.5498">trace-state child of span-A, span-C</text></g><!--MD5=[3d484355e42d3fcd57e75666cf3837ef]
link start to action A--><g id="link_start_action A"><path d="M335,62.21 C335,76.41 335,104.06 335,123.6 " fill="none" id="start-to-action A" style="stroke:#181818;stroke-width:1.0;"/><polygon fill="#181818" points="335,128.88,339,119.88,335,123.88,331,119.88,335,128.88" style="stroke:#181818;stroke-width:1.0;"/><text fill="#000000" font-family="sans-serif" font-size="11" lengthAdjust="spacing" textLength="98" x="336" y="94.4189">"procedure request"</text></g><!--MD5=[1b3a35a1219088a282303090317508de]
link action A to S1--><g id="link_action A_S1"><path d="M335,164.39 C335,189.21 335,234.61 335,253.45 " fill="none" id="action A-to-S1" style="stroke:#181818;stroke-width:1.0;"/><polygon fill="#181818" points="335,258.75,339,249.75,335,253.75,331,249.75,335,258.75" style="stroke:#181818;stroke-width:1.0;"/></g><!--MD5=[c40d212312c83bf31f4e30c8f1524a7d]
link S1 to Activity B--><g id="link_S1_Activity B"><path d="M327.13,267 C306.09,275.37 247.71,300.78 212,338 C195.57,355.12 183.36,379.58 176.02,397.04 " fill="none" id="S1-to-Activity B" style="stroke:#181818;stroke-width:1.0;"/><polygon fill="#181818" points="174.09,401.76,181.2081,394.9532,175.9887,397.1345,173.8073,391.9152,174.09,401.76" style="stroke:#181818;stroke-width:1.0;"/></g><!--MD5=[706c2b06f27e88597b02b7863d2731d7]
link Activity B to Activity D--><g id="link_Activity B_Activity D"><path d="M156.97,437.13 C150.23,448.04 141.96,462.85 137,477 C123.91,514.31 118.05,560.3 115.6,586.83 " fill="none" id="Activity B-to-Activity D" style="stroke:#181818;stroke-width:1.0;"/><polygon fill="#181818" points="115.15,591.87,119.9306,583.2592,115.5924,586.8896,111.962,582.5514,115.15,591.87" style="stroke:#181818;stroke-width:1.0;"/></g><!--MD5=[b491e7d56ed3fc83d26fde2a2ea8efb3]
link S1 to Activity C--><g id="link_S1_Activity C"><path d="M339.39,267.19 C352.93,277.12 395.08,308.51 427,338 C447.82,357.24 469.88,381.03 484.84,397.74 " fill="none" id="S1-to-Activity C" style="stroke:#181818;stroke-width:1.0;"/><polygon fill="#181818" points="488.48,401.83,485.4904,392.4459,485.1582,398.093,479.5111,397.7608,488.48,401.83" style="stroke:#181818;stroke-width:1.0;"/></g><!--MD5=[b750ee9a0a5a96703480a18179a5be1c]
link Activity C to S2--><g id="link_Activity C_S2"><path d="M505.13,437.18 C510.1,476.11 522.32,571.8 525.96,600.34 " fill="none" id="Activity C-to-S2" style="stroke:#181818;stroke-width:1.0;"/><polygon fill="#181818" points="526.6,605.36,529.4093,595.9203,525.957,600.4015,521.4758,596.9492,526.6,605.36" style="stroke:#181818;stroke-width:1.0;"/></g><!--MD5=[dc64c2b70b2a9f604f3363f65a28fa57]
link S2 to Activity E--><g id="link_S2_Activity E"><path d="M527,613.67 C527,635.26 527,761.5 527,812.82 " fill="none" id="S2-to-Activity E" style="stroke:#181818;stroke-width:1.0;"/><polygon fill="#181818" points="527,817.84,531,808.84,527,812.84,523,808.84,527,817.84" style="stroke:#181818;stroke-width:1.0;"/></g><!--MD5=[a31e42ef16b9147d45e97409e07ef63d]
link S2 to Activity F--><g id="link_S2_Activity F"><path d="M535.62,613.51 C571.96,626.46 715.39,680.12 815,754 C838.2,771.21 860.35,795.95 874.69,813.45 " fill="none" id="S2-to-Activity F" style="stroke:#181818;stroke-width:1.0;"/><polygon fill="#181818" points="878.16,817.74,875.6102,808.2269,875.0157,813.8524,869.3901,813.2579,878.16,817.74" style="stroke:#181818;stroke-width:1.0;"/></g><!--MD5=[8346eb672c041fd56d8d6ac8285dc953]
@startuml
partition Span-A
(*)  - ->["procedure request"] "action A"
     note right
     Log entries labelled as
     trace-ID Span-A,
     span Span-A
     end note
  - - -> === S1 ===
  partition Span-B {
    - - -> "Activity B"
    note right
    Log entries labelled as
    trace-ID Span-A,
    span Span-B
    trace-state child of span-A
    end note
    partition Span-D {
      - - -> "Activity D"
      note right
      Logentries labelled as
      trace-ID Span-A,
      span Span-D,
      trace-state child of span-A, span-B
      end note
      }
  }
  === S1 === - - -> "Activity C"
  note right
     Log entries labelled as
     trace-ID Span-A,
     span Span-A
  end note
  partition Span-C
    - - -> === S2 ===
    partition Span-E {
       === S2 === - - -> "Activity E"
       note right
          Log entries labelled as
          trace-ID Span-A,
          span Span-E,
          trace-state child of span-A, span-C
       end note
    }
    partition Span-F {
       === S2 === - - -> "Activity F"
       note right
          Log entries labelled as
          trace-ID Span-A,
          span Span-F,
          trace-state child of span-A, span-C
       end note
    }
}

@enduml

PlantUML version 1.2022.8(Sun Sep 25 05:00:33 EDT 2022)
(GPL source distribution)
Java Runtime: Java(TM) SE Runtime Environment
JVM: Java HotSpot(TM) Client VM
Default Encoding: Cp1252
Language: en
Country: US
--></g></svg>