<?xml version="1.0" encoding="UTF-8" standalone="no"?><svg xmlns="http://www.w3.org/2000/svg" xmlns:xlink="http://www.w3.org/1999/xlink" contentStyleType="text/css" height="383px" preserveAspectRatio="none" style="width:951px;height:383px;background:#FFFFFF;" version="1.1" viewBox="0 0 951 383" width="951px" zoomAndPan="magnify"><defs/><g><rect fill="#F1F1F1" height="64.8281" rx="5" ry="5" style="stroke:#F1F1F1;stroke-width:1.5;" width="250" x="10" y="159.5"/><text fill="#000000" font-family="sans-serif" font-size="14" font-weight="bold" lengthAdjust="spacing" textLength="41" x="15" y="176.0332">event</text><text fill="#000000" font-family="sans-serif" font-size="14" lengthAdjust="spacing" textLength="12" x="243" y="176.0332">   </text><line style="stroke:#000000;stroke-width:1.0;" x1="238" x2="238" y1="159.5" y2="181.1094"/><line style="stroke:#000000;stroke-width:1.0;" x1="10" x2="260" y1="181.1094" y2="181.1094"/><text fill="#000000" font-family="sans-serif" font-size="14" font-weight="bold" lengthAdjust="spacing" textLength="209" x="15" y="197.6426">ActiveParticipant - application</text><text fill="#000000" font-family="sans-serif" font-size="14" lengthAdjust="spacing" textLength="12" x="243" y="197.6426">   </text><line style="stroke:#000000;stroke-width:1.0;" x1="238" x2="238" y1="181.1094" y2="202.7188"/><line style="stroke:#000000;stroke-width:1.0;" x1="10" x2="260" y1="202.7188" y2="202.7188"/><text fill="#000000" font-family="sans-serif" font-size="14" font-weight="bold" lengthAdjust="spacing" textLength="218" x="15" y="219.252">ActiveParticipant - person user</text><text fill="#000000" font-family="sans-serif" font-size="14" lengthAdjust="spacing" textLength="12" x="243" y="219.252">   </text><line style="stroke:#000000;stroke-width:1.0;" x1="238" x2="238" y1="202.7188" y2="224.3281"/><rect fill="none" height="64.8281" rx="5" ry="5" style="stroke:#000000;stroke-width:1.5;" width="250" x="10" y="159.5"/><rect fill="#F1F1F1" height="108.0469" rx="5" ry="5" style="stroke:#F1F1F1;stroke-width:1.5;" width="245" x="297" y="11"/><text fill="#000000" font-family="sans-serif" font-size="14" font-weight="bold" lengthAdjust="spacing" textLength="55" x="302" y="27.5332">eventID</text><text fill="#000000" font-family="sans-serif" font-size="14" lengthAdjust="spacing" textLength="12" x="478" y="27.5332">   </text><line style="stroke:#000000;stroke-width:1.0;" x1="473" x2="473" y1="11" y2="32.6094"/><line style="stroke:#000000;stroke-width:1.0;" x1="297" x2="542" y1="32.6094" y2="32.6094"/><text fill="#000000" font-family="sans-serif" font-size="14" font-weight="bold" lengthAdjust="spacing" textLength="122" x="302" y="49.1426">EventActionCode</text><text fill="#000000" font-family="sans-serif" font-size="14" lengthAdjust="spacing" textLength="10" x="478" y="49.1426">C</text><line style="stroke:#000000;stroke-width:1.0;" x1="473" x2="473" y1="32.6094" y2="54.2188"/><line style="stroke:#000000;stroke-width:1.0;" x1="297" x2="542" y1="54.2188" y2="54.2188"/><text fill="#000000" font-family="sans-serif" font-size="14" font-weight="bold" lengthAdjust="spacing" textLength="106" x="302" y="70.752">EventDateTime</text><text fill="#000000" font-family="sans-serif" font-size="14" lengthAdjust="spacing" textLength="59" x="478" y="70.752">date-time</text><line style="stroke:#000000;stroke-width:1.0;" x1="473" x2="473" y1="54.2188" y2="75.8281"/><line style="stroke:#000000;stroke-width:1.0;" x1="297" x2="542" y1="75.8281" y2="75.8281"/><text fill="#000000" font-family="sans-serif" font-size="14" font-weight="bold" lengthAdjust="spacing" textLength="166" x="302" y="92.3613">EventOutcomeIndicator</text><text fill="#000000" font-family="sans-serif" font-size="14" lengthAdjust="spacing" textLength="8" x="478" y="92.3613">0</text><line style="stroke:#000000;stroke-width:1.0;" x1="473" x2="473" y1="75.8281" y2="97.4375"/><line style="stroke:#000000;stroke-width:1.0;" x1="297" x2="542" y1="97.4375" y2="97.4375"/><text fill="#000000" font-family="sans-serif" font-size="14" font-weight="bold" lengthAdjust="spacing" textLength="111" x="302" y="113.9707">EventTypeCode</text><text fill="#000000" font-family="sans-serif" font-size="14" lengthAdjust="spacing" textLength="12" x="478" y="113.9707">   </text><line style="stroke:#000000;stroke-width:1.0;" x1="473" x2="473" y1="97.4375" y2="119.0469"/><rect fill="none" height="108.0469" rx="5" ry="5" style="stroke:#000000;stroke-width:1.5;" width="245" x="297" y="11"/><rect fill="#F1F1F1" height="21.6094" rx="5" ry="5" style="stroke:#F1F1F1;stroke-width:1.5;" width="360" x="579" y="10"/><text fill="#000000" font-family="sans-serif" font-size="14" font-weight="bold" lengthAdjust="spacing" textLength="118" x="584" y="26.5332">CodedValueType</text><text fill="#000000" font-family="sans-serif" font-size="14" lengthAdjust="spacing" textLength="222" x="712" y="26.5332">(110100, DCM, Application Activity)</text><line style="stroke:#000000;stroke-width:1.0;" x1="707" x2="707" y1="10" y2="31.6094"/><rect fill="none" height="21.6094" rx="5" ry="5" style="stroke:#000000;stroke-width:1.5;" width="360" x="579" y="10"/><rect fill="#F1F1F1" height="21.6094" rx="5" ry="5" style="stroke:#F1F1F1;stroke-width:1.5;" width="263" x="627.5" y="97"/><text fill="#000000" font-family="sans-serif" font-size="14" font-weight="bold" lengthAdjust="spacing" textLength="35" x="632.5" y="113.5332">code</text><text fill="#000000" font-family="sans-serif" font-size="14" lengthAdjust="spacing" textLength="208" x="677.5" y="113.5332">(110120, DCM, Application Start)</text><line style="stroke:#000000;stroke-width:1.0;" x1="672.5" x2="672.5" y1="97" y2="118.6094"/><rect fill="none" height="21.6094" rx="5" ry="5" style="stroke:#000000;stroke-width:1.5;" width="263" x="627.5" y="97"/><rect fill="#F1F1F1" height="108.0469" rx="5" ry="5" style="stroke:#F1F1F1;stroke-width:1.5;" width="210" x="314.5" y="137"/><text fill="#000000" font-family="sans-serif" font-size="14" font-weight="bold" lengthAdjust="spacing" textLength="47" x="319.5" y="153.5332">UserID</text><text fill="#000000" font-family="sans-serif" font-size="14" lengthAdjust="spacing" textLength="50" x="453.5" y="153.5332">thisuser</text><line style="stroke:#000000;stroke-width:1.0;" x1="448.5" x2="448.5" y1="137" y2="158.6094"/><line style="stroke:#000000;stroke-width:1.0;" x1="314.5" x2="524.5" y1="158.6094" y2="158.6094"/><text fill="#000000" font-family="sans-serif" font-size="14" font-weight="bold" lengthAdjust="spacing" textLength="124" x="319.5" y="175.1426">AlternativeUserID</text><text fill="#000000" font-family="sans-serif" font-size="14" lengthAdjust="spacing" textLength="66" x="453.5" y="175.1426">theotherID</text><line style="stroke:#000000;stroke-width:1.0;" x1="448.5" x2="448.5" y1="158.6094" y2="180.2188"/><line style="stroke:#000000;stroke-width:1.0;" x1="314.5" x2="524.5" y1="180.2188" y2="180.2188"/><text fill="#000000" font-family="sans-serif" font-size="14" font-weight="bold" lengthAdjust="spacing" textLength="71" x="319.5" y="196.752">Username</text><text fill="#000000" font-family="sans-serif" font-size="14" lengthAdjust="spacing" textLength="51" x="453.5" y="196.752">if known</text><line style="stroke:#000000;stroke-width:1.0;" x1="448.5" x2="448.5" y1="180.2188" y2="201.8281"/><line style="stroke:#000000;stroke-width:1.0;" x1="314.5" x2="524.5" y1="201.8281" y2="201.8281"/><text fill="#000000" font-family="sans-serif" font-size="14" font-weight="bold" lengthAdjust="spacing" textLength="119" x="319.5" y="218.3613">UserIsRequestor</text><text fill="#000000" font-family="sans-serif" font-size="14" lengthAdjust="spacing" textLength="37" x="453.5" y="218.3613">TRUE</text><line style="stroke:#000000;stroke-width:1.0;" x1="448.5" x2="448.5" y1="201.8281" y2="223.4375"/><line style="stroke:#000000;stroke-width:1.0;" x1="314.5" x2="524.5" y1="223.4375" y2="223.4375"/><text fill="#000000" font-family="sans-serif" font-size="14" font-weight="bold" lengthAdjust="spacing" textLength="83" x="319.5" y="239.9707">RoleIDCode</text><text fill="#000000" font-family="sans-serif" font-size="14" lengthAdjust="spacing" textLength="12" x="453.5" y="239.9707">   </text><line style="stroke:#000000;stroke-width:1.0;" x1="448.5" x2="448.5" y1="223.4375" y2="245.0469"/><rect fill="none" height="108.0469" rx="5" ry="5" style="stroke:#000000;stroke-width:1.5;" width="210" x="314.5" y="137"/><rect fill="#F1F1F1" height="21.6094" rx="5" ry="5" style="stroke:#F1F1F1;stroke-width:1.5;" width="229" x="644.5" y="223"/><text fill="#000000" font-family="sans-serif" font-size="14" font-weight="bold" lengthAdjust="spacing" textLength="35" x="649.5" y="239.5332">code</text><text fill="#000000" font-family="sans-serif" font-size="14" lengthAdjust="spacing" textLength="174" x="694.5" y="239.5332">(110150, DCM, Application)</text><line style="stroke:#000000;stroke-width:1.0;" x1="689.5" x2="689.5" y1="223" y2="244.6094"/><rect fill="none" height="21.6094" rx="5" ry="5" style="stroke:#000000;stroke-width:1.5;" width="229" x="644.5" y="223"/><rect fill="#F1F1F1" height="108.0469" rx="5" ry="5" style="stroke:#F1F1F1;stroke-width:1.5;" width="206" x="316.5" y="263"/><text fill="#000000" font-family="sans-serif" font-size="14" font-weight="bold" lengthAdjust="spacing" textLength="47" x="321.5" y="279.5332">UserID</text><text fill="#000000" font-family="sans-serif" font-size="14" lengthAdjust="spacing" textLength="52" x="455.5" y="279.5332">thatuser</text><line style="stroke:#000000;stroke-width:1.0;" x1="450.5" x2="450.5" y1="263" y2="284.6094"/><line style="stroke:#000000;stroke-width:1.0;" x1="316.5" x2="522.5" y1="284.6094" y2="284.6094"/><text fill="#000000" font-family="sans-serif" font-size="14" font-weight="bold" lengthAdjust="spacing" textLength="124" x="321.5" y="301.1426">AlternativeUserID</text><text fill="#000000" font-family="sans-serif" font-size="14" lengthAdjust="spacing" textLength="62" x="455.5" y="301.1426">anotherID</text><line style="stroke:#000000;stroke-width:1.0;" x1="450.5" x2="450.5" y1="284.6094" y2="306.2188"/><line style="stroke:#000000;stroke-width:1.0;" x1="316.5" x2="522.5" y1="306.2188" y2="306.2188"/><text fill="#000000" font-family="sans-serif" font-size="14" font-weight="bold" lengthAdjust="spacing" textLength="71" x="321.5" y="322.752">Username</text><text fill="#000000" font-family="sans-serif" font-size="14" lengthAdjust="spacing" textLength="51" x="455.5" y="322.752">if known</text><line style="stroke:#000000;stroke-width:1.0;" x1="450.5" x2="450.5" y1="306.2188" y2="327.8281"/><line style="stroke:#000000;stroke-width:1.0;" x1="316.5" x2="522.5" y1="327.8281" y2="327.8281"/><text fill="#000000" font-family="sans-serif" font-size="14" font-weight="bold" lengthAdjust="spacing" textLength="119" x="321.5" y="344.3613">UserIsRequestor</text><text fill="#000000" font-family="sans-serif" font-size="14" lengthAdjust="spacing" textLength="44" x="455.5" y="344.3613">FALSE</text><line style="stroke:#000000;stroke-width:1.0;" x1="450.5" x2="450.5" y1="327.8281" y2="349.4375"/><line style="stroke:#000000;stroke-width:1.0;" x1="316.5" x2="522.5" y1="349.4375" y2="349.4375"/><text fill="#000000" font-family="sans-serif" font-size="14" font-weight="bold" lengthAdjust="spacing" textLength="83" x="321.5" y="365.9707">RoleIDCode</text><text fill="#000000" font-family="sans-serif" font-size="14" lengthAdjust="spacing" textLength="12" x="455.5" y="365.9707">   </text><line style="stroke:#000000;stroke-width:1.0;" x1="450.5" x2="450.5" y1="349.4375" y2="371.0469"/><rect fill="none" height="108.0469" rx="5" ry="5" style="stroke:#000000;stroke-width:1.5;" width="206" x="316.5" y="263"/><rect fill="#F1F1F1" height="21.6094" rx="5" ry="5" style="stroke:#F1F1F1;stroke-width:1.5;" width="293" x="612.5" y="349"/><text fill="#000000" font-family="sans-serif" font-size="14" font-weight="bold" lengthAdjust="spacing" textLength="35" x="617.5" y="365.5332">code</text><text fill="#000000" font-family="sans-serif" font-size="14" lengthAdjust="spacing" textLength="238" x="662.5" y="365.5332">(110151, DCM, Application Launcher)</text><line style="stroke:#000000;stroke-width:1.0;" x1="657.5" x2="657.5" y1="349" y2="370.6094"/><rect fill="none" height="21.6094" rx="5" ry="5" style="stroke:#000000;stroke-width:1.5;" width="293" x="612.5" y="349"/><path d="M530,21 L543,21 C552.4658,21 562.1655,21 571.9604,21 " fill="none" style="stroke:#000000;stroke-width:1.0;stroke-dasharray:3.0,3.0;"/><path d="M571.9604,24.0026 L574.2124,21 L571.9604,17.9974 L579.4669,21 L571.9604,24.0026 " fill="#000000" style="stroke:#000000;stroke-width:1.0;"/><ellipse cx="530" cy="21" fill="#000000" rx="3" ry="3" style="stroke:#000000;stroke-width:1.0;"/><path d="M530,108 L543,108 C567.943,108 594.5099,108 620.1633,108 " fill="none" style="stroke:#000000;stroke-width:1.0;stroke-dasharray:3.0,3.0;"/><path d="M620.1633,111.0271 L622.4336,108 L620.1633,104.9729 L627.7311,108 L620.1633,111.0271 " fill="#000000" style="stroke:#000000;stroke-width:1.0;"/><ellipse cx="530" cy="108" fill="#000000" rx="3" ry="3" style="stroke:#000000;stroke-width:1.0;"/><path d="M248,170 L261,170 C285.5855,170 277.7206,143.2561 297,128 C298.7963,126.5786 300.6296,125.1751 302.4947,123.7902 " fill="none" style="stroke:#000000;stroke-width:1.0;stroke-dasharray:3.0,3.0;"/><path d="M304.3491,126.3725 L304.4315,122.3994 L300.6403,121.2079 L308.9505,119.1542 L304.3491,126.3725 " fill="#000000" style="stroke:#000000;stroke-width:1.0;"/><ellipse cx="248" cy="170" fill="#000000" rx="3" ry="3" style="stroke:#000000;stroke-width:1.0;"/><path d="M513,234 L526,234 C562.1768,234 601.5199,234 637.3781,234 " fill="none" style="stroke:#000000;stroke-width:1.0;stroke-dasharray:3.0,3.0;"/><path d="M637.3781,237.0386 L639.6571,234 L637.3781,230.9614 L644.9746,234 L637.3781,237.0386 " fill="#000000" style="stroke:#000000;stroke-width:1.0;"/><ellipse cx="513" cy="234" fill="#000000" rx="3" ry="3" style="stroke:#000000;stroke-width:1.0;"/><path d="M248,191 L261,191 C275.9689,191 291.7356,191 307.2797,191 " fill="none" style="stroke:#000000;stroke-width:1.0;stroke-dasharray:3.0,3.0;"/><path d="M307.2797,194.0434 L309.5622,191 L307.2797,187.9566 L314.8881,191 L307.2797,194.0434 " fill="#000000" style="stroke:#000000;stroke-width:1.0;"/><ellipse cx="248" cy="191" fill="#000000" rx="3" ry="3" style="stroke:#000000;stroke-width:1.0;"/><path d="M511,360 L524,360 C550.2353,360 578.1215,360 605.1652,360 " fill="none" style="stroke:#000000;stroke-width:1.0;stroke-dasharray:3.0,3.0;"/><path d="M605.1652,363.0413 L607.4462,360 L605.1652,356.9587 L612.7685,360 L605.1652,363.0413 " fill="#000000" style="stroke:#000000;stroke-width:1.0;"/><ellipse cx="511" cy="360" fill="#000000" rx="3" ry="3" style="stroke:#000000;stroke-width:1.0;"/><path d="M248,214 L261,214 C284.9176,214 278.0662,239.3863 297,254 C301.2813,257.3044 305.7619,260.518 310.373,263.6308 " fill="none" style="stroke:#000000;stroke-width:1.0;stroke-dasharray:3.0,3.0;"/><path d="M308.7004,266.1757 L312.2816,264.8852 L312.0455,261.086 L316.7351,267.8122 L308.7004,266.1757 " fill="#000000" style="stroke:#000000;stroke-width:1.0;"/><ellipse cx="248" cy="214" fill="#000000" rx="3" ry="3" style="stroke:#000000;stroke-width:1.0;"/><!--MD5=[a45462728758083a12dfb6fba2e1cd99]
@startjson
{
	"event": {
	   "eventID" : { "CodedValueType" : "(110100, DCM, Application Activity)"},
	   "EventActionCode": "C",
	   "EventDateTime" : "date-time",
	   "EventOutcomeIndicator": "0",
	   "EventTypeCode" : { "code" : "(110120, DCM, Application Start)"}
	   },
	"ActiveParticipant - application" : {
	   "UserID" : "thisuser",
	   "AlternativeUserID" : "theotherID",
	   "Username" : "if known",
	   "UserIsRequestor" : "TRUE",
	   "RoleIDCode" : { "code" : "(110150, DCM, Application)"}
	   },
	"ActiveParticipant - person user" : {
	   "UserID" : "thatuser",
	   "AlternativeUserID" : "anotherID",
	   "Username" : "if known",
	   "UserIsRequestor" : "FALSE",
	   "RoleIDCode" : { "code" : "(110151, DCM, Application Launcher)"}	   
	   }
}
@endjson

PlantUML version 1.2022.8(Sun Sep 25 05:00:33 EDT 2022)
(GPL source distribution)
Java Runtime: Java(TM) SE Runtime Environment
JVM: Java HotSpot(TM) Client VM
Default Encoding: Cp1252
Language: en
Country: US
--></g></svg>