<?xml version="1.0" encoding="UTF-8" standalone="no"?><svg xmlns="http://www.w3.org/2000/svg" xmlns:xlink="http://www.w3.org/1999/xlink" contentStyleType="text/css" height="448px" preserveAspectRatio="none" style="width:913px;height:448px;background:#FFFFFF;" version="1.1" viewBox="0 0 913 448" width="913px" zoomAndPan="magnify"><defs/><g><rect fill="#F1F1F1" height="64.8281" rx="5" ry="5" style="stroke:#F1F1F1;stroke-width:1.5;" width="151" x="10" y="224.5"/><text fill="#000000" font-family="sans-serif" font-size="14" font-weight="bold" lengthAdjust="spacing" textLength="41" x="15" y="241.0332">event</text><text fill="#000000" font-family="sans-serif" font-size="14" lengthAdjust="spacing" textLength="12" x="144" y="241.0332">   </text><line style="stroke:#000000;stroke-width:1.0;" x1="139" x2="139" y1="224.5" y2="246.1094"/><line style="stroke:#000000;stroke-width:1.0;" x1="10" x2="161" y1="246.1094" y2="246.1094"/><text fill="#000000" font-family="sans-serif" font-size="14" font-weight="bold" lengthAdjust="spacing" textLength="119" x="15" y="262.6426">ActiveParticipant</text><text fill="#000000" font-family="sans-serif" font-size="14" lengthAdjust="spacing" textLength="12" x="144" y="262.6426">   </text><line style="stroke:#000000;stroke-width:1.0;" x1="139" x2="139" y1="246.1094" y2="267.7188"/><line style="stroke:#000000;stroke-width:1.0;" x1="10" x2="161" y1="267.7188" y2="267.7188"/><text fill="#000000" font-family="sans-serif" font-size="14" font-weight="bold" lengthAdjust="spacing" textLength="119" x="15" y="284.252">ActiveParticipant</text><text fill="#000000" font-family="sans-serif" font-size="14" lengthAdjust="spacing" textLength="12" x="144" y="284.252">   </text><line style="stroke:#000000;stroke-width:1.0;" x1="139" x2="139" y1="267.7188" y2="289.3281"/><rect fill="none" height="64.8281" rx="5" ry="5" style="stroke:#000000;stroke-width:1.5;" width="151" x="10" y="224.5"/><rect fill="#F1F1F1" height="172.875" rx="5" ry="5" style="stroke:#F1F1F1;stroke-width:1.5;" width="245" x="198" y="10.5"/><text fill="#000000" font-family="sans-serif" font-size="14" font-weight="bold" lengthAdjust="spacing" textLength="55" x="203" y="27.0332">eventID</text><text fill="#000000" font-family="sans-serif" font-size="14" lengthAdjust="spacing" textLength="12" x="379" y="27.0332">   </text><line style="stroke:#000000;stroke-width:1.0;" x1="374" x2="374" y1="10.5" y2="32.1094"/><line style="stroke:#000000;stroke-width:1.0;" x1="198" x2="443" y1="32.1094" y2="32.1094"/><text fill="#000000" font-family="sans-serif" font-size="14" font-weight="bold" lengthAdjust="spacing" textLength="122" x="203" y="48.6426">EventActionCode</text><text fill="#000000" font-family="sans-serif" font-size="14" lengthAdjust="spacing" textLength="10" x="379" y="48.6426">C</text><line style="stroke:#000000;stroke-width:1.0;" x1="374" x2="374" y1="32.1094" y2="53.7188"/><line style="stroke:#000000;stroke-width:1.0;" x1="198" x2="443" y1="53.7188" y2="53.7188"/><text fill="#000000" font-family="sans-serif" font-size="14" font-weight="bold" lengthAdjust="spacing" textLength="106" x="203" y="70.252">EventDateTime</text><text fill="#000000" font-family="sans-serif" font-size="14" lengthAdjust="spacing" textLength="59" x="379" y="70.252">date-time</text><line style="stroke:#000000;stroke-width:1.0;" x1="374" x2="374" y1="53.7188" y2="75.3281"/><line style="stroke:#000000;stroke-width:1.0;" x1="198" x2="443" y1="75.3281" y2="75.3281"/><text fill="#000000" font-family="sans-serif" font-size="14" font-weight="bold" lengthAdjust="spacing" textLength="166" x="203" y="91.8613">EventOutcomeIndicator</text><text fill="#000000" font-family="sans-serif" font-size="14" lengthAdjust="spacing" textLength="8" x="379" y="91.8613">0</text><line style="stroke:#000000;stroke-width:1.0;" x1="374" x2="374" y1="75.3281" y2="96.9375"/><line style="stroke:#000000;stroke-width:1.0;" x1="198" x2="443" y1="96.9375" y2="96.9375"/><text fill="#000000" font-family="sans-serif" font-size="14" font-weight="bold" lengthAdjust="spacing" textLength="111" x="203" y="113.4707">EventTypeCode</text><text fill="#000000" font-family="sans-serif" font-size="14" lengthAdjust="spacing" textLength="12" x="379" y="113.4707">   </text><line style="stroke:#000000;stroke-width:1.0;" x1="374" x2="374" y1="96.9375" y2="118.5469"/><line style="stroke:#000000;stroke-width:1.0;" x1="198" x2="443" y1="118.5469" y2="118.5469"/><text fill="#000000" font-family="sans-serif" font-size="14" font-weight="bold" lengthAdjust="spacing" textLength="50" x="203" y="135.0801">traceID</text><text fill="#000000" font-family="sans-serif" font-size="14" lengthAdjust="spacing" textLength="27" x="379" y="135.0801">asdf</text><line style="stroke:#000000;stroke-width:1.0;" x1="374" x2="374" y1="118.5469" y2="140.1563"/><line style="stroke:#000000;stroke-width:1.0;" x1="198" x2="443" y1="140.1563" y2="140.1563"/><text fill="#000000" font-family="sans-serif" font-size="14" font-weight="bold" lengthAdjust="spacing" textLength="60" x="203" y="156.6895">parentID</text><text fill="#000000" font-family="sans-serif" font-size="14" lengthAdjust="spacing" textLength="16" x="379" y="156.6895">lkjl</text><line style="stroke:#000000;stroke-width:1.0;" x1="374" x2="374" y1="140.1563" y2="161.7656"/><line style="stroke:#000000;stroke-width:1.0;" x1="198" x2="443" y1="161.7656" y2="161.7656"/><text fill="#000000" font-family="sans-serif" font-size="14" font-weight="bold" lengthAdjust="spacing" textLength="48" x="203" y="178.2988">childID</text><text fill="#000000" font-family="sans-serif" font-size="14" lengthAdjust="spacing" textLength="24" x="379" y="178.2988">huh</text><line style="stroke:#000000;stroke-width:1.0;" x1="374" x2="374" y1="161.7656" y2="183.375"/><rect fill="none" height="172.875" rx="5" ry="5" style="stroke:#000000;stroke-width:1.5;" width="245" x="198" y="10.5"/><rect fill="#F1F1F1" height="21.6094" rx="5" ry="5" style="stroke:#F1F1F1;stroke-width:1.5;" width="22" x="480" y="10"/><text fill="#000000" font-family="sans-serif" font-size="14" lengthAdjust="spacing" textLength="12" x="485" y="26.5332">   </text><rect fill="none" height="21.6094" rx="5" ry="5" style="stroke:#000000;stroke-width:1.5;" width="22" x="480" y="10"/><rect fill="#F1F1F1" height="21.6094" rx="5" ry="5" style="stroke:#F1F1F1;stroke-width:1.5;" width="360" x="541" y="10"/><text fill="#000000" font-family="sans-serif" font-size="14" font-weight="bold" lengthAdjust="spacing" textLength="118" x="546" y="26.5332">CodedValueType</text><text fill="#000000" font-family="sans-serif" font-size="14" lengthAdjust="spacing" textLength="222" x="674" y="26.5332">(110100, DCM, Application Activity)</text><line style="stroke:#000000;stroke-width:1.0;" x1="669" x2="669" y1="10" y2="31.6094"/><rect fill="none" height="21.6094" rx="5" ry="5" style="stroke:#000000;stroke-width:1.5;" width="360" x="541" y="10"/><rect fill="#F1F1F1" height="21.6094" rx="5" ry="5" style="stroke:#F1F1F1;stroke-width:1.5;" width="22" x="480" y="97"/><text fill="#000000" font-family="sans-serif" font-size="14" lengthAdjust="spacing" textLength="12" x="485" y="113.5332">   </text><rect fill="none" height="21.6094" rx="5" ry="5" style="stroke:#000000;stroke-width:1.5;" width="22" x="480" y="97"/><rect fill="#F1F1F1" height="21.6094" rx="5" ry="5" style="stroke:#F1F1F1;stroke-width:1.5;" width="263" x="589.5" y="97"/><text fill="#000000" font-family="sans-serif" font-size="14" font-weight="bold" lengthAdjust="spacing" textLength="35" x="594.5" y="113.5332">code</text><text fill="#000000" font-family="sans-serif" font-size="14" lengthAdjust="spacing" textLength="208" x="639.5" y="113.5332">(110120, DCM, Application Start)</text><line style="stroke:#000000;stroke-width:1.0;" x1="634.5" x2="634.5" y1="97" y2="118.6094"/><rect fill="none" height="21.6094" rx="5" ry="5" style="stroke:#000000;stroke-width:1.5;" width="263" x="589.5" y="97"/><rect fill="#F1F1F1" height="108.0469" rx="5" ry="5" style="stroke:#F1F1F1;stroke-width:1.5;" width="210" x="215.5" y="202"/><text fill="#000000" font-family="sans-serif" font-size="14" font-weight="bold" lengthAdjust="spacing" textLength="47" x="220.5" y="218.5332">UserID</text><text fill="#000000" font-family="sans-serif" font-size="14" lengthAdjust="spacing" textLength="50" x="354.5" y="218.5332">thisuser</text><line style="stroke:#000000;stroke-width:1.0;" x1="349.5" x2="349.5" y1="202" y2="223.6094"/><line style="stroke:#000000;stroke-width:1.0;" x1="215.5" x2="425.5" y1="223.6094" y2="223.6094"/><text fill="#000000" font-family="sans-serif" font-size="14" font-weight="bold" lengthAdjust="spacing" textLength="124" x="220.5" y="240.1426">AlternativeUserID</text><text fill="#000000" font-family="sans-serif" font-size="14" lengthAdjust="spacing" textLength="66" x="354.5" y="240.1426">theotherID</text><line style="stroke:#000000;stroke-width:1.0;" x1="349.5" x2="349.5" y1="223.6094" y2="245.2188"/><line style="stroke:#000000;stroke-width:1.0;" x1="215.5" x2="425.5" y1="245.2188" y2="245.2188"/><text fill="#000000" font-family="sans-serif" font-size="14" font-weight="bold" lengthAdjust="spacing" textLength="71" x="220.5" y="261.752">Username</text><text fill="#000000" font-family="sans-serif" font-size="14" lengthAdjust="spacing" textLength="51" x="354.5" y="261.752">if known</text><line style="stroke:#000000;stroke-width:1.0;" x1="349.5" x2="349.5" y1="245.2188" y2="266.8281"/><line style="stroke:#000000;stroke-width:1.0;" x1="215.5" x2="425.5" y1="266.8281" y2="266.8281"/><text fill="#000000" font-family="sans-serif" font-size="14" font-weight="bold" lengthAdjust="spacing" textLength="119" x="220.5" y="283.3613">UserIsRequestor</text><text fill="#000000" font-family="sans-serif" font-size="14" lengthAdjust="spacing" textLength="37" x="354.5" y="283.3613">TRUE</text><line style="stroke:#000000;stroke-width:1.0;" x1="349.5" x2="349.5" y1="266.8281" y2="288.4375"/><line style="stroke:#000000;stroke-width:1.0;" x1="215.5" x2="425.5" y1="288.4375" y2="288.4375"/><text fill="#000000" font-family="sans-serif" font-size="14" font-weight="bold" lengthAdjust="spacing" textLength="83" x="220.5" y="304.9707">RoleIDCode</text><text fill="#000000" font-family="sans-serif" font-size="14" lengthAdjust="spacing" textLength="12" x="354.5" y="304.9707">   </text><line style="stroke:#000000;stroke-width:1.0;" x1="349.5" x2="349.5" y1="288.4375" y2="310.0469"/><rect fill="none" height="108.0469" rx="5" ry="5" style="stroke:#000000;stroke-width:1.5;" width="210" x="215.5" y="202"/><rect fill="#F1F1F1" height="21.6094" rx="5" ry="5" style="stroke:#F1F1F1;stroke-width:1.5;" width="22" x="480" y="288"/><text fill="#000000" font-family="sans-serif" font-size="14" lengthAdjust="spacing" textLength="12" x="485" y="304.5332">   </text><rect fill="none" height="21.6094" rx="5" ry="5" style="stroke:#000000;stroke-width:1.5;" width="22" x="480" y="288"/><rect fill="#F1F1F1" height="21.6094" rx="5" ry="5" style="stroke:#F1F1F1;stroke-width:1.5;" width="229" x="606.5" y="288"/><text fill="#000000" font-family="sans-serif" font-size="14" font-weight="bold" lengthAdjust="spacing" textLength="35" x="611.5" y="304.5332">code</text><text fill="#000000" font-family="sans-serif" font-size="14" lengthAdjust="spacing" textLength="174" x="656.5" y="304.5332">(110150, DCM, Application)</text><line style="stroke:#000000;stroke-width:1.0;" x1="651.5" x2="651.5" y1="288" y2="309.6094"/><rect fill="none" height="21.6094" rx="5" ry="5" style="stroke:#000000;stroke-width:1.5;" width="229" x="606.5" y="288"/><rect fill="#F1F1F1" height="108.0469" rx="5" ry="5" style="stroke:#F1F1F1;stroke-width:1.5;" width="206" x="217.5" y="328"/><text fill="#000000" font-family="sans-serif" font-size="14" font-weight="bold" lengthAdjust="spacing" textLength="47" x="222.5" y="344.5332">UserID</text><text fill="#000000" font-family="sans-serif" font-size="14" lengthAdjust="spacing" textLength="52" x="356.5" y="344.5332">thatuser</text><line style="stroke:#000000;stroke-width:1.0;" x1="351.5" x2="351.5" y1="328" y2="349.6094"/><line style="stroke:#000000;stroke-width:1.0;" x1="217.5" x2="423.5" y1="349.6094" y2="349.6094"/><text fill="#000000" font-family="sans-serif" font-size="14" font-weight="bold" lengthAdjust="spacing" textLength="124" x="222.5" y="366.1426">AlternativeUserID</text><text fill="#000000" font-family="sans-serif" font-size="14" lengthAdjust="spacing" textLength="62" x="356.5" y="366.1426">anotherID</text><line style="stroke:#000000;stroke-width:1.0;" x1="351.5" x2="351.5" y1="349.6094" y2="371.2188"/><line style="stroke:#000000;stroke-width:1.0;" x1="217.5" x2="423.5" y1="371.2188" y2="371.2188"/><text fill="#000000" font-family="sans-serif" font-size="14" font-weight="bold" lengthAdjust="spacing" textLength="71" x="222.5" y="387.752">Username</text><text fill="#000000" font-family="sans-serif" font-size="14" lengthAdjust="spacing" textLength="51" x="356.5" y="387.752">if known</text><line style="stroke:#000000;stroke-width:1.0;" x1="351.5" x2="351.5" y1="371.2188" y2="392.8281"/><line style="stroke:#000000;stroke-width:1.0;" x1="217.5" x2="423.5" y1="392.8281" y2="392.8281"/><text fill="#000000" font-family="sans-serif" font-size="14" font-weight="bold" lengthAdjust="spacing" textLength="119" x="222.5" y="409.3613">UserIsRequestor</text><text fill="#000000" font-family="sans-serif" font-size="14" lengthAdjust="spacing" textLength="44" x="356.5" y="409.3613">FALSE</text><line style="stroke:#000000;stroke-width:1.0;" x1="351.5" x2="351.5" y1="392.8281" y2="414.4375"/><line style="stroke:#000000;stroke-width:1.0;" x1="217.5" x2="423.5" y1="414.4375" y2="414.4375"/><text fill="#000000" font-family="sans-serif" font-size="14" font-weight="bold" lengthAdjust="spacing" textLength="83" x="222.5" y="430.9707">RoleIDCode</text><text fill="#000000" font-family="sans-serif" font-size="14" lengthAdjust="spacing" textLength="12" x="356.5" y="430.9707">   </text><line style="stroke:#000000;stroke-width:1.0;" x1="351.5" x2="351.5" y1="414.4375" y2="436.0469"/><rect fill="none" height="108.0469" rx="5" ry="5" style="stroke:#000000;stroke-width:1.5;" width="206" x="217.5" y="328"/><rect fill="#F1F1F1" height="21.6094" rx="5" ry="5" style="stroke:#F1F1F1;stroke-width:1.5;" width="22" x="480" y="414"/><text fill="#000000" font-family="sans-serif" font-size="14" lengthAdjust="spacing" textLength="12" x="485" y="430.5332">   </text><rect fill="none" height="21.6094" rx="5" ry="5" style="stroke:#000000;stroke-width:1.5;" width="22" x="480" y="414"/><rect fill="#F1F1F1" height="21.6094" rx="5" ry="5" style="stroke:#F1F1F1;stroke-width:1.5;" width="293" x="574.5" y="414"/><text fill="#000000" font-family="sans-serif" font-size="14" font-weight="bold" lengthAdjust="spacing" textLength="35" x="579.5" y="430.5332">code</text><text fill="#000000" font-family="sans-serif" font-size="14" lengthAdjust="spacing" textLength="238" x="624.5" y="430.5332">(110151, DCM, Application Launcher)</text><line style="stroke:#000000;stroke-width:1.0;" x1="619.5" x2="619.5" y1="414" y2="435.6094"/><rect fill="none" height="21.6094" rx="5" ry="5" style="stroke:#000000;stroke-width:1.5;" width="293" x="574.5" y="414"/><path d="M491.7583,21 L504.7583,21 C511.9585,21 521.9563,21 533.7346,21 " fill="none" style="stroke:#000000;stroke-width:1.0;stroke-dasharray:3.0,3.0;"/><path d="M533.7346,24.0219 L536.001,21 L533.7346,17.9781 L541.2893,21 L533.7346,24.0219 " fill="#000000" style="stroke:#000000;stroke-width:1.0;"/><ellipse cx="491.7583" cy="21" fill="#000000" rx="3" ry="3" style="stroke:#000000;stroke-width:1.0;"/><path d="M431,21 L444,21 C453.374,21 463.7885,21 472.4714,21 " fill="none" style="stroke:#000000;stroke-width:1.0;stroke-dasharray:3.0,3.0;"/><path d="M472.4714,24.0815 L474.7825,21 L472.4714,17.9185 L480.1751,21 L472.4714,24.0815 " fill="#000000" style="stroke:#000000;stroke-width:1.0;"/><ellipse cx="431" cy="21" fill="#000000" rx="3" ry="3" style="stroke:#000000;stroke-width:1.0;"/><path d="M491.7583,108 L504.7583,108 C520.6,108 549.9842,108 582.0781,108 " fill="none" style="stroke:#000000;stroke-width:1.0;stroke-dasharray:3.0,3.0;"/><path d="M582.0781,111.1062 L584.4077,108 L582.0781,104.8938 L589.8435,108 L582.0781,111.1062 " fill="#000000" style="stroke:#000000;stroke-width:1.0;"/><ellipse cx="491.7583" cy="108" fill="#000000" rx="3" ry="3" style="stroke:#000000;stroke-width:1.0;"/><path d="M431,108 L444,108 C453.374,108 463.7885,108 472.4714,108 " fill="none" style="stroke:#000000;stroke-width:1.0;stroke-dasharray:3.0,3.0;"/><path d="M472.4714,111.0815 L474.7825,108 L472.4714,104.9185 L480.1751,108 L472.4714,111.0815 " fill="#000000" style="stroke:#000000;stroke-width:1.0;"/><ellipse cx="431" cy="108" fill="#000000" rx="3" ry="3" style="stroke:#000000;stroke-width:1.0;"/><path d="M149,235 L162,235 C186.5855,235 180.2548,210.0162 198,193 C199.4043,191.6534 200.8264,190.3064 202.2641,188.9602 " fill="none" style="stroke:#000000;stroke-width:1.0;stroke-dasharray:3.0,3.0;"/><path d="M204.3389,191.2078 L203.9498,187.4041 L200.1893,186.7126 L207.8831,183.7732 L204.3389,191.2078 " fill="#000000" style="stroke:#000000;stroke-width:1.0;"/><ellipse cx="149" cy="235" fill="#000000" rx="3" ry="3" style="stroke:#000000;stroke-width:1.0;"/><path d="M491.7583,299 L504.7583,299 C523.3586,299 560.6286,299 599.0335,299 " fill="none" style="stroke:#000000;stroke-width:1.0;stroke-dasharray:3.0,3.0;"/><path d="M599.0335,302.0764 L601.3408,299 L599.0335,295.9236 L606.7244,299 L599.0335,302.0764 " fill="#000000" style="stroke:#000000;stroke-width:1.0;"/><ellipse cx="491.7583" cy="299" fill="#000000" rx="3" ry="3" style="stroke:#000000;stroke-width:1.0;"/><path d="M414,299 L427,299 C442.2484,299 459.5246,299 472.3569,299 " fill="none" style="stroke:#000000;stroke-width:1.0;stroke-dasharray:3.0,3.0;"/><path d="M472.3569,302.09 L474.6744,299 L472.3569,295.91 L480.0818,299 L472.3569,302.09 " fill="#000000" style="stroke:#000000;stroke-width:1.0;"/><ellipse cx="414" cy="299" fill="#000000" rx="3" ry="3" style="stroke:#000000;stroke-width:1.0;"/><path d="M149,256 L162,256 C176.9689,256 192.7356,256 208.2797,256 " fill="none" style="stroke:#000000;stroke-width:1.0;stroke-dasharray:3.0,3.0;"/><path d="M208.2797,259.0434 L210.5622,256 L208.2797,252.9566 L215.8881,256 L208.2797,259.0434 " fill="#000000" style="stroke:#000000;stroke-width:1.0;"/><ellipse cx="149" cy="256" fill="#000000" rx="3" ry="3" style="stroke:#000000;stroke-width:1.0;"/><path d="M491.7583,425 L504.7583,425 C518.1017,425 541.0531,425 567.1388,425 " fill="none" style="stroke:#000000;stroke-width:1.0;stroke-dasharray:3.0,3.0;"/><path d="M567.1388,428.1241 L569.4819,425 L567.1388,421.8759 L574.9492,425 L567.1388,428.1241 " fill="#000000" style="stroke:#000000;stroke-width:1.0;"/><ellipse cx="491.7583" cy="425" fill="#000000" rx="3" ry="3" style="stroke:#000000;stroke-width:1.0;"/><path d="M412,425 L425,425 C441.0622,425 459.3066,425 472.6175,425 " fill="none" style="stroke:#000000;stroke-width:1.0;stroke-dasharray:3.0,3.0;"/><path d="M472.6175,428.0347 L474.8935,425 L472.6175,421.9653 L480.2043,425 L472.6175,428.0347 " fill="#000000" style="stroke:#000000;stroke-width:1.0;"/><ellipse cx="412" cy="425" fill="#000000" rx="3" ry="3" style="stroke:#000000;stroke-width:1.0;"/><path d="M149,279 L162,279 C185.9176,279 179.0662,304.3863 198,319 C202.2813,322.3044 206.7619,325.518 211.373,328.6308 " fill="none" style="stroke:#000000;stroke-width:1.0;stroke-dasharray:3.0,3.0;"/><path d="M209.7004,331.1757 L213.2816,329.8852 L213.0455,326.086 L217.7351,332.8122 L209.7004,331.1757 " fill="#000000" style="stroke:#000000;stroke-width:1.0;"/><ellipse cx="149" cy="279" fill="#000000" rx="3" ry="3" style="stroke:#000000;stroke-width:1.0;"/><!--MD5=[cb7286373e8755f90e82cb5ad85859f3]
@startjson
{
	"event": {
	   "eventID" : [
	       { "CodedValueType" : "(110100, DCM, Application Activity)"}
	       ],
	   "EventActionCode": "C",
	   "EventDateTime" : "date-time",
	   "EventOutcomeIndicator": "0",
	   "EventTypeCode" : [
	   	{ "code" : "(110120, DCM, Application Start)"}
		],
	   "traceID" : "asdf",
	   "parentID" : "lkjl",
	   "childID" : "huh"
	   },
	"ActiveParticipant" : {
	   "UserID" : "thisuser",
	   "AlternativeUserID" : "theotherID",
	   "Username" : "if known",
	   "UserIsRequestor" : "TRUE",
	   "RoleIDCode" : [
	   	{ "code" : "(110150, DCM, Application)"}
		]
	   },
	"ActiveParticipant" : {
	   "UserID" : "thatuser",
	   "AlternativeUserID" : "anotherID",
	   "Username" : "if known",
	   "UserIsRequestor" : "FALSE",
	   "RoleIDCode" : [
	   	{ "code" : "(110151, DCM, Application Launcher)"}
		]	   
	   }
}
@endjson

PlantUML version 1.2022.8(Sun Sep 25 05:00:33 EDT 2022)
(GPL source distribution)
Java Runtime: Java(TM) SE Runtime Environment
JVM: Java HotSpot(TM) Client VM
Default Encoding: Cp1252
Language: en
Country: US
--></g></svg>