<?xml version="1.0" encoding="UTF-8" standalone="no"?><svg xmlns="http://www.w3.org/2000/svg" xmlns:xlink="http://www.w3.org/1999/xlink" contentStyleType="text/css" height="487px" preserveAspectRatio="none" style="width:1066px;height:487px;background:#FFFFFF;" version="1.1" viewBox="0 0 1066 487" width="1066px" zoomAndPan="magnify"><defs/><g><rect fill="#F1F1F1" height="86.4375" rx="5" ry="5" style="stroke:#F1F1F1;stroke-width:1.5;" width="268" x="10" y="211"/><text fill="#000000" font-family="sans-serif" font-size="14" font-weight="bold" lengthAdjust="spacing" textLength="41" x="15" y="227.5332">event</text><text fill="#000000" font-family="sans-serif" font-size="14" lengthAdjust="spacing" textLength="12" x="261" y="227.5332">   </text><line style="stroke:#000000;stroke-width:1.0;" x1="256" x2="256" y1="211" y2="232.6094"/><line style="stroke:#000000;stroke-width:1.0;" x1="10" x2="278" y1="232.6094" y2="232.6094"/><text fill="#000000" font-family="sans-serif" font-size="14" font-weight="bold" lengthAdjust="spacing" textLength="191" x="15" y="249.1426">ActiveParticipant - the user</text><text fill="#000000" font-family="sans-serif" font-size="14" lengthAdjust="spacing" textLength="12" x="261" y="249.1426">   </text><line style="stroke:#000000;stroke-width:1.0;" x1="256" x2="256" y1="232.6094" y2="254.2188"/><line style="stroke:#000000;stroke-width:1.0;" x1="10" x2="278" y1="254.2188" y2="254.2188"/><text fill="#000000" font-family="sans-serif" font-size="14" font-weight="bold" lengthAdjust="spacing" textLength="236" x="15" y="270.752">ActiveParticipant - the application</text><text fill="#000000" font-family="sans-serif" font-size="14" lengthAdjust="spacing" textLength="12" x="261" y="270.752">   </text><line style="stroke:#000000;stroke-width:1.0;" x1="256" x2="256" y1="254.2188" y2="275.8281"/><line style="stroke:#000000;stroke-width:1.0;" x1="10" x2="278" y1="275.8281" y2="275.8281"/><text fill="#000000" font-family="sans-serif" font-size="14" font-weight="bold" lengthAdjust="spacing" textLength="235" x="15" y="292.3613">ParticipatingObject - the audit log</text><text fill="#000000" font-family="sans-serif" font-size="14" lengthAdjust="spacing" textLength="12" x="261" y="292.3613">   </text><line style="stroke:#000000;stroke-width:1.0;" x1="256" x2="256" y1="275.8281" y2="297.4375"/><rect fill="none" height="86.4375" rx="5" ry="5" style="stroke:#000000;stroke-width:1.5;" width="268" x="10" y="211"/><rect fill="#F1F1F1" height="108.0469" rx="5" ry="5" style="stroke:#F1F1F1;stroke-width:1.5;" width="245" x="374" y="11"/><text fill="#000000" font-family="sans-serif" font-size="14" font-weight="bold" lengthAdjust="spacing" textLength="55" x="379" y="27.5332">eventID</text><text fill="#000000" font-family="sans-serif" font-size="14" lengthAdjust="spacing" textLength="12" x="555" y="27.5332">   </text><line style="stroke:#000000;stroke-width:1.0;" x1="550" x2="550" y1="11" y2="32.6094"/><line style="stroke:#000000;stroke-width:1.0;" x1="374" x2="619" y1="32.6094" y2="32.6094"/><text fill="#000000" font-family="sans-serif" font-size="14" font-weight="bold" lengthAdjust="spacing" textLength="122" x="379" y="49.1426">EventActionCode</text><text fill="#000000" font-family="sans-serif" font-size="14" lengthAdjust="spacing" textLength="10" x="555" y="49.1426">R</text><line style="stroke:#000000;stroke-width:1.0;" x1="550" x2="550" y1="32.6094" y2="54.2188"/><line style="stroke:#000000;stroke-width:1.0;" x1="374" x2="619" y1="54.2188" y2="54.2188"/><text fill="#000000" font-family="sans-serif" font-size="14" font-weight="bold" lengthAdjust="spacing" textLength="106" x="379" y="70.752">EventDateTime</text><text fill="#000000" font-family="sans-serif" font-size="14" lengthAdjust="spacing" textLength="59" x="555" y="70.752">date-time</text><line style="stroke:#000000;stroke-width:1.0;" x1="550" x2="550" y1="54.2188" y2="75.8281"/><line style="stroke:#000000;stroke-width:1.0;" x1="374" x2="619" y1="75.8281" y2="75.8281"/><text fill="#000000" font-family="sans-serif" font-size="14" font-weight="bold" lengthAdjust="spacing" textLength="166" x="379" y="92.3613">EventOutcomeIndicator</text><text fill="#000000" font-family="sans-serif" font-size="14" lengthAdjust="spacing" textLength="8" x="555" y="92.3613">0</text><line style="stroke:#000000;stroke-width:1.0;" x1="550" x2="550" y1="75.8281" y2="97.4375"/><line style="stroke:#000000;stroke-width:1.0;" x1="374" x2="619" y1="97.4375" y2="97.4375"/><text fill="#000000" font-family="sans-serif" font-size="14" font-weight="bold" lengthAdjust="spacing" textLength="111" x="379" y="113.9707">EventTypeCode</text><text fill="#000000" font-family="sans-serif" font-size="14" lengthAdjust="spacing" textLength="12" x="555" y="113.9707">   </text><line style="stroke:#000000;stroke-width:1.0;" x1="550" x2="550" y1="97.4375" y2="119.0469"/><rect fill="none" height="108.0469" rx="5" ry="5" style="stroke:#000000;stroke-width:1.5;" width="245" x="374" y="11"/><rect fill="#F1F1F1" height="21.6094" rx="5" ry="5" style="stroke:#F1F1F1;stroke-width:1.5;" width="339" x="715" y="10"/><text fill="#000000" font-family="sans-serif" font-size="14" font-weight="bold" lengthAdjust="spacing" textLength="118" x="720" y="26.5332">CodedValueType</text><text fill="#000000" font-family="sans-serif" font-size="14" lengthAdjust="spacing" textLength="201" x="848" y="26.5332">(110101, DCM, Audit Log Used)</text><line style="stroke:#000000;stroke-width:1.0;" x1="843" x2="843" y1="10" y2="31.6094"/><rect fill="none" height="21.6094" rx="5" ry="5" style="stroke:#000000;stroke-width:1.5;" width="339" x="715" y="10"/><rect fill="#F1F1F1" height="21.6094" rx="5" ry="5" style="stroke:#F1F1F1;stroke-width:1.5;" width="263" x="753" y="97"/><text fill="#000000" font-family="sans-serif" font-size="14" font-weight="bold" lengthAdjust="spacing" textLength="35" x="758" y="113.5332">code</text><text fill="#000000" font-family="sans-serif" font-size="14" lengthAdjust="spacing" textLength="208" x="803" y="113.5332">(110120, DCM, Application Start)</text><line style="stroke:#000000;stroke-width:1.0;" x1="798" x2="798" y1="97" y2="118.6094"/><rect fill="none" height="21.6094" rx="5" ry="5" style="stroke:#000000;stroke-width:1.5;" width="263" x="753" y="97"/><rect fill="#F1F1F1" height="108.0469" rx="5" ry="5" style="stroke:#F1F1F1;stroke-width:1.5;" width="210" x="391.5" y="137"/><text fill="#000000" font-family="sans-serif" font-size="14" font-weight="bold" lengthAdjust="spacing" textLength="47" x="396.5" y="153.5332">UserID</text><text fill="#000000" font-family="sans-serif" font-size="14" lengthAdjust="spacing" textLength="50" x="530.5" y="153.5332">thisuser</text><line style="stroke:#000000;stroke-width:1.0;" x1="525.5" x2="525.5" y1="137" y2="158.6094"/><line style="stroke:#000000;stroke-width:1.0;" x1="391.5" x2="601.5" y1="158.6094" y2="158.6094"/><text fill="#000000" font-family="sans-serif" font-size="14" font-weight="bold" lengthAdjust="spacing" textLength="124" x="396.5" y="175.1426">AlternativeUserID</text><text fill="#000000" font-family="sans-serif" font-size="14" lengthAdjust="spacing" textLength="66" x="530.5" y="175.1426">theotherID</text><line style="stroke:#000000;stroke-width:1.0;" x1="525.5" x2="525.5" y1="158.6094" y2="180.2188"/><line style="stroke:#000000;stroke-width:1.0;" x1="391.5" x2="601.5" y1="180.2188" y2="180.2188"/><text fill="#000000" font-family="sans-serif" font-size="14" font-weight="bold" lengthAdjust="spacing" textLength="71" x="396.5" y="196.752">Username</text><text fill="#000000" font-family="sans-serif" font-size="14" lengthAdjust="spacing" textLength="51" x="530.5" y="196.752">if known</text><line style="stroke:#000000;stroke-width:1.0;" x1="525.5" x2="525.5" y1="180.2188" y2="201.8281"/><line style="stroke:#000000;stroke-width:1.0;" x1="391.5" x2="601.5" y1="201.8281" y2="201.8281"/><text fill="#000000" font-family="sans-serif" font-size="14" font-weight="bold" lengthAdjust="spacing" textLength="119" x="396.5" y="218.3613">UserIsRequestor</text><text fill="#000000" font-family="sans-serif" font-size="14" lengthAdjust="spacing" textLength="37" x="530.5" y="218.3613">TRUE</text><line style="stroke:#000000;stroke-width:1.0;" x1="525.5" x2="525.5" y1="201.8281" y2="223.4375"/><line style="stroke:#000000;stroke-width:1.0;" x1="391.5" x2="601.5" y1="223.4375" y2="223.4375"/><text fill="#000000" font-family="sans-serif" font-size="14" font-weight="bold" lengthAdjust="spacing" textLength="83" x="396.5" y="239.9707">RoleIDCode</text><text fill="#000000" font-family="sans-serif" font-size="14" lengthAdjust="spacing" textLength="12" x="530.5" y="239.9707">   </text><line style="stroke:#000000;stroke-width:1.0;" x1="525.5" x2="525.5" y1="223.4375" y2="245.0469"/><rect fill="none" height="108.0469" rx="5" ry="5" style="stroke:#000000;stroke-width:1.5;" width="210" x="391.5" y="137"/><rect fill="#F1F1F1" height="21.6094" rx="5" ry="5" style="stroke:#F1F1F1;stroke-width:1.5;" width="312" x="728.5" y="223"/><text fill="#000000" font-family="sans-serif" font-size="14" font-weight="bold" lengthAdjust="spacing" textLength="35" x="733.5" y="239.5332">code</text><text fill="#000000" font-family="sans-serif" font-size="14" lengthAdjust="spacing" textLength="257" x="778.5" y="239.5332">unspecified, code that means the person</text><line style="stroke:#000000;stroke-width:1.0;" x1="773.5" x2="773.5" y1="223" y2="244.6094"/><rect fill="none" height="21.6094" rx="5" ry="5" style="stroke:#000000;stroke-width:1.5;" width="312" x="728.5" y="223"/><rect fill="#F1F1F1" height="108.0469" rx="5" ry="5" style="stroke:#F1F1F1;stroke-width:1.5;" width="206" x="393.5" y="263"/><text fill="#000000" font-family="sans-serif" font-size="14" font-weight="bold" lengthAdjust="spacing" textLength="47" x="398.5" y="279.5332">UserID</text><text fill="#000000" font-family="sans-serif" font-size="14" lengthAdjust="spacing" textLength="52" x="532.5" y="279.5332">thatuser</text><line style="stroke:#000000;stroke-width:1.0;" x1="527.5" x2="527.5" y1="263" y2="284.6094"/><line style="stroke:#000000;stroke-width:1.0;" x1="393.5" x2="599.5" y1="284.6094" y2="284.6094"/><text fill="#000000" font-family="sans-serif" font-size="14" font-weight="bold" lengthAdjust="spacing" textLength="124" x="398.5" y="301.1426">AlternativeUserID</text><text fill="#000000" font-family="sans-serif" font-size="14" lengthAdjust="spacing" textLength="62" x="532.5" y="301.1426">anotherID</text><line style="stroke:#000000;stroke-width:1.0;" x1="527.5" x2="527.5" y1="284.6094" y2="306.2188"/><line style="stroke:#000000;stroke-width:1.0;" x1="393.5" x2="599.5" y1="306.2188" y2="306.2188"/><text fill="#000000" font-family="sans-serif" font-size="14" font-weight="bold" lengthAdjust="spacing" textLength="71" x="398.5" y="322.752">Username</text><text fill="#000000" font-family="sans-serif" font-size="14" lengthAdjust="spacing" textLength="51" x="532.5" y="322.752">if known</text><line style="stroke:#000000;stroke-width:1.0;" x1="527.5" x2="527.5" y1="306.2188" y2="327.8281"/><line style="stroke:#000000;stroke-width:1.0;" x1="393.5" x2="599.5" y1="327.8281" y2="327.8281"/><text fill="#000000" font-family="sans-serif" font-size="14" font-weight="bold" lengthAdjust="spacing" textLength="119" x="398.5" y="344.3613">UserIsRequestor</text><text fill="#000000" font-family="sans-serif" font-size="14" lengthAdjust="spacing" textLength="44" x="532.5" y="344.3613">FALSE</text><line style="stroke:#000000;stroke-width:1.0;" x1="527.5" x2="527.5" y1="327.8281" y2="349.4375"/><line style="stroke:#000000;stroke-width:1.0;" x1="393.5" x2="599.5" y1="349.4375" y2="349.4375"/><text fill="#000000" font-family="sans-serif" font-size="14" font-weight="bold" lengthAdjust="spacing" textLength="83" x="398.5" y="365.9707">RoleIDCode</text><text fill="#000000" font-family="sans-serif" font-size="14" lengthAdjust="spacing" textLength="12" x="532.5" y="365.9707">   </text><line style="stroke:#000000;stroke-width:1.0;" x1="527.5" x2="527.5" y1="349.4375" y2="371.0469"/><rect fill="none" height="108.0469" rx="5" ry="5" style="stroke:#000000;stroke-width:1.5;" width="206" x="393.5" y="263"/><rect fill="#F1F1F1" height="21.6094" rx="5" ry="5" style="stroke:#F1F1F1;stroke-width:1.5;" width="319" x="725" y="349"/><text fill="#000000" font-family="sans-serif" font-size="14" font-weight="bold" lengthAdjust="spacing" textLength="35" x="730" y="365.5332">code</text><text fill="#000000" font-family="sans-serif" font-size="14" lengthAdjust="spacing" textLength="264" x="775" y="365.5332">(unspecific, code that means the process)</text><line style="stroke:#000000;stroke-width:1.0;" x1="770" x2="770" y1="349" y2="370.6094"/><rect fill="none" height="21.6094" rx="5" ry="5" style="stroke:#000000;stroke-width:1.5;" width="319" x="725" y="349"/><rect fill="#F1F1F1" height="86.4375" rx="5" ry="5" style="stroke:#F1F1F1;stroke-width:1.5;" width="363" x="315" y="389"/><text fill="#000000" font-family="sans-serif" font-size="14" font-weight="bold" lengthAdjust="spacing" textLength="191" x="320" y="405.5332">ParticipantObjectTypeCode</text><text fill="#000000" font-family="sans-serif" font-size="14" lengthAdjust="spacing" textLength="8" x="553" y="405.5332">2</text><line style="stroke:#000000;stroke-width:1.0;" x1="548" x2="548" y1="389" y2="410.6094"/><line style="stroke:#000000;stroke-width:1.0;" x1="315" x2="678" y1="410.6094" y2="410.6094"/><text fill="#000000" font-family="sans-serif" font-size="14" font-weight="bold" lengthAdjust="spacing" textLength="223" x="320" y="427.1426">ParticipantObjectTypeCodeRole</text><text fill="#000000" font-family="sans-serif" font-size="14" lengthAdjust="spacing" textLength="16" x="553" y="427.1426">13</text><line style="stroke:#000000;stroke-width:1.0;" x1="548" x2="548" y1="410.6094" y2="432.2188"/><line style="stroke:#000000;stroke-width:1.0;" x1="315" x2="678" y1="432.2188" y2="432.2188"/><text fill="#000000" font-family="sans-serif" font-size="14" font-weight="bold" lengthAdjust="spacing" textLength="205" x="320" y="448.752">ParticipantObjectIDTypeCode</text><text fill="#000000" font-family="sans-serif" font-size="14" lengthAdjust="spacing" textLength="16" x="553" y="448.752">12</text><line style="stroke:#000000;stroke-width:1.0;" x1="548" x2="548" y1="432.2188" y2="453.8281"/><line style="stroke:#000000;stroke-width:1.0;" x1="315" x2="678" y1="453.8281" y2="453.8281"/><text fill="#000000" font-family="sans-serif" font-size="14" font-weight="bold" lengthAdjust="spacing" textLength="135" x="320" y="470.3613">ParticipantObjectID</text><text fill="#000000" font-family="sans-serif" font-size="14" lengthAdjust="spacing" textLength="120" x="553" y="470.3613">URI of the audit log</text><line style="stroke:#000000;stroke-width:1.0;" x1="548" x2="548" y1="453.8281" y2="475.4375"/><rect fill="none" height="86.4375" rx="5" ry="5" style="stroke:#000000;stroke-width:1.5;" width="363" x="315" y="389"/><path d="M608,21 L621,21 C648.9777,21 678.6296,21 707.5513,21 " fill="none" style="stroke:#000000;stroke-width:1.0;stroke-dasharray:3.0,3.0;"/><path d="M707.5513,24.0937 L709.8716,21 L707.5513,17.9063 L715.2856,21 L707.5513,24.0937 " fill="#000000" style="stroke:#000000;stroke-width:1.0;"/><ellipse cx="608" cy="21" fill="#000000" rx="3" ry="3" style="stroke:#000000;stroke-width:1.0;"/><path d="M608,108 L621,108 C661.4287,108 705.3532,108 745.5189,108 " fill="none" style="stroke:#000000;stroke-width:1.0;stroke-dasharray:3.0,3.0;"/><path d="M745.5189,111.0869 L747.834,108 L745.5189,104.9131 L753.236,108 L745.5189,111.0869 " fill="#000000" style="stroke:#000000;stroke-width:1.0;"/><ellipse cx="608" cy="108" fill="#000000" rx="3" ry="3" style="stroke:#000000;stroke-width:1.0;"/><path d="M266,221 L279,221 C323.3221,221 283.1255,158.797 315,128 C329.8113,113.6894 348.0418,102.616 367.1723,94.051 " fill="none" style="stroke:#000000;stroke-width:1.0;stroke-dasharray:3.0,3.0;"/><path d="M368.3896,96.8847 L369.2975,93.138 L365.9549,91.2174 L374.2564,91.0076 L368.3896,96.8847 " fill="#000000" style="stroke:#000000;stroke-width:1.0;"/><ellipse cx="266" cy="221" fill="#000000" rx="3" ry="3" style="stroke:#000000;stroke-width:1.0;"/><path d="M590,234 L603,234 C641.1893,234 682.298,234 720.9698,234 " fill="none" style="stroke:#000000;stroke-width:1.0;stroke-dasharray:3.0,3.0;"/><path d="M720.9698,237.0801 L723.2799,234 L720.9698,230.9199 L728.6701,234 L720.9698,237.0801 " fill="#000000" style="stroke:#000000;stroke-width:1.0;"/><ellipse cx="590" cy="234" fill="#000000" rx="3" ry="3" style="stroke:#000000;stroke-width:1.0;"/><path d="M266,243 L279,243 C313.7557,243 350.8019,236.6137 384.2647,228.3171 " fill="none" style="stroke:#000000;stroke-width:1.0;stroke-dasharray:3.0,3.0;"/><path d="M385.03,231.3285 L386.5232,227.7432 L383.4994,225.3058 L391.7931,226.4039 L385.03,231.3285 " fill="#000000" style="stroke:#000000;stroke-width:1.0;"/><ellipse cx="266" cy="243" fill="#000000" rx="3" ry="3" style="stroke:#000000;stroke-width:1.0;"/><path d="M588,360 L601,360 C638.7702,360 679.3759,360 717.7082,360 " fill="none" style="stroke:#000000;stroke-width:1.0;stroke-dasharray:3.0,3.0;"/><path d="M717.7082,363.0539 L719.9986,360 L717.7082,356.9461 L725.3428,360 L717.7082,363.0539 " fill="#000000" style="stroke:#000000;stroke-width:1.0;"/><ellipse cx="588" cy="360" fill="#000000" rx="3" ry="3" style="stroke:#000000;stroke-width:1.0;"/><path d="M266,265 L279,265 C314.476,265 352.3385,271.6538 386.3406,280.2011 " fill="none" style="stroke:#000000;stroke-width:1.0;stroke-dasharray:3.0,3.0;"/><path d="M385.5527,283.2595 L388.6344,280.792 L387.1285,277.1428 L393.9865,282.1709 L385.5527,283.2595 " fill="#000000" style="stroke:#000000;stroke-width:1.0;"/><ellipse cx="266" cy="265" fill="#000000" rx="3" ry="3" style="stroke:#000000;stroke-width:1.0;"/><path d="M266,286 L279,286 C323.7368,286 282.0359,349.7552 315,380 C316.4756,381.3538 317.9841,382.6727 319.5233,383.9574 " fill="none" style="stroke:#000000;stroke-width:1.0;stroke-dasharray:3.0,3.0;"/><path d="M317.6081,386.3907 L321.3483,385.3938 L321.4385,381.5241 L325.6065,388.7454 L317.6081,386.3907 " fill="#000000" style="stroke:#000000;stroke-width:1.0;"/><ellipse cx="266" cy="286" fill="#000000" rx="3" ry="3" style="stroke:#000000;stroke-width:1.0;"/><!--MD5=[ae18f501bd6c4324ef496a971460fca7]
@startjson
{
	"event": {
	   "eventID" : { "CodedValueType" : "(110101, DCM, Audit Log Used)"},
	   "EventActionCode": "R",
	   "EventDateTime" : "date-time",
	   "EventOutcomeIndicator": "0",
	   "EventTypeCode" : { "code" : "(110120, DCM, Application Start)"}
	   },
	"ActiveParticipant - the user" : {
	   "UserID" : "thisuser",
	   "AlternativeUserID" : "theotherID",
	   "Username" : "if known",
	   "UserIsRequestor" : "TRUE",
	   "RoleIDCode" : { "code" : "unspecified, code that means the person"}
	   },
	"ActiveParticipant - the application" : {
	   "UserID" : "thatuser",
	   "AlternativeUserID" : "anotherID",
	   "Username" : "if known",
	   "UserIsRequestor" : "FALSE",
	   "RoleIDCode" : { "code" : "(unspecific, code that means the process)"}	   
	   },
	"ParticipatingObject - the audit log" : {
	   "ParticipantObjectTypeCode" : 2,
	   "ParticipantObjectTypeCodeRole" : 13,
	   "ParticipantObjectIDTypeCode" : 12,
	   "ParticipantObjectID" : "URI of the audit log"
	   }	  
}
@endjson

PlantUML version 1.2022.8(Sun Sep 25 05:00:33 EDT 2022)
(GPL source distribution)
Java Runtime: Java(TM) SE Runtime Environment
JVM: Java HotSpot(TM) Client VM
Default Encoding: Cp1252
Language: en
Country: US
--></g></svg>