<?xml version="1.0" encoding="UTF-8" standalone="no"?><svg xmlns="http://www.w3.org/2000/svg" xmlns:xlink="http://www.w3.org/1999/xlink" contentStyleType="text/css" height="552px" preserveAspectRatio="none" style="width:1025px;height:552px;background:#FFFFFF;" version="1.1" viewBox="0 0 1025 552" width="1025px" zoomAndPan="magnify"><defs/><g><rect fill="#F1F1F1" height="86.4375" rx="5" ry="5" style="stroke:#F1F1F1;stroke-width:1.5;" width="166" x="10" y="276"/><text fill="#000000" font-family="sans-serif" font-size="14" font-weight="bold" lengthAdjust="spacing" textLength="41" x="15" y="292.5332">event</text><text fill="#000000" font-family="sans-serif" font-size="14" lengthAdjust="spacing" textLength="12" x="159" y="292.5332">   </text><line style="stroke:#000000;stroke-width:1.0;" x1="154" x2="154" y1="276" y2="297.6094"/><line style="stroke:#000000;stroke-width:1.0;" x1="10" x2="176" y1="297.6094" y2="297.6094"/><text fill="#000000" font-family="sans-serif" font-size="14" font-weight="bold" lengthAdjust="spacing" textLength="119" x="15" y="314.1426">ActiveParticipant</text><text fill="#000000" font-family="sans-serif" font-size="14" lengthAdjust="spacing" textLength="12" x="159" y="314.1426">   </text><line style="stroke:#000000;stroke-width:1.0;" x1="154" x2="154" y1="297.6094" y2="319.2188"/><line style="stroke:#000000;stroke-width:1.0;" x1="10" x2="176" y1="319.2188" y2="319.2188"/><text fill="#000000" font-family="sans-serif" font-size="14" font-weight="bold" lengthAdjust="spacing" textLength="119" x="15" y="335.752">ActiveParticipant</text><text fill="#000000" font-family="sans-serif" font-size="14" lengthAdjust="spacing" textLength="12" x="159" y="335.752">   </text><line style="stroke:#000000;stroke-width:1.0;" x1="154" x2="154" y1="319.2188" y2="340.8281"/><line style="stroke:#000000;stroke-width:1.0;" x1="10" x2="176" y1="340.8281" y2="340.8281"/><text fill="#000000" font-family="sans-serif" font-size="14" font-weight="bold" lengthAdjust="spacing" textLength="134" x="15" y="357.3613">ParticipatingObject</text><text fill="#000000" font-family="sans-serif" font-size="14" lengthAdjust="spacing" textLength="12" x="159" y="357.3613">   </text><line style="stroke:#000000;stroke-width:1.0;" x1="154" x2="154" y1="340.8281" y2="362.4375"/><rect fill="none" height="86.4375" rx="5" ry="5" style="stroke:#000000;stroke-width:1.5;" width="166" x="10" y="276"/><rect fill="#F1F1F1" height="172.875" rx="5" ry="5" style="stroke:#F1F1F1;stroke-width:1.5;" width="245" x="272" y="10.5"/><text fill="#000000" font-family="sans-serif" font-size="14" font-weight="bold" lengthAdjust="spacing" textLength="55" x="277" y="27.0332">eventID</text><text fill="#000000" font-family="sans-serif" font-size="14" lengthAdjust="spacing" textLength="12" x="453" y="27.0332">   </text><line style="stroke:#000000;stroke-width:1.0;" x1="448" x2="448" y1="10.5" y2="32.1094"/><line style="stroke:#000000;stroke-width:1.0;" x1="272" x2="517" y1="32.1094" y2="32.1094"/><text fill="#000000" font-family="sans-serif" font-size="14" font-weight="bold" lengthAdjust="spacing" textLength="122" x="277" y="48.6426">EventActionCode</text><text fill="#000000" font-family="sans-serif" font-size="14" lengthAdjust="spacing" textLength="10" x="453" y="48.6426">R</text><line style="stroke:#000000;stroke-width:1.0;" x1="448" x2="448" y1="32.1094" y2="53.7188"/><line style="stroke:#000000;stroke-width:1.0;" x1="272" x2="517" y1="53.7188" y2="53.7188"/><text fill="#000000" font-family="sans-serif" font-size="14" font-weight="bold" lengthAdjust="spacing" textLength="106" x="277" y="70.252">EventDateTime</text><text fill="#000000" font-family="sans-serif" font-size="14" lengthAdjust="spacing" textLength="59" x="453" y="70.252">date-time</text><line style="stroke:#000000;stroke-width:1.0;" x1="448" x2="448" y1="53.7188" y2="75.3281"/><line style="stroke:#000000;stroke-width:1.0;" x1="272" x2="517" y1="75.3281" y2="75.3281"/><text fill="#000000" font-family="sans-serif" font-size="14" font-weight="bold" lengthAdjust="spacing" textLength="166" x="277" y="91.8613">EventOutcomeIndicator</text><text fill="#000000" font-family="sans-serif" font-size="14" lengthAdjust="spacing" textLength="8" x="453" y="91.8613">0</text><line style="stroke:#000000;stroke-width:1.0;" x1="448" x2="448" y1="75.3281" y2="96.9375"/><line style="stroke:#000000;stroke-width:1.0;" x1="272" x2="517" y1="96.9375" y2="96.9375"/><text fill="#000000" font-family="sans-serif" font-size="14" font-weight="bold" lengthAdjust="spacing" textLength="111" x="277" y="113.4707">EventTypeCode</text><text fill="#000000" font-family="sans-serif" font-size="14" lengthAdjust="spacing" textLength="12" x="453" y="113.4707">   </text><line style="stroke:#000000;stroke-width:1.0;" x1="448" x2="448" y1="96.9375" y2="118.5469"/><line style="stroke:#000000;stroke-width:1.0;" x1="272" x2="517" y1="118.5469" y2="118.5469"/><text fill="#000000" font-family="sans-serif" font-size="14" font-weight="bold" lengthAdjust="spacing" textLength="50" x="277" y="135.0801">traceID</text><text fill="#000000" font-family="sans-serif" font-size="14" lengthAdjust="spacing" textLength="27" x="453" y="135.0801">asdf</text><line style="stroke:#000000;stroke-width:1.0;" x1="448" x2="448" y1="118.5469" y2="140.1563"/><line style="stroke:#000000;stroke-width:1.0;" x1="272" x2="517" y1="140.1563" y2="140.1563"/><text fill="#000000" font-family="sans-serif" font-size="14" font-weight="bold" lengthAdjust="spacing" textLength="60" x="277" y="156.6895">parentID</text><text fill="#000000" font-family="sans-serif" font-size="14" lengthAdjust="spacing" textLength="16" x="453" y="156.6895">lkjl</text><line style="stroke:#000000;stroke-width:1.0;" x1="448" x2="448" y1="140.1563" y2="161.7656"/><line style="stroke:#000000;stroke-width:1.0;" x1="272" x2="517" y1="161.7656" y2="161.7656"/><text fill="#000000" font-family="sans-serif" font-size="14" font-weight="bold" lengthAdjust="spacing" textLength="48" x="277" y="178.2988">childID</text><text fill="#000000" font-family="sans-serif" font-size="14" lengthAdjust="spacing" textLength="24" x="453" y="178.2988">huh</text><line style="stroke:#000000;stroke-width:1.0;" x1="448" x2="448" y1="161.7656" y2="183.375"/><rect fill="none" height="172.875" rx="5" ry="5" style="stroke:#000000;stroke-width:1.5;" width="245" x="272" y="10.5"/><rect fill="#F1F1F1" height="21.6094" rx="5" ry="5" style="stroke:#F1F1F1;stroke-width:1.5;" width="22" x="613" y="10"/><text fill="#000000" font-family="sans-serif" font-size="14" lengthAdjust="spacing" textLength="12" x="618" y="26.5332">   </text><rect fill="none" height="21.6094" rx="5" ry="5" style="stroke:#000000;stroke-width:1.5;" width="22" x="613" y="10"/><rect fill="#F1F1F1" height="21.6094" rx="5" ry="5" style="stroke:#F1F1F1;stroke-width:1.5;" width="339" x="674" y="10"/><text fill="#000000" font-family="sans-serif" font-size="14" font-weight="bold" lengthAdjust="spacing" textLength="118" x="679" y="26.5332">CodedValueType</text><text fill="#000000" font-family="sans-serif" font-size="14" lengthAdjust="spacing" textLength="201" x="807" y="26.5332">(110101, DCM, Audit Log Used)</text><line style="stroke:#000000;stroke-width:1.0;" x1="802" x2="802" y1="10" y2="31.6094"/><rect fill="none" height="21.6094" rx="5" ry="5" style="stroke:#000000;stroke-width:1.5;" width="339" x="674" y="10"/><rect fill="#F1F1F1" height="21.6094" rx="5" ry="5" style="stroke:#F1F1F1;stroke-width:1.5;" width="22" x="613" y="97"/><text fill="#000000" font-family="sans-serif" font-size="14" lengthAdjust="spacing" textLength="12" x="618" y="113.5332">   </text><rect fill="none" height="21.6094" rx="5" ry="5" style="stroke:#000000;stroke-width:1.5;" width="22" x="613" y="97"/><rect fill="#F1F1F1" height="21.6094" rx="5" ry="5" style="stroke:#F1F1F1;stroke-width:1.5;" width="263" x="712" y="97"/><text fill="#000000" font-family="sans-serif" font-size="14" font-weight="bold" lengthAdjust="spacing" textLength="35" x="717" y="113.5332">code</text><text fill="#000000" font-family="sans-serif" font-size="14" lengthAdjust="spacing" textLength="208" x="762" y="113.5332">(110120, DCM, Application Start)</text><line style="stroke:#000000;stroke-width:1.0;" x1="757" x2="757" y1="97" y2="118.6094"/><rect fill="none" height="21.6094" rx="5" ry="5" style="stroke:#000000;stroke-width:1.5;" width="263" x="712" y="97"/><rect fill="#F1F1F1" height="108.0469" rx="5" ry="5" style="stroke:#F1F1F1;stroke-width:1.5;" width="210" x="289.5" y="202"/><text fill="#000000" font-family="sans-serif" font-size="14" font-weight="bold" lengthAdjust="spacing" textLength="47" x="294.5" y="218.5332">UserID</text><text fill="#000000" font-family="sans-serif" font-size="14" lengthAdjust="spacing" textLength="50" x="428.5" y="218.5332">thisuser</text><line style="stroke:#000000;stroke-width:1.0;" x1="423.5" x2="423.5" y1="202" y2="223.6094"/><line style="stroke:#000000;stroke-width:1.0;" x1="289.5" x2="499.5" y1="223.6094" y2="223.6094"/><text fill="#000000" font-family="sans-serif" font-size="14" font-weight="bold" lengthAdjust="spacing" textLength="124" x="294.5" y="240.1426">AlternativeUserID</text><text fill="#000000" font-family="sans-serif" font-size="14" lengthAdjust="spacing" textLength="66" x="428.5" y="240.1426">theotherID</text><line style="stroke:#000000;stroke-width:1.0;" x1="423.5" x2="423.5" y1="223.6094" y2="245.2188"/><line style="stroke:#000000;stroke-width:1.0;" x1="289.5" x2="499.5" y1="245.2188" y2="245.2188"/><text fill="#000000" font-family="sans-serif" font-size="14" font-weight="bold" lengthAdjust="spacing" textLength="71" x="294.5" y="261.752">Username</text><text fill="#000000" font-family="sans-serif" font-size="14" lengthAdjust="spacing" textLength="51" x="428.5" y="261.752">if known</text><line style="stroke:#000000;stroke-width:1.0;" x1="423.5" x2="423.5" y1="245.2188" y2="266.8281"/><line style="stroke:#000000;stroke-width:1.0;" x1="289.5" x2="499.5" y1="266.8281" y2="266.8281"/><text fill="#000000" font-family="sans-serif" font-size="14" font-weight="bold" lengthAdjust="spacing" textLength="119" x="294.5" y="283.3613">UserIsRequestor</text><text fill="#000000" font-family="sans-serif" font-size="14" lengthAdjust="spacing" textLength="37" x="428.5" y="283.3613">TRUE</text><line style="stroke:#000000;stroke-width:1.0;" x1="423.5" x2="423.5" y1="266.8281" y2="288.4375"/><line style="stroke:#000000;stroke-width:1.0;" x1="289.5" x2="499.5" y1="288.4375" y2="288.4375"/><text fill="#000000" font-family="sans-serif" font-size="14" font-weight="bold" lengthAdjust="spacing" textLength="83" x="294.5" y="304.9707">RoleIDCode</text><text fill="#000000" font-family="sans-serif" font-size="14" lengthAdjust="spacing" textLength="12" x="428.5" y="304.9707">   </text><line style="stroke:#000000;stroke-width:1.0;" x1="423.5" x2="423.5" y1="288.4375" y2="310.0469"/><rect fill="none" height="108.0469" rx="5" ry="5" style="stroke:#000000;stroke-width:1.5;" width="210" x="289.5" y="202"/><rect fill="#F1F1F1" height="21.6094" rx="5" ry="5" style="stroke:#F1F1F1;stroke-width:1.5;" width="22" x="613" y="288"/><text fill="#000000" font-family="sans-serif" font-size="14" lengthAdjust="spacing" textLength="12" x="618" y="304.5332">   </text><rect fill="none" height="21.6094" rx="5" ry="5" style="stroke:#000000;stroke-width:1.5;" width="22" x="613" y="288"/><rect fill="#F1F1F1" height="21.6094" rx="5" ry="5" style="stroke:#F1F1F1;stroke-width:1.5;" width="312" x="687.5" y="288"/><text fill="#000000" font-family="sans-serif" font-size="14" font-weight="bold" lengthAdjust="spacing" textLength="35" x="692.5" y="304.5332">code</text><text fill="#000000" font-family="sans-serif" font-size="14" lengthAdjust="spacing" textLength="257" x="737.5" y="304.5332">unspecified, code that means the person</text><line style="stroke:#000000;stroke-width:1.0;" x1="732.5" x2="732.5" y1="288" y2="309.6094"/><rect fill="none" height="21.6094" rx="5" ry="5" style="stroke:#000000;stroke-width:1.5;" width="312" x="687.5" y="288"/><rect fill="#F1F1F1" height="108.0469" rx="5" ry="5" style="stroke:#F1F1F1;stroke-width:1.5;" width="206" x="291.5" y="328"/><text fill="#000000" font-family="sans-serif" font-size="14" font-weight="bold" lengthAdjust="spacing" textLength="47" x="296.5" y="344.5332">UserID</text><text fill="#000000" font-family="sans-serif" font-size="14" lengthAdjust="spacing" textLength="52" x="430.5" y="344.5332">thatuser</text><line style="stroke:#000000;stroke-width:1.0;" x1="425.5" x2="425.5" y1="328" y2="349.6094"/><line style="stroke:#000000;stroke-width:1.0;" x1="291.5" x2="497.5" y1="349.6094" y2="349.6094"/><text fill="#000000" font-family="sans-serif" font-size="14" font-weight="bold" lengthAdjust="spacing" textLength="124" x="296.5" y="366.1426">AlternativeUserID</text><text fill="#000000" font-family="sans-serif" font-size="14" lengthAdjust="spacing" textLength="62" x="430.5" y="366.1426">anotherID</text><line style="stroke:#000000;stroke-width:1.0;" x1="425.5" x2="425.5" y1="349.6094" y2="371.2188"/><line style="stroke:#000000;stroke-width:1.0;" x1="291.5" x2="497.5" y1="371.2188" y2="371.2188"/><text fill="#000000" font-family="sans-serif" font-size="14" font-weight="bold" lengthAdjust="spacing" textLength="71" x="296.5" y="387.752">Username</text><text fill="#000000" font-family="sans-serif" font-size="14" lengthAdjust="spacing" textLength="51" x="430.5" y="387.752">if known</text><line style="stroke:#000000;stroke-width:1.0;" x1="425.5" x2="425.5" y1="371.2188" y2="392.8281"/><line style="stroke:#000000;stroke-width:1.0;" x1="291.5" x2="497.5" y1="392.8281" y2="392.8281"/><text fill="#000000" font-family="sans-serif" font-size="14" font-weight="bold" lengthAdjust="spacing" textLength="119" x="296.5" y="409.3613">UserIsRequestor</text><text fill="#000000" font-family="sans-serif" font-size="14" lengthAdjust="spacing" textLength="44" x="430.5" y="409.3613">FALSE</text><line style="stroke:#000000;stroke-width:1.0;" x1="425.5" x2="425.5" y1="392.8281" y2="414.4375"/><line style="stroke:#000000;stroke-width:1.0;" x1="291.5" x2="497.5" y1="414.4375" y2="414.4375"/><text fill="#000000" font-family="sans-serif" font-size="14" font-weight="bold" lengthAdjust="spacing" textLength="83" x="296.5" y="430.9707">RoleIDCode</text><text fill="#000000" font-family="sans-serif" font-size="14" lengthAdjust="spacing" textLength="12" x="430.5" y="430.9707">   </text><line style="stroke:#000000;stroke-width:1.0;" x1="425.5" x2="425.5" y1="414.4375" y2="436.0469"/><rect fill="none" height="108.0469" rx="5" ry="5" style="stroke:#000000;stroke-width:1.5;" width="206" x="291.5" y="328"/><rect fill="#F1F1F1" height="21.6094" rx="5" ry="5" style="stroke:#F1F1F1;stroke-width:1.5;" width="22" x="613" y="414"/><text fill="#000000" font-family="sans-serif" font-size="14" lengthAdjust="spacing" textLength="12" x="618" y="430.5332">   </text><rect fill="none" height="21.6094" rx="5" ry="5" style="stroke:#000000;stroke-width:1.5;" width="22" x="613" y="414"/><rect fill="#F1F1F1" height="21.6094" rx="5" ry="5" style="stroke:#F1F1F1;stroke-width:1.5;" width="319" x="684" y="414"/><text fill="#000000" font-family="sans-serif" font-size="14" font-weight="bold" lengthAdjust="spacing" textLength="35" x="689" y="430.5332">code</text><text fill="#000000" font-family="sans-serif" font-size="14" lengthAdjust="spacing" textLength="264" x="734" y="430.5332">(unspecific, code that means the process)</text><line style="stroke:#000000;stroke-width:1.0;" x1="729" x2="729" y1="414" y2="435.6094"/><rect fill="none" height="21.6094" rx="5" ry="5" style="stroke:#000000;stroke-width:1.5;" width="319" x="684" y="414"/><rect fill="#F1F1F1" height="86.4375" rx="5" ry="5" style="stroke:#F1F1F1;stroke-width:1.5;" width="363" x="213" y="454"/><text fill="#000000" font-family="sans-serif" font-size="14" font-weight="bold" lengthAdjust="spacing" textLength="191" x="218" y="470.5332">ParticipantObjectTypeCode</text><text fill="#000000" font-family="sans-serif" font-size="14" lengthAdjust="spacing" textLength="8" x="451" y="470.5332">2</text><line style="stroke:#000000;stroke-width:1.0;" x1="446" x2="446" y1="454" y2="475.6094"/><line style="stroke:#000000;stroke-width:1.0;" x1="213" x2="576" y1="475.6094" y2="475.6094"/><text fill="#000000" font-family="sans-serif" font-size="14" font-weight="bold" lengthAdjust="spacing" textLength="223" x="218" y="492.1426">ParticipantObjectTypeCodeRole</text><text fill="#000000" font-family="sans-serif" font-size="14" lengthAdjust="spacing" textLength="16" x="451" y="492.1426">13</text><line style="stroke:#000000;stroke-width:1.0;" x1="446" x2="446" y1="475.6094" y2="497.2188"/><line style="stroke:#000000;stroke-width:1.0;" x1="213" x2="576" y1="497.2188" y2="497.2188"/><text fill="#000000" font-family="sans-serif" font-size="14" font-weight="bold" lengthAdjust="spacing" textLength="205" x="218" y="513.752">ParticipantObjectIDTypeCode</text><text fill="#000000" font-family="sans-serif" font-size="14" lengthAdjust="spacing" textLength="12" x="451" y="513.752">   </text><line style="stroke:#000000;stroke-width:1.0;" x1="446" x2="446" y1="497.2188" y2="518.8281"/><line style="stroke:#000000;stroke-width:1.0;" x1="213" x2="576" y1="518.8281" y2="518.8281"/><text fill="#000000" font-family="sans-serif" font-size="14" font-weight="bold" lengthAdjust="spacing" textLength="135" x="218" y="535.3613">ParticipantObjectID</text><text fill="#000000" font-family="sans-serif" font-size="14" lengthAdjust="spacing" textLength="120" x="451" y="535.3613">URI of the audit log</text><line style="stroke:#000000;stroke-width:1.0;" x1="446" x2="446" y1="518.8281" y2="540.4375"/><rect fill="none" height="86.4375" rx="5" ry="5" style="stroke:#000000;stroke-width:1.5;" width="363" x="213" y="454"/><rect fill="#F1F1F1" height="21.6094" rx="5" ry="5" style="stroke:#F1F1F1;stroke-width:1.5;" width="22" x="613" y="497"/><text fill="#000000" font-family="sans-serif" font-size="14" lengthAdjust="spacing" textLength="12" x="618" y="513.5332">   </text><rect fill="none" height="21.6094" rx="5" ry="5" style="stroke:#000000;stroke-width:1.5;" width="22" x="613" y="497"/><rect fill="#F1F1F1" height="21.6094" rx="5" ry="5" style="stroke:#F1F1F1;stroke-width:1.5;" width="186" x="750.5" y="497"/><text fill="#000000" font-family="sans-serif" font-size="14" font-weight="bold" lengthAdjust="spacing" textLength="35" x="755.5" y="513.5332">code</text><text fill="#000000" font-family="sans-serif" font-size="14" lengthAdjust="spacing" textLength="131" x="800.5" y="513.5332">(we, RFC-3881, URI)</text><line style="stroke:#000000;stroke-width:1.0;" x1="795.5" x2="795.5" y1="497" y2="518.6094"/><rect fill="none" height="21.6094" rx="5" ry="5" style="stroke:#000000;stroke-width:1.5;" width="186" x="750.5" y="497"/><path d="M624.5036,21 L637.5036,21 C644.731,21 654.8303,21 666.7094,21 " fill="none" style="stroke:#000000;stroke-width:1.0;stroke-dasharray:3.0,3.0;"/><path d="M666.7094,24.0467 L668.9944,21 L666.7094,17.9533 L674.3261,21 L666.7094,24.0467 " fill="#000000" style="stroke:#000000;stroke-width:1.0;"/><ellipse cx="624.5036" cy="21" fill="#000000" rx="3" ry="3" style="stroke:#000000;stroke-width:1.0;"/><path d="M506,21 L519,21 C549.3988,21 584.7246,21 605.8119,21 " fill="none" style="stroke:#000000;stroke-width:1.0;stroke-dasharray:3.0,3.0;"/><path d="M605.8119,24.04 L608.0919,21 L605.8119,17.96 L613.412,21 L605.8119,24.04 " fill="#000000" style="stroke:#000000;stroke-width:1.0;"/><ellipse cx="506" cy="21" fill="#000000" rx="3" ry="3" style="stroke:#000000;stroke-width:1.0;"/><path d="M624.5036,108 L637.5036,108 C651.6464,108 676.786,108 704.74,108 " fill="none" style="stroke:#000000;stroke-width:1.0;stroke-dasharray:3.0,3.0;"/><path d="M704.74,111.0223 L707.0066,108 L704.74,104.9777 L712.2956,108 L704.74,111.0223 " fill="#000000" style="stroke:#000000;stroke-width:1.0;"/><ellipse cx="624.5036" cy="108" fill="#000000" rx="3" ry="3" style="stroke:#000000;stroke-width:1.0;"/><path d="M506,108 L519,108 C549.3988,108 584.7246,108 605.8119,108 " fill="none" style="stroke:#000000;stroke-width:1.0;stroke-dasharray:3.0,3.0;"/><path d="M605.8119,111.04 L608.0919,108 L605.8119,104.96 L613.412,108 L605.8119,111.04 " fill="#000000" style="stroke:#000000;stroke-width:1.0;"/><ellipse cx="506" cy="108" fill="#000000" rx="3" ry="3" style="stroke:#000000;stroke-width:1.0;"/><path d="M164,286 L177,286 C221.3221,286 183.5675,226.1387 213,193 C227.8551,176.2743 246.3351,161.9727 265.7625,149.9135 " fill="none" style="stroke:#000000;stroke-width:1.0;stroke-dasharray:3.0,3.0;"/><path d="M267.3641,152.5619 L267.7487,148.7124 L264.1609,147.2652 L272.3834,145.9096 L267.3641,152.5619 " fill="#000000" style="stroke:#000000;stroke-width:1.0;"/><ellipse cx="164" cy="286" fill="#000000" rx="3" ry="3" style="stroke:#000000;stroke-width:1.0;"/><path d="M624.5036,299 L637.5036,299 C647.3219,299 662.4403,299 680.121,299 " fill="none" style="stroke:#000000;stroke-width:1.0;stroke-dasharray:3.0,3.0;"/><path d="M680.121,302.0905 L682.4388,299 L680.121,295.9095 L687.8473,299 L680.121,302.0905 " fill="#000000" style="stroke:#000000;stroke-width:1.0;"/><ellipse cx="624.5036" cy="299" fill="#000000" rx="3" ry="3" style="stroke:#000000;stroke-width:1.0;"/><path d="M488,299 L501,299 C538.0167,299 581.2743,299 605.5197,299 " fill="none" style="stroke:#000000;stroke-width:1.0;stroke-dasharray:3.0,3.0;"/><path d="M605.5197,302.0967 L607.8422,299 L605.5197,295.9033 L613.2614,299 L605.5197,302.0967 " fill="#000000" style="stroke:#000000;stroke-width:1.0;"/><ellipse cx="488" cy="299" fill="#000000" rx="3" ry="3" style="stroke:#000000;stroke-width:1.0;"/><path d="M164,308 L177,308 C211.7557,308 248.8019,301.6137 282.2647,293.3171 " fill="none" style="stroke:#000000;stroke-width:1.0;stroke-dasharray:3.0,3.0;"/><path d="M283.03,296.3285 L284.5232,292.7432 L281.4994,290.3058 L289.7931,291.4039 L283.03,296.3285 " fill="#000000" style="stroke:#000000;stroke-width:1.0;"/><ellipse cx="164" cy="308" fill="#000000" rx="3" ry="3" style="stroke:#000000;stroke-width:1.0;"/><path d="M624.5036,425 L637.5036,425 C646.6937,425 660.5272,425 676.7591,425 " fill="none" style="stroke:#000000;stroke-width:1.0;stroke-dasharray:3.0,3.0;"/><path d="M676.7591,428.0474 L679.0447,425 L676.7591,421.9526 L684.3777,425 L676.7591,428.0474 " fill="#000000" style="stroke:#000000;stroke-width:1.0;"/><ellipse cx="624.5036" cy="425" fill="#000000" rx="3" ry="3" style="stroke:#000000;stroke-width:1.0;"/><path d="M486,425 L499,425 C536.9761,425 581.4163,425 605.9145,425 " fill="none" style="stroke:#000000;stroke-width:1.0;stroke-dasharray:3.0,3.0;"/><path d="M605.9145,428.0022 L608.1661,425 L605.9145,421.9978 L613.4199,425 L605.9145,428.0022 " fill="#000000" style="stroke:#000000;stroke-width:1.0;"/><ellipse cx="486" cy="425" fill="#000000" rx="3" ry="3" style="stroke:#000000;stroke-width:1.0;"/><path d="M164,330 L177,330 C212.476,330 250.3385,336.6538 284.3406,345.2011 " fill="none" style="stroke:#000000;stroke-width:1.0;stroke-dasharray:3.0,3.0;"/><path d="M283.5527,348.2595 L286.6344,345.792 L285.1285,342.1428 L291.9865,347.1709 L283.5527,348.2595 " fill="#000000" style="stroke:#000000;stroke-width:1.0;"/><ellipse cx="164" cy="330" fill="#000000" rx="3" ry="3" style="stroke:#000000;stroke-width:1.0;"/><path d="M624.5036,508 L637.5036,508 C658.0023,508 701.6034,508 743.3914,508 " fill="none" style="stroke:#000000;stroke-width:1.0;stroke-dasharray:3.0,3.0;"/><path d="M743.3914,511.0008 L745.642,508 L743.3914,504.9992 L750.8934,508 L743.3914,511.0008 " fill="#000000" style="stroke:#000000;stroke-width:1.0;"/><ellipse cx="624.5036" cy="508" fill="#000000" rx="3" ry="3" style="stroke:#000000;stroke-width:1.0;"/><path d="M564,508 L577,508 C586.374,508 596.7885,508 605.4714,508 " fill="none" style="stroke:#000000;stroke-width:1.0;stroke-dasharray:3.0,3.0;"/><path d="M605.4714,511.0815 L607.7825,508 L605.4714,504.9185 L613.1751,508 L605.4714,511.0815 " fill="#000000" style="stroke:#000000;stroke-width:1.0;"/><ellipse cx="564" cy="508" fill="#000000" rx="3" ry="3" style="stroke:#000000;stroke-width:1.0;"/><path d="M164,351 L177,351 C221.7368,351 180.0359,414.7552 213,445 C214.4756,446.3538 215.9841,447.6727 217.5233,448.9574 " fill="none" style="stroke:#000000;stroke-width:1.0;stroke-dasharray:3.0,3.0;"/><path d="M215.6081,451.3907 L219.3483,450.3938 L219.4385,446.5241 L223.6065,453.7454 L215.6081,451.3907 " fill="#000000" style="stroke:#000000;stroke-width:1.0;"/><ellipse cx="164" cy="351" fill="#000000" rx="3" ry="3" style="stroke:#000000;stroke-width:1.0;"/><!--MD5=[729b5ee3d7144d8b54150769a1fee112]
@startjson
{
	"event": {
	   "eventID" : [
	       { "CodedValueType" : "(110101, DCM, Audit Log Used)"}
	       ],
	   "EventActionCode": "R",
	   "EventDateTime" : "date-time",
	   "EventOutcomeIndicator": "0",
	   "EventTypeCode" : [
	   	{ "code" : "(110120, DCM, Application Start)"}
		],
	   "traceID" : "asdf",
	   "parentID" : "lkjl",
	   "childID" : "huh"
	   },
	"ActiveParticipant" : {
	   "UserID" : "thisuser",
	   "AlternativeUserID" : "theotherID",
	   "Username" : "if known",
	   "UserIsRequestor" : "TRUE",
	   "RoleIDCode" : [
	   	{ "code" : "unspecified, code that means the person"}
		]
	   },
	"ActiveParticipant" : {
	   "UserID" : "thatuser",
	   "AlternativeUserID" : "anotherID",
	   "Username" : "if known",
	   "UserIsRequestor" : "FALSE",
	   "RoleIDCode" : [
	   	{ "code" : "(unspecific, code that means the process)"}
		]	   
	   },
	"ParticipatingObject" : {
	   "ParticipantObjectTypeCode" : 2,
	   "ParticipantObjectTypeCodeRole" : 13,
	   "ParticipantObjectIDTypeCode" : [
	       { "code" : "(we, RFC-3881, URI)"}
	       ],
	   "ParticipantObjectID" : "URI of the audit log"
	   }	  
}
@endjson

PlantUML version 1.2022.8(Sun Sep 25 05:00:33 EDT 2022)
(GPL source distribution)
Java Runtime: Java(TM) SE Runtime Environment
JVM: Java HotSpot(TM) Client VM
Default Encoding: Cp1252
Language: en
Country: US
--></g></svg>