<?xml version="1.0" encoding="UTF-8" standalone="no"?><svg xmlns="http://www.w3.org/2000/svg" xmlns:xlink="http://www.w3.org/1999/xlink" contentStyleType="text/css" height="712px" preserveAspectRatio="none" style="width:1206px;height:712px;background:#FFFFFF;" version="1.1" viewBox="0 0 1206 712" width="1206px" zoomAndPan="magnify"><defs/><g><rect fill="#F1F1F1" height="129.6563" rx="5" ry="5" style="stroke:#F1F1F1;stroke-width:1.5;" width="216" x="10" y="374"/><text fill="#000000" font-family="sans-serif" font-size="14" font-weight="bold" lengthAdjust="spacing" textLength="41" x="15" y="390.5332">event</text><text fill="#000000" font-family="sans-serif" font-size="14" lengthAdjust="spacing" textLength="12" x="209" y="390.5332">   </text><line style="stroke:#000000;stroke-width:1.0;" x1="204" x2="204" y1="374" y2="395.6094"/><line style="stroke:#000000;stroke-width:1.0;" x1="10" x2="226" y1="395.6094" y2="395.6094"/><text fill="#000000" font-family="sans-serif" font-size="14" font-weight="bold" lengthAdjust="spacing" textLength="119" x="15" y="412.1426">ActiveParticipant</text><text fill="#000000" font-family="sans-serif" font-size="14" lengthAdjust="spacing" textLength="12" x="209" y="412.1426">   </text><line style="stroke:#000000;stroke-width:1.0;" x1="204" x2="204" y1="395.6094" y2="417.2188"/><line style="stroke:#000000;stroke-width:1.0;" x1="10" x2="226" y1="417.2188" y2="417.2188"/><text fill="#000000" font-family="sans-serif" font-size="14" font-weight="bold" lengthAdjust="spacing" textLength="119" x="15" y="433.752">ActiveParticipant</text><text fill="#000000" font-family="sans-serif" font-size="14" lengthAdjust="spacing" textLength="12" x="209" y="433.752">   </text><line style="stroke:#000000;stroke-width:1.0;" x1="204" x2="204" y1="417.2188" y2="438.8281"/><line style="stroke:#000000;stroke-width:1.0;" x1="10" x2="226" y1="438.8281" y2="438.8281"/><text fill="#000000" font-family="sans-serif" font-size="14" font-weight="bold" lengthAdjust="spacing" textLength="134" x="15" y="455.3613">ParticipatingObject</text><text fill="#000000" font-family="sans-serif" font-size="14" lengthAdjust="spacing" textLength="12" x="209" y="455.3613">   </text><line style="stroke:#000000;stroke-width:1.0;" x1="204" x2="204" y1="438.8281" y2="460.4375"/><line style="stroke:#000000;stroke-width:1.0;" x1="10" x2="226" y1="460.4375" y2="460.4375"/><text fill="#000000" font-family="sans-serif" font-size="14" font-weight="bold" lengthAdjust="spacing" textLength="184" x="15" y="476.9707">more participating objects</text><text fill="#000000" font-family="sans-serif" font-size="14" lengthAdjust="spacing" textLength="12" x="209" y="476.9707">   </text><line style="stroke:#000000;stroke-width:1.0;" x1="204" x2="204" y1="460.4375" y2="482.0469"/><line style="stroke:#000000;stroke-width:1.0;" x1="10" x2="226" y1="482.0469" y2="482.0469"/><text fill="#000000" font-family="sans-serif" font-size="14" font-weight="bold" lengthAdjust="spacing" textLength="134" x="15" y="498.5801">ParticipatingObject</text><text fill="#000000" font-family="sans-serif" font-size="14" lengthAdjust="spacing" textLength="12" x="209" y="498.5801">   </text><line style="stroke:#000000;stroke-width:1.0;" x1="204" x2="204" y1="482.0469" y2="503.6563"/><rect fill="none" height="129.6563" rx="5" ry="5" style="stroke:#000000;stroke-width:1.5;" width="216" x="10" y="374"/><rect fill="#F1F1F1" height="172.875" rx="5" ry="5" style="stroke:#F1F1F1;stroke-width:1.5;" width="245" x="320" y="10.5"/><text fill="#000000" font-family="sans-serif" font-size="14" font-weight="bold" lengthAdjust="spacing" textLength="55" x="325" y="27.0332">eventID</text><text fill="#000000" font-family="sans-serif" font-size="14" lengthAdjust="spacing" textLength="12" x="501" y="27.0332">   </text><line style="stroke:#000000;stroke-width:1.0;" x1="496" x2="496" y1="10.5" y2="32.1094"/><line style="stroke:#000000;stroke-width:1.0;" x1="320" x2="565" y1="32.1094" y2="32.1094"/><text fill="#000000" font-family="sans-serif" font-size="14" font-weight="bold" lengthAdjust="spacing" textLength="122" x="325" y="48.6426">EventActionCode</text><text fill="#000000" font-family="sans-serif" font-size="14" lengthAdjust="spacing" textLength="9" x="501" y="48.6426">E</text><line style="stroke:#000000;stroke-width:1.0;" x1="496" x2="496" y1="32.1094" y2="53.7188"/><line style="stroke:#000000;stroke-width:1.0;" x1="320" x2="565" y1="53.7188" y2="53.7188"/><text fill="#000000" font-family="sans-serif" font-size="14" font-weight="bold" lengthAdjust="spacing" textLength="106" x="325" y="70.252">EventDateTime</text><text fill="#000000" font-family="sans-serif" font-size="14" lengthAdjust="spacing" textLength="59" x="501" y="70.252">date-time</text><line style="stroke:#000000;stroke-width:1.0;" x1="496" x2="496" y1="53.7188" y2="75.3281"/><line style="stroke:#000000;stroke-width:1.0;" x1="320" x2="565" y1="75.3281" y2="75.3281"/><text fill="#000000" font-family="sans-serif" font-size="14" font-weight="bold" lengthAdjust="spacing" textLength="166" x="325" y="91.8613">EventOutcomeIndicator</text><text fill="#000000" font-family="sans-serif" font-size="14" lengthAdjust="spacing" textLength="8" x="501" y="91.8613">0</text><line style="stroke:#000000;stroke-width:1.0;" x1="496" x2="496" y1="75.3281" y2="96.9375"/><line style="stroke:#000000;stroke-width:1.0;" x1="320" x2="565" y1="96.9375" y2="96.9375"/><text fill="#000000" font-family="sans-serif" font-size="14" font-weight="bold" lengthAdjust="spacing" textLength="111" x="325" y="113.4707">EventTypeCode</text><text fill="#000000" font-family="sans-serif" font-size="14" lengthAdjust="spacing" textLength="12" x="501" y="113.4707">   </text><line style="stroke:#000000;stroke-width:1.0;" x1="496" x2="496" y1="96.9375" y2="118.5469"/><line style="stroke:#000000;stroke-width:1.0;" x1="320" x2="565" y1="118.5469" y2="118.5469"/><text fill="#000000" font-family="sans-serif" font-size="14" font-weight="bold" lengthAdjust="spacing" textLength="50" x="325" y="135.0801">traceID</text><text fill="#000000" font-family="sans-serif" font-size="14" lengthAdjust="spacing" textLength="27" x="501" y="135.0801">asdf</text><line style="stroke:#000000;stroke-width:1.0;" x1="496" x2="496" y1="118.5469" y2="140.1563"/><line style="stroke:#000000;stroke-width:1.0;" x1="320" x2="565" y1="140.1563" y2="140.1563"/><text fill="#000000" font-family="sans-serif" font-size="14" font-weight="bold" lengthAdjust="spacing" textLength="60" x="325" y="156.6895">parentID</text><text fill="#000000" font-family="sans-serif" font-size="14" lengthAdjust="spacing" textLength="16" x="501" y="156.6895">lkjl</text><line style="stroke:#000000;stroke-width:1.0;" x1="496" x2="496" y1="140.1563" y2="161.7656"/><line style="stroke:#000000;stroke-width:1.0;" x1="320" x2="565" y1="161.7656" y2="161.7656"/><text fill="#000000" font-family="sans-serif" font-size="14" font-weight="bold" lengthAdjust="spacing" textLength="48" x="325" y="178.2988">childID</text><text fill="#000000" font-family="sans-serif" font-size="14" lengthAdjust="spacing" textLength="24" x="501" y="178.2988">huh</text><line style="stroke:#000000;stroke-width:1.0;" x1="496" x2="496" y1="161.7656" y2="183.375"/><rect fill="none" height="172.875" rx="5" ry="5" style="stroke:#000000;stroke-width:1.5;" width="245" x="320" y="10.5"/><rect fill="#F1F1F1" height="21.6094" rx="5" ry="5" style="stroke:#F1F1F1;stroke-width:1.5;" width="22" x="659" y="10"/><text fill="#000000" font-family="sans-serif" font-size="14" lengthAdjust="spacing" textLength="12" x="664" y="26.5332">   </text><rect fill="none" height="21.6094" rx="5" ry="5" style="stroke:#000000;stroke-width:1.5;" width="22" x="659" y="10"/><rect fill="#F1F1F1" height="21.6094" rx="5" ry="5" style="stroke:#F1F1F1;stroke-width:1.5;" width="474" x="720" y="10"/><text fill="#000000" font-family="sans-serif" font-size="14" font-weight="bold" lengthAdjust="spacing" textLength="118" x="725" y="26.5332">CodedValueType</text><text fill="#000000" font-family="sans-serif" font-size="14" lengthAdjust="spacing" textLength="336" x="853" y="26.5332">(110102, DCM, Begin Transferring DICOM Instances)</text><line style="stroke:#000000;stroke-width:1.0;" x1="848" x2="848" y1="10" y2="31.6094"/><rect fill="none" height="21.6094" rx="5" ry="5" style="stroke:#000000;stroke-width:1.5;" width="474" x="720" y="10"/><rect fill="#F1F1F1" height="21.6094" rx="5" ry="5" style="stroke:#F1F1F1;stroke-width:1.5;" width="22" x="659" y="97"/><text fill="#000000" font-family="sans-serif" font-size="14" lengthAdjust="spacing" textLength="12" x="664" y="113.5332">   </text><rect fill="none" height="21.6094" rx="5" ry="5" style="stroke:#000000;stroke-width:1.5;" width="22" x="659" y="97"/><rect fill="#F1F1F1" height="21.6094" rx="5" ry="5" style="stroke:#F1F1F1;stroke-width:1.5;" width="231" x="841.5" y="97"/><text fill="#000000" font-family="sans-serif" font-size="14" font-weight="bold" lengthAdjust="spacing" textLength="35" x="846.5" y="113.5332">code</text><text fill="#000000" font-family="sans-serif" font-size="14" lengthAdjust="spacing" textLength="176" x="891.5" y="113.5332">not specialized (seems odd)</text><line style="stroke:#000000;stroke-width:1.0;" x1="886.5" x2="886.5" y1="97" y2="118.6094"/><rect fill="none" height="21.6094" rx="5" ry="5" style="stroke:#000000;stroke-width:1.5;" width="231" x="841.5" y="97"/><rect fill="#F1F1F1" height="108.0469" rx="5" ry="5" style="stroke:#F1F1F1;stroke-width:1.5;" width="210" x="337.5" y="202"/><text fill="#000000" font-family="sans-serif" font-size="14" font-weight="bold" lengthAdjust="spacing" textLength="47" x="342.5" y="218.5332">UserID</text><text fill="#000000" font-family="sans-serif" font-size="14" lengthAdjust="spacing" textLength="50" x="476.5" y="218.5332">thisuser</text><line style="stroke:#000000;stroke-width:1.0;" x1="471.5" x2="471.5" y1="202" y2="223.6094"/><line style="stroke:#000000;stroke-width:1.0;" x1="337.5" x2="547.5" y1="223.6094" y2="223.6094"/><text fill="#000000" font-family="sans-serif" font-size="14" font-weight="bold" lengthAdjust="spacing" textLength="124" x="342.5" y="240.1426">AlternativeUserID</text><text fill="#000000" font-family="sans-serif" font-size="14" lengthAdjust="spacing" textLength="66" x="476.5" y="240.1426">theotherID</text><line style="stroke:#000000;stroke-width:1.0;" x1="471.5" x2="471.5" y1="223.6094" y2="245.2188"/><line style="stroke:#000000;stroke-width:1.0;" x1="337.5" x2="547.5" y1="245.2188" y2="245.2188"/><text fill="#000000" font-family="sans-serif" font-size="14" font-weight="bold" lengthAdjust="spacing" textLength="71" x="342.5" y="261.752">Username</text><text fill="#000000" font-family="sans-serif" font-size="14" lengthAdjust="spacing" textLength="51" x="476.5" y="261.752">if known</text><line style="stroke:#000000;stroke-width:1.0;" x1="471.5" x2="471.5" y1="245.2188" y2="266.8281"/><line style="stroke:#000000;stroke-width:1.0;" x1="337.5" x2="547.5" y1="266.8281" y2="266.8281"/><text fill="#000000" font-family="sans-serif" font-size="14" font-weight="bold" lengthAdjust="spacing" textLength="119" x="342.5" y="283.3613">UserIsRequestor</text><text fill="#000000" font-family="sans-serif" font-size="14" lengthAdjust="spacing" textLength="37" x="476.5" y="283.3613">TRUE</text><line style="stroke:#000000;stroke-width:1.0;" x1="471.5" x2="471.5" y1="266.8281" y2="288.4375"/><line style="stroke:#000000;stroke-width:1.0;" x1="337.5" x2="547.5" y1="288.4375" y2="288.4375"/><text fill="#000000" font-family="sans-serif" font-size="14" font-weight="bold" lengthAdjust="spacing" textLength="83" x="342.5" y="304.9707">RoleIDCode</text><text fill="#000000" font-family="sans-serif" font-size="14" lengthAdjust="spacing" textLength="12" x="476.5" y="304.9707">   </text><line style="stroke:#000000;stroke-width:1.0;" x1="471.5" x2="471.5" y1="288.4375" y2="310.0469"/><rect fill="none" height="108.0469" rx="5" ry="5" style="stroke:#000000;stroke-width:1.5;" width="210" x="337.5" y="202"/><rect fill="#F1F1F1" height="21.6094" rx="5" ry="5" style="stroke:#F1F1F1;stroke-width:1.5;" width="22" x="659" y="288"/><text fill="#000000" font-family="sans-serif" font-size="14" lengthAdjust="spacing" textLength="12" x="664" y="304.5332">   </text><rect fill="none" height="21.6094" rx="5" ry="5" style="stroke:#000000;stroke-width:1.5;" width="22" x="659" y="288"/><rect fill="#F1F1F1" height="21.6094" rx="5" ry="5" style="stroke:#F1F1F1;stroke-width:1.5;" width="250" x="832" y="288"/><text fill="#000000" font-family="sans-serif" font-size="14" font-weight="bold" lengthAdjust="spacing" textLength="35" x="837" y="304.5332">code</text><text fill="#000000" font-family="sans-serif" font-size="14" lengthAdjust="spacing" textLength="195" x="882" y="304.5332">(110153, DCM, Source Role ID</text><line style="stroke:#000000;stroke-width:1.0;" x1="877" x2="877" y1="288" y2="309.6094"/><rect fill="none" height="21.6094" rx="5" ry="5" style="stroke:#000000;stroke-width:1.5;" width="250" x="832" y="288"/><rect fill="#F1F1F1" height="108.0469" rx="5" ry="5" style="stroke:#F1F1F1;stroke-width:1.5;" width="206" x="339.5" y="328"/><text fill="#000000" font-family="sans-serif" font-size="14" font-weight="bold" lengthAdjust="spacing" textLength="47" x="344.5" y="344.5332">UserID</text><text fill="#000000" font-family="sans-serif" font-size="14" lengthAdjust="spacing" textLength="52" x="478.5" y="344.5332">thatuser</text><line style="stroke:#000000;stroke-width:1.0;" x1="473.5" x2="473.5" y1="328" y2="349.6094"/><line style="stroke:#000000;stroke-width:1.0;" x1="339.5" x2="545.5" y1="349.6094" y2="349.6094"/><text fill="#000000" font-family="sans-serif" font-size="14" font-weight="bold" lengthAdjust="spacing" textLength="124" x="344.5" y="366.1426">AlternativeUserID</text><text fill="#000000" font-family="sans-serif" font-size="14" lengthAdjust="spacing" textLength="62" x="478.5" y="366.1426">anotherID</text><line style="stroke:#000000;stroke-width:1.0;" x1="473.5" x2="473.5" y1="349.6094" y2="371.2188"/><line style="stroke:#000000;stroke-width:1.0;" x1="339.5" x2="545.5" y1="371.2188" y2="371.2188"/><text fill="#000000" font-family="sans-serif" font-size="14" font-weight="bold" lengthAdjust="spacing" textLength="71" x="344.5" y="387.752">Username</text><text fill="#000000" font-family="sans-serif" font-size="14" lengthAdjust="spacing" textLength="51" x="478.5" y="387.752">if known</text><line style="stroke:#000000;stroke-width:1.0;" x1="473.5" x2="473.5" y1="371.2188" y2="392.8281"/><line style="stroke:#000000;stroke-width:1.0;" x1="339.5" x2="545.5" y1="392.8281" y2="392.8281"/><text fill="#000000" font-family="sans-serif" font-size="14" font-weight="bold" lengthAdjust="spacing" textLength="119" x="344.5" y="409.3613">UserIsRequestor</text><text fill="#000000" font-family="sans-serif" font-size="14" lengthAdjust="spacing" textLength="44" x="478.5" y="409.3613">FALSE</text><line style="stroke:#000000;stroke-width:1.0;" x1="473.5" x2="473.5" y1="392.8281" y2="414.4375"/><line style="stroke:#000000;stroke-width:1.0;" x1="339.5" x2="545.5" y1="414.4375" y2="414.4375"/><text fill="#000000" font-family="sans-serif" font-size="14" font-weight="bold" lengthAdjust="spacing" textLength="83" x="344.5" y="430.9707">RoleIDCode</text><text fill="#000000" font-family="sans-serif" font-size="14" lengthAdjust="spacing" textLength="12" x="478.5" y="430.9707">   </text><line style="stroke:#000000;stroke-width:1.0;" x1="473.5" x2="473.5" y1="414.4375" y2="436.0469"/><rect fill="none" height="108.0469" rx="5" ry="5" style="stroke:#000000;stroke-width:1.5;" width="206" x="339.5" y="328"/><rect fill="#F1F1F1" height="21.6094" rx="5" ry="5" style="stroke:#F1F1F1;stroke-width:1.5;" width="22" x="659" y="414"/><text fill="#000000" font-family="sans-serif" font-size="14" lengthAdjust="spacing" textLength="12" x="664" y="430.5332">   </text><rect fill="none" height="21.6094" rx="5" ry="5" style="stroke:#000000;stroke-width:1.5;" width="22" x="659" y="414"/><rect fill="#F1F1F1" height="21.6094" rx="5" ry="5" style="stroke:#F1F1F1;stroke-width:1.5;" width="281" x="816.5" y="414"/><text fill="#000000" font-family="sans-serif" font-size="14" font-weight="bold" lengthAdjust="spacing" textLength="35" x="821.5" y="430.5332">code</text><text fill="#000000" font-family="sans-serif" font-size="14" lengthAdjust="spacing" textLength="226" x="866.5" y="430.5332">(110152, DCM, Destination Role ID)</text><line style="stroke:#000000;stroke-width:1.0;" x1="861.5" x2="861.5" y1="414" y2="435.6094"/><rect fill="none" height="21.6094" rx="5" ry="5" style="stroke:#000000;stroke-width:1.5;" width="281" x="816.5" y="414"/><rect fill="#F1F1F1" height="86.4375" rx="5" ry="5" style="stroke:#F1F1F1;stroke-width:1.5;" width="359" x="263" y="454"/><text fill="#000000" font-family="sans-serif" font-size="14" font-weight="bold" lengthAdjust="spacing" textLength="191" x="268" y="470.5332">ParticipantObjectTypeCode</text><text fill="#000000" font-family="sans-serif" font-size="14" lengthAdjust="spacing" textLength="8" x="501" y="470.5332">2</text><line style="stroke:#000000;stroke-width:1.0;" x1="496" x2="496" y1="454" y2="475.6094"/><line style="stroke:#000000;stroke-width:1.0;" x1="263" x2="622" y1="475.6094" y2="475.6094"/><text fill="#000000" font-family="sans-serif" font-size="14" font-weight="bold" lengthAdjust="spacing" textLength="223" x="268" y="492.1426">ParticipantObjectTypeCodeRole</text><text fill="#000000" font-family="sans-serif" font-size="14" lengthAdjust="spacing" textLength="8" x="501" y="492.1426">3</text><line style="stroke:#000000;stroke-width:1.0;" x1="496" x2="496" y1="475.6094" y2="497.2188"/><line style="stroke:#000000;stroke-width:1.0;" x1="263" x2="622" y1="497.2188" y2="497.2188"/><text fill="#000000" font-family="sans-serif" font-size="14" font-weight="bold" lengthAdjust="spacing" textLength="205" x="268" y="513.752">ParticipantObjectIDTypeCode</text><text fill="#000000" font-family="sans-serif" font-size="14" lengthAdjust="spacing" textLength="12" x="501" y="513.752">   </text><line style="stroke:#000000;stroke-width:1.0;" x1="496" x2="496" y1="497.2188" y2="518.8281"/><line style="stroke:#000000;stroke-width:1.0;" x1="263" x2="622" y1="518.8281" y2="518.8281"/><text fill="#000000" font-family="sans-serif" font-size="14" font-weight="bold" lengthAdjust="spacing" textLength="135" x="268" y="535.3613">ParticipantObjectID</text><text fill="#000000" font-family="sans-serif" font-size="14" lengthAdjust="spacing" textLength="116" x="501" y="535.3613">study-instance-uid</text><line style="stroke:#000000;stroke-width:1.0;" x1="496" x2="496" y1="518.8281" y2="540.4375"/><rect fill="none" height="86.4375" rx="5" ry="5" style="stroke:#000000;stroke-width:1.5;" width="359" x="263" y="454"/><rect fill="#F1F1F1" height="21.6094" rx="5" ry="5" style="stroke:#F1F1F1;stroke-width:1.5;" width="22" x="659" y="497"/><text fill="#000000" font-family="sans-serif" font-size="14" lengthAdjust="spacing" textLength="12" x="664" y="513.5332">   </text><rect fill="none" height="21.6094" rx="5" ry="5" style="stroke:#000000;stroke-width:1.5;" width="22" x="659" y="497"/><rect fill="#F1F1F1" height="21.6094" rx="5" ry="5" style="stroke:#F1F1F1;stroke-width:1.5;" width="279" x="817.5" y="497"/><text fill="#000000" font-family="sans-serif" font-size="14" font-weight="bold" lengthAdjust="spacing" textLength="35" x="822.5" y="513.5332">code</text><text fill="#000000" font-family="sans-serif" font-size="14" lengthAdjust="spacing" textLength="224" x="867.5" y="513.5332">(110180, DCM, Study Instance UID)</text><line style="stroke:#000000;stroke-width:1.0;" x1="862.5" x2="862.5" y1="497" y2="518.6094"/><rect fill="none" height="21.6094" rx="5" ry="5" style="stroke:#000000;stroke-width:1.5;" width="279" x="817.5" y="497"/><rect fill="#F1F1F1" height="15" rx="5" ry="5" style="stroke:#F1F1F1;stroke-width:1.5;" width="30" x="430.5" y="558"/><rect fill="none" height="15" rx="5" ry="5" style="stroke:#000000;stroke-width:1.5;" width="30" x="430.5" y="558"/><rect fill="#F1F1F1" height="108.0469" rx="5" ry="5" style="stroke:#F1F1F1;stroke-width:1.5;" width="349" x="268" y="592"/><text fill="#000000" font-family="sans-serif" font-size="14" font-weight="bold" lengthAdjust="spacing" textLength="191" x="273" y="608.5332">ParticipantObjectTypeCode</text><text fill="#000000" font-family="sans-serif" font-size="14" lengthAdjust="spacing" textLength="8" x="506" y="608.5332">1</text><line style="stroke:#000000;stroke-width:1.0;" x1="501" x2="501" y1="592" y2="613.6094"/><line style="stroke:#000000;stroke-width:1.0;" x1="268" x2="617" y1="613.6094" y2="613.6094"/><text fill="#000000" font-family="sans-serif" font-size="14" font-weight="bold" lengthAdjust="spacing" textLength="223" x="273" y="630.1426">ParticipantObjectTypeCodeRole</text><text fill="#000000" font-family="sans-serif" font-size="14" lengthAdjust="spacing" textLength="8" x="506" y="630.1426">1</text><line style="stroke:#000000;stroke-width:1.0;" x1="501" x2="501" y1="613.6094" y2="635.2188"/><line style="stroke:#000000;stroke-width:1.0;" x1="268" x2="617" y1="635.2188" y2="635.2188"/><text fill="#000000" font-family="sans-serif" font-size="14" font-weight="bold" lengthAdjust="spacing" textLength="205" x="273" y="651.752">ParticipantObjectIDTypeCode</text><text fill="#000000" font-family="sans-serif" font-size="14" lengthAdjust="spacing" textLength="12" x="506" y="651.752">   </text><line style="stroke:#000000;stroke-width:1.0;" x1="501" x2="501" y1="635.2188" y2="656.8281"/><line style="stroke:#000000;stroke-width:1.0;" x1="268" x2="617" y1="656.8281" y2="656.8281"/><text fill="#000000" font-family="sans-serif" font-size="14" font-weight="bold" lengthAdjust="spacing" textLength="135" x="273" y="673.3613">ParticipantObjectID</text><text fill="#000000" font-family="sans-serif" font-size="14" lengthAdjust="spacing" textLength="84" x="506" y="673.3613">the patient ID</text><line style="stroke:#000000;stroke-width:1.0;" x1="501" x2="501" y1="656.8281" y2="678.4375"/><line style="stroke:#000000;stroke-width:1.0;" x1="268" x2="617" y1="678.4375" y2="678.4375"/><text fill="#000000" font-family="sans-serif" font-size="14" font-weight="bold" lengthAdjust="spacing" textLength="160" x="273" y="694.9707">ParticipantObjectName</text><text fill="#000000" font-family="sans-serif" font-size="14" lengthAdjust="spacing" textLength="106" x="506" y="694.9707">the patient name</text><line style="stroke:#000000;stroke-width:1.0;" x1="501" x2="501" y1="678.4375" y2="700.0469"/><rect fill="none" height="108.0469" rx="5" ry="5" style="stroke:#000000;stroke-width:1.5;" width="349" x="268" y="592"/><rect fill="#F1F1F1" height="21.6094" rx="5" ry="5" style="stroke:#F1F1F1;stroke-width:1.5;" width="22" x="659" y="634"/><text fill="#000000" font-family="sans-serif" font-size="14" lengthAdjust="spacing" textLength="12" x="664" y="650.5332">   </text><rect fill="none" height="21.6094" rx="5" ry="5" style="stroke:#000000;stroke-width:1.5;" width="22" x="659" y="634"/><rect fill="#F1F1F1" height="21.6094" rx="5" ry="5" style="stroke:#F1F1F1;stroke-width:1.5;" width="252" x="831" y="634"/><text fill="#000000" font-family="sans-serif" font-size="14" font-weight="bold" lengthAdjust="spacing" textLength="35" x="836" y="650.5332">code</text><text fill="#000000" font-family="sans-serif" font-size="14" lengthAdjust="spacing" textLength="197" x="881" y="650.5332">(2, RFC-3991, Patient Number)</text><line style="stroke:#000000;stroke-width:1.0;" x1="876" x2="876" y1="634" y2="655.6094"/><rect fill="none" height="21.6094" rx="5" ry="5" style="stroke:#000000;stroke-width:1.5;" width="252" x="831" y="634"/><path d="M670.7461,21 L683.7461,21 C690.8929,21 700.8487,21 712.7547,21 " fill="none" style="stroke:#000000;stroke-width:1.0;stroke-dasharray:3.0,3.0;"/><path d="M712.7547,24.063 L715.0519,21 L712.7547,17.937 L720.4122,21 L712.7547,24.063 " fill="#000000" style="stroke:#000000;stroke-width:1.0;"/><ellipse cx="670.7461" cy="21" fill="#000000" rx="3" ry="3" style="stroke:#000000;stroke-width:1.0;"/><path d="M554,21 L567,21 C596.5326,21 630.8053,21 651.5589,21 " fill="none" style="stroke:#000000;stroke-width:1.0;stroke-dasharray:3.0,3.0;"/><path d="M651.5589,24.1042 L653.8871,21 L651.5589,17.8958 L659.3194,21 L651.5589,24.1042 " fill="#000000" style="stroke:#000000;stroke-width:1.0;"/><ellipse cx="554" cy="21" fill="#000000" rx="3" ry="3" style="stroke:#000000;stroke-width:1.0;"/><path d="M670.7461,108 L683.7461,108 C710.056,108 774.4339,108 834.0393,108 " fill="none" style="stroke:#000000;stroke-width:1.0;stroke-dasharray:3.0,3.0;"/><path d="M834.0393,111.0474 L836.3248,108 L834.0393,104.9526 L841.6576,108 L834.0393,111.0474 " fill="#000000" style="stroke:#000000;stroke-width:1.0;"/><ellipse cx="670.7461" cy="108" fill="#000000" rx="3" ry="3" style="stroke:#000000;stroke-width:1.0;"/><path d="M554,108 L567,108 C596.5326,108 630.8053,108 651.5589,108 " fill="none" style="stroke:#000000;stroke-width:1.0;stroke-dasharray:3.0,3.0;"/><path d="M651.5589,111.1042 L653.8871,108 L651.5589,104.8958 L659.3194,108 L651.5589,111.1042 " fill="#000000" style="stroke:#000000;stroke-width:1.0;"/><ellipse cx="554" cy="108" fill="#000000" rx="3" ry="3" style="stroke:#000000;stroke-width:1.0;"/><path d="M215.5,386 L215.5,373 C215.5,331.6307 237.3665,225.4707 263,193 C276.7417,175.5929 294.5347,160.9447 313.5591,148.7504 " fill="none" style="stroke:#000000;stroke-width:1.0;stroke-dasharray:3.0,3.0;"/><path d="M315.1758,151.3484 L315.5075,147.5379 L311.9423,146.1525 L320.0539,144.7086 L315.1758,151.3484 " fill="#000000" style="stroke:#000000;stroke-width:1.0;"/><ellipse cx="215.5" cy="386" fill="#000000" rx="3" ry="3" style="stroke:#000000;stroke-width:1.0;"/><path d="M670.7461,299 L683.7461,299 C708.6769,299 767.7893,299 824.6327,299 " fill="none" style="stroke:#000000;stroke-width:1.0;stroke-dasharray:3.0,3.0;"/><path d="M824.6327,302.0558 L826.9245,299 L824.6327,295.9442 L832.2721,299 L824.6327,302.0558 " fill="#000000" style="stroke:#000000;stroke-width:1.0;"/><ellipse cx="670.7461" cy="299" fill="#000000" rx="3" ry="3" style="stroke:#000000;stroke-width:1.0;"/><path d="M536,299 L549,299 C585.4172,299 627.9743,299 651.8271,299 " fill="none" style="stroke:#000000;stroke-width:1.0;stroke-dasharray:3.0,3.0;"/><path d="M651.8271,302.0465 L654.112,299 L651.8271,295.9535 L659.4434,299 L651.8271,302.0465 " fill="#000000" style="stroke:#000000;stroke-width:1.0;"/><ellipse cx="536" cy="299" fill="#000000" rx="3" ry="3" style="stroke:#000000;stroke-width:1.0;"/><path d="M214,406 L227,406 C268.8463,406 232.6233,347.7813 263,319 C281.8281,301.1608 306.0048,288.3356 330.4598,279.1276 " fill="none" style="stroke:#000000;stroke-width:1.0;stroke-dasharray:3.0,3.0;"/><path d="M331.5088,282.0257 L332.6334,278.3408 L329.4108,276.2294 L337.7051,276.5051 L331.5088,282.0257 " fill="#000000" style="stroke:#000000;stroke-width:1.0;"/><ellipse cx="214" cy="406" fill="#000000" rx="3" ry="3" style="stroke:#000000;stroke-width:1.0;"/><path d="M670.7461,425 L683.7461,425 C706.4426,425 757.4684,425 809.3212,425 " fill="none" style="stroke:#000000;stroke-width:1.0;stroke-dasharray:3.0,3.0;"/><path d="M809.3212,428.0613 L811.6172,425 L809.3212,421.9387 L816.9744,425 L809.3212,428.0613 " fill="#000000" style="stroke:#000000;stroke-width:1.0;"/><ellipse cx="670.7461" cy="425" fill="#000000" rx="3" ry="3" style="stroke:#000000;stroke-width:1.0;"/><path d="M534,425 L547,425 C584.0167,425 627.2743,425 651.5197,425 " fill="none" style="stroke:#000000;stroke-width:1.0;stroke-dasharray:3.0,3.0;"/><path d="M651.5197,428.0967 L653.8422,425 L651.5197,421.9033 L659.2614,425 L651.5197,428.0967 " fill="#000000" style="stroke:#000000;stroke-width:1.0;"/><ellipse cx="534" cy="425" fill="#000000" rx="3" ry="3" style="stroke:#000000;stroke-width:1.0;"/><path d="M214,428 L227,428 C261.6888,428 298.8429,422.2032 332.3407,414.7253 " fill="none" style="stroke:#000000;stroke-width:1.0;stroke-dasharray:3.0,3.0;"/><path d="M333.0302,417.7393 L334.6012,414.2082 L331.6512,411.7113 L339.8756,413.0015 L333.0302,417.7393 " fill="#000000" style="stroke:#000000;stroke-width:1.0;"/><ellipse cx="214" cy="428" fill="#000000" rx="3" ry="3" style="stroke:#000000;stroke-width:1.0;"/><path d="M670.7461,508 L683.7461,508 C706.5441,508 757.9256,508 810.0173,508 " fill="none" style="stroke:#000000;stroke-width:1.0;stroke-dasharray:3.0,3.0;"/><path d="M810.0173,511.075 L812.3235,508 L810.0173,504.925 L817.7048,508 L810.0173,511.075 " fill="#000000" style="stroke:#000000;stroke-width:1.0;"/><ellipse cx="670.7461" cy="508" fill="#000000" rx="3" ry="3" style="stroke:#000000;stroke-width:1.0;"/><path d="M610,508 L623,508 C632.374,508 642.7885,508 651.4714,508 " fill="none" style="stroke:#000000;stroke-width:1.0;stroke-dasharray:3.0,3.0;"/><path d="M651.4714,511.0815 L653.7825,508 L651.4714,504.9185 L659.1751,508 L651.4714,511.0815 " fill="#000000" style="stroke:#000000;stroke-width:1.0;"/><ellipse cx="610" cy="508" fill="#000000" rx="3" ry="3" style="stroke:#000000;stroke-width:1.0;"/><path d="M214,450 L227,450 C242.022,450 257.5009,451.1086 272.9422,452.9852 " fill="none" style="stroke:#000000;stroke-width:1.0;stroke-dasharray:3.0,3.0;"/><path d="M272.5496,456.0152 L275.2147,453.2797 L273.3348,449.9552 L280.5173,453.9667 L272.5496,456.0152 " fill="#000000" style="stroke:#000000;stroke-width:1.0;"/><ellipse cx="214" cy="450" fill="#000000" rx="3" ry="3" style="stroke:#000000;stroke-width:1.0;"/><path d="M214,471 L227,471 C265.1809,471 231.8488,526.9233 263,549 C311.8077,583.5898 387.8492,575.9194 423.0006,569.876 " fill="none" style="stroke:#000000;stroke-width:1.0;stroke-dasharray:3.0,3.0;"/><path d="M423.5604,572.9282 L425.2898,569.4561 L422.4408,566.8237 L430.6312,568.4765 L423.5604,572.9282 " fill="#000000" style="stroke:#000000;stroke-width:1.0;"/><ellipse cx="214" cy="471" fill="#000000" rx="3" ry="3" style="stroke:#000000;stroke-width:1.0;"/><path d="M670.7461,645 L683.7461,645 C708.5239,645 767.0652,645 823.5862,645 " fill="none" style="stroke:#000000;stroke-width:1.0;stroke-dasharray:3.0,3.0;"/><path d="M823.5862,648.039 L825.8655,645 L823.5862,641.961 L831.1838,645 L823.5862,648.039 " fill="#000000" style="stroke:#000000;stroke-width:1.0;"/><ellipse cx="670.7461" cy="645" fill="#000000" rx="3" ry="3" style="stroke:#000000;stroke-width:1.0;"/><path d="M606,645 L619,645 C629.8968,645 642.0905,645 651.8766,645 " fill="none" style="stroke:#000000;stroke-width:1.0;stroke-dasharray:3.0,3.0;"/><path d="M651.8766,648.0291 L654.1484,645 L651.8766,641.9709 L659.4493,645 L651.8766,648.0291 " fill="#000000" style="stroke:#000000;stroke-width:1.0;"/><ellipse cx="606" cy="645" fill="#000000" rx="3" ry="3" style="stroke:#000000;stroke-width:1.0;"/><path d="M214,493 L227,493 C270.0813,493 231.9026,553.1847 263,583 C264.4045,584.3466 265.8396,585.6647 267.3029,586.9547 " fill="none" style="stroke:#000000;stroke-width:1.0;stroke-dasharray:3.0,3.0;"/><path d="M265.3676,589.2668 L269.0369,588.4062 L269.2382,584.6427 L273.083,591.793 L265.3676,589.2668 " fill="#000000" style="stroke:#000000;stroke-width:1.0;"/><ellipse cx="214" cy="493" fill="#000000" rx="3" ry="3" style="stroke:#000000;stroke-width:1.0;"/><!--MD5=[3ce45256ee41d24a7fb7abcd89083c52]
@startjson
{
	"event": {
	   "eventID" : [
	       { "CodedValueType" : "(110102, DCM, Begin Transferring DICOM Instances)"}
	       ],
	   "EventActionCode": "E",
	   "EventDateTime" : "date-time",
	   "EventOutcomeIndicator": "0",
	   "EventTypeCode" : [
	   	{ "code" : "not specialized (seems odd)"}
		],
	   "traceID" : "asdf",
	   "parentID" : "lkjl",
	   "childID" : "huh"
	   },
	"ActiveParticipant" : {
	   "UserID" : "thisuser",
	   "AlternativeUserID" : "theotherID",
	   "Username" : "if known",
	   "UserIsRequestor" : "TRUE",
	   "RoleIDCode" : [
	   	{ "code" : "(110153, DCM, Source Role ID"}
		]
	   },
	"ActiveParticipant" : {
	   "UserID" : "thatuser",
	   "AlternativeUserID" : "anotherID",
	   "Username" : "if known",
	   "UserIsRequestor" : "FALSE",
	   "RoleIDCode" : [
	   	{ "code" : "(110152, DCM, Destination Role ID)"}
		]	   
	   },
	"ParticipatingObject" : {
	   "ParticipantObjectTypeCode" : 2,
	   "ParticipantObjectTypeCodeRole" : 3,
	   "ParticipantObjectIDTypeCode" : [
	       { "code" : "(110180, DCM, Study Instance UID)"}
	       ],
	   "ParticipantObjectID" : "study-instance-uid"
	   },
	"more participating objects" : [],
	"ParticipatingObject" : {
	    "ParticipantObjectTypeCode" : 1,
	    "ParticipantObjectTypeCodeRole" : 1,
	    "ParticipantObjectIDTypeCode" : [
	        { "code" : "(2, RFC-3991, Patient Number)"}
	        ],
	    "ParticipantObjectID" : "the patient ID",
	    "ParticipantObjectName" : "the patient name"
	   }
}
@endjson

PlantUML version 1.2022.8(Sun Sep 25 05:00:33 EDT 2022)
(GPL source distribution)
Java Runtime: Java(TM) SE Runtime Environment
JVM: Java HotSpot(TM) Client VM
Default Encoding: Cp1252
Language: en
Country: US
--></g></svg>