<?xml version="1.0" encoding="UTF-8" standalone="no"?><svg xmlns="http://www.w3.org/2000/svg" xmlns:xlink="http://www.w3.org/1999/xlink" contentStyleType="text/css" height="647px" preserveAspectRatio="none" style="width:1221px;height:647px;background:#FFFFFF;" version="1.1" viewBox="0 0 1221 647" width="1221px" zoomAndPan="magnify"><defs/><g><rect fill="#F1F1F1" height="129.6563" rx="5" ry="5" style="stroke:#F1F1F1;stroke-width:1.5;" width="292" x="10" y="309"/><text fill="#000000" font-family="sans-serif" font-size="14" font-weight="bold" lengthAdjust="spacing" textLength="41" x="15" y="325.5332">event</text><text fill="#000000" font-family="sans-serif" font-size="14" lengthAdjust="spacing" textLength="12" x="285" y="325.5332">   </text><line style="stroke:#000000;stroke-width:1.0;" x1="280" x2="280" y1="309" y2="330.6094"/><line style="stroke:#000000;stroke-width:1.0;" x1="10" x2="302" y1="330.6094" y2="330.6094"/><text fill="#000000" font-family="sans-serif" font-size="14" font-weight="bold" lengthAdjust="spacing" textLength="250" x="15" y="347.1426">ActiveParticipant - sending process</text><text fill="#000000" font-family="sans-serif" font-size="14" lengthAdjust="spacing" textLength="12" x="285" y="347.1426">   </text><line style="stroke:#000000;stroke-width:1.0;" x1="280" x2="280" y1="330.6094" y2="352.2188"/><line style="stroke:#000000;stroke-width:1.0;" x1="10" x2="302" y1="352.2188" y2="352.2188"/><text fill="#000000" font-family="sans-serif" font-size="14" font-weight="bold" lengthAdjust="spacing" textLength="260" x="15" y="368.752">ActiveParticipant - receiving process</text><text fill="#000000" font-family="sans-serif" font-size="14" lengthAdjust="spacing" textLength="12" x="285" y="368.752">   </text><line style="stroke:#000000;stroke-width:1.0;" x1="280" x2="280" y1="352.2188" y2="373.8281"/><line style="stroke:#000000;stroke-width:1.0;" x1="10" x2="302" y1="373.8281" y2="373.8281"/><text fill="#000000" font-family="sans-serif" font-size="14" font-weight="bold" lengthAdjust="spacing" textLength="177" x="15" y="390.3613">ParticipatingObject - data</text><text fill="#000000" font-family="sans-serif" font-size="14" lengthAdjust="spacing" textLength="12" x="285" y="390.3613">   </text><line style="stroke:#000000;stroke-width:1.0;" x1="280" x2="280" y1="373.8281" y2="395.4375"/><line style="stroke:#000000;stroke-width:1.0;" x1="10" x2="302" y1="395.4375" y2="395.4375"/><text fill="#000000" font-family="sans-serif" font-size="14" font-weight="bold" lengthAdjust="spacing" textLength="227" x="15" y="411.9707">more participating objects - data</text><text fill="#000000" font-family="sans-serif" font-size="14" lengthAdjust="spacing" textLength="12" x="285" y="411.9707">   </text><line style="stroke:#000000;stroke-width:1.0;" x1="280" x2="280" y1="395.4375" y2="417.0469"/><line style="stroke:#000000;stroke-width:1.0;" x1="10" x2="302" y1="417.0469" y2="417.0469"/><text fill="#000000" font-family="sans-serif" font-size="14" font-weight="bold" lengthAdjust="spacing" textLength="196" x="15" y="433.5801">ParticipatingObject - patient</text><text fill="#000000" font-family="sans-serif" font-size="14" lengthAdjust="spacing" textLength="12" x="285" y="433.5801">   </text><line style="stroke:#000000;stroke-width:1.0;" x1="280" x2="280" y1="417.0469" y2="438.6563"/><rect fill="none" height="129.6563" rx="5" ry="5" style="stroke:#000000;stroke-width:1.5;" width="292" x="10" y="309"/><rect fill="#F1F1F1" height="108.0469" rx="5" ry="5" style="stroke:#F1F1F1;stroke-width:1.5;" width="245" x="396" y="11"/><text fill="#000000" font-family="sans-serif" font-size="14" font-weight="bold" lengthAdjust="spacing" textLength="55" x="401" y="27.5332">eventID</text><text fill="#000000" font-family="sans-serif" font-size="14" lengthAdjust="spacing" textLength="12" x="577" y="27.5332">   </text><line style="stroke:#000000;stroke-width:1.0;" x1="572" x2="572" y1="11" y2="32.6094"/><line style="stroke:#000000;stroke-width:1.0;" x1="396" x2="641" y1="32.6094" y2="32.6094"/><text fill="#000000" font-family="sans-serif" font-size="14" font-weight="bold" lengthAdjust="spacing" textLength="122" x="401" y="49.1426">EventActionCode</text><text fill="#000000" font-family="sans-serif" font-size="14" lengthAdjust="spacing" textLength="9" x="577" y="49.1426">E</text><line style="stroke:#000000;stroke-width:1.0;" x1="572" x2="572" y1="32.6094" y2="54.2188"/><line style="stroke:#000000;stroke-width:1.0;" x1="396" x2="641" y1="54.2188" y2="54.2188"/><text fill="#000000" font-family="sans-serif" font-size="14" font-weight="bold" lengthAdjust="spacing" textLength="106" x="401" y="70.752">EventDateTime</text><text fill="#000000" font-family="sans-serif" font-size="14" lengthAdjust="spacing" textLength="59" x="577" y="70.752">date-time</text><line style="stroke:#000000;stroke-width:1.0;" x1="572" x2="572" y1="54.2188" y2="75.8281"/><line style="stroke:#000000;stroke-width:1.0;" x1="396" x2="641" y1="75.8281" y2="75.8281"/><text fill="#000000" font-family="sans-serif" font-size="14" font-weight="bold" lengthAdjust="spacing" textLength="166" x="401" y="92.3613">EventOutcomeIndicator</text><text fill="#000000" font-family="sans-serif" font-size="14" lengthAdjust="spacing" textLength="8" x="577" y="92.3613">0</text><line style="stroke:#000000;stroke-width:1.0;" x1="572" x2="572" y1="75.8281" y2="97.4375"/><line style="stroke:#000000;stroke-width:1.0;" x1="396" x2="641" y1="97.4375" y2="97.4375"/><text fill="#000000" font-family="sans-serif" font-size="14" font-weight="bold" lengthAdjust="spacing" textLength="111" x="401" y="113.9707">EventTypeCode</text><text fill="#000000" font-family="sans-serif" font-size="14" lengthAdjust="spacing" textLength="12" x="577" y="113.9707">   </text><line style="stroke:#000000;stroke-width:1.0;" x1="572" x2="572" y1="97.4375" y2="119.0469"/><rect fill="none" height="108.0469" rx="5" ry="5" style="stroke:#000000;stroke-width:1.5;" width="245" x="396" y="11"/><rect fill="#F1F1F1" height="21.6094" rx="5" ry="5" style="stroke:#F1F1F1;stroke-width:1.5;" width="474" x="735" y="10"/><text fill="#000000" font-family="sans-serif" font-size="14" font-weight="bold" lengthAdjust="spacing" textLength="118" x="740" y="26.5332">CodedValueType</text><text fill="#000000" font-family="sans-serif" font-size="14" lengthAdjust="spacing" textLength="336" x="868" y="26.5332">(110102, DCM, Begin Transferring DICOM Instances)</text><line style="stroke:#000000;stroke-width:1.0;" x1="863" x2="863" y1="10" y2="31.6094"/><rect fill="none" height="21.6094" rx="5" ry="5" style="stroke:#000000;stroke-width:1.5;" width="474" x="735" y="10"/><rect fill="#F1F1F1" height="21.6094" rx="5" ry="5" style="stroke:#F1F1F1;stroke-width:1.5;" width="231" x="856.5" y="97"/><text fill="#000000" font-family="sans-serif" font-size="14" font-weight="bold" lengthAdjust="spacing" textLength="35" x="861.5" y="113.5332">code</text><text fill="#000000" font-family="sans-serif" font-size="14" lengthAdjust="spacing" textLength="176" x="906.5" y="113.5332">not specialized (seems odd)</text><line style="stroke:#000000;stroke-width:1.0;" x1="901.5" x2="901.5" y1="97" y2="118.6094"/><rect fill="none" height="21.6094" rx="5" ry="5" style="stroke:#000000;stroke-width:1.5;" width="231" x="856.5" y="97"/><rect fill="#F1F1F1" height="108.0469" rx="5" ry="5" style="stroke:#F1F1F1;stroke-width:1.5;" width="210" x="413.5" y="137"/><text fill="#000000" font-family="sans-serif" font-size="14" font-weight="bold" lengthAdjust="spacing" textLength="47" x="418.5" y="153.5332">UserID</text><text fill="#000000" font-family="sans-serif" font-size="14" lengthAdjust="spacing" textLength="50" x="552.5" y="153.5332">thisuser</text><line style="stroke:#000000;stroke-width:1.0;" x1="547.5" x2="547.5" y1="137" y2="158.6094"/><line style="stroke:#000000;stroke-width:1.0;" x1="413.5" x2="623.5" y1="158.6094" y2="158.6094"/><text fill="#000000" font-family="sans-serif" font-size="14" font-weight="bold" lengthAdjust="spacing" textLength="124" x="418.5" y="175.1426">AlternativeUserID</text><text fill="#000000" font-family="sans-serif" font-size="14" lengthAdjust="spacing" textLength="66" x="552.5" y="175.1426">theotherID</text><line style="stroke:#000000;stroke-width:1.0;" x1="547.5" x2="547.5" y1="158.6094" y2="180.2188"/><line style="stroke:#000000;stroke-width:1.0;" x1="413.5" x2="623.5" y1="180.2188" y2="180.2188"/><text fill="#000000" font-family="sans-serif" font-size="14" font-weight="bold" lengthAdjust="spacing" textLength="71" x="418.5" y="196.752">Username</text><text fill="#000000" font-family="sans-serif" font-size="14" lengthAdjust="spacing" textLength="51" x="552.5" y="196.752">if known</text><line style="stroke:#000000;stroke-width:1.0;" x1="547.5" x2="547.5" y1="180.2188" y2="201.8281"/><line style="stroke:#000000;stroke-width:1.0;" x1="413.5" x2="623.5" y1="201.8281" y2="201.8281"/><text fill="#000000" font-family="sans-serif" font-size="14" font-weight="bold" lengthAdjust="spacing" textLength="119" x="418.5" y="218.3613">UserIsRequestor</text><text fill="#000000" font-family="sans-serif" font-size="14" lengthAdjust="spacing" textLength="37" x="552.5" y="218.3613">TRUE</text><line style="stroke:#000000;stroke-width:1.0;" x1="547.5" x2="547.5" y1="201.8281" y2="223.4375"/><line style="stroke:#000000;stroke-width:1.0;" x1="413.5" x2="623.5" y1="223.4375" y2="223.4375"/><text fill="#000000" font-family="sans-serif" font-size="14" font-weight="bold" lengthAdjust="spacing" textLength="83" x="418.5" y="239.9707">RoleIDCode</text><text fill="#000000" font-family="sans-serif" font-size="14" lengthAdjust="spacing" textLength="12" x="552.5" y="239.9707">   </text><line style="stroke:#000000;stroke-width:1.0;" x1="547.5" x2="547.5" y1="223.4375" y2="245.0469"/><rect fill="none" height="108.0469" rx="5" ry="5" style="stroke:#000000;stroke-width:1.5;" width="210" x="413.5" y="137"/><rect fill="#F1F1F1" height="21.6094" rx="5" ry="5" style="stroke:#F1F1F1;stroke-width:1.5;" width="250" x="847" y="223"/><text fill="#000000" font-family="sans-serif" font-size="14" font-weight="bold" lengthAdjust="spacing" textLength="35" x="852" y="239.5332">code</text><text fill="#000000" font-family="sans-serif" font-size="14" lengthAdjust="spacing" textLength="195" x="897" y="239.5332">(110153, DCM, Source Role ID</text><line style="stroke:#000000;stroke-width:1.0;" x1="892" x2="892" y1="223" y2="244.6094"/><rect fill="none" height="21.6094" rx="5" ry="5" style="stroke:#000000;stroke-width:1.5;" width="250" x="847" y="223"/><rect fill="#F1F1F1" height="108.0469" rx="5" ry="5" style="stroke:#F1F1F1;stroke-width:1.5;" width="206" x="415.5" y="263"/><text fill="#000000" font-family="sans-serif" font-size="14" font-weight="bold" lengthAdjust="spacing" textLength="47" x="420.5" y="279.5332">UserID</text><text fill="#000000" font-family="sans-serif" font-size="14" lengthAdjust="spacing" textLength="52" x="554.5" y="279.5332">thatuser</text><line style="stroke:#000000;stroke-width:1.0;" x1="549.5" x2="549.5" y1="263" y2="284.6094"/><line style="stroke:#000000;stroke-width:1.0;" x1="415.5" x2="621.5" y1="284.6094" y2="284.6094"/><text fill="#000000" font-family="sans-serif" font-size="14" font-weight="bold" lengthAdjust="spacing" textLength="124" x="420.5" y="301.1426">AlternativeUserID</text><text fill="#000000" font-family="sans-serif" font-size="14" lengthAdjust="spacing" textLength="62" x="554.5" y="301.1426">anotherID</text><line style="stroke:#000000;stroke-width:1.0;" x1="549.5" x2="549.5" y1="284.6094" y2="306.2188"/><line style="stroke:#000000;stroke-width:1.0;" x1="415.5" x2="621.5" y1="306.2188" y2="306.2188"/><text fill="#000000" font-family="sans-serif" font-size="14" font-weight="bold" lengthAdjust="spacing" textLength="71" x="420.5" y="322.752">Username</text><text fill="#000000" font-family="sans-serif" font-size="14" lengthAdjust="spacing" textLength="51" x="554.5" y="322.752">if known</text><line style="stroke:#000000;stroke-width:1.0;" x1="549.5" x2="549.5" y1="306.2188" y2="327.8281"/><line style="stroke:#000000;stroke-width:1.0;" x1="415.5" x2="621.5" y1="327.8281" y2="327.8281"/><text fill="#000000" font-family="sans-serif" font-size="14" font-weight="bold" lengthAdjust="spacing" textLength="119" x="420.5" y="344.3613">UserIsRequestor</text><text fill="#000000" font-family="sans-serif" font-size="14" lengthAdjust="spacing" textLength="44" x="554.5" y="344.3613">FALSE</text><line style="stroke:#000000;stroke-width:1.0;" x1="549.5" x2="549.5" y1="327.8281" y2="349.4375"/><line style="stroke:#000000;stroke-width:1.0;" x1="415.5" x2="621.5" y1="349.4375" y2="349.4375"/><text fill="#000000" font-family="sans-serif" font-size="14" font-weight="bold" lengthAdjust="spacing" textLength="83" x="420.5" y="365.9707">RoleIDCode</text><text fill="#000000" font-family="sans-serif" font-size="14" lengthAdjust="spacing" textLength="12" x="554.5" y="365.9707">   </text><line style="stroke:#000000;stroke-width:1.0;" x1="549.5" x2="549.5" y1="349.4375" y2="371.0469"/><rect fill="none" height="108.0469" rx="5" ry="5" style="stroke:#000000;stroke-width:1.5;" width="206" x="415.5" y="263"/><rect fill="#F1F1F1" height="21.6094" rx="5" ry="5" style="stroke:#F1F1F1;stroke-width:1.5;" width="281" x="831.5" y="349"/><text fill="#000000" font-family="sans-serif" font-size="14" font-weight="bold" lengthAdjust="spacing" textLength="35" x="836.5" y="365.5332">code</text><text fill="#000000" font-family="sans-serif" font-size="14" lengthAdjust="spacing" textLength="226" x="881.5" y="365.5332">(110152, DCM, Destination Role ID)</text><line style="stroke:#000000;stroke-width:1.0;" x1="876.5" x2="876.5" y1="349" y2="370.6094"/><rect fill="none" height="21.6094" rx="5" ry="5" style="stroke:#000000;stroke-width:1.5;" width="281" x="831.5" y="349"/><rect fill="#F1F1F1" height="86.4375" rx="5" ry="5" style="stroke:#F1F1F1;stroke-width:1.5;" width="359" x="339" y="389"/><text fill="#000000" font-family="sans-serif" font-size="14" font-weight="bold" lengthAdjust="spacing" textLength="191" x="344" y="405.5332">ParticipantObjectTypeCode</text><text fill="#000000" font-family="sans-serif" font-size="14" lengthAdjust="spacing" textLength="8" x="577" y="405.5332">2</text><line style="stroke:#000000;stroke-width:1.0;" x1="572" x2="572" y1="389" y2="410.6094"/><line style="stroke:#000000;stroke-width:1.0;" x1="339" x2="698" y1="410.6094" y2="410.6094"/><text fill="#000000" font-family="sans-serif" font-size="14" font-weight="bold" lengthAdjust="spacing" textLength="223" x="344" y="427.1426">ParticipantObjectTypeCodeRole</text><text fill="#000000" font-family="sans-serif" font-size="14" lengthAdjust="spacing" textLength="8" x="577" y="427.1426">3</text><line style="stroke:#000000;stroke-width:1.0;" x1="572" x2="572" y1="410.6094" y2="432.2188"/><line style="stroke:#000000;stroke-width:1.0;" x1="339" x2="698" y1="432.2188" y2="432.2188"/><text fill="#000000" font-family="sans-serif" font-size="14" font-weight="bold" lengthAdjust="spacing" textLength="205" x="344" y="448.752">ParticipantObjectIDTypeCode</text><text fill="#000000" font-family="sans-serif" font-size="14" lengthAdjust="spacing" textLength="12" x="577" y="448.752">   </text><line style="stroke:#000000;stroke-width:1.0;" x1="572" x2="572" y1="432.2188" y2="453.8281"/><line style="stroke:#000000;stroke-width:1.0;" x1="339" x2="698" y1="453.8281" y2="453.8281"/><text fill="#000000" font-family="sans-serif" font-size="14" font-weight="bold" lengthAdjust="spacing" textLength="135" x="344" y="470.3613">ParticipantObjectID</text><text fill="#000000" font-family="sans-serif" font-size="14" lengthAdjust="spacing" textLength="116" x="577" y="470.3613">study-instance-uid</text><line style="stroke:#000000;stroke-width:1.0;" x1="572" x2="572" y1="453.8281" y2="475.4375"/><rect fill="none" height="86.4375" rx="5" ry="5" style="stroke:#000000;stroke-width:1.5;" width="359" x="339" y="389"/><rect fill="#F1F1F1" height="21.6094" rx="5" ry="5" style="stroke:#F1F1F1;stroke-width:1.5;" width="279" x="832.5" y="432"/><text fill="#000000" font-family="sans-serif" font-size="14" font-weight="bold" lengthAdjust="spacing" textLength="35" x="837.5" y="448.5332">code</text><text fill="#000000" font-family="sans-serif" font-size="14" lengthAdjust="spacing" textLength="224" x="882.5" y="448.5332">(110180, DCM, Study Instance UID)</text><line style="stroke:#000000;stroke-width:1.0;" x1="877.5" x2="877.5" y1="432" y2="453.6094"/><rect fill="none" height="21.6094" rx="5" ry="5" style="stroke:#000000;stroke-width:1.5;" width="279" x="832.5" y="432"/><rect fill="#F1F1F1" height="15" rx="5" ry="5" style="stroke:#F1F1F1;stroke-width:1.5;" width="30" x="506.5" y="493"/><rect fill="none" height="15" rx="5" ry="5" style="stroke:#000000;stroke-width:1.5;" width="30" x="506.5" y="493"/><rect fill="#F1F1F1" height="108.0469" rx="5" ry="5" style="stroke:#F1F1F1;stroke-width:1.5;" width="349" x="344" y="527"/><text fill="#000000" font-family="sans-serif" font-size="14" font-weight="bold" lengthAdjust="spacing" textLength="191" x="349" y="543.5332">ParticipantObjectTypeCode</text><text fill="#000000" font-family="sans-serif" font-size="14" lengthAdjust="spacing" textLength="8" x="582" y="543.5332">1</text><line style="stroke:#000000;stroke-width:1.0;" x1="577" x2="577" y1="527" y2="548.6094"/><line style="stroke:#000000;stroke-width:1.0;" x1="344" x2="693" y1="548.6094" y2="548.6094"/><text fill="#000000" font-family="sans-serif" font-size="14" font-weight="bold" lengthAdjust="spacing" textLength="223" x="349" y="565.1426">ParticipantObjectTypeCodeRole</text><text fill="#000000" font-family="sans-serif" font-size="14" lengthAdjust="spacing" textLength="8" x="582" y="565.1426">1</text><line style="stroke:#000000;stroke-width:1.0;" x1="577" x2="577" y1="548.6094" y2="570.2188"/><line style="stroke:#000000;stroke-width:1.0;" x1="344" x2="693" y1="570.2188" y2="570.2188"/><text fill="#000000" font-family="sans-serif" font-size="14" font-weight="bold" lengthAdjust="spacing" textLength="205" x="349" y="586.752">ParticipantObjectIDTypeCode</text><text fill="#000000" font-family="sans-serif" font-size="14" lengthAdjust="spacing" textLength="12" x="582" y="586.752">   </text><line style="stroke:#000000;stroke-width:1.0;" x1="577" x2="577" y1="570.2188" y2="591.8281"/><line style="stroke:#000000;stroke-width:1.0;" x1="344" x2="693" y1="591.8281" y2="591.8281"/><text fill="#000000" font-family="sans-serif" font-size="14" font-weight="bold" lengthAdjust="spacing" textLength="135" x="349" y="608.3613">ParticipantObjectID</text><text fill="#000000" font-family="sans-serif" font-size="14" lengthAdjust="spacing" textLength="84" x="582" y="608.3613">the patient ID</text><line style="stroke:#000000;stroke-width:1.0;" x1="577" x2="577" y1="591.8281" y2="613.4375"/><line style="stroke:#000000;stroke-width:1.0;" x1="344" x2="693" y1="613.4375" y2="613.4375"/><text fill="#000000" font-family="sans-serif" font-size="14" font-weight="bold" lengthAdjust="spacing" textLength="160" x="349" y="629.9707">ParticipantObjectName</text><text fill="#000000" font-family="sans-serif" font-size="14" lengthAdjust="spacing" textLength="106" x="582" y="629.9707">the patient name</text><line style="stroke:#000000;stroke-width:1.0;" x1="577" x2="577" y1="613.4375" y2="635.0469"/><rect fill="none" height="108.0469" rx="5" ry="5" style="stroke:#000000;stroke-width:1.5;" width="349" x="344" y="527"/><rect fill="#F1F1F1" height="21.6094" rx="5" ry="5" style="stroke:#F1F1F1;stroke-width:1.5;" width="252" x="846" y="569"/><text fill="#000000" font-family="sans-serif" font-size="14" font-weight="bold" lengthAdjust="spacing" textLength="35" x="851" y="585.5332">code</text><text fill="#000000" font-family="sans-serif" font-size="14" lengthAdjust="spacing" textLength="197" x="896" y="585.5332">(2, RFC-3991, Patient Number)</text><line style="stroke:#000000;stroke-width:1.0;" x1="891" x2="891" y1="569" y2="590.6094"/><rect fill="none" height="21.6094" rx="5" ry="5" style="stroke:#000000;stroke-width:1.5;" width="252" x="846" y="569"/><path d="M630,21 L643,21 C670.3544,21 698.9901,21 727.4666,21 " fill="none" style="stroke:#000000;stroke-width:1.0;stroke-dasharray:3.0,3.0;"/><path d="M727.4666,24.0517 L729.7554,21 L727.4666,17.9483 L735.096,21 L727.4666,24.0517 " fill="#000000" style="stroke:#000000;stroke-width:1.0;"/><ellipse cx="630" cy="21" fill="#000000" rx="3" ry="3" style="stroke:#000000;stroke-width:1.0;"/><path d="M630,108 L643,108 C711.0916,108 787.1224,108 848.8763,108 " fill="none" style="stroke:#000000;stroke-width:1.0;stroke-dasharray:3.0,3.0;"/><path d="M848.8763,111.1374 L851.2294,108 L848.8763,104.8626 L856.7199,108 L848.8763,111.1374 " fill="#000000" style="stroke:#000000;stroke-width:1.0;"/><ellipse cx="630" cy="108" fill="#000000" rx="3" ry="3" style="stroke:#000000;stroke-width:1.0;"/><path d="M291.5,321 L291.5,308 C291.5,266.6307 310.9469,158.4046 339,128 C352.8284,113.0125 370.4345,101.5895 389.183,92.8835 " fill="none" style="stroke:#000000;stroke-width:1.0;stroke-dasharray:3.0,3.0;"/><path d="M390.4174,95.6651 L391.2692,91.9576 L387.9485,90.1018 L396.1371,89.7974 L390.4174,95.6651 " fill="#000000" style="stroke:#000000;stroke-width:1.0;"/><ellipse cx="291.5" cy="321" fill="#000000" rx="3" ry="3" style="stroke:#000000;stroke-width:1.0;"/><path d="M612,234 L625,234 C695.8128,234 774.766,234 839.4008,234 " fill="none" style="stroke:#000000;stroke-width:1.0;stroke-dasharray:3.0,3.0;"/><path d="M839.4008,237.1239 L841.7437,234 L839.4008,230.8761 L847.2106,234 L839.4008,237.1239 " fill="#000000" style="stroke:#000000;stroke-width:1.0;"/><ellipse cx="612" cy="234" fill="#000000" rx="3" ry="3" style="stroke:#000000;stroke-width:1.0;"/><path d="M290,341 L303,341 C344.8463,341 308.6233,282.7813 339,254 C357.8281,236.1608 382.0048,223.3356 406.4598,214.1276 " fill="none" style="stroke:#000000;stroke-width:1.0;stroke-dasharray:3.0,3.0;"/><path d="M407.5088,217.0257 L408.6334,213.3408 L405.4108,211.2294 L413.7051,211.5051 L407.5088,217.0257 " fill="#000000" style="stroke:#000000;stroke-width:1.0;"/><ellipse cx="290" cy="341" fill="#000000" rx="3" ry="3" style="stroke:#000000;stroke-width:1.0;"/><path d="M610,360 L623,360 C688.989,360 762.0064,360 824.0858,360 " fill="none" style="stroke:#000000;stroke-width:1.0;stroke-dasharray:3.0,3.0;"/><path d="M824.0858,363.0061 L826.3404,360 L824.0858,356.9939 L831.6011,360 L824.0858,363.0061 " fill="#000000" style="stroke:#000000;stroke-width:1.0;"/><ellipse cx="610" cy="360" fill="#000000" rx="3" ry="3" style="stroke:#000000;stroke-width:1.0;"/><path d="M290,363 L303,363 C337.6888,363 374.8429,357.2032 408.3407,349.7253 " fill="none" style="stroke:#000000;stroke-width:1.0;stroke-dasharray:3.0,3.0;"/><path d="M409.0302,352.7393 L410.6012,349.2082 L407.6512,346.7113 L415.8756,348.0015 L409.0302,352.7393 " fill="#000000" style="stroke:#000000;stroke-width:1.0;"/><ellipse cx="290" cy="363" fill="#000000" rx="3" ry="3" style="stroke:#000000;stroke-width:1.0;"/><path d="M686,443 L699,443 C739.9741,443 784.4137,443 825.2841,443 " fill="none" style="stroke:#000000;stroke-width:1.0;stroke-dasharray:3.0,3.0;"/><path d="M825.2841,446.0353 L827.5605,443 L825.2841,439.9647 L832.8723,443 L825.2841,446.0353 " fill="#000000" style="stroke:#000000;stroke-width:1.0;"/><ellipse cx="686" cy="443" fill="#000000" rx="3" ry="3" style="stroke:#000000;stroke-width:1.0;"/><path d="M290,385 L303,385 C318.022,385 333.5009,386.1086 348.9422,387.9852 " fill="none" style="stroke:#000000;stroke-width:1.0;stroke-dasharray:3.0,3.0;"/><path d="M348.5496,391.0152 L351.2147,388.2797 L349.3348,384.9552 L356.5173,388.9667 L348.5496,391.0152 " fill="#000000" style="stroke:#000000;stroke-width:1.0;"/><ellipse cx="290" cy="385" fill="#000000" rx="3" ry="3" style="stroke:#000000;stroke-width:1.0;"/><path d="M290,406 L303,406 C341.1809,406 307.8488,461.9233 339,484 C387.8077,518.5898 463.8492,510.9194 499.0006,504.876 " fill="none" style="stroke:#000000;stroke-width:1.0;stroke-dasharray:3.0,3.0;"/><path d="M499.5604,507.9282 L501.2898,504.4561 L498.4408,501.8237 L506.6312,503.4765 L499.5604,507.9282 " fill="#000000" style="stroke:#000000;stroke-width:1.0;"/><ellipse cx="290" cy="406" fill="#000000" rx="3" ry="3" style="stroke:#000000;stroke-width:1.0;"/><path d="M682,580 L695,580 C741.8362,580 793.135,580 838.6915,580 " fill="none" style="stroke:#000000;stroke-width:1.0;stroke-dasharray:3.0,3.0;"/><path d="M838.6915,583.0213 L840.9575,580 L838.6915,576.9787 L846.2448,580 L838.6915,583.0213 " fill="#000000" style="stroke:#000000;stroke-width:1.0;"/><ellipse cx="682" cy="580" fill="#000000" rx="3" ry="3" style="stroke:#000000;stroke-width:1.0;"/><path d="M290,428 L303,428 C346.0813,428 307.9026,488.1847 339,518 C340.4045,519.3466 341.8396,520.6647 343.3029,521.9547 " fill="none" style="stroke:#000000;stroke-width:1.0;stroke-dasharray:3.0,3.0;"/><path d="M341.3676,524.2668 L345.0369,523.4062 L345.2382,519.6427 L349.083,526.793 L341.3676,524.2668 " fill="#000000" style="stroke:#000000;stroke-width:1.0;"/><ellipse cx="290" cy="428" fill="#000000" rx="3" ry="3" style="stroke:#000000;stroke-width:1.0;"/><!--MD5=[7ea3b99ea96df6223c9b704601da84b7]
@startjson
{
	"event": {
	   "eventID" : { "CodedValueType" : "(110102, DCM, Begin Transferring DICOM Instances)"},
	   "EventActionCode": "E",
	   "EventDateTime" : "date-time",
	   "EventOutcomeIndicator": "0",
	   "EventTypeCode" : { "code" : "not specialized (seems odd)"}
	   },
	"ActiveParticipant - sending process" : {
	   "UserID" : "thisuser",
	   "AlternativeUserID" : "theotherID",
	   "Username" : "if known",
	   "UserIsRequestor" : "TRUE",
	   "RoleIDCode" : { "code" : "(110153, DCM, Source Role ID"}
	   },
	"ActiveParticipant - receiving process" : {
	   "UserID" : "thatuser",
	   "AlternativeUserID" : "anotherID",
	   "Username" : "if known",
	   "UserIsRequestor" : "FALSE",
	   "RoleIDCode" : { "code" : "(110152, DCM, Destination Role ID)"}	   
	   },
	"ParticipatingObject - data" : {
	   "ParticipantObjectTypeCode" : 2,
	   "ParticipantObjectTypeCodeRole" : 3,
	   "ParticipantObjectIDTypeCode" : { "code" : "(110180, DCM, Study Instance UID)"},
	   "ParticipantObjectID" : "study-instance-uid"
	   },
	"more participating objects - data" : [],
	"ParticipatingObject - patient" : {
	    "ParticipantObjectTypeCode" : 1,
	    "ParticipantObjectTypeCodeRole" : 1,
	    "ParticipantObjectIDTypeCode" : { "code" : "(2, RFC-3991, Patient Number)"},
	    "ParticipantObjectID" : "the patient ID",
	    "ParticipantObjectName" : "the patient name"
	   }
}
@endjson

PlantUML version 1.2022.8(Sun Sep 25 05:00:33 EDT 2022)
(GPL source distribution)
Java Runtime: Java(TM) SE Runtime Environment
JVM: Java HotSpot(TM) Client VM
Default Encoding: Cp1252
Language: en
Country: US
--></g></svg>