<?xml version="1.0" encoding="UTF-8" standalone="no"?><svg xmlns="http://www.w3.org/2000/svg" xmlns:xlink="http://www.w3.org/1999/xlink" contentStyleType="text/css" height="778px" preserveAspectRatio="none" style="width:1128px;height:778px;background:#FFFFFF;" version="1.1" viewBox="0 0 1128 778" width="1128px" zoomAndPan="magnify"><defs/><g><rect fill="#F1F1F1" height="129.6563" rx="5" ry="5" style="stroke:#F1F1F1;stroke-width:1.5;" width="285" x="10" y="424"/><text fill="#000000" font-family="sans-serif" font-size="14" font-weight="bold" lengthAdjust="spacing" textLength="41" x="15" y="440.5332">event</text><text fill="#000000" font-family="sans-serif" font-size="14" lengthAdjust="spacing" textLength="12" x="278" y="440.5332">   </text><line style="stroke:#000000;stroke-width:1.0;" x1="273" x2="273" y1="424" y2="445.6094"/><line style="stroke:#000000;stroke-width:1.0;" x1="10" x2="295" y1="445.6094" y2="445.6094"/><text fill="#000000" font-family="sans-serif" font-size="14" font-weight="bold" lengthAdjust="spacing" textLength="253" x="15" y="462.1426">ActiveParticipant-exporting process</text><text fill="#000000" font-family="sans-serif" font-size="14" lengthAdjust="spacing" textLength="12" x="278" y="462.1426">   </text><line style="stroke:#000000;stroke-width:1.0;" x1="273" x2="273" y1="445.6094" y2="467.2188"/><line style="stroke:#000000;stroke-width:1.0;" x1="10" x2="295" y1="467.2188" y2="467.2188"/><text fill="#000000" font-family="sans-serif" font-size="14" font-weight="bold" lengthAdjust="spacing" textLength="203" x="15" y="483.752">ActiveParticipant-destination</text><text fill="#000000" font-family="sans-serif" font-size="14" lengthAdjust="spacing" textLength="12" x="278" y="483.752">   </text><line style="stroke:#000000;stroke-width:1.0;" x1="273" x2="273" y1="467.2188" y2="488.8281"/><line style="stroke:#000000;stroke-width:1.0;" x1="10" x2="295" y1="488.8281" y2="488.8281"/><text fill="#000000" font-family="sans-serif" font-size="14" font-weight="bold" lengthAdjust="spacing" textLength="134" x="15" y="505.3613">ParticipatingObject</text><text fill="#000000" font-family="sans-serif" font-size="14" lengthAdjust="spacing" textLength="12" x="278" y="505.3613">   </text><line style="stroke:#000000;stroke-width:1.0;" x1="273" x2="273" y1="488.8281" y2="510.4375"/><line style="stroke:#000000;stroke-width:1.0;" x1="10" x2="295" y1="510.4375" y2="510.4375"/><text fill="#000000" font-family="sans-serif" font-size="14" font-weight="bold" lengthAdjust="spacing" textLength="184" x="15" y="526.9707">more participating objects</text><text fill="#000000" font-family="sans-serif" font-size="14" lengthAdjust="spacing" textLength="12" x="278" y="526.9707">   </text><line style="stroke:#000000;stroke-width:1.0;" x1="273" x2="273" y1="510.4375" y2="532.0469"/><line style="stroke:#000000;stroke-width:1.0;" x1="10" x2="295" y1="532.0469" y2="532.0469"/><text fill="#000000" font-family="sans-serif" font-size="14" font-weight="bold" lengthAdjust="spacing" textLength="188" x="15" y="548.5801">ParticipatingObject-patient</text><text fill="#000000" font-family="sans-serif" font-size="14" lengthAdjust="spacing" textLength="12" x="278" y="548.5801">   </text><line style="stroke:#000000;stroke-width:1.0;" x1="273" x2="273" y1="532.0469" y2="553.6563"/><rect fill="none" height="129.6563" rx="5" ry="5" style="stroke:#000000;stroke-width:1.5;" width="285" x="10" y="424"/><rect fill="#F1F1F1" height="172.875" rx="5" ry="5" style="stroke:#F1F1F1;stroke-width:1.5;" width="245" x="402" y="10.5"/><text fill="#000000" font-family="sans-serif" font-size="14" font-weight="bold" lengthAdjust="spacing" textLength="55" x="407" y="27.0332">eventID</text><text fill="#000000" font-family="sans-serif" font-size="14" lengthAdjust="spacing" textLength="12" x="583" y="27.0332">   </text><line style="stroke:#000000;stroke-width:1.0;" x1="578" x2="578" y1="10.5" y2="32.1094"/><line style="stroke:#000000;stroke-width:1.0;" x1="402" x2="647" y1="32.1094" y2="32.1094"/><text fill="#000000" font-family="sans-serif" font-size="14" font-weight="bold" lengthAdjust="spacing" textLength="122" x="407" y="48.6426">EventActionCode</text><text fill="#000000" font-family="sans-serif" font-size="14" lengthAdjust="spacing" textLength="10" x="583" y="48.6426">R</text><line style="stroke:#000000;stroke-width:1.0;" x1="578" x2="578" y1="32.1094" y2="53.7188"/><line style="stroke:#000000;stroke-width:1.0;" x1="402" x2="647" y1="53.7188" y2="53.7188"/><text fill="#000000" font-family="sans-serif" font-size="14" font-weight="bold" lengthAdjust="spacing" textLength="106" x="407" y="70.252">EventDateTime</text><text fill="#000000" font-family="sans-serif" font-size="14" lengthAdjust="spacing" textLength="59" x="583" y="70.252">date-time</text><line style="stroke:#000000;stroke-width:1.0;" x1="578" x2="578" y1="53.7188" y2="75.3281"/><line style="stroke:#000000;stroke-width:1.0;" x1="402" x2="647" y1="75.3281" y2="75.3281"/><text fill="#000000" font-family="sans-serif" font-size="14" font-weight="bold" lengthAdjust="spacing" textLength="166" x="407" y="91.8613">EventOutcomeIndicator</text><text fill="#000000" font-family="sans-serif" font-size="14" lengthAdjust="spacing" textLength="8" x="583" y="91.8613">0</text><line style="stroke:#000000;stroke-width:1.0;" x1="578" x2="578" y1="75.3281" y2="96.9375"/><line style="stroke:#000000;stroke-width:1.0;" x1="402" x2="647" y1="96.9375" y2="96.9375"/><text fill="#000000" font-family="sans-serif" font-size="14" font-weight="bold" lengthAdjust="spacing" textLength="111" x="407" y="113.4707">EventTypeCode</text><text fill="#000000" font-family="sans-serif" font-size="14" lengthAdjust="spacing" textLength="12" x="583" y="113.4707">   </text><line style="stroke:#000000;stroke-width:1.0;" x1="578" x2="578" y1="96.9375" y2="118.5469"/><line style="stroke:#000000;stroke-width:1.0;" x1="402" x2="647" y1="118.5469" y2="118.5469"/><text fill="#000000" font-family="sans-serif" font-size="14" font-weight="bold" lengthAdjust="spacing" textLength="50" x="407" y="135.0801">traceID</text><text fill="#000000" font-family="sans-serif" font-size="14" lengthAdjust="spacing" textLength="27" x="583" y="135.0801">asdf</text><line style="stroke:#000000;stroke-width:1.0;" x1="578" x2="578" y1="118.5469" y2="140.1563"/><line style="stroke:#000000;stroke-width:1.0;" x1="402" x2="647" y1="140.1563" y2="140.1563"/><text fill="#000000" font-family="sans-serif" font-size="14" font-weight="bold" lengthAdjust="spacing" textLength="60" x="407" y="156.6895">parentID</text><text fill="#000000" font-family="sans-serif" font-size="14" lengthAdjust="spacing" textLength="16" x="583" y="156.6895">lkjl</text><line style="stroke:#000000;stroke-width:1.0;" x1="578" x2="578" y1="140.1563" y2="161.7656"/><line style="stroke:#000000;stroke-width:1.0;" x1="402" x2="647" y1="161.7656" y2="161.7656"/><text fill="#000000" font-family="sans-serif" font-size="14" font-weight="bold" lengthAdjust="spacing" textLength="48" x="407" y="178.2988">childID</text><text fill="#000000" font-family="sans-serif" font-size="14" lengthAdjust="spacing" textLength="24" x="583" y="178.2988">huh</text><line style="stroke:#000000;stroke-width:1.0;" x1="578" x2="578" y1="161.7656" y2="183.375"/><rect fill="none" height="172.875" rx="5" ry="5" style="stroke:#000000;stroke-width:1.5;" width="245" x="402" y="10.5"/><rect fill="#F1F1F1" height="21.6094" rx="5" ry="5" style="stroke:#F1F1F1;stroke-width:1.5;" width="283" x="793.5" y="10"/><text fill="#000000" font-family="sans-serif" font-size="14" font-weight="bold" lengthAdjust="spacing" textLength="118" x="798.5" y="26.5332">CodedValueType</text><text fill="#000000" font-family="sans-serif" font-size="14" lengthAdjust="spacing" textLength="145" x="926.5" y="26.5332">(110106, DCM, Export)</text><line style="stroke:#000000;stroke-width:1.0;" x1="921.5" x2="921.5" y1="10" y2="31.6094"/><rect fill="none" height="21.6094" rx="5" ry="5" style="stroke:#000000;stroke-width:1.5;" width="283" x="793.5" y="10"/><rect fill="#F1F1F1" height="21.6094" rx="5" ry="5" style="stroke:#F1F1F1;stroke-width:1.5;" width="314" x="778" y="97"/><text fill="#000000" font-family="sans-serif" font-size="14" font-weight="bold" lengthAdjust="spacing" textLength="118" x="783" y="113.5332">CodedValueType</text><text fill="#000000" font-family="sans-serif" font-size="14" lengthAdjust="spacing" textLength="176" x="911" y="113.5332">not specialized (seems odd)</text><line style="stroke:#000000;stroke-width:1.0;" x1="906" x2="906" y1="97" y2="118.6094"/><rect fill="none" height="21.6094" rx="5" ry="5" style="stroke:#000000;stroke-width:1.5;" width="314" x="778" y="97"/><rect fill="#F1F1F1" height="108.0469" rx="5" ry="5" style="stroke:#F1F1F1;stroke-width:1.5;" width="342" x="353.5" y="202"/><text fill="#000000" font-family="sans-serif" font-size="14" font-weight="bold" lengthAdjust="spacing" textLength="47" x="358.5" y="218.5332">UserID</text><text fill="#000000" font-family="sans-serif" font-size="14" lengthAdjust="spacing" textLength="198" x="492.5" y="218.5332">UserID of the exporting process</text><line style="stroke:#000000;stroke-width:1.0;" x1="487.5" x2="487.5" y1="202" y2="223.6094"/><line style="stroke:#000000;stroke-width:1.0;" x1="353.5" x2="695.5" y1="223.6094" y2="223.6094"/><text fill="#000000" font-family="sans-serif" font-size="14" font-weight="bold" lengthAdjust="spacing" textLength="124" x="358.5" y="240.1426">AlternativeUserID</text><text fill="#000000" font-family="sans-serif" font-size="14" lengthAdjust="spacing" textLength="66" x="492.5" y="240.1426">theotherID</text><line style="stroke:#000000;stroke-width:1.0;" x1="487.5" x2="487.5" y1="223.6094" y2="245.2188"/><line style="stroke:#000000;stroke-width:1.0;" x1="353.5" x2="695.5" y1="245.2188" y2="245.2188"/><text fill="#000000" font-family="sans-serif" font-size="14" font-weight="bold" lengthAdjust="spacing" textLength="71" x="358.5" y="261.752">Username</text><text fill="#000000" font-family="sans-serif" font-size="14" lengthAdjust="spacing" textLength="51" x="492.5" y="261.752">if known</text><line style="stroke:#000000;stroke-width:1.0;" x1="487.5" x2="487.5" y1="245.2188" y2="266.8281"/><line style="stroke:#000000;stroke-width:1.0;" x1="353.5" x2="695.5" y1="266.8281" y2="266.8281"/><text fill="#000000" font-family="sans-serif" font-size="14" font-weight="bold" lengthAdjust="spacing" textLength="119" x="358.5" y="283.3613">UserIsRequestor</text><text fill="#000000" font-family="sans-serif" font-size="14" lengthAdjust="spacing" textLength="37" x="492.5" y="283.3613">TRUE</text><line style="stroke:#000000;stroke-width:1.0;" x1="487.5" x2="487.5" y1="266.8281" y2="288.4375"/><line style="stroke:#000000;stroke-width:1.0;" x1="353.5" x2="695.5" y1="288.4375" y2="288.4375"/><text fill="#000000" font-family="sans-serif" font-size="14" font-weight="bold" lengthAdjust="spacing" textLength="83" x="358.5" y="304.9707">RoleIDCode</text><text fill="#000000" font-family="sans-serif" font-size="14" lengthAdjust="spacing" textLength="12" x="492.5" y="304.9707">   </text><line style="stroke:#000000;stroke-width:1.0;" x1="487.5" x2="487.5" y1="288.4375" y2="310.0469"/><rect fill="none" height="108.0469" rx="5" ry="5" style="stroke:#000000;stroke-width:1.5;" width="342" x="353.5" y="202"/><rect fill="#F1F1F1" height="21.6094" rx="5" ry="5" style="stroke:#F1F1F1;stroke-width:1.5;" width="338" x="766" y="288"/><text fill="#000000" font-family="sans-serif" font-size="14" font-weight="bold" lengthAdjust="spacing" textLength="118" x="771" y="304.5332">CodedValueType</text><text fill="#000000" font-family="sans-serif" font-size="14" lengthAdjust="spacing" textLength="200" x="899" y="304.5332">(110153, DCM, Source Role ID)</text><line style="stroke:#000000;stroke-width:1.0;" x1="894" x2="894" y1="288" y2="309.6094"/><rect fill="none" height="21.6094" rx="5" ry="5" style="stroke:#000000;stroke-width:1.5;" width="338" x="766" y="288"/><rect fill="#F1F1F1" height="172.875" rx="5" ry="5" style="stroke:#F1F1F1;stroke-width:1.5;" width="385" x="332" y="328.5"/><text fill="#000000" font-family="sans-serif" font-size="14" font-weight="bold" lengthAdjust="spacing" textLength="47" x="337" y="345.0332">UserID</text><text fill="#000000" font-family="sans-serif" font-size="14" lengthAdjust="spacing" textLength="142" x="561" y="345.0332">Identify the destination</text><line style="stroke:#000000;stroke-width:1.0;" x1="556" x2="556" y1="328.5" y2="350.1094"/><line style="stroke:#000000;stroke-width:1.0;" x1="332" x2="717" y1="350.1094" y2="350.1094"/><text fill="#000000" font-family="sans-serif" font-size="14" font-weight="bold" lengthAdjust="spacing" textLength="124" x="337" y="366.6426">AlternativeUserID</text><text fill="#000000" font-family="sans-serif" font-size="14" lengthAdjust="spacing" textLength="62" x="561" y="366.6426">anotherID</text><line style="stroke:#000000;stroke-width:1.0;" x1="556" x2="556" y1="350.1094" y2="371.7188"/><line style="stroke:#000000;stroke-width:1.0;" x1="332" x2="717" y1="371.7188" y2="371.7188"/><text fill="#000000" font-family="sans-serif" font-size="14" font-weight="bold" lengthAdjust="spacing" textLength="71" x="337" y="388.252">Username</text><text fill="#000000" font-family="sans-serif" font-size="14" lengthAdjust="spacing" textLength="51" x="561" y="388.252">if known</text><line style="stroke:#000000;stroke-width:1.0;" x1="556" x2="556" y1="371.7188" y2="393.3281"/><line style="stroke:#000000;stroke-width:1.0;" x1="332" x2="717" y1="393.3281" y2="393.3281"/><text fill="#000000" font-family="sans-serif" font-size="14" font-weight="bold" lengthAdjust="spacing" textLength="119" x="337" y="409.8613">UserIsRequestor</text><text fill="#000000" font-family="sans-serif" font-size="14" lengthAdjust="spacing" textLength="44" x="561" y="409.8613">FALSE</text><line style="stroke:#000000;stroke-width:1.0;" x1="556" x2="556" y1="393.3281" y2="414.9375"/><line style="stroke:#000000;stroke-width:1.0;" x1="332" x2="717" y1="414.9375" y2="414.9375"/><text fill="#000000" font-family="sans-serif" font-size="14" font-weight="bold" lengthAdjust="spacing" textLength="83" x="337" y="431.4707">RoleIDCode</text><text fill="#000000" font-family="sans-serif" font-size="14" lengthAdjust="spacing" textLength="12" x="561" y="431.4707">   </text><line style="stroke:#000000;stroke-width:1.0;" x1="556" x2="556" y1="414.9375" y2="436.5469"/><rect fill="#CCFF02" height="21.6094" rx="2" ry="2" style="stroke:#CCFF02;stroke-width:1.0;" width="383" x="333.5" y="436.5469"/><line style="stroke:#000000;stroke-width:1.0;" x1="332" x2="717" y1="436.5469" y2="436.5469"/><text fill="#000000" font-family="sans-serif" font-size="14" font-weight="bold" lengthAdjust="spacing" textLength="214" x="337" y="453.0801">NetworkAccessPointTypeCode</text><text fill="#000000" font-family="sans-serif" font-size="14" lengthAdjust="spacing" textLength="12" x="561" y="453.0801">   </text><line style="stroke:#000000;stroke-width:1.0;" x1="556" x2="556" y1="436.5469" y2="458.1563"/><line style="stroke:#000000;stroke-width:1.0;" x1="332" x2="717" y1="458.1563" y2="458.1563"/><text fill="#000000" font-family="sans-serif" font-size="14" font-weight="bold" lengthAdjust="spacing" textLength="158" x="337" y="474.6895">NetworkAccessPointID</text><text fill="#000000" font-family="sans-serif" font-size="14" lengthAdjust="spacing" textLength="151" x="561" y="474.6895">typically a URI or IP/Port</text><line style="stroke:#000000;stroke-width:1.0;" x1="556" x2="556" y1="458.1563" y2="479.7656"/><rect fill="#CCFF02" height="21.6094" rx="2" ry="2" style="stroke:#CCFF02;stroke-width:1.0;" width="383" x="333.5" y="479.7656"/><line style="stroke:#000000;stroke-width:1.0;" x1="332" x2="717" y1="479.7656" y2="479.7656"/><text fill="#000000" font-family="sans-serif" font-size="14" font-weight="bold" lengthAdjust="spacing" textLength="76" x="337" y="496.2988">MediaType</text><text fill="#000000" font-family="sans-serif" font-size="14" lengthAdjust="spacing" textLength="12" x="561" y="496.2988">   </text><line style="stroke:#000000;stroke-width:1.0;" x1="556" x2="556" y1="479.7656" y2="501.375"/><rect fill="none" height="172.875" rx="5" ry="5" style="stroke:#000000;stroke-width:1.5;" width="385" x="332" y="328.5"/><rect fill="#F1F1F1" height="21.6094" rx="5" ry="5" style="stroke:#F1F1F1;stroke-width:1.5;" width="356" x="757" y="398"/><text fill="#000000" font-family="sans-serif" font-size="14" font-weight="bold" lengthAdjust="spacing" textLength="118" x="762" y="414.5332">CodedValueType</text><text fill="#000000" font-family="sans-serif" font-size="14" lengthAdjust="spacing" textLength="218" x="890" y="414.5332">(110154, DCM, Destination Media)</text><line style="stroke:#000000;stroke-width:1.0;" x1="885" x2="885" y1="398" y2="419.6094"/><rect fill="none" height="21.6094" rx="5" ry="5" style="stroke:#000000;stroke-width:1.5;" width="356" x="757" y="398"/><rect fill="#F1F1F1" height="21.6094" rx="5" ry="5" style="stroke:#F1F1F1;stroke-width:1.5;" width="273" x="798.5" y="438"/><text fill="#000000" font-family="sans-serif" font-size="14" font-weight="bold" lengthAdjust="spacing" textLength="118" x="803.5" y="454.5332">CodedValueType</text><text fill="#000000" font-family="sans-serif" font-size="14" lengthAdjust="spacing" textLength="135" x="931.5" y="454.5332">what do we put here?</text><line style="stroke:#000000;stroke-width:1.0;" x1="926.5" x2="926.5" y1="438" y2="459.6094"/><rect fill="none" height="21.6094" rx="5" ry="5" style="stroke:#000000;stroke-width:1.5;" width="273" x="798.5" y="438"/><rect fill="#F1F1F1" height="21.6094" rx="5" ry="5" style="stroke:#F1F1F1;stroke-width:1.5;" width="355" x="757.5" y="480"/><text fill="#000000" font-family="sans-serif" font-size="14" font-weight="bold" lengthAdjust="spacing" textLength="118" x="762.5" y="496.5332">CodedValueType</text><text fill="#000000" font-family="sans-serif" font-size="14" lengthAdjust="spacing" textLength="217" x="890.5" y="496.5332">(cpxxxx, DCM, Clipboard Manager)</text><line style="stroke:#000000;stroke-width:1.0;" x1="885.5" x2="885.5" y1="480" y2="501.6094"/><rect fill="none" height="21.6094" rx="5" ry="5" style="stroke:#000000;stroke-width:1.5;" width="355" x="757.5" y="480"/><rect fill="#F1F1F1" height="86.4375" rx="5" ry="5" style="stroke:#F1F1F1;stroke-width:1.5;" width="359" x="345" y="520"/><text fill="#000000" font-family="sans-serif" font-size="14" font-weight="bold" lengthAdjust="spacing" textLength="191" x="350" y="536.5332">ParticipantObjectTypeCode</text><text fill="#000000" font-family="sans-serif" font-size="14" lengthAdjust="spacing" textLength="8" x="583" y="536.5332">2</text><line style="stroke:#000000;stroke-width:1.0;" x1="578" x2="578" y1="520" y2="541.6094"/><line style="stroke:#000000;stroke-width:1.0;" x1="345" x2="704" y1="541.6094" y2="541.6094"/><text fill="#000000" font-family="sans-serif" font-size="14" font-weight="bold" lengthAdjust="spacing" textLength="223" x="350" y="558.1426">ParticipantObjectTypeCodeRole</text><text fill="#000000" font-family="sans-serif" font-size="14" lengthAdjust="spacing" textLength="8" x="583" y="558.1426">3</text><line style="stroke:#000000;stroke-width:1.0;" x1="578" x2="578" y1="541.6094" y2="563.2188"/><line style="stroke:#000000;stroke-width:1.0;" x1="345" x2="704" y1="563.2188" y2="563.2188"/><text fill="#000000" font-family="sans-serif" font-size="14" font-weight="bold" lengthAdjust="spacing" textLength="205" x="350" y="579.752">ParticipantObjectIDTypeCode</text><text fill="#000000" font-family="sans-serif" font-size="14" lengthAdjust="spacing" textLength="12" x="583" y="579.752">   </text><line style="stroke:#000000;stroke-width:1.0;" x1="578" x2="578" y1="563.2188" y2="584.8281"/><line style="stroke:#000000;stroke-width:1.0;" x1="345" x2="704" y1="584.8281" y2="584.8281"/><text fill="#000000" font-family="sans-serif" font-size="14" font-weight="bold" lengthAdjust="spacing" textLength="135" x="350" y="601.3613">ParticipantObjectID</text><text fill="#000000" font-family="sans-serif" font-size="14" lengthAdjust="spacing" textLength="116" x="583" y="601.3613">study-instance-uid</text><line style="stroke:#000000;stroke-width:1.0;" x1="578" x2="578" y1="584.8281" y2="606.4375"/><rect fill="none" height="86.4375" rx="5" ry="5" style="stroke:#000000;stroke-width:1.5;" width="359" x="345" y="520"/><rect fill="#F1F1F1" height="21.6094" rx="5" ry="5" style="stroke:#F1F1F1;stroke-width:1.5;" width="362" x="754" y="563"/><text fill="#000000" font-family="sans-serif" font-size="14" font-weight="bold" lengthAdjust="spacing" textLength="118" x="759" y="579.5332">CodedValueType</text><text fill="#000000" font-family="sans-serif" font-size="14" lengthAdjust="spacing" textLength="224" x="887" y="579.5332">(110180, DCM, Study Instance UID)</text><line style="stroke:#000000;stroke-width:1.0;" x1="882" x2="882" y1="563" y2="584.6094"/><rect fill="none" height="21.6094" rx="5" ry="5" style="stroke:#000000;stroke-width:1.5;" width="362" x="754" y="563"/><rect fill="#F1F1F1" height="15" rx="5" ry="5" style="stroke:#F1F1F1;stroke-width:1.5;" width="30" x="512.5" y="624"/><rect fill="none" height="15" rx="5" ry="5" style="stroke:#000000;stroke-width:1.5;" width="30" x="512.5" y="624"/><rect fill="#F1F1F1" height="108.0469" rx="5" ry="5" style="stroke:#F1F1F1;stroke-width:1.5;" width="349" x="350" y="658"/><text fill="#000000" font-family="sans-serif" font-size="14" font-weight="bold" lengthAdjust="spacing" textLength="191" x="355" y="674.5332">ParticipantObjectTypeCode</text><text fill="#000000" font-family="sans-serif" font-size="14" lengthAdjust="spacing" textLength="8" x="588" y="674.5332">1</text><line style="stroke:#000000;stroke-width:1.0;" x1="583" x2="583" y1="658" y2="679.6094"/><line style="stroke:#000000;stroke-width:1.0;" x1="350" x2="699" y1="679.6094" y2="679.6094"/><text fill="#000000" font-family="sans-serif" font-size="14" font-weight="bold" lengthAdjust="spacing" textLength="223" x="355" y="696.1426">ParticipantObjectTypeCodeRole</text><text fill="#000000" font-family="sans-serif" font-size="14" lengthAdjust="spacing" textLength="8" x="588" y="696.1426">1</text><line style="stroke:#000000;stroke-width:1.0;" x1="583" x2="583" y1="679.6094" y2="701.2188"/><line style="stroke:#000000;stroke-width:1.0;" x1="350" x2="699" y1="701.2188" y2="701.2188"/><text fill="#000000" font-family="sans-serif" font-size="14" font-weight="bold" lengthAdjust="spacing" textLength="205" x="355" y="717.752">ParticipantObjectIDTypeCode</text><text fill="#000000" font-family="sans-serif" font-size="14" lengthAdjust="spacing" textLength="12" x="588" y="717.752">   </text><line style="stroke:#000000;stroke-width:1.0;" x1="583" x2="583" y1="701.2188" y2="722.8281"/><line style="stroke:#000000;stroke-width:1.0;" x1="350" x2="699" y1="722.8281" y2="722.8281"/><text fill="#000000" font-family="sans-serif" font-size="14" font-weight="bold" lengthAdjust="spacing" textLength="135" x="355" y="739.3613">ParticipantObjectID</text><text fill="#000000" font-family="sans-serif" font-size="14" lengthAdjust="spacing" textLength="84" x="588" y="739.3613">the patient ID</text><line style="stroke:#000000;stroke-width:1.0;" x1="583" x2="583" y1="722.8281" y2="744.4375"/><line style="stroke:#000000;stroke-width:1.0;" x1="350" x2="699" y1="744.4375" y2="744.4375"/><text fill="#000000" font-family="sans-serif" font-size="14" font-weight="bold" lengthAdjust="spacing" textLength="160" x="355" y="760.9707">ParticipantObjectName</text><text fill="#000000" font-family="sans-serif" font-size="14" lengthAdjust="spacing" textLength="106" x="588" y="760.9707">the patient name</text><line style="stroke:#000000;stroke-width:1.0;" x1="583" x2="583" y1="744.4375" y2="766.0469"/><rect fill="none" height="108.0469" rx="5" ry="5" style="stroke:#000000;stroke-width:1.5;" width="349" x="350" y="658"/><rect fill="#F1F1F1" height="21.6094" rx="5" ry="5" style="stroke:#F1F1F1;stroke-width:1.5;" width="335" x="767.5" y="700"/><text fill="#000000" font-family="sans-serif" font-size="14" font-weight="bold" lengthAdjust="spacing" textLength="118" x="772.5" y="716.5332">CodedValueType</text><text fill="#000000" font-family="sans-serif" font-size="14" lengthAdjust="spacing" textLength="197" x="900.5" y="716.5332">(2, RFC-3991, Patient Number)</text><line style="stroke:#000000;stroke-width:1.0;" x1="895.5" x2="895.5" y1="700" y2="721.6094"/><rect fill="none" height="21.6094" rx="5" ry="5" style="stroke:#000000;stroke-width:1.5;" width="335" x="767.5" y="700"/><path d="M636,21 L649,21 C693.5126,21 741.9289,21 786.0323,21 " fill="none" style="stroke:#000000;stroke-width:1.0;stroke-dasharray:3.0,3.0;"/><path d="M786.0323,24.0438 L788.3152,21 L786.0323,17.9562 L793.6418,21 L786.0323,24.0438 " fill="#000000" style="stroke:#000000;stroke-width:1.0;"/><ellipse cx="636" cy="21" fill="#000000" rx="3" ry="3" style="stroke:#000000;stroke-width:1.0;"/><path d="M636,108 L649,108 C688.2655,108 730.5688,108 770.2696,108 " fill="none" style="stroke:#000000;stroke-width:1.0;stroke-dasharray:3.0,3.0;"/><path d="M770.2696,111.1615 L772.6408,108 L770.2696,104.8385 L778.1734,108 L770.2696,111.1615 " fill="#000000" style="stroke:#000000;stroke-width:1.0;"/><ellipse cx="636" cy="108" fill="#000000" rx="3" ry="3" style="stroke:#000000;stroke-width:1.0;"/><path d="M285,436 L285,423 C285,370.8327 300.2482,234.3915 332,193 C348.587,171.3772 371.3639,154.2743 395.441,140.8735 " fill="none" style="stroke:#000000;stroke-width:1.0;stroke-dasharray:3.0,3.0;"/><path d="M396.9139,143.6021 L397.4874,139.7689 L393.9681,138.145 L402.2624,137.1913 L396.9139,143.6021 " fill="#000000" style="stroke:#000000;stroke-width:1.0;"/><ellipse cx="285" cy="436" fill="#000000" rx="3" ry="3" style="stroke:#000000;stroke-width:1.0;"/><path d="M684,299 L697,299 C717.0139,299 737.9766,299 758.8086,299 " fill="none" style="stroke:#000000;stroke-width:1.0;stroke-dasharray:3.0,3.0;"/><path d="M758.8086,302.0668 L761.1087,299 L758.8086,295.9332 L766.4757,299 L758.8086,302.0668 " fill="#000000" style="stroke:#000000;stroke-width:1.0;"/><ellipse cx="684" cy="299" fill="#000000" rx="3" ry="3" style="stroke:#000000;stroke-width:1.0;"/><path d="M283,456 L296,456 C358.956,456 288.8408,364.8338 332,319 C336.857,313.842 342.1426,309.1057 347.7589,304.7567 " fill="none" style="stroke:#000000;stroke-width:1.0;stroke-dasharray:3.0,3.0;"/><path d="M349.5864,307.2445 L349.6247,303.3861 L345.9314,302.269 L353.9783,300.188 L349.5864,307.2445 " fill="#000000" style="stroke:#000000;stroke-width:1.0;"/><ellipse cx="283" cy="456" fill="#000000" rx="3" ry="3" style="stroke:#000000;stroke-width:1.0;"/><path d="M705,426 L718,426 C753.9278,426 793.1068,423.6445 828.1382,420.687 " fill="none" style="stroke:#000000;stroke-width:1.0;stroke-dasharray:3.0,3.0;"/><path d="M828.4104,423.8366 L830.5004,420.4828 L827.866,417.5374 L836.0121,420.0064 L828.4104,423.8366 " fill="#000000" style="stroke:#000000;stroke-width:1.0;"/><ellipse cx="705" cy="426" fill="#000000" rx="3" ry="3" style="stroke:#000000;stroke-width:1.0;"/><path d="M705,447 L718,447 C741.6748,447 766.8053,447.1211 791.242,447.3036 " fill="none" style="stroke:#000000;stroke-width:1.0;stroke-dasharray:3.0,3.0;"/><path d="M791.2186,450.3273 L793.5098,447.3212 L791.2655,444.28 L798.8012,447.3622 L791.2186,450.3273 " fill="#000000" style="stroke:#000000;stroke-width:1.0;"/><ellipse cx="705" cy="447" fill="#000000" rx="3" ry="3" style="stroke:#000000;stroke-width:1.0;"/><path d="M705,491 L718,491 C728.5361,491 739.3605,491 750.2839,491 " fill="none" style="stroke:#000000;stroke-width:1.0;stroke-dasharray:3.0,3.0;"/><path d="M750.2839,494.0303 L752.5567,491 L750.2839,487.9697 L757.8598,491 L750.2839,494.0303 " fill="#000000" style="stroke:#000000;stroke-width:1.0;"/><ellipse cx="705" cy="491" fill="#000000" rx="3" ry="3" style="stroke:#000000;stroke-width:1.0;"/><path d="M283,478 L296,478 C305.3972,478 314.9361,477.4966 324.5164,476.5799 " fill="none" style="stroke:#000000;stroke-width:1.0;stroke-dasharray:3.0,3.0;"/><path d="M324.8452,479.6559 L326.8234,476.3333 L324.1875,473.5039 L332.2065,475.7578 L324.8452,479.6559 " fill="#000000" style="stroke:#000000;stroke-width:1.0;"/><ellipse cx="283" cy="478" fill="#000000" rx="3" ry="3" style="stroke:#000000;stroke-width:1.0;"/><path d="M693,574 L706,574 C719.2213,574 732.8729,574 746.6188,574 " fill="none" style="stroke:#000000;stroke-width:1.0;stroke-dasharray:3.0,3.0;"/><path d="M746.6188,577.0576 L748.912,574 L746.6188,570.9424 L754.2629,574 L746.6188,577.0576 " fill="#000000" style="stroke:#000000;stroke-width:1.0;"/><ellipse cx="693" cy="574" fill="#000000" rx="3" ry="3" style="stroke:#000000;stroke-width:1.0;"/><path d="M283,500 L296,500 C312.6058,500 315.9964,505.5685 332,510 C341.3612,512.5922 350.9797,515.2537 360.6863,517.9379 " fill="none" style="stroke:#000000;stroke-width:1.0;stroke-dasharray:3.0,3.0;"/><path d="M359.8638,520.9128 L362.9175,518.5549 L361.5089,514.9631 L368.1234,519.9943 L359.8638,520.9128 " fill="#000000" style="stroke:#000000;stroke-width:1.0;"/><ellipse cx="283" cy="500" fill="#000000" rx="3" ry="3" style="stroke:#000000;stroke-width:1.0;"/><path d="M283,521 L296,521 C340.7368,521 296.2961,588.0443 332,615 C383.893,654.1781 467.6205,643.6771 504.9627,636.3402 " fill="none" style="stroke:#000000;stroke-width:1.0;stroke-dasharray:3.0,3.0;"/><path d="M505.5978,639.3973 L507.2556,635.8639 L504.3277,633.2831 L512.6056,634.7527 L505.5978,639.3973 " fill="#000000" style="stroke:#000000;stroke-width:1.0;"/><ellipse cx="283" cy="521" fill="#000000" rx="3" ry="3" style="stroke:#000000;stroke-width:1.0;"/><path d="M688,711 L701,711 C720.1412,711 740.1651,711 760.0948,711 " fill="none" style="stroke:#000000;stroke-width:1.0;stroke-dasharray:3.0,3.0;"/><path d="M760.0948,714.0526 L762.3843,711 L760.0948,707.9474 L767.7264,711 L760.0948,714.0526 " fill="#000000" style="stroke:#000000;stroke-width:1.0;"/><ellipse cx="688" cy="711" fill="#000000" rx="3" ry="3" style="stroke:#000000;stroke-width:1.0;"/><path d="M283,543 L296,543 C345.754,543 296.6371,614.0011 332,649 C335.7694,652.7306 339.7632,656.2403 343.9416,659.5422 " fill="none" style="stroke:#000000;stroke-width:1.0;stroke-dasharray:3.0,3.0;"/><path d="M342.0654,662.042 L345.8165,660.9493 L345.8178,657.0424 L350.1911,664.2327 L342.0654,662.042 " fill="#000000" style="stroke:#000000;stroke-width:1.0;"/><ellipse cx="283" cy="543" fill="#000000" rx="3" ry="3" style="stroke:#000000;stroke-width:1.0;"/><!--MD5=[ec4cf45275841c0ba662ef61c96dbb86]
@startjson
#highlight "ActiveParticipant-destination" / "NetworkAccessPointTypeCode"
#highlight  "ActiveParticipant-destination" / "MediaType"
{
	"event": {
	   "eventID" : {
	       "CodedValueType" : "(110106, DCM, Export)"
	       },
	   "EventActionCode": "R",
	   "EventDateTime" : "date-time",
	   "EventOutcomeIndicator": "0",
	   "EventTypeCode" : {
	   	"CodedValueType" : "not specialized (seems odd)"
		},
	   "traceID" : "asdf",
	   "parentID" : "lkjl",
	   "childID" : "huh"
	   },
	"ActiveParticipant-exporting process" : {
	   "UserID" : "UserID of the exporting process",
	   "AlternativeUserID" : "theotherID",
	   "Username" : "if known",
	   "UserIsRequestor" : "TRUE",
	   "RoleIDCode" : {
	   	"CodedValueType" : "(110153, DCM, Source Role ID)"
		}
	   },
	"ActiveParticipant-destination" : {
	   "UserID" : "Identify the destination",
	   "AlternativeUserID" : "anotherID",
	   "Username" : "if known",
	   "UserIsRequestor" : "FALSE",
	   "RoleIDCode" : {
	   	"CodedValueType" : "(110154, DCM, Destination Media)"
		},
	   "NetworkAccessPointTypeCode" : {
	   	"CodedValueType" : "what do we put here?"
		},
	   "NetworkAccessPointID" : "typically a URI or IP/Port",
	   "MediaType" : {
	    	"CodedValueType" : "(cpxxxx, DCM, Clipboard Manager)"
		}
	   },
	"ParticipatingObject" : {
	   "ParticipantObjectTypeCode" : 2,
	   "ParticipantObjectTypeCodeRole" : 3,
	   "ParticipantObjectIDTypeCode" : {
	       "CodedValueType" : "(110180, DCM, Study Instance UID)"
	       },
	   "ParticipantObjectID" : "study-instance-uid"
	   },
	"more participating objects" : [],
	"ParticipatingObject-patient" : {
	    "ParticipantObjectTypeCode" : 1,
	    "ParticipantObjectTypeCodeRole" : 1,
	    "ParticipantObjectIDTypeCode" : {
	        "CodedValueType" : "(2, RFC-3991, Patient Number)"
	        },
	    "ParticipantObjectID" : "the patient ID",
	    "ParticipantObjectName" : "the patient name"
	   }
}
@endjson

PlantUML version 1.2022.8(Sun Sep 25 05:00:33 EDT 2022)
(GPL source distribution)
Java Runtime: Java(TM) SE Runtime Environment
JVM: Java HotSpot(TM) Client VM
Default Encoding: Cp1252
Language: en
Country: US
--></g></svg>