<?xml version="1.0" encoding="UTF-8" standalone="no"?><svg xmlns="http://www.w3.org/2000/svg" xmlns:xlink="http://www.w3.org/1999/xlink" contentStyleType="text/css" height="778px" preserveAspectRatio="none" style="width:1190px;height:778px;background:#FFFFFF;" version="1.1" viewBox="0 0 1190 778" width="1190px" zoomAndPan="magnify"><defs/><g><rect fill="#F1F1F1" height="129.6563" rx="5" ry="5" style="stroke:#F1F1F1;stroke-width:1.5;" width="284" x="10" y="424"/><text fill="#000000" font-family="sans-serif" font-size="14" font-weight="bold" lengthAdjust="spacing" textLength="41" x="15" y="440.5332">event</text><text fill="#000000" font-family="sans-serif" font-size="14" lengthAdjust="spacing" textLength="12" x="277" y="440.5332">   </text><line style="stroke:#000000;stroke-width:1.0;" x1="272" x2="272" y1="424" y2="445.6094"/><line style="stroke:#000000;stroke-width:1.0;" x1="10" x2="294" y1="445.6094" y2="445.6094"/><text fill="#000000" font-family="sans-serif" font-size="14" font-weight="bold" lengthAdjust="spacing" textLength="252" x="15" y="462.1426">ActiveParticipant-importing process</text><text fill="#000000" font-family="sans-serif" font-size="14" lengthAdjust="spacing" textLength="12" x="277" y="462.1426">   </text><line style="stroke:#000000;stroke-width:1.0;" x1="272" x2="272" y1="445.6094" y2="467.2188"/><line style="stroke:#000000;stroke-width:1.0;" x1="10" x2="294" y1="467.2188" y2="467.2188"/><text fill="#000000" font-family="sans-serif" font-size="14" font-weight="bold" lengthAdjust="spacing" textLength="173" x="15" y="483.752">ActiveParticipant-source</text><text fill="#000000" font-family="sans-serif" font-size="14" lengthAdjust="spacing" textLength="12" x="277" y="483.752">   </text><line style="stroke:#000000;stroke-width:1.0;" x1="272" x2="272" y1="467.2188" y2="488.8281"/><line style="stroke:#000000;stroke-width:1.0;" x1="10" x2="294" y1="488.8281" y2="488.8281"/><text fill="#000000" font-family="sans-serif" font-size="14" font-weight="bold" lengthAdjust="spacing" textLength="134" x="15" y="505.3613">ParticipatingObject</text><text fill="#000000" font-family="sans-serif" font-size="14" lengthAdjust="spacing" textLength="12" x="277" y="505.3613">   </text><line style="stroke:#000000;stroke-width:1.0;" x1="272" x2="272" y1="488.8281" y2="510.4375"/><line style="stroke:#000000;stroke-width:1.0;" x1="10" x2="294" y1="510.4375" y2="510.4375"/><text fill="#000000" font-family="sans-serif" font-size="14" font-weight="bold" lengthAdjust="spacing" textLength="184" x="15" y="526.9707">more participating objects</text><text fill="#000000" font-family="sans-serif" font-size="14" lengthAdjust="spacing" textLength="12" x="277" y="526.9707">   </text><line style="stroke:#000000;stroke-width:1.0;" x1="272" x2="272" y1="510.4375" y2="532.0469"/><line style="stroke:#000000;stroke-width:1.0;" x1="10" x2="294" y1="532.0469" y2="532.0469"/><text fill="#000000" font-family="sans-serif" font-size="14" font-weight="bold" lengthAdjust="spacing" textLength="134" x="15" y="548.5801">ParticipatingObject</text><text fill="#000000" font-family="sans-serif" font-size="14" lengthAdjust="spacing" textLength="12" x="277" y="548.5801">   </text><line style="stroke:#000000;stroke-width:1.0;" x1="272" x2="272" y1="532.0469" y2="553.6563"/><rect fill="none" height="129.6563" rx="5" ry="5" style="stroke:#000000;stroke-width:1.5;" width="284" x="10" y="424"/><rect fill="#F1F1F1" height="172.875" rx="5" ry="5" style="stroke:#F1F1F1;stroke-width:1.5;" width="245" x="401" y="10.5"/><text fill="#000000" font-family="sans-serif" font-size="14" font-weight="bold" lengthAdjust="spacing" textLength="55" x="406" y="27.0332">eventID</text><text fill="#000000" font-family="sans-serif" font-size="14" lengthAdjust="spacing" textLength="12" x="582" y="27.0332">   </text><line style="stroke:#000000;stroke-width:1.0;" x1="577" x2="577" y1="10.5" y2="32.1094"/><line style="stroke:#000000;stroke-width:1.0;" x1="401" x2="646" y1="32.1094" y2="32.1094"/><text fill="#000000" font-family="sans-serif" font-size="14" font-weight="bold" lengthAdjust="spacing" textLength="122" x="406" y="48.6426">EventActionCode</text><text fill="#000000" font-family="sans-serif" font-size="14" lengthAdjust="spacing" textLength="10" x="582" y="48.6426">C</text><line style="stroke:#000000;stroke-width:1.0;" x1="577" x2="577" y1="32.1094" y2="53.7188"/><line style="stroke:#000000;stroke-width:1.0;" x1="401" x2="646" y1="53.7188" y2="53.7188"/><text fill="#000000" font-family="sans-serif" font-size="14" font-weight="bold" lengthAdjust="spacing" textLength="106" x="406" y="70.252">EventDateTime</text><text fill="#000000" font-family="sans-serif" font-size="14" lengthAdjust="spacing" textLength="59" x="582" y="70.252">date-time</text><line style="stroke:#000000;stroke-width:1.0;" x1="577" x2="577" y1="53.7188" y2="75.3281"/><line style="stroke:#000000;stroke-width:1.0;" x1="401" x2="646" y1="75.3281" y2="75.3281"/><text fill="#000000" font-family="sans-serif" font-size="14" font-weight="bold" lengthAdjust="spacing" textLength="166" x="406" y="91.8613">EventOutcomeIndicator</text><text fill="#000000" font-family="sans-serif" font-size="14" lengthAdjust="spacing" textLength="8" x="582" y="91.8613">0</text><line style="stroke:#000000;stroke-width:1.0;" x1="577" x2="577" y1="75.3281" y2="96.9375"/><line style="stroke:#000000;stroke-width:1.0;" x1="401" x2="646" y1="96.9375" y2="96.9375"/><text fill="#000000" font-family="sans-serif" font-size="14" font-weight="bold" lengthAdjust="spacing" textLength="111" x="406" y="113.4707">EventTypeCode</text><text fill="#000000" font-family="sans-serif" font-size="14" lengthAdjust="spacing" textLength="12" x="582" y="113.4707">   </text><line style="stroke:#000000;stroke-width:1.0;" x1="577" x2="577" y1="96.9375" y2="118.5469"/><line style="stroke:#000000;stroke-width:1.0;" x1="401" x2="646" y1="118.5469" y2="118.5469"/><text fill="#000000" font-family="sans-serif" font-size="14" font-weight="bold" lengthAdjust="spacing" textLength="50" x="406" y="135.0801">traceID</text><text fill="#000000" font-family="sans-serif" font-size="14" lengthAdjust="spacing" textLength="27" x="582" y="135.0801">asdf</text><line style="stroke:#000000;stroke-width:1.0;" x1="577" x2="577" y1="118.5469" y2="140.1563"/><line style="stroke:#000000;stroke-width:1.0;" x1="401" x2="646" y1="140.1563" y2="140.1563"/><text fill="#000000" font-family="sans-serif" font-size="14" font-weight="bold" lengthAdjust="spacing" textLength="60" x="406" y="156.6895">parentID</text><text fill="#000000" font-family="sans-serif" font-size="14" lengthAdjust="spacing" textLength="16" x="582" y="156.6895">lkjl</text><line style="stroke:#000000;stroke-width:1.0;" x1="577" x2="577" y1="140.1563" y2="161.7656"/><line style="stroke:#000000;stroke-width:1.0;" x1="401" x2="646" y1="161.7656" y2="161.7656"/><text fill="#000000" font-family="sans-serif" font-size="14" font-weight="bold" lengthAdjust="spacing" textLength="48" x="406" y="178.2988">childID</text><text fill="#000000" font-family="sans-serif" font-size="14" lengthAdjust="spacing" textLength="24" x="582" y="178.2988">huh</text><line style="stroke:#000000;stroke-width:1.0;" x1="577" x2="577" y1="161.7656" y2="183.375"/><rect fill="none" height="172.875" rx="5" ry="5" style="stroke:#000000;stroke-width:1.5;" width="245" x="401" y="10.5"/><rect fill="#F1F1F1" height="21.6094" rx="5" ry="5" style="stroke:#F1F1F1;stroke-width:1.5;" width="22" x="753" y="10"/><text fill="#000000" font-family="sans-serif" font-size="14" lengthAdjust="spacing" textLength="12" x="758" y="26.5332">   </text><rect fill="none" height="21.6094" rx="5" ry="5" style="stroke:#000000;stroke-width:1.5;" width="22" x="753" y="10"/><rect fill="#F1F1F1" height="21.6094" rx="5" ry="5" style="stroke:#F1F1F1;stroke-width:1.5;" width="283" x="854.5" y="10"/><text fill="#000000" font-family="sans-serif" font-size="14" font-weight="bold" lengthAdjust="spacing" textLength="118" x="859.5" y="26.5332">CodedValueType</text><text fill="#000000" font-family="sans-serif" font-size="14" lengthAdjust="spacing" textLength="145" x="987.5" y="26.5332">(110106, DCM, Export)</text><line style="stroke:#000000;stroke-width:1.0;" x1="982.5" x2="982.5" y1="10" y2="31.6094"/><rect fill="none" height="21.6094" rx="5" ry="5" style="stroke:#000000;stroke-width:1.5;" width="283" x="854.5" y="10"/><rect fill="#F1F1F1" height="21.6094" rx="5" ry="5" style="stroke:#F1F1F1;stroke-width:1.5;" width="22" x="753" y="97"/><text fill="#000000" font-family="sans-serif" font-size="14" lengthAdjust="spacing" textLength="12" x="758" y="113.5332">   </text><rect fill="none" height="21.6094" rx="5" ry="5" style="stroke:#000000;stroke-width:1.5;" width="22" x="753" y="97"/><rect fill="#F1F1F1" height="21.6094" rx="5" ry="5" style="stroke:#F1F1F1;stroke-width:1.5;" width="314" x="839" y="97"/><text fill="#000000" font-family="sans-serif" font-size="14" font-weight="bold" lengthAdjust="spacing" textLength="118" x="844" y="113.5332">CodedValueType</text><text fill="#000000" font-family="sans-serif" font-size="14" lengthAdjust="spacing" textLength="176" x="972" y="113.5332">not specialized (seems odd)</text><line style="stroke:#000000;stroke-width:1.0;" x1="967" x2="967" y1="97" y2="118.6094"/><rect fill="none" height="21.6094" rx="5" ry="5" style="stroke:#000000;stroke-width:1.5;" width="314" x="839" y="97"/><rect fill="#F1F1F1" height="108.0469" rx="5" ry="5" style="stroke:#F1F1F1;stroke-width:1.5;" width="342" x="352.5" y="202"/><text fill="#000000" font-family="sans-serif" font-size="14" font-weight="bold" lengthAdjust="spacing" textLength="47" x="357.5" y="218.5332">UserID</text><text fill="#000000" font-family="sans-serif" font-size="14" lengthAdjust="spacing" textLength="198" x="491.5" y="218.5332">UserID of the importing process</text><line style="stroke:#000000;stroke-width:1.0;" x1="486.5" x2="486.5" y1="202" y2="223.6094"/><line style="stroke:#000000;stroke-width:1.0;" x1="352.5" x2="694.5" y1="223.6094" y2="223.6094"/><text fill="#000000" font-family="sans-serif" font-size="14" font-weight="bold" lengthAdjust="spacing" textLength="124" x="357.5" y="240.1426">AlternativeUserID</text><text fill="#000000" font-family="sans-serif" font-size="14" lengthAdjust="spacing" textLength="66" x="491.5" y="240.1426">theotherID</text><line style="stroke:#000000;stroke-width:1.0;" x1="486.5" x2="486.5" y1="223.6094" y2="245.2188"/><line style="stroke:#000000;stroke-width:1.0;" x1="352.5" x2="694.5" y1="245.2188" y2="245.2188"/><text fill="#000000" font-family="sans-serif" font-size="14" font-weight="bold" lengthAdjust="spacing" textLength="71" x="357.5" y="261.752">Username</text><text fill="#000000" font-family="sans-serif" font-size="14" lengthAdjust="spacing" textLength="51" x="491.5" y="261.752">if known</text><line style="stroke:#000000;stroke-width:1.0;" x1="486.5" x2="486.5" y1="245.2188" y2="266.8281"/><line style="stroke:#000000;stroke-width:1.0;" x1="352.5" x2="694.5" y1="266.8281" y2="266.8281"/><text fill="#000000" font-family="sans-serif" font-size="14" font-weight="bold" lengthAdjust="spacing" textLength="119" x="357.5" y="283.3613">UserIsRequestor</text><text fill="#000000" font-family="sans-serif" font-size="14" lengthAdjust="spacing" textLength="37" x="491.5" y="283.3613">TRUE</text><line style="stroke:#000000;stroke-width:1.0;" x1="486.5" x2="486.5" y1="266.8281" y2="288.4375"/><line style="stroke:#000000;stroke-width:1.0;" x1="352.5" x2="694.5" y1="288.4375" y2="288.4375"/><text fill="#000000" font-family="sans-serif" font-size="14" font-weight="bold" lengthAdjust="spacing" textLength="83" x="357.5" y="304.9707">RoleIDCode</text><text fill="#000000" font-family="sans-serif" font-size="14" lengthAdjust="spacing" textLength="12" x="491.5" y="304.9707">   </text><line style="stroke:#000000;stroke-width:1.0;" x1="486.5" x2="486.5" y1="288.4375" y2="310.0469"/><rect fill="none" height="108.0469" rx="5" ry="5" style="stroke:#000000;stroke-width:1.5;" width="342" x="352.5" y="202"/><rect fill="#F1F1F1" height="21.6094" rx="5" ry="5" style="stroke:#F1F1F1;stroke-width:1.5;" width="22" x="753" y="288"/><text fill="#000000" font-family="sans-serif" font-size="14" lengthAdjust="spacing" textLength="12" x="758" y="304.5332">   </text><rect fill="none" height="21.6094" rx="5" ry="5" style="stroke:#000000;stroke-width:1.5;" width="22" x="753" y="288"/><rect fill="#F1F1F1" height="21.6094" rx="5" ry="5" style="stroke:#F1F1F1;stroke-width:1.5;" width="364" x="814" y="288"/><text fill="#000000" font-family="sans-serif" font-size="14" font-weight="bold" lengthAdjust="spacing" textLength="118" x="819" y="304.5332">CodedValueType</text><text fill="#000000" font-family="sans-serif" font-size="14" lengthAdjust="spacing" textLength="226" x="947" y="304.5332">(110152, DCM, Destination Role ID)</text><line style="stroke:#000000;stroke-width:1.0;" x1="942" x2="942" y1="288" y2="309.6094"/><rect fill="none" height="21.6094" rx="5" ry="5" style="stroke:#000000;stroke-width:1.5;" width="364" x="814" y="288"/><rect fill="#F1F1F1" height="172.875" rx="5" ry="5" style="stroke:#F1F1F1;stroke-width:1.5;" width="385" x="331" y="328.5"/><text fill="#000000" font-family="sans-serif" font-size="14" font-weight="bold" lengthAdjust="spacing" textLength="47" x="336" y="345.0332">UserID</text><text fill="#000000" font-family="sans-serif" font-size="14" lengthAdjust="spacing" textLength="116" x="560" y="345.0332">Identify the source</text><line style="stroke:#000000;stroke-width:1.0;" x1="555" x2="555" y1="328.5" y2="350.1094"/><line style="stroke:#000000;stroke-width:1.0;" x1="331" x2="716" y1="350.1094" y2="350.1094"/><text fill="#000000" font-family="sans-serif" font-size="14" font-weight="bold" lengthAdjust="spacing" textLength="124" x="336" y="366.6426">AlternativeUserID</text><text fill="#000000" font-family="sans-serif" font-size="14" lengthAdjust="spacing" textLength="62" x="560" y="366.6426">anotherID</text><line style="stroke:#000000;stroke-width:1.0;" x1="555" x2="555" y1="350.1094" y2="371.7188"/><line style="stroke:#000000;stroke-width:1.0;" x1="331" x2="716" y1="371.7188" y2="371.7188"/><text fill="#000000" font-family="sans-serif" font-size="14" font-weight="bold" lengthAdjust="spacing" textLength="71" x="336" y="388.252">Username</text><text fill="#000000" font-family="sans-serif" font-size="14" lengthAdjust="spacing" textLength="51" x="560" y="388.252">if known</text><line style="stroke:#000000;stroke-width:1.0;" x1="555" x2="555" y1="371.7188" y2="393.3281"/><line style="stroke:#000000;stroke-width:1.0;" x1="331" x2="716" y1="393.3281" y2="393.3281"/><text fill="#000000" font-family="sans-serif" font-size="14" font-weight="bold" lengthAdjust="spacing" textLength="119" x="336" y="409.8613">UserIsRequestor</text><text fill="#000000" font-family="sans-serif" font-size="14" lengthAdjust="spacing" textLength="44" x="560" y="409.8613">FALSE</text><line style="stroke:#000000;stroke-width:1.0;" x1="555" x2="555" y1="393.3281" y2="414.9375"/><line style="stroke:#000000;stroke-width:1.0;" x1="331" x2="716" y1="414.9375" y2="414.9375"/><text fill="#000000" font-family="sans-serif" font-size="14" font-weight="bold" lengthAdjust="spacing" textLength="83" x="336" y="431.4707">RoleIDCode</text><text fill="#000000" font-family="sans-serif" font-size="14" lengthAdjust="spacing" textLength="12" x="560" y="431.4707">   </text><line style="stroke:#000000;stroke-width:1.0;" x1="555" x2="555" y1="414.9375" y2="436.5469"/><line style="stroke:#000000;stroke-width:1.0;" x1="331" x2="716" y1="436.5469" y2="436.5469"/><text fill="#000000" font-family="sans-serif" font-size="14" font-weight="bold" lengthAdjust="spacing" textLength="214" x="336" y="453.0801">NetworkAccessPointTypeCode</text><text fill="#000000" font-family="sans-serif" font-size="14" lengthAdjust="spacing" textLength="12" x="560" y="453.0801">   </text><line style="stroke:#000000;stroke-width:1.0;" x1="555" x2="555" y1="436.5469" y2="458.1563"/><line style="stroke:#000000;stroke-width:1.0;" x1="331" x2="716" y1="458.1563" y2="458.1563"/><text fill="#000000" font-family="sans-serif" font-size="14" font-weight="bold" lengthAdjust="spacing" textLength="158" x="336" y="474.6895">NetworkAccessPointID</text><text fill="#000000" font-family="sans-serif" font-size="14" lengthAdjust="spacing" textLength="151" x="560" y="474.6895">typically a URI or IP/Port</text><line style="stroke:#000000;stroke-width:1.0;" x1="555" x2="555" y1="458.1563" y2="479.7656"/><line style="stroke:#000000;stroke-width:1.0;" x1="331" x2="716" y1="479.7656" y2="479.7656"/><text fill="#000000" font-family="sans-serif" font-size="14" font-weight="bold" lengthAdjust="spacing" textLength="76" x="336" y="496.2988">MediaType</text><text fill="#000000" font-family="sans-serif" font-size="14" lengthAdjust="spacing" textLength="12" x="560" y="496.2988">   </text><line style="stroke:#000000;stroke-width:1.0;" x1="555" x2="555" y1="479.7656" y2="501.375"/><rect fill="none" height="172.875" rx="5" ry="5" style="stroke:#000000;stroke-width:1.5;" width="385" x="331" y="328.5"/><rect fill="#F1F1F1" height="21.6094" rx="5" ry="5" style="stroke:#F1F1F1;stroke-width:1.5;" width="22" x="753" y="398"/><text fill="#000000" font-family="sans-serif" font-size="14" lengthAdjust="spacing" textLength="12" x="758" y="414.5332">   </text><rect fill="none" height="21.6094" rx="5" ry="5" style="stroke:#000000;stroke-width:1.5;" width="22" x="753" y="398"/><rect fill="#F1F1F1" height="21.6094" rx="5" ry="5" style="stroke:#F1F1F1;stroke-width:1.5;" width="330" x="831" y="398"/><text fill="#000000" font-family="sans-serif" font-size="14" font-weight="bold" lengthAdjust="spacing" textLength="118" x="836" y="414.5332">CodedValueType</text><text fill="#000000" font-family="sans-serif" font-size="14" lengthAdjust="spacing" textLength="192" x="964" y="414.5332">(110155, DCM, Source Media)</text><line style="stroke:#000000;stroke-width:1.0;" x1="959" x2="959" y1="398" y2="419.6094"/><rect fill="none" height="21.6094" rx="5" ry="5" style="stroke:#000000;stroke-width:1.5;" width="330" x="831" y="398"/><rect fill="#F1F1F1" height="21.6094" rx="5" ry="5" style="stroke:#F1F1F1;stroke-width:1.5;" width="22" x="753" y="438"/><text fill="#000000" font-family="sans-serif" font-size="14" lengthAdjust="spacing" textLength="12" x="758" y="454.5332">   </text><rect fill="none" height="21.6094" rx="5" ry="5" style="stroke:#000000;stroke-width:1.5;" width="22" x="753" y="438"/><rect fill="#F1F1F1" height="21.6094" rx="5" ry="5" style="stroke:#F1F1F1;stroke-width:1.5;" width="273" x="859.5" y="438"/><text fill="#000000" font-family="sans-serif" font-size="14" font-weight="bold" lengthAdjust="spacing" textLength="118" x="864.5" y="454.5332">CodedValueType</text><text fill="#000000" font-family="sans-serif" font-size="14" lengthAdjust="spacing" textLength="135" x="992.5" y="454.5332">what do we put here?</text><line style="stroke:#000000;stroke-width:1.0;" x1="987.5" x2="987.5" y1="438" y2="459.6094"/><rect fill="none" height="21.6094" rx="5" ry="5" style="stroke:#000000;stroke-width:1.5;" width="273" x="859.5" y="438"/><rect fill="#F1F1F1" height="21.6094" rx="5" ry="5" style="stroke:#F1F1F1;stroke-width:1.5;" width="22" x="753" y="480"/><text fill="#000000" font-family="sans-serif" font-size="14" lengthAdjust="spacing" textLength="12" x="758" y="496.5332">   </text><rect fill="none" height="21.6094" rx="5" ry="5" style="stroke:#000000;stroke-width:1.5;" width="22" x="753" y="480"/><rect fill="#F1F1F1" height="21.6094" rx="5" ry="5" style="stroke:#F1F1F1;stroke-width:1.5;" width="355" x="818.5" y="480"/><text fill="#000000" font-family="sans-serif" font-size="14" font-weight="bold" lengthAdjust="spacing" textLength="118" x="823.5" y="496.5332">CodedValueType</text><text fill="#000000" font-family="sans-serif" font-size="14" lengthAdjust="spacing" textLength="217" x="951.5" y="496.5332">(cpxxxx, DCM, Clipboard Manager)</text><line style="stroke:#000000;stroke-width:1.0;" x1="946.5" x2="946.5" y1="480" y2="501.6094"/><rect fill="none" height="21.6094" rx="5" ry="5" style="stroke:#000000;stroke-width:1.5;" width="355" x="818.5" y="480"/><rect fill="#F1F1F1" height="86.4375" rx="5" ry="5" style="stroke:#F1F1F1;stroke-width:1.5;" width="359" x="344" y="520"/><text fill="#000000" font-family="sans-serif" font-size="14" font-weight="bold" lengthAdjust="spacing" textLength="191" x="349" y="536.5332">ParticipantObjectTypeCode</text><text fill="#000000" font-family="sans-serif" font-size="14" lengthAdjust="spacing" textLength="8" x="582" y="536.5332">2</text><line style="stroke:#000000;stroke-width:1.0;" x1="577" x2="577" y1="520" y2="541.6094"/><line style="stroke:#000000;stroke-width:1.0;" x1="344" x2="703" y1="541.6094" y2="541.6094"/><text fill="#000000" font-family="sans-serif" font-size="14" font-weight="bold" lengthAdjust="spacing" textLength="223" x="349" y="558.1426">ParticipantObjectTypeCodeRole</text><text fill="#000000" font-family="sans-serif" font-size="14" lengthAdjust="spacing" textLength="8" x="582" y="558.1426">3</text><line style="stroke:#000000;stroke-width:1.0;" x1="577" x2="577" y1="541.6094" y2="563.2188"/><line style="stroke:#000000;stroke-width:1.0;" x1="344" x2="703" y1="563.2188" y2="563.2188"/><text fill="#000000" font-family="sans-serif" font-size="14" font-weight="bold" lengthAdjust="spacing" textLength="205" x="349" y="579.752">ParticipantObjectIDTypeCode</text><text fill="#000000" font-family="sans-serif" font-size="14" lengthAdjust="spacing" textLength="12" x="582" y="579.752">   </text><line style="stroke:#000000;stroke-width:1.0;" x1="577" x2="577" y1="563.2188" y2="584.8281"/><line style="stroke:#000000;stroke-width:1.0;" x1="344" x2="703" y1="584.8281" y2="584.8281"/><text fill="#000000" font-family="sans-serif" font-size="14" font-weight="bold" lengthAdjust="spacing" textLength="135" x="349" y="601.3613">ParticipantObjectID</text><text fill="#000000" font-family="sans-serif" font-size="14" lengthAdjust="spacing" textLength="116" x="582" y="601.3613">study-instance-uid</text><line style="stroke:#000000;stroke-width:1.0;" x1="577" x2="577" y1="584.8281" y2="606.4375"/><rect fill="none" height="86.4375" rx="5" ry="5" style="stroke:#000000;stroke-width:1.5;" width="359" x="344" y="520"/><rect fill="#F1F1F1" height="21.6094" rx="5" ry="5" style="stroke:#F1F1F1;stroke-width:1.5;" width="22" x="753" y="563"/><text fill="#000000" font-family="sans-serif" font-size="14" lengthAdjust="spacing" textLength="12" x="758" y="579.5332">   </text><rect fill="none" height="21.6094" rx="5" ry="5" style="stroke:#000000;stroke-width:1.5;" width="22" x="753" y="563"/><rect fill="#F1F1F1" height="21.6094" rx="5" ry="5" style="stroke:#F1F1F1;stroke-width:1.5;" width="362" x="815" y="563"/><text fill="#000000" font-family="sans-serif" font-size="14" font-weight="bold" lengthAdjust="spacing" textLength="118" x="820" y="579.5332">CodedValueType</text><text fill="#000000" font-family="sans-serif" font-size="14" lengthAdjust="spacing" textLength="224" x="948" y="579.5332">(110180, DCM, Study Instance UID)</text><line style="stroke:#000000;stroke-width:1.0;" x1="943" x2="943" y1="563" y2="584.6094"/><rect fill="none" height="21.6094" rx="5" ry="5" style="stroke:#000000;stroke-width:1.5;" width="362" x="815" y="563"/><rect fill="#F1F1F1" height="15" rx="5" ry="5" style="stroke:#F1F1F1;stroke-width:1.5;" width="30" x="511.5" y="624"/><rect fill="none" height="15" rx="5" ry="5" style="stroke:#000000;stroke-width:1.5;" width="30" x="511.5" y="624"/><rect fill="#F1F1F1" height="108.0469" rx="5" ry="5" style="stroke:#F1F1F1;stroke-width:1.5;" width="349" x="349" y="658"/><text fill="#000000" font-family="sans-serif" font-size="14" font-weight="bold" lengthAdjust="spacing" textLength="191" x="354" y="674.5332">ParticipantObjectTypeCode</text><text fill="#000000" font-family="sans-serif" font-size="14" lengthAdjust="spacing" textLength="8" x="587" y="674.5332">1</text><line style="stroke:#000000;stroke-width:1.0;" x1="582" x2="582" y1="658" y2="679.6094"/><line style="stroke:#000000;stroke-width:1.0;" x1="349" x2="698" y1="679.6094" y2="679.6094"/><text fill="#000000" font-family="sans-serif" font-size="14" font-weight="bold" lengthAdjust="spacing" textLength="223" x="354" y="696.1426">ParticipantObjectTypeCodeRole</text><text fill="#000000" font-family="sans-serif" font-size="14" lengthAdjust="spacing" textLength="8" x="587" y="696.1426">1</text><line style="stroke:#000000;stroke-width:1.0;" x1="582" x2="582" y1="679.6094" y2="701.2188"/><line style="stroke:#000000;stroke-width:1.0;" x1="349" x2="698" y1="701.2188" y2="701.2188"/><text fill="#000000" font-family="sans-serif" font-size="14" font-weight="bold" lengthAdjust="spacing" textLength="205" x="354" y="717.752">ParticipantObjectIDTypeCode</text><text fill="#000000" font-family="sans-serif" font-size="14" lengthAdjust="spacing" textLength="12" x="587" y="717.752">   </text><line style="stroke:#000000;stroke-width:1.0;" x1="582" x2="582" y1="701.2188" y2="722.8281"/><line style="stroke:#000000;stroke-width:1.0;" x1="349" x2="698" y1="722.8281" y2="722.8281"/><text fill="#000000" font-family="sans-serif" font-size="14" font-weight="bold" lengthAdjust="spacing" textLength="135" x="354" y="739.3613">ParticipantObjectID</text><text fill="#000000" font-family="sans-serif" font-size="14" lengthAdjust="spacing" textLength="84" x="587" y="739.3613">the patient ID</text><line style="stroke:#000000;stroke-width:1.0;" x1="582" x2="582" y1="722.8281" y2="744.4375"/><line style="stroke:#000000;stroke-width:1.0;" x1="349" x2="698" y1="744.4375" y2="744.4375"/><text fill="#000000" font-family="sans-serif" font-size="14" font-weight="bold" lengthAdjust="spacing" textLength="160" x="354" y="760.9707">ParticipantObjectName</text><text fill="#000000" font-family="sans-serif" font-size="14" lengthAdjust="spacing" textLength="106" x="587" y="760.9707">the patient name</text><line style="stroke:#000000;stroke-width:1.0;" x1="582" x2="582" y1="744.4375" y2="766.0469"/><rect fill="none" height="108.0469" rx="5" ry="5" style="stroke:#000000;stroke-width:1.5;" width="349" x="349" y="658"/><rect fill="#F1F1F1" height="21.6094" rx="5" ry="5" style="stroke:#F1F1F1;stroke-width:1.5;" width="22" x="753" y="700"/><text fill="#000000" font-family="sans-serif" font-size="14" lengthAdjust="spacing" textLength="12" x="758" y="716.5332">   </text><rect fill="none" height="21.6094" rx="5" ry="5" style="stroke:#000000;stroke-width:1.5;" width="22" x="753" y="700"/><rect fill="#F1F1F1" height="21.6094" rx="5" ry="5" style="stroke:#F1F1F1;stroke-width:1.5;" width="335" x="828.5" y="700"/><text fill="#000000" font-family="sans-serif" font-size="14" font-weight="bold" lengthAdjust="spacing" textLength="118" x="833.5" y="716.5332">CodedValueType</text><text fill="#000000" font-family="sans-serif" font-size="14" lengthAdjust="spacing" textLength="197" x="961.5" y="716.5332">(2, RFC-3991, Patient Number)</text><line style="stroke:#000000;stroke-width:1.0;" x1="956.5" x2="956.5" y1="700" y2="721.6094"/><rect fill="none" height="21.6094" rx="5" ry="5" style="stroke:#000000;stroke-width:1.5;" width="335" x="828.5" y="700"/><path d="M764.542,21 L777.542,21 C792.0701,21 818.2194,21 847.4855,21 " fill="none" style="stroke:#000000;stroke-width:1.0;stroke-dasharray:3.0,3.0;"/><path d="M847.4855,24.001 L849.7362,21 L847.4855,17.999 L854.988,21 L847.4855,24.001 " fill="#000000" style="stroke:#000000;stroke-width:1.0;"/><ellipse cx="764.542" cy="21" fill="#000000" rx="3" ry="3" style="stroke:#000000;stroke-width:1.0;"/><path d="M635,21 L648,21 C682.4058,21 722.5272,21 745.5765,21 " fill="none" style="stroke:#000000;stroke-width:1.0;stroke-dasharray:3.0,3.0;"/><path d="M745.5765,24.0709 L747.8797,21 L745.5765,17.9291 L753.2537,21 L745.5765,24.0709 " fill="#000000" style="stroke:#000000;stroke-width:1.0;"/><ellipse cx="635" cy="21" fill="#000000" rx="3" ry="3" style="stroke:#000000;stroke-width:1.0;"/><path d="M764.542,108 L777.542,108 C789.427,108 809.0894,108 831.873,108 " fill="none" style="stroke:#000000;stroke-width:1.0;stroke-dasharray:3.0,3.0;"/><path d="M831.873,111.0004 L834.1234,108 L831.873,104.9996 L839.3741,108 L831.873,111.0004 " fill="#000000" style="stroke:#000000;stroke-width:1.0;"/><ellipse cx="764.542" cy="108" fill="#000000" rx="3" ry="3" style="stroke:#000000;stroke-width:1.0;"/><path d="M635,108 L648,108 C682.4058,108 722.5272,108 745.5765,108 " fill="none" style="stroke:#000000;stroke-width:1.0;stroke-dasharray:3.0,3.0;"/><path d="M745.5765,111.0709 L747.8797,108 L745.5765,104.9291 L753.2537,108 L745.5765,111.0709 " fill="#000000" style="stroke:#000000;stroke-width:1.0;"/><ellipse cx="635" cy="108" fill="#000000" rx="3" ry="3" style="stroke:#000000;stroke-width:1.0;"/><path d="M283.5,436 L283.5,423 C283.5,370.8103 299.1915,234.3761 331,193 C347.6096,171.3945 370.3961,154.2991 394.4755,140.9 " fill="none" style="stroke:#000000;stroke-width:1.0;stroke-dasharray:3.0,3.0;"/><path d="M395.9483,143.6288 L396.5221,139.7955 L393.0028,138.1713 L401.2974,137.2181 L395.9483,143.6288 " fill="#000000" style="stroke:#000000;stroke-width:1.0;"/><ellipse cx="283.5" cy="436" fill="#000000" rx="3" ry="3" style="stroke:#000000;stroke-width:1.0;"/><path d="M764.542,299 L777.542,299 C784.7371,299 794.7826,299 806.6454,299 " fill="none" style="stroke:#000000;stroke-width:1.0;stroke-dasharray:3.0,3.0;"/><path d="M806.6454,302.0448 L808.929,299 L806.6454,295.9552 L814.2573,299 L806.6454,302.0448 " fill="#000000" style="stroke:#000000;stroke-width:1.0;"/><ellipse cx="764.542" cy="299" fill="#000000" rx="3" ry="3" style="stroke:#000000;stroke-width:1.0;"/><path d="M683,299 L696,299 C712.7422,299 731.7862,299 745.5371,299 " fill="none" style="stroke:#000000;stroke-width:1.0;stroke-dasharray:3.0,3.0;"/><path d="M745.5371,302.124 L747.8801,299 L745.5371,295.876 L753.3471,299 L745.5371,302.124 " fill="#000000" style="stroke:#000000;stroke-width:1.0;"/><ellipse cx="683" cy="299" fill="#000000" rx="3" ry="3" style="stroke:#000000;stroke-width:1.0;"/><path d="M282,456 L295,456 C357.956,456 287.8408,364.8338 331,319 C335.857,313.842 341.1426,309.1057 346.7589,304.7567 " fill="none" style="stroke:#000000;stroke-width:1.0;stroke-dasharray:3.0,3.0;"/><path d="M348.5864,307.2445 L348.6247,303.3861 L344.9314,302.269 L352.9783,300.188 L348.5864,307.2445 " fill="#000000" style="stroke:#000000;stroke-width:1.0;"/><ellipse cx="282" cy="456" fill="#000000" rx="3" ry="3" style="stroke:#000000;stroke-width:1.0;"/><path d="M764.542,409 L777.542,409 C787.9918,409 804.4541,409 823.764,409 " fill="none" style="stroke:#000000;stroke-width:1.0;stroke-dasharray:3.0,3.0;"/><path d="M823.764,412.0134 L826.024,409 L823.764,405.9866 L831.2975,409 L823.764,412.0134 " fill="#000000" style="stroke:#000000;stroke-width:1.0;"/><ellipse cx="764.542" cy="409" fill="#000000" rx="3" ry="3" style="stroke:#000000;stroke-width:1.0;"/><path d="M704,426 L717,426 C727.026,426 737.583,422.6011 746.1914,418.8428 " fill="none" style="stroke:#000000;stroke-width:1.0;stroke-dasharray:3.0,3.0;"/><path d="M747.5189,421.6433 L748.2917,417.8472 L744.8639,416.0424 L753.1925,415.524 L747.5189,421.6433 " fill="#000000" style="stroke:#000000;stroke-width:1.0;"/><ellipse cx="704" cy="426" fill="#000000" rx="3" ry="3" style="stroke:#000000;stroke-width:1.0;"/><path d="M764.542,449 L777.542,449 C792.859,449 821.0936,449 852.2793,449 " fill="none" style="stroke:#000000;stroke-width:1.0;stroke-dasharray:3.0,3.0;"/><path d="M852.2793,452.0209 L854.545,449 L852.2793,445.9791 L859.8314,449 L852.2793,452.0209 " fill="#000000" style="stroke:#000000;stroke-width:1.0;"/><ellipse cx="764.542" cy="449" fill="#000000" rx="3" ry="3" style="stroke:#000000;stroke-width:1.0;"/><path d="M704,447 L717,447 C726.3823,447 736.7978,447.3943 745.4791,447.8328 " fill="none" style="stroke:#000000;stroke-width:1.0;stroke-dasharray:3.0,3.0;"/><path d="M745.3101,450.9134 L747.7896,447.9595 L745.6481,444.7521 L753.1807,448.2553 L745.3101,450.9134 " fill="#000000" style="stroke:#000000;stroke-width:1.0;"/><ellipse cx="704" cy="447" fill="#000000" rx="3" ry="3" style="stroke:#000000;stroke-width:1.0;"/><path d="M764.542,491 L777.542,491 C785.5747,491 797.1602,491 810.8608,491 " fill="none" style="stroke:#000000;stroke-width:1.0;stroke-dasharray:3.0,3.0;"/><path d="M810.8608,494.128 L813.2068,491 L810.8608,487.872 L818.6808,491 L810.8608,494.128 " fill="#000000" style="stroke:#000000;stroke-width:1.0;"/><ellipse cx="764.542" cy="491" fill="#000000" rx="3" ry="3" style="stroke:#000000;stroke-width:1.0;"/><path d="M704,491 L717,491 C726.374,491 736.7885,491 745.4714,491 " fill="none" style="stroke:#000000;stroke-width:1.0;stroke-dasharray:3.0,3.0;"/><path d="M745.4714,494.0815 L747.7825,491 L745.4714,487.9185 L753.1751,491 L745.4714,494.0815 " fill="#000000" style="stroke:#000000;stroke-width:1.0;"/><ellipse cx="704" cy="491" fill="#000000" rx="3" ry="3" style="stroke:#000000;stroke-width:1.0;"/><path d="M282,478 L295,478 C304.3972,478 313.9361,477.4966 323.5164,476.5799 " fill="none" style="stroke:#000000;stroke-width:1.0;stroke-dasharray:3.0,3.0;"/><path d="M323.8452,479.6559 L325.8234,476.3333 L323.1875,473.5039 L331.2065,475.7578 L323.8452,479.6559 " fill="#000000" style="stroke:#000000;stroke-width:1.0;"/><ellipse cx="282" cy="478" fill="#000000" rx="3" ry="3" style="stroke:#000000;stroke-width:1.0;"/><path d="M764.542,574 L777.542,574 C784.8902,574 795.2113,574 807.4051,574 " fill="none" style="stroke:#000000;stroke-width:1.0;stroke-dasharray:3.0,3.0;"/><path d="M807.4051,577.1298 L809.7524,574 L807.4051,570.8702 L815.2295,574 L807.4051,577.1298 " fill="#000000" style="stroke:#000000;stroke-width:1.0;"/><ellipse cx="764.542" cy="574" fill="#000000" rx="3" ry="3" style="stroke:#000000;stroke-width:1.0;"/><path d="M692,574 L705,574 C718.4659,574 733.6462,574 745.303,574 " fill="none" style="stroke:#000000;stroke-width:1.0;stroke-dasharray:3.0,3.0;"/><path d="M745.303,577.1162 L747.6402,574 L745.303,570.8838 L753.0935,574 L745.303,577.1162 " fill="#000000" style="stroke:#000000;stroke-width:1.0;"/><ellipse cx="692" cy="574" fill="#000000" rx="3" ry="3" style="stroke:#000000;stroke-width:1.0;"/><path d="M282,500 L295,500 C311.6058,500 314.9964,505.5685 331,510 C340.3612,512.5922 349.9797,515.2537 359.6863,517.9379 " fill="none" style="stroke:#000000;stroke-width:1.0;stroke-dasharray:3.0,3.0;"/><path d="M358.8638,520.9128 L361.9175,518.5549 L360.5089,514.9631 L367.1234,519.9943 L358.8638,520.9128 " fill="#000000" style="stroke:#000000;stroke-width:1.0;"/><ellipse cx="282" cy="500" fill="#000000" rx="3" ry="3" style="stroke:#000000;stroke-width:1.0;"/><path d="M282,521 L295,521 C339.7368,521 295.2961,588.0443 331,615 C382.893,654.1781 466.6205,643.6771 503.9627,636.3402 " fill="none" style="stroke:#000000;stroke-width:1.0;stroke-dasharray:3.0,3.0;"/><path d="M504.5978,639.3973 L506.2556,635.8639 L503.3277,633.2831 L511.6056,634.7527 L504.5978,639.3973 " fill="#000000" style="stroke:#000000;stroke-width:1.0;"/><ellipse cx="282" cy="521" fill="#000000" rx="3" ry="3" style="stroke:#000000;stroke-width:1.0;"/><path d="M764.542,711 L777.542,711 C787.4898,711 802.8861,711 821.0009,711 " fill="none" style="stroke:#000000;stroke-width:1.0;stroke-dasharray:3.0,3.0;"/><path d="M821.0009,714.1688 L823.3775,711 L821.0009,707.8312 L828.9228,711 L821.0009,714.1688 " fill="#000000" style="stroke:#000000;stroke-width:1.0;"/><ellipse cx="764.542" cy="711" fill="#000000" rx="3" ry="3" style="stroke:#000000;stroke-width:1.0;"/><path d="M687,711 L700,711 C715.2484,711 732.5246,711 745.3569,711 " fill="none" style="stroke:#000000;stroke-width:1.0;stroke-dasharray:3.0,3.0;"/><path d="M745.3569,714.09 L747.6744,711 L745.3569,707.91 L753.0818,711 L745.3569,714.09 " fill="#000000" style="stroke:#000000;stroke-width:1.0;"/><ellipse cx="687" cy="711" fill="#000000" rx="3" ry="3" style="stroke:#000000;stroke-width:1.0;"/><path d="M282,543 L295,543 C344.754,543 295.6371,614.0011 331,649 C334.7694,652.7306 338.7632,656.2403 342.9416,659.5422 " fill="none" style="stroke:#000000;stroke-width:1.0;stroke-dasharray:3.0,3.0;"/><path d="M341.0654,662.042 L344.8165,660.9493 L344.8178,657.0424 L349.1911,664.2327 L341.0654,662.042 " fill="#000000" style="stroke:#000000;stroke-width:1.0;"/><ellipse cx="282" cy="543" fill="#000000" rx="3" ry="3" style="stroke:#000000;stroke-width:1.0;"/><!--MD5=[13909ee8635c2fbe251a529549d67ef6]
@startjson
{
	"event": {
	   "eventID" : [
	       { "CodedValueType" : "(110106, DCM, Export)"}
	       ],
	   "EventActionCode": "C",
	   "EventDateTime" : "date-time",
	   "EventOutcomeIndicator": "0",
	   "EventTypeCode" : [
	   	{ "CodedValueType" : "not specialized (seems odd)"}
		],
	   "traceID" : "asdf",
	   "parentID" : "lkjl",
	   "childID" : "huh"
	   },
	"ActiveParticipant-importing process" : {
	   "UserID" : "UserID of the importing process",
	   "AlternativeUserID" : "theotherID",
	   "Username" : "if known",
	   "UserIsRequestor" : "TRUE",
	   "RoleIDCode" : [
	   	{ "CodedValueType" : "(110152, DCM, Destination Role ID)"}
		]
	   },
	"ActiveParticipant-source" : {
	   "UserID" : "Identify the source",
	   "AlternativeUserID" : "anotherID",
	   "Username" : "if known",
	   "UserIsRequestor" : "FALSE",
	   "RoleIDCode" : [
	   	{ "CodedValueType" : "(110155, DCM, Source Media)"}
		],
	   "NetworkAccessPointTypeCode" : [
	   	{ "CodedValueType" : "what do we put here?"}
		],
	   "NetworkAccessPointID" : "typically a URI or IP/Port",
	   "MediaType" : [
	    	{ "CodedValueType" : "(cpxxxx, DCM, Clipboard Manager)"}
		]
	   },
	"ParticipatingObject" : {
	   "ParticipantObjectTypeCode" : 2,
	   "ParticipantObjectTypeCodeRole" : 3,
	   "ParticipantObjectIDTypeCode" : [
	       { "CodedValueType" : "(110180, DCM, Study Instance UID)"}
	       ],
	   "ParticipantObjectID" : "study-instance-uid"
	   },
	"more participating objects" : [],
	"ParticipatingObject" : {
	    "ParticipantObjectTypeCode" : 1,
	    "ParticipantObjectTypeCodeRole" : 1,
	    "ParticipantObjectIDTypeCode" : [
	        { "CodedValueType" : "(2, RFC-3991, Patient Number)"}
	        ],
	    "ParticipantObjectID" : "the patient ID",
	    "ParticipantObjectName" : "the patient name"
	   }
}
@endjson

PlantUML version 1.2022.8(Sun Sep 25 05:00:33 EDT 2022)
(GPL source distribution)
Java Runtime: Java(TM) SE Runtime Environment
JVM: Java HotSpot(TM) Client VM
Default Encoding: Cp1252
Language: en
Country: US
--></g></svg>