<?xml version="1.0" encoding="UTF-8" standalone="no"?><svg xmlns="http://www.w3.org/2000/svg" xmlns:xlink="http://www.w3.org/1999/xlink" contentStyleType="text/css" height="712px" preserveAspectRatio="none" style="width:1096px;height:712px;background:#FFFFFF;" version="1.1" viewBox="0 0 1096 712" width="1096px" zoomAndPan="magnify"><defs/><g><rect fill="#F1F1F1" height="129.6563" rx="5" ry="5" style="stroke:#F1F1F1;stroke-width:1.5;" width="216" x="10" y="374"/><text fill="#000000" font-family="sans-serif" font-size="14" font-weight="bold" lengthAdjust="spacing" textLength="41" x="15" y="390.5332">event</text><text fill="#000000" font-family="sans-serif" font-size="14" lengthAdjust="spacing" textLength="12" x="209" y="390.5332">   </text><line style="stroke:#000000;stroke-width:1.0;" x1="204" x2="204" y1="374" y2="395.6094"/><line style="stroke:#000000;stroke-width:1.0;" x1="10" x2="226" y1="395.6094" y2="395.6094"/><text fill="#000000" font-family="sans-serif" font-size="14" font-weight="bold" lengthAdjust="spacing" textLength="119" x="15" y="412.1426">ActiveParticipant</text><text fill="#000000" font-family="sans-serif" font-size="14" lengthAdjust="spacing" textLength="12" x="209" y="412.1426">   </text><line style="stroke:#000000;stroke-width:1.0;" x1="204" x2="204" y1="395.6094" y2="417.2188"/><line style="stroke:#000000;stroke-width:1.0;" x1="10" x2="226" y1="417.2188" y2="417.2188"/><text fill="#000000" font-family="sans-serif" font-size="14" font-weight="bold" lengthAdjust="spacing" textLength="119" x="15" y="433.752">ActiveParticipant</text><text fill="#000000" font-family="sans-serif" font-size="14" lengthAdjust="spacing" textLength="12" x="209" y="433.752">   </text><line style="stroke:#000000;stroke-width:1.0;" x1="204" x2="204" y1="417.2188" y2="438.8281"/><line style="stroke:#000000;stroke-width:1.0;" x1="10" x2="226" y1="438.8281" y2="438.8281"/><text fill="#000000" font-family="sans-serif" font-size="14" font-weight="bold" lengthAdjust="spacing" textLength="134" x="15" y="455.3613">ParticipatingObject</text><text fill="#000000" font-family="sans-serif" font-size="14" lengthAdjust="spacing" textLength="12" x="209" y="455.3613">   </text><line style="stroke:#000000;stroke-width:1.0;" x1="204" x2="204" y1="438.8281" y2="460.4375"/><line style="stroke:#000000;stroke-width:1.0;" x1="10" x2="226" y1="460.4375" y2="460.4375"/><text fill="#000000" font-family="sans-serif" font-size="14" font-weight="bold" lengthAdjust="spacing" textLength="184" x="15" y="476.9707">more participating objects</text><text fill="#000000" font-family="sans-serif" font-size="14" lengthAdjust="spacing" textLength="12" x="209" y="476.9707">   </text><line style="stroke:#000000;stroke-width:1.0;" x1="204" x2="204" y1="460.4375" y2="482.0469"/><line style="stroke:#000000;stroke-width:1.0;" x1="10" x2="226" y1="482.0469" y2="482.0469"/><text fill="#000000" font-family="sans-serif" font-size="14" font-weight="bold" lengthAdjust="spacing" textLength="134" x="15" y="498.5801">ParticipatingObject</text><text fill="#000000" font-family="sans-serif" font-size="14" lengthAdjust="spacing" textLength="12" x="209" y="498.5801">   </text><line style="stroke:#000000;stroke-width:1.0;" x1="204" x2="204" y1="482.0469" y2="503.6563"/><rect fill="none" height="129.6563" rx="5" ry="5" style="stroke:#000000;stroke-width:1.5;" width="216" x="10" y="374"/><rect fill="#F1F1F1" height="172.875" rx="5" ry="5" style="stroke:#F1F1F1;stroke-width:1.5;" width="245" x="320" y="10.5"/><text fill="#000000" font-family="sans-serif" font-size="14" font-weight="bold" lengthAdjust="spacing" textLength="55" x="325" y="27.0332">eventID</text><text fill="#000000" font-family="sans-serif" font-size="14" lengthAdjust="spacing" textLength="12" x="501" y="27.0332">   </text><line style="stroke:#000000;stroke-width:1.0;" x1="496" x2="496" y1="10.5" y2="32.1094"/><line style="stroke:#000000;stroke-width:1.0;" x1="320" x2="565" y1="32.1094" y2="32.1094"/><text fill="#000000" font-family="sans-serif" font-size="14" font-weight="bold" lengthAdjust="spacing" textLength="122" x="325" y="48.6426">EventActionCode</text><text fill="#000000" font-family="sans-serif" font-size="14" lengthAdjust="spacing" textLength="10" x="501" y="48.6426">R</text><line style="stroke:#000000;stroke-width:1.0;" x1="496" x2="496" y1="32.1094" y2="53.7188"/><line style="stroke:#000000;stroke-width:1.0;" x1="320" x2="565" y1="53.7188" y2="53.7188"/><text fill="#000000" font-family="sans-serif" font-size="14" font-weight="bold" lengthAdjust="spacing" textLength="106" x="325" y="70.252">EventDateTime</text><text fill="#000000" font-family="sans-serif" font-size="14" lengthAdjust="spacing" textLength="59" x="501" y="70.252">date-time</text><line style="stroke:#000000;stroke-width:1.0;" x1="496" x2="496" y1="53.7188" y2="75.3281"/><line style="stroke:#000000;stroke-width:1.0;" x1="320" x2="565" y1="75.3281" y2="75.3281"/><text fill="#000000" font-family="sans-serif" font-size="14" font-weight="bold" lengthAdjust="spacing" textLength="166" x="325" y="91.8613">EventOutcomeIndicator</text><text fill="#000000" font-family="sans-serif" font-size="14" lengthAdjust="spacing" textLength="8" x="501" y="91.8613">0</text><line style="stroke:#000000;stroke-width:1.0;" x1="496" x2="496" y1="75.3281" y2="96.9375"/><line style="stroke:#000000;stroke-width:1.0;" x1="320" x2="565" y1="96.9375" y2="96.9375"/><text fill="#000000" font-family="sans-serif" font-size="14" font-weight="bold" lengthAdjust="spacing" textLength="111" x="325" y="113.4707">EventTypeCode</text><text fill="#000000" font-family="sans-serif" font-size="14" lengthAdjust="spacing" textLength="12" x="501" y="113.4707">   </text><line style="stroke:#000000;stroke-width:1.0;" x1="496" x2="496" y1="96.9375" y2="118.5469"/><line style="stroke:#000000;stroke-width:1.0;" x1="320" x2="565" y1="118.5469" y2="118.5469"/><text fill="#000000" font-family="sans-serif" font-size="14" font-weight="bold" lengthAdjust="spacing" textLength="50" x="325" y="135.0801">traceID</text><text fill="#000000" font-family="sans-serif" font-size="14" lengthAdjust="spacing" textLength="27" x="501" y="135.0801">asdf</text><line style="stroke:#000000;stroke-width:1.0;" x1="496" x2="496" y1="118.5469" y2="140.1563"/><line style="stroke:#000000;stroke-width:1.0;" x1="320" x2="565" y1="140.1563" y2="140.1563"/><text fill="#000000" font-family="sans-serif" font-size="14" font-weight="bold" lengthAdjust="spacing" textLength="60" x="325" y="156.6895">parentID</text><text fill="#000000" font-family="sans-serif" font-size="14" lengthAdjust="spacing" textLength="16" x="501" y="156.6895">lkjl</text><line style="stroke:#000000;stroke-width:1.0;" x1="496" x2="496" y1="140.1563" y2="161.7656"/><line style="stroke:#000000;stroke-width:1.0;" x1="320" x2="565" y1="161.7656" y2="161.7656"/><text fill="#000000" font-family="sans-serif" font-size="14" font-weight="bold" lengthAdjust="spacing" textLength="48" x="325" y="178.2988">childID</text><text fill="#000000" font-family="sans-serif" font-size="14" lengthAdjust="spacing" textLength="24" x="501" y="178.2988">huh</text><line style="stroke:#000000;stroke-width:1.0;" x1="496" x2="496" y1="161.7656" y2="183.375"/><rect fill="none" height="172.875" rx="5" ry="5" style="stroke:#000000;stroke-width:1.5;" width="245" x="320" y="10.5"/><rect fill="#F1F1F1" height="21.6094" rx="5" ry="5" style="stroke:#F1F1F1;stroke-width:1.5;" width="22" x="659" y="10"/><text fill="#000000" font-family="sans-serif" font-size="14" lengthAdjust="spacing" textLength="12" x="664" y="26.5332">   </text><rect fill="none" height="21.6094" rx="5" ry="5" style="stroke:#000000;stroke-width:1.5;" width="22" x="659" y="10"/><rect fill="#F1F1F1" height="21.6094" rx="5" ry="5" style="stroke:#F1F1F1;stroke-width:1.5;" width="283" x="760.5" y="10"/><text fill="#000000" font-family="sans-serif" font-size="14" font-weight="bold" lengthAdjust="spacing" textLength="118" x="765.5" y="26.5332">CodedValueType</text><text fill="#000000" font-family="sans-serif" font-size="14" lengthAdjust="spacing" textLength="145" x="893.5" y="26.5332">(110106, DCM, Export)</text><line style="stroke:#000000;stroke-width:1.0;" x1="888.5" x2="888.5" y1="10" y2="31.6094"/><rect fill="none" height="21.6094" rx="5" ry="5" style="stroke:#000000;stroke-width:1.5;" width="283" x="760.5" y="10"/><rect fill="#F1F1F1" height="21.6094" rx="5" ry="5" style="stroke:#F1F1F1;stroke-width:1.5;" width="22" x="659" y="97"/><text fill="#000000" font-family="sans-serif" font-size="14" lengthAdjust="spacing" textLength="12" x="664" y="113.5332">   </text><rect fill="none" height="21.6094" rx="5" ry="5" style="stroke:#000000;stroke-width:1.5;" width="22" x="659" y="97"/><rect fill="#F1F1F1" height="21.6094" rx="5" ry="5" style="stroke:#F1F1F1;stroke-width:1.5;" width="314" x="745" y="97"/><text fill="#000000" font-family="sans-serif" font-size="14" font-weight="bold" lengthAdjust="spacing" textLength="118" x="750" y="113.5332">CodedValueType</text><text fill="#000000" font-family="sans-serif" font-size="14" lengthAdjust="spacing" textLength="176" x="878" y="113.5332">not specialized (seems odd)</text><line style="stroke:#000000;stroke-width:1.0;" x1="873" x2="873" y1="97" y2="118.6094"/><rect fill="none" height="21.6094" rx="5" ry="5" style="stroke:#000000;stroke-width:1.5;" width="314" x="745" y="97"/><rect fill="#F1F1F1" height="108.0469" rx="5" ry="5" style="stroke:#F1F1F1;stroke-width:1.5;" width="334" x="275.5" y="202"/><text fill="#000000" font-family="sans-serif" font-size="14" font-weight="bold" lengthAdjust="spacing" textLength="47" x="280.5" y="218.5332">UserID</text><text fill="#000000" font-family="sans-serif" font-size="14" lengthAdjust="spacing" textLength="190" x="414.5" y="218.5332">UserID of the sending process</text><line style="stroke:#000000;stroke-width:1.0;" x1="409.5" x2="409.5" y1="202" y2="223.6094"/><line style="stroke:#000000;stroke-width:1.0;" x1="275.5" x2="609.5" y1="223.6094" y2="223.6094"/><text fill="#000000" font-family="sans-serif" font-size="14" font-weight="bold" lengthAdjust="spacing" textLength="124" x="280.5" y="240.1426">AlternativeUserID</text><text fill="#000000" font-family="sans-serif" font-size="14" lengthAdjust="spacing" textLength="66" x="414.5" y="240.1426">theotherID</text><line style="stroke:#000000;stroke-width:1.0;" x1="409.5" x2="409.5" y1="223.6094" y2="245.2188"/><line style="stroke:#000000;stroke-width:1.0;" x1="275.5" x2="609.5" y1="245.2188" y2="245.2188"/><text fill="#000000" font-family="sans-serif" font-size="14" font-weight="bold" lengthAdjust="spacing" textLength="71" x="280.5" y="261.752">Username</text><text fill="#000000" font-family="sans-serif" font-size="14" lengthAdjust="spacing" textLength="51" x="414.5" y="261.752">if known</text><line style="stroke:#000000;stroke-width:1.0;" x1="409.5" x2="409.5" y1="245.2188" y2="266.8281"/><line style="stroke:#000000;stroke-width:1.0;" x1="275.5" x2="609.5" y1="266.8281" y2="266.8281"/><text fill="#000000" font-family="sans-serif" font-size="14" font-weight="bold" lengthAdjust="spacing" textLength="119" x="280.5" y="283.3613">UserIsRequestor</text><text fill="#000000" font-family="sans-serif" font-size="14" lengthAdjust="spacing" textLength="37" x="414.5" y="283.3613">TRUE</text><line style="stroke:#000000;stroke-width:1.0;" x1="409.5" x2="409.5" y1="266.8281" y2="288.4375"/><line style="stroke:#000000;stroke-width:1.0;" x1="275.5" x2="609.5" y1="288.4375" y2="288.4375"/><text fill="#000000" font-family="sans-serif" font-size="14" font-weight="bold" lengthAdjust="spacing" textLength="83" x="280.5" y="304.9707">RoleIDCode</text><text fill="#000000" font-family="sans-serif" font-size="14" lengthAdjust="spacing" textLength="12" x="414.5" y="304.9707">   </text><line style="stroke:#000000;stroke-width:1.0;" x1="409.5" x2="409.5" y1="288.4375" y2="310.0469"/><rect fill="none" height="108.0469" rx="5" ry="5" style="stroke:#000000;stroke-width:1.5;" width="334" x="275.5" y="202"/><rect fill="#F1F1F1" height="21.6094" rx="5" ry="5" style="stroke:#F1F1F1;stroke-width:1.5;" width="22" x="659" y="288"/><text fill="#000000" font-family="sans-serif" font-size="14" lengthAdjust="spacing" textLength="12" x="664" y="304.5332">   </text><rect fill="none" height="21.6094" rx="5" ry="5" style="stroke:#000000;stroke-width:1.5;" width="22" x="659" y="288"/><rect fill="#F1F1F1" height="21.6094" rx="5" ry="5" style="stroke:#F1F1F1;stroke-width:1.5;" width="338" x="733" y="288"/><text fill="#000000" font-family="sans-serif" font-size="14" font-weight="bold" lengthAdjust="spacing" textLength="118" x="738" y="304.5332">CodedValueType</text><text fill="#000000" font-family="sans-serif" font-size="14" lengthAdjust="spacing" textLength="200" x="866" y="304.5332">(110153, DCM, Source Role ID)</text><line style="stroke:#000000;stroke-width:1.0;" x1="861" x2="861" y1="288" y2="309.6094"/><rect fill="none" height="21.6094" rx="5" ry="5" style="stroke:#000000;stroke-width:1.5;" width="338" x="733" y="288"/><rect fill="#F1F1F1" height="108.0469" rx="5" ry="5" style="stroke:#F1F1F1;stroke-width:1.5;" width="341" x="272" y="328"/><text fill="#000000" font-family="sans-serif" font-size="14" font-weight="bold" lengthAdjust="spacing" textLength="47" x="277" y="344.5332">UserID</text><text fill="#000000" font-family="sans-serif" font-size="14" lengthAdjust="spacing" textLength="197" x="411" y="344.5332">UserID of the receiving process</text><line style="stroke:#000000;stroke-width:1.0;" x1="406" x2="406" y1="328" y2="349.6094"/><line style="stroke:#000000;stroke-width:1.0;" x1="272" x2="613" y1="349.6094" y2="349.6094"/><text fill="#000000" font-family="sans-serif" font-size="14" font-weight="bold" lengthAdjust="spacing" textLength="124" x="277" y="366.1426">AlternativeUserID</text><text fill="#000000" font-family="sans-serif" font-size="14" lengthAdjust="spacing" textLength="66" x="411" y="366.1426">theotherID</text><line style="stroke:#000000;stroke-width:1.0;" x1="406" x2="406" y1="349.6094" y2="371.2188"/><line style="stroke:#000000;stroke-width:1.0;" x1="272" x2="613" y1="371.2188" y2="371.2188"/><text fill="#000000" font-family="sans-serif" font-size="14" font-weight="bold" lengthAdjust="spacing" textLength="71" x="277" y="387.752">Username</text><text fill="#000000" font-family="sans-serif" font-size="14" lengthAdjust="spacing" textLength="51" x="411" y="387.752">if known</text><line style="stroke:#000000;stroke-width:1.0;" x1="406" x2="406" y1="371.2188" y2="392.8281"/><line style="stroke:#000000;stroke-width:1.0;" x1="272" x2="613" y1="392.8281" y2="392.8281"/><text fill="#000000" font-family="sans-serif" font-size="14" font-weight="bold" lengthAdjust="spacing" textLength="119" x="277" y="409.3613">UserIsRequestor</text><text fill="#000000" font-family="sans-serif" font-size="14" lengthAdjust="spacing" textLength="37" x="411" y="409.3613">TRUE</text><line style="stroke:#000000;stroke-width:1.0;" x1="406" x2="406" y1="392.8281" y2="414.4375"/><line style="stroke:#000000;stroke-width:1.0;" x1="272" x2="613" y1="414.4375" y2="414.4375"/><text fill="#000000" font-family="sans-serif" font-size="14" font-weight="bold" lengthAdjust="spacing" textLength="83" x="277" y="430.9707">RoleIDCode</text><text fill="#000000" font-family="sans-serif" font-size="14" lengthAdjust="spacing" textLength="12" x="411" y="430.9707">   </text><line style="stroke:#000000;stroke-width:1.0;" x1="406" x2="406" y1="414.4375" y2="436.0469"/><rect fill="none" height="108.0469" rx="5" ry="5" style="stroke:#000000;stroke-width:1.5;" width="341" x="272" y="328"/><rect fill="#F1F1F1" height="21.6094" rx="5" ry="5" style="stroke:#F1F1F1;stroke-width:1.5;" width="22" x="659" y="414"/><text fill="#000000" font-family="sans-serif" font-size="14" lengthAdjust="spacing" textLength="12" x="664" y="430.5332">   </text><rect fill="none" height="21.6094" rx="5" ry="5" style="stroke:#000000;stroke-width:1.5;" width="22" x="659" y="414"/><rect fill="#F1F1F1" height="21.6094" rx="5" ry="5" style="stroke:#F1F1F1;stroke-width:1.5;" width="364" x="720" y="414"/><text fill="#000000" font-family="sans-serif" font-size="14" font-weight="bold" lengthAdjust="spacing" textLength="118" x="725" y="430.5332">CodedValueType</text><text fill="#000000" font-family="sans-serif" font-size="14" lengthAdjust="spacing" textLength="226" x="853" y="430.5332">*110152, DCM, Destination Role ID)</text><line style="stroke:#000000;stroke-width:1.0;" x1="848" x2="848" y1="414" y2="435.6094"/><rect fill="none" height="21.6094" rx="5" ry="5" style="stroke:#000000;stroke-width:1.5;" width="364" x="720" y="414"/><rect fill="#F1F1F1" height="86.4375" rx="5" ry="5" style="stroke:#F1F1F1;stroke-width:1.5;" width="359" x="263" y="454"/><text fill="#000000" font-family="sans-serif" font-size="14" font-weight="bold" lengthAdjust="spacing" textLength="191" x="268" y="470.5332">ParticipantObjectTypeCode</text><text fill="#000000" font-family="sans-serif" font-size="14" lengthAdjust="spacing" textLength="8" x="501" y="470.5332">2</text><line style="stroke:#000000;stroke-width:1.0;" x1="496" x2="496" y1="454" y2="475.6094"/><line style="stroke:#000000;stroke-width:1.0;" x1="263" x2="622" y1="475.6094" y2="475.6094"/><text fill="#000000" font-family="sans-serif" font-size="14" font-weight="bold" lengthAdjust="spacing" textLength="223" x="268" y="492.1426">ParticipantObjectTypeCodeRole</text><text fill="#000000" font-family="sans-serif" font-size="14" lengthAdjust="spacing" textLength="8" x="501" y="492.1426">3</text><line style="stroke:#000000;stroke-width:1.0;" x1="496" x2="496" y1="475.6094" y2="497.2188"/><line style="stroke:#000000;stroke-width:1.0;" x1="263" x2="622" y1="497.2188" y2="497.2188"/><text fill="#000000" font-family="sans-serif" font-size="14" font-weight="bold" lengthAdjust="spacing" textLength="205" x="268" y="513.752">ParticipantObjectIDTypeCode</text><text fill="#000000" font-family="sans-serif" font-size="14" lengthAdjust="spacing" textLength="12" x="501" y="513.752">   </text><line style="stroke:#000000;stroke-width:1.0;" x1="496" x2="496" y1="497.2188" y2="518.8281"/><line style="stroke:#000000;stroke-width:1.0;" x1="263" x2="622" y1="518.8281" y2="518.8281"/><text fill="#000000" font-family="sans-serif" font-size="14" font-weight="bold" lengthAdjust="spacing" textLength="135" x="268" y="535.3613">ParticipantObjectID</text><text fill="#000000" font-family="sans-serif" font-size="14" lengthAdjust="spacing" textLength="116" x="501" y="535.3613">study-instance-uid</text><line style="stroke:#000000;stroke-width:1.0;" x1="496" x2="496" y1="518.8281" y2="540.4375"/><rect fill="none" height="86.4375" rx="5" ry="5" style="stroke:#000000;stroke-width:1.5;" width="359" x="263" y="454"/><rect fill="#F1F1F1" height="21.6094" rx="5" ry="5" style="stroke:#F1F1F1;stroke-width:1.5;" width="22" x="659" y="497"/><text fill="#000000" font-family="sans-serif" font-size="14" lengthAdjust="spacing" textLength="12" x="664" y="513.5332">   </text><rect fill="none" height="21.6094" rx="5" ry="5" style="stroke:#000000;stroke-width:1.5;" width="22" x="659" y="497"/><rect fill="#F1F1F1" height="21.6094" rx="5" ry="5" style="stroke:#F1F1F1;stroke-width:1.5;" width="362" x="721" y="497"/><text fill="#000000" font-family="sans-serif" font-size="14" font-weight="bold" lengthAdjust="spacing" textLength="118" x="726" y="513.5332">CodedValueType</text><text fill="#000000" font-family="sans-serif" font-size="14" lengthAdjust="spacing" textLength="224" x="854" y="513.5332">(110180, DCM, Study Instance UID)</text><line style="stroke:#000000;stroke-width:1.0;" x1="849" x2="849" y1="497" y2="518.6094"/><rect fill="none" height="21.6094" rx="5" ry="5" style="stroke:#000000;stroke-width:1.5;" width="362" x="721" y="497"/><rect fill="#F1F1F1" height="15" rx="5" ry="5" style="stroke:#F1F1F1;stroke-width:1.5;" width="30" x="430.5" y="558"/><rect fill="none" height="15" rx="5" ry="5" style="stroke:#000000;stroke-width:1.5;" width="30" x="430.5" y="558"/><rect fill="#F1F1F1" height="108.0469" rx="5" ry="5" style="stroke:#F1F1F1;stroke-width:1.5;" width="349" x="268" y="592"/><text fill="#000000" font-family="sans-serif" font-size="14" font-weight="bold" lengthAdjust="spacing" textLength="191" x="273" y="608.5332">ParticipantObjectTypeCode</text><text fill="#000000" font-family="sans-serif" font-size="14" lengthAdjust="spacing" textLength="8" x="506" y="608.5332">1</text><line style="stroke:#000000;stroke-width:1.0;" x1="501" x2="501" y1="592" y2="613.6094"/><line style="stroke:#000000;stroke-width:1.0;" x1="268" x2="617" y1="613.6094" y2="613.6094"/><text fill="#000000" font-family="sans-serif" font-size="14" font-weight="bold" lengthAdjust="spacing" textLength="223" x="273" y="630.1426">ParticipantObjectTypeCodeRole</text><text fill="#000000" font-family="sans-serif" font-size="14" lengthAdjust="spacing" textLength="8" x="506" y="630.1426">1</text><line style="stroke:#000000;stroke-width:1.0;" x1="501" x2="501" y1="613.6094" y2="635.2188"/><line style="stroke:#000000;stroke-width:1.0;" x1="268" x2="617" y1="635.2188" y2="635.2188"/><text fill="#000000" font-family="sans-serif" font-size="14" font-weight="bold" lengthAdjust="spacing" textLength="205" x="273" y="651.752">ParticipantObjectIDTypeCode</text><text fill="#000000" font-family="sans-serif" font-size="14" lengthAdjust="spacing" textLength="12" x="506" y="651.752">   </text><line style="stroke:#000000;stroke-width:1.0;" x1="501" x2="501" y1="635.2188" y2="656.8281"/><line style="stroke:#000000;stroke-width:1.0;" x1="268" x2="617" y1="656.8281" y2="656.8281"/><text fill="#000000" font-family="sans-serif" font-size="14" font-weight="bold" lengthAdjust="spacing" textLength="135" x="273" y="673.3613">ParticipantObjectID</text><text fill="#000000" font-family="sans-serif" font-size="14" lengthAdjust="spacing" textLength="84" x="506" y="673.3613">the patient ID</text><line style="stroke:#000000;stroke-width:1.0;" x1="501" x2="501" y1="656.8281" y2="678.4375"/><line style="stroke:#000000;stroke-width:1.0;" x1="268" x2="617" y1="678.4375" y2="678.4375"/><text fill="#000000" font-family="sans-serif" font-size="14" font-weight="bold" lengthAdjust="spacing" textLength="160" x="273" y="694.9707">ParticipantObjectName</text><text fill="#000000" font-family="sans-serif" font-size="14" lengthAdjust="spacing" textLength="106" x="506" y="694.9707">the patient name</text><line style="stroke:#000000;stroke-width:1.0;" x1="501" x2="501" y1="678.4375" y2="700.0469"/><rect fill="none" height="108.0469" rx="5" ry="5" style="stroke:#000000;stroke-width:1.5;" width="349" x="268" y="592"/><rect fill="#F1F1F1" height="21.6094" rx="5" ry="5" style="stroke:#F1F1F1;stroke-width:1.5;" width="22" x="659" y="634"/><text fill="#000000" font-family="sans-serif" font-size="14" lengthAdjust="spacing" textLength="12" x="664" y="650.5332">   </text><rect fill="none" height="21.6094" rx="5" ry="5" style="stroke:#000000;stroke-width:1.5;" width="22" x="659" y="634"/><rect fill="#F1F1F1" height="21.6094" rx="5" ry="5" style="stroke:#F1F1F1;stroke-width:1.5;" width="335" x="734.5" y="634"/><text fill="#000000" font-family="sans-serif" font-size="14" font-weight="bold" lengthAdjust="spacing" textLength="118" x="739.5" y="650.5332">CodedValueType</text><text fill="#000000" font-family="sans-serif" font-size="14" lengthAdjust="spacing" textLength="197" x="867.5" y="650.5332">(2, RFC-3991, Patient Number)</text><line style="stroke:#000000;stroke-width:1.0;" x1="862.5" x2="862.5" y1="634" y2="655.6094"/><rect fill="none" height="21.6094" rx="5" ry="5" style="stroke:#000000;stroke-width:1.5;" width="335" x="734.5" y="634"/><path d="M670.542,21 L683.542,21 C698.0701,21 724.2194,21 753.4855,21 " fill="none" style="stroke:#000000;stroke-width:1.0;stroke-dasharray:3.0,3.0;"/><path d="M753.4855,24.001 L755.7362,21 L753.4855,17.999 L760.988,21 L753.4855,24.001 " fill="#000000" style="stroke:#000000;stroke-width:1.0;"/><ellipse cx="670.542" cy="21" fill="#000000" rx="3" ry="3" style="stroke:#000000;stroke-width:1.0;"/><path d="M554,21 L567,21 C596.5326,21 630.8053,21 651.5589,21 " fill="none" style="stroke:#000000;stroke-width:1.0;stroke-dasharray:3.0,3.0;"/><path d="M651.5589,24.1042 L653.8871,21 L651.5589,17.8958 L659.3194,21 L651.5589,24.1042 " fill="#000000" style="stroke:#000000;stroke-width:1.0;"/><ellipse cx="554" cy="21" fill="#000000" rx="3" ry="3" style="stroke:#000000;stroke-width:1.0;"/><path d="M670.542,108 L683.542,108 C695.427,108 715.0894,108 737.873,108 " fill="none" style="stroke:#000000;stroke-width:1.0;stroke-dasharray:3.0,3.0;"/><path d="M737.873,111.0004 L740.1234,108 L737.873,104.9996 L745.3741,108 L737.873,111.0004 " fill="#000000" style="stroke:#000000;stroke-width:1.0;"/><ellipse cx="670.542" cy="108" fill="#000000" rx="3" ry="3" style="stroke:#000000;stroke-width:1.0;"/><path d="M554,108 L567,108 C596.5326,108 630.8053,108 651.5589,108 " fill="none" style="stroke:#000000;stroke-width:1.0;stroke-dasharray:3.0,3.0;"/><path d="M651.5589,111.1042 L653.8871,108 L651.5589,104.8958 L659.3194,108 L651.5589,111.1042 " fill="#000000" style="stroke:#000000;stroke-width:1.0;"/><ellipse cx="554" cy="108" fill="#000000" rx="3" ry="3" style="stroke:#000000;stroke-width:1.0;"/><path d="M215.5,386 L215.5,373 C215.5,331.6307 237.3665,225.4707 263,193 C276.7417,175.5929 294.5347,160.9447 313.5591,148.7504 " fill="none" style="stroke:#000000;stroke-width:1.0;stroke-dasharray:3.0,3.0;"/><path d="M315.1758,151.3484 L315.5075,147.5379 L311.9423,146.1525 L320.0539,144.7086 L315.1758,151.3484 " fill="#000000" style="stroke:#000000;stroke-width:1.0;"/><ellipse cx="215.5" cy="386" fill="#000000" rx="3" ry="3" style="stroke:#000000;stroke-width:1.0;"/><path d="M670.542,299 L683.542,299 C693.2471,299 708.1383,299 725.6803,299 " fill="none" style="stroke:#000000;stroke-width:1.0;stroke-dasharray:3.0,3.0;"/><path d="M725.6803,302.0692 L727.9822,299 L725.6803,295.9308 L733.3532,299 L725.6803,302.0692 " fill="#000000" style="stroke:#000000;stroke-width:1.0;"/><ellipse cx="670.542" cy="299" fill="#000000" rx="3" ry="3" style="stroke:#000000;stroke-width:1.0;"/><path d="M598,299 L611,299 C624.4659,299 639.6462,299 651.303,299 " fill="none" style="stroke:#000000;stroke-width:1.0;stroke-dasharray:3.0,3.0;"/><path d="M651.303,302.1162 L653.6402,299 L651.303,295.8838 L659.0935,299 L651.303,302.1162 " fill="#000000" style="stroke:#000000;stroke-width:1.0;"/><ellipse cx="598" cy="299" fill="#000000" rx="3" ry="3" style="stroke:#000000;stroke-width:1.0;"/><path d="M214,406 L227,406 C268.8463,406 232.6233,347.7813 263,319 C265.1598,316.9536 267.3901,314.9732 269.683,313.0566 " fill="none" style="stroke:#000000;stroke-width:1.0;stroke-dasharray:3.0,3.0;"/><path d="M271.6532,315.541 L271.5463,311.579 L267.7128,310.5723 L275.8939,308.1311 L271.6532,315.541 " fill="#000000" style="stroke:#000000;stroke-width:1.0;"/><ellipse cx="214" cy="406" fill="#000000" rx="3" ry="3" style="stroke:#000000;stroke-width:1.0;"/><path d="M670.542,425 L683.542,425 C690.7371,425 700.7826,425 712.6454,425 " fill="none" style="stroke:#000000;stroke-width:1.0;stroke-dasharray:3.0,3.0;"/><path d="M712.6454,428.0448 L714.929,425 L712.6454,421.9552 L720.2573,425 L712.6454,428.0448 " fill="#000000" style="stroke:#000000;stroke-width:1.0;"/><ellipse cx="670.542" cy="425" fill="#000000" rx="3" ry="3" style="stroke:#000000;stroke-width:1.0;"/><path d="M602,425 L615,425 C627.2852,425 641.1,425 651.8734,425 " fill="none" style="stroke:#000000;stroke-width:1.0;stroke-dasharray:3.0,3.0;"/><path d="M651.8734,428.028 L654.1444,425 L651.8734,421.972 L659.4434,425 L651.8734,428.028 " fill="#000000" style="stroke:#000000;stroke-width:1.0;"/><ellipse cx="602" cy="425" fill="#000000" rx="3" ry="3" style="stroke:#000000;stroke-width:1.0;"/><path d="M214,428 L227,428 C239.3646,428 252.0425,427.2635 264.7563,425.9769 " fill="none" style="stroke:#000000;stroke-width:1.0;stroke-dasharray:3.0,3.0;"/><path d="M265.0842,428.972 L267.0027,425.731 L264.4284,422.9818 L272.2441,425.1572 L265.0842,428.972 " fill="#000000" style="stroke:#000000;stroke-width:1.0;"/><ellipse cx="214" cy="428" fill="#000000" rx="3" ry="3" style="stroke:#000000;stroke-width:1.0;"/><path d="M670.542,508 L683.542,508 C690.8902,508 701.2113,508 713.4051,508 " fill="none" style="stroke:#000000;stroke-width:1.0;stroke-dasharray:3.0,3.0;"/><path d="M713.4051,511.1298 L715.7524,508 L713.4051,504.8702 L721.2295,508 L713.4051,511.1298 " fill="#000000" style="stroke:#000000;stroke-width:1.0;"/><ellipse cx="670.542" cy="508" fill="#000000" rx="3" ry="3" style="stroke:#000000;stroke-width:1.0;"/><path d="M610,508 L623,508 C632.374,508 642.7885,508 651.4714,508 " fill="none" style="stroke:#000000;stroke-width:1.0;stroke-dasharray:3.0,3.0;"/><path d="M651.4714,511.0815 L653.7825,508 L651.4714,504.9185 L659.1751,508 L651.4714,511.0815 " fill="#000000" style="stroke:#000000;stroke-width:1.0;"/><ellipse cx="610" cy="508" fill="#000000" rx="3" ry="3" style="stroke:#000000;stroke-width:1.0;"/><path d="M214,450 L227,450 C242.022,450 257.5009,451.1086 272.9422,452.9852 " fill="none" style="stroke:#000000;stroke-width:1.0;stroke-dasharray:3.0,3.0;"/><path d="M272.5496,456.0152 L275.2147,453.2797 L273.3348,449.9552 L280.5173,453.9667 L272.5496,456.0152 " fill="#000000" style="stroke:#000000;stroke-width:1.0;"/><ellipse cx="214" cy="450" fill="#000000" rx="3" ry="3" style="stroke:#000000;stroke-width:1.0;"/><path d="M214,471 L227,471 C265.1809,471 231.8488,526.9233 263,549 C311.8077,583.5898 387.8492,575.9194 423.0006,569.876 " fill="none" style="stroke:#000000;stroke-width:1.0;stroke-dasharray:3.0,3.0;"/><path d="M423.5604,572.9282 L425.2898,569.4561 L422.4408,566.8237 L430.6312,568.4765 L423.5604,572.9282 " fill="#000000" style="stroke:#000000;stroke-width:1.0;"/><ellipse cx="214" cy="471" fill="#000000" rx="3" ry="3" style="stroke:#000000;stroke-width:1.0;"/><path d="M670.542,645 L683.542,645 C693.4898,645 708.8861,645 727.0009,645 " fill="none" style="stroke:#000000;stroke-width:1.0;stroke-dasharray:3.0,3.0;"/><path d="M727.0009,648.1688 L729.3775,645 L727.0009,641.8312 L734.9228,645 L727.0009,648.1688 " fill="#000000" style="stroke:#000000;stroke-width:1.0;"/><ellipse cx="670.542" cy="645" fill="#000000" rx="3" ry="3" style="stroke:#000000;stroke-width:1.0;"/><path d="M606,645 L619,645 C629.8968,645 642.0905,645 651.8766,645 " fill="none" style="stroke:#000000;stroke-width:1.0;stroke-dasharray:3.0,3.0;"/><path d="M651.8766,648.0291 L654.1484,645 L651.8766,641.9709 L659.4493,645 L651.8766,648.0291 " fill="#000000" style="stroke:#000000;stroke-width:1.0;"/><ellipse cx="606" cy="645" fill="#000000" rx="3" ry="3" style="stroke:#000000;stroke-width:1.0;"/><path d="M214,493 L227,493 C270.0813,493 231.9026,553.1847 263,583 C264.4045,584.3466 265.8396,585.6647 267.3029,586.9547 " fill="none" style="stroke:#000000;stroke-width:1.0;stroke-dasharray:3.0,3.0;"/><path d="M265.3676,589.2668 L269.0369,588.4062 L269.2382,584.6427 L273.083,591.793 L265.3676,589.2668 " fill="#000000" style="stroke:#000000;stroke-width:1.0;"/><ellipse cx="214" cy="493" fill="#000000" rx="3" ry="3" style="stroke:#000000;stroke-width:1.0;"/><!--MD5=[03f8904a700efdbe40c0eb23b22846e9]
@startjson
{
	"event": {
	   "eventID" : [
	       { "CodedValueType" : "(110106, DCM, Export)"}
	       ],
	   "EventActionCode": "R",
	   "EventDateTime" : "date-time",
	   "EventOutcomeIndicator": "0",
	   "EventTypeCode" : [
	   	{ "CodedValueType" : "not specialized (seems odd)"}
		],
	   "traceID" : "asdf",
	   "parentID" : "lkjl",
	   "childID" : "huh"
	   },
	"ActiveParticipant" : {
	   "UserID" : "UserID of the sending process",
	   "AlternativeUserID" : "theotherID",
	   "Username" : "if known",
	   "UserIsRequestor" : "TRUE",
	   "RoleIDCode" : [
	   	{ "CodedValueType" : "(110153, DCM, Source Role ID)"}
		]
	   },
	"ActiveParticipant" : {
	   "UserID" : "UserID of the receiving process",
	   "AlternativeUserID" : "theotherID",
	   "Username" : "if known",
	   "UserIsRequestor" : "TRUE",
	   "RoleIDCode" : [
	   	{ "CodedValueType" : "*110152, DCM, Destination Role ID)"}
		]
	   },
	"ParticipatingObject" : {
	   "ParticipantObjectTypeCode" : 2,
	   "ParticipantObjectTypeCodeRole" : 3,
	   "ParticipantObjectIDTypeCode" : [
	       { "CodedValueType" : "(110180, DCM, Study Instance UID)"}
	       ],
	   "ParticipantObjectID" : "study-instance-uid"
	   },
	"more participating objects" : [],
	"ParticipatingObject" : {
	    "ParticipantObjectTypeCode" : 1,
	    "ParticipantObjectTypeCodeRole" : 1,
	    "ParticipantObjectIDTypeCode" : [
	        { "CodedValueType" : "(2, RFC-3991, Patient Number)"}
	        ],
	    "ParticipantObjectID" : "the patient ID",
	    "ParticipantObjectName" : "the patient name"
	   }
}
@endjson

PlantUML version 1.2022.8(Sun Sep 25 05:00:33 EDT 2022)
(GPL source distribution)
Java Runtime: Java(TM) SE Runtime Environment
JVM: Java HotSpot(TM) Client VM
Default Encoding: Cp1252
Language: en
Country: US
--></g></svg>