<?xml version="1.0" encoding="UTF-8" standalone="no"?><svg xmlns="http://www.w3.org/2000/svg" xmlns:xlink="http://www.w3.org/1999/xlink" contentStyleType="text/css" height="586px" preserveAspectRatio="none" style="width:1113px;height:586px;background:#FFFFFF;" version="1.1" viewBox="0 0 1113 586" width="1113px" zoomAndPan="magnify"><defs/><g><rect fill="#F1F1F1" height="108.0469" rx="5" ry="5" style="stroke:#F1F1F1;stroke-width:1.5;" width="216" x="10" y="318"/><text fill="#000000" font-family="sans-serif" font-size="14" font-weight="bold" lengthAdjust="spacing" textLength="41" x="15" y="334.5332">event</text><text fill="#000000" font-family="sans-serif" font-size="14" lengthAdjust="spacing" textLength="12" x="209" y="334.5332">   </text><line style="stroke:#000000;stroke-width:1.0;" x1="204" x2="204" y1="318" y2="339.6094"/><line style="stroke:#000000;stroke-width:1.0;" x1="10" x2="226" y1="339.6094" y2="339.6094"/><text fill="#000000" font-family="sans-serif" font-size="14" font-weight="bold" lengthAdjust="spacing" textLength="119" x="15" y="356.1426">ActiveParticipant</text><text fill="#000000" font-family="sans-serif" font-size="14" lengthAdjust="spacing" textLength="12" x="209" y="356.1426">   </text><line style="stroke:#000000;stroke-width:1.0;" x1="204" x2="204" y1="339.6094" y2="361.2188"/><line style="stroke:#000000;stroke-width:1.0;" x1="10" x2="226" y1="361.2188" y2="361.2188"/><text fill="#000000" font-family="sans-serif" font-size="14" font-weight="bold" lengthAdjust="spacing" textLength="134" x="15" y="377.752">ParticipatingObject</text><text fill="#000000" font-family="sans-serif" font-size="14" lengthAdjust="spacing" textLength="12" x="209" y="377.752">   </text><line style="stroke:#000000;stroke-width:1.0;" x1="204" x2="204" y1="361.2188" y2="382.8281"/><line style="stroke:#000000;stroke-width:1.0;" x1="10" x2="226" y1="382.8281" y2="382.8281"/><text fill="#000000" font-family="sans-serif" font-size="14" font-weight="bold" lengthAdjust="spacing" textLength="184" x="15" y="399.3613">more participating objects</text><text fill="#000000" font-family="sans-serif" font-size="14" lengthAdjust="spacing" textLength="12" x="209" y="399.3613">   </text><line style="stroke:#000000;stroke-width:1.0;" x1="204" x2="204" y1="382.8281" y2="404.4375"/><line style="stroke:#000000;stroke-width:1.0;" x1="10" x2="226" y1="404.4375" y2="404.4375"/><text fill="#000000" font-family="sans-serif" font-size="14" font-weight="bold" lengthAdjust="spacing" textLength="134" x="15" y="420.9707">ParticipatingObject</text><text fill="#000000" font-family="sans-serif" font-size="14" lengthAdjust="spacing" textLength="12" x="209" y="420.9707">   </text><line style="stroke:#000000;stroke-width:1.0;" x1="204" x2="204" y1="404.4375" y2="426.0469"/><rect fill="none" height="108.0469" rx="5" ry="5" style="stroke:#000000;stroke-width:1.5;" width="216" x="10" y="318"/><rect fill="#F1F1F1" height="172.875" rx="5" ry="5" style="stroke:#F1F1F1;stroke-width:1.5;" width="245" x="320" y="10.5"/><text fill="#000000" font-family="sans-serif" font-size="14" font-weight="bold" lengthAdjust="spacing" textLength="55" x="325" y="27.0332">eventID</text><text fill="#000000" font-family="sans-serif" font-size="14" lengthAdjust="spacing" textLength="12" x="501" y="27.0332">   </text><line style="stroke:#000000;stroke-width:1.0;" x1="496" x2="496" y1="10.5" y2="32.1094"/><line style="stroke:#000000;stroke-width:1.0;" x1="320" x2="565" y1="32.1094" y2="32.1094"/><text fill="#000000" font-family="sans-serif" font-size="14" font-weight="bold" lengthAdjust="spacing" textLength="122" x="325" y="48.6426">EventActionCode</text><text fill="#000000" font-family="sans-serif" font-size="14" lengthAdjust="spacing" textLength="10" x="501" y="48.6426">D</text><line style="stroke:#000000;stroke-width:1.0;" x1="496" x2="496" y1="32.1094" y2="53.7188"/><line style="stroke:#000000;stroke-width:1.0;" x1="320" x2="565" y1="53.7188" y2="53.7188"/><text fill="#000000" font-family="sans-serif" font-size="14" font-weight="bold" lengthAdjust="spacing" textLength="106" x="325" y="70.252">EventDateTime</text><text fill="#000000" font-family="sans-serif" font-size="14" lengthAdjust="spacing" textLength="59" x="501" y="70.252">date-time</text><line style="stroke:#000000;stroke-width:1.0;" x1="496" x2="496" y1="53.7188" y2="75.3281"/><line style="stroke:#000000;stroke-width:1.0;" x1="320" x2="565" y1="75.3281" y2="75.3281"/><text fill="#000000" font-family="sans-serif" font-size="14" font-weight="bold" lengthAdjust="spacing" textLength="166" x="325" y="91.8613">EventOutcomeIndicator</text><text fill="#000000" font-family="sans-serif" font-size="14" lengthAdjust="spacing" textLength="8" x="501" y="91.8613">0</text><line style="stroke:#000000;stroke-width:1.0;" x1="496" x2="496" y1="75.3281" y2="96.9375"/><line style="stroke:#000000;stroke-width:1.0;" x1="320" x2="565" y1="96.9375" y2="96.9375"/><text fill="#000000" font-family="sans-serif" font-size="14" font-weight="bold" lengthAdjust="spacing" textLength="111" x="325" y="113.4707">EventTypeCode</text><text fill="#000000" font-family="sans-serif" font-size="14" lengthAdjust="spacing" textLength="12" x="501" y="113.4707">   </text><line style="stroke:#000000;stroke-width:1.0;" x1="496" x2="496" y1="96.9375" y2="118.5469"/><line style="stroke:#000000;stroke-width:1.0;" x1="320" x2="565" y1="118.5469" y2="118.5469"/><text fill="#000000" font-family="sans-serif" font-size="14" font-weight="bold" lengthAdjust="spacing" textLength="50" x="325" y="135.0801">traceID</text><text fill="#000000" font-family="sans-serif" font-size="14" lengthAdjust="spacing" textLength="27" x="501" y="135.0801">asdf</text><line style="stroke:#000000;stroke-width:1.0;" x1="496" x2="496" y1="118.5469" y2="140.1563"/><line style="stroke:#000000;stroke-width:1.0;" x1="320" x2="565" y1="140.1563" y2="140.1563"/><text fill="#000000" font-family="sans-serif" font-size="14" font-weight="bold" lengthAdjust="spacing" textLength="60" x="325" y="156.6895">parentID</text><text fill="#000000" font-family="sans-serif" font-size="14" lengthAdjust="spacing" textLength="16" x="501" y="156.6895">lkjl</text><line style="stroke:#000000;stroke-width:1.0;" x1="496" x2="496" y1="140.1563" y2="161.7656"/><line style="stroke:#000000;stroke-width:1.0;" x1="320" x2="565" y1="161.7656" y2="161.7656"/><text fill="#000000" font-family="sans-serif" font-size="14" font-weight="bold" lengthAdjust="spacing" textLength="48" x="325" y="178.2988">childID</text><text fill="#000000" font-family="sans-serif" font-size="14" lengthAdjust="spacing" textLength="24" x="501" y="178.2988">huh</text><line style="stroke:#000000;stroke-width:1.0;" x1="496" x2="496" y1="161.7656" y2="183.375"/><rect fill="none" height="172.875" rx="5" ry="5" style="stroke:#000000;stroke-width:1.5;" width="245" x="320" y="10.5"/><rect fill="#F1F1F1" height="21.6094" rx="5" ry="5" style="stroke:#F1F1F1;stroke-width:1.5;" width="22" x="659" y="10"/><text fill="#000000" font-family="sans-serif" font-size="14" lengthAdjust="spacing" textLength="12" x="664" y="26.5332">   </text><rect fill="none" height="21.6094" rx="5" ry="5" style="stroke:#000000;stroke-width:1.5;" width="22" x="659" y="10"/><rect fill="#F1F1F1" height="21.6094" rx="5" ry="5" style="stroke:#F1F1F1;stroke-width:1.5;" width="381" x="720" y="10"/><text fill="#000000" font-family="sans-serif" font-size="14" font-weight="bold" lengthAdjust="spacing" textLength="118" x="725" y="26.5332">CodedValueType</text><text fill="#000000" font-family="sans-serif" font-size="14" lengthAdjust="spacing" textLength="243" x="853" y="26.5332">(110105, DCM, DICOM Study Deleted)</text><line style="stroke:#000000;stroke-width:1.0;" x1="848" x2="848" y1="10" y2="31.6094"/><rect fill="none" height="21.6094" rx="5" ry="5" style="stroke:#000000;stroke-width:1.5;" width="381" x="720" y="10"/><rect fill="#F1F1F1" height="21.6094" rx="5" ry="5" style="stroke:#F1F1F1;stroke-width:1.5;" width="22" x="659" y="97"/><text fill="#000000" font-family="sans-serif" font-size="14" lengthAdjust="spacing" textLength="12" x="664" y="113.5332">   </text><rect fill="none" height="21.6094" rx="5" ry="5" style="stroke:#000000;stroke-width:1.5;" width="22" x="659" y="97"/><rect fill="#F1F1F1" height="21.6094" rx="5" ry="5" style="stroke:#F1F1F1;stroke-width:1.5;" width="314" x="753.5" y="97"/><text fill="#000000" font-family="sans-serif" font-size="14" font-weight="bold" lengthAdjust="spacing" textLength="118" x="758.5" y="113.5332">CodedValueType</text><text fill="#000000" font-family="sans-serif" font-size="14" lengthAdjust="spacing" textLength="176" x="886.5" y="113.5332">not specialized (seems odd)</text><line style="stroke:#000000;stroke-width:1.0;" x1="881.5" x2="881.5" y1="97" y2="118.6094"/><rect fill="none" height="21.6094" rx="5" ry="5" style="stroke:#000000;stroke-width:1.5;" width="314" x="753.5" y="97"/><rect fill="#F1F1F1" height="108.0469" rx="5" ry="5" style="stroke:#F1F1F1;stroke-width:1.5;" width="334" x="275.5" y="202"/><text fill="#000000" font-family="sans-serif" font-size="14" font-weight="bold" lengthAdjust="spacing" textLength="47" x="280.5" y="218.5332">UserID</text><text fill="#000000" font-family="sans-serif" font-size="14" lengthAdjust="spacing" textLength="190" x="414.5" y="218.5332">UserID of the deleting process</text><line style="stroke:#000000;stroke-width:1.0;" x1="409.5" x2="409.5" y1="202" y2="223.6094"/><line style="stroke:#000000;stroke-width:1.0;" x1="275.5" x2="609.5" y1="223.6094" y2="223.6094"/><text fill="#000000" font-family="sans-serif" font-size="14" font-weight="bold" lengthAdjust="spacing" textLength="124" x="280.5" y="240.1426">AlternativeUserID</text><text fill="#000000" font-family="sans-serif" font-size="14" lengthAdjust="spacing" textLength="66" x="414.5" y="240.1426">theotherID</text><line style="stroke:#000000;stroke-width:1.0;" x1="409.5" x2="409.5" y1="223.6094" y2="245.2188"/><line style="stroke:#000000;stroke-width:1.0;" x1="275.5" x2="609.5" y1="245.2188" y2="245.2188"/><text fill="#000000" font-family="sans-serif" font-size="14" font-weight="bold" lengthAdjust="spacing" textLength="71" x="280.5" y="261.752">Username</text><text fill="#000000" font-family="sans-serif" font-size="14" lengthAdjust="spacing" textLength="51" x="414.5" y="261.752">if known</text><line style="stroke:#000000;stroke-width:1.0;" x1="409.5" x2="409.5" y1="245.2188" y2="266.8281"/><line style="stroke:#000000;stroke-width:1.0;" x1="275.5" x2="609.5" y1="266.8281" y2="266.8281"/><text fill="#000000" font-family="sans-serif" font-size="14" font-weight="bold" lengthAdjust="spacing" textLength="119" x="280.5" y="283.3613">UserIsRequestor</text><text fill="#000000" font-family="sans-serif" font-size="14" lengthAdjust="spacing" textLength="37" x="414.5" y="283.3613">TRUE</text><line style="stroke:#000000;stroke-width:1.0;" x1="409.5" x2="409.5" y1="266.8281" y2="288.4375"/><line style="stroke:#000000;stroke-width:1.0;" x1="275.5" x2="609.5" y1="288.4375" y2="288.4375"/><text fill="#000000" font-family="sans-serif" font-size="14" font-weight="bold" lengthAdjust="spacing" textLength="83" x="280.5" y="304.9707">RoleIDCode</text><text fill="#000000" font-family="sans-serif" font-size="14" lengthAdjust="spacing" textLength="12" x="414.5" y="304.9707">   </text><line style="stroke:#000000;stroke-width:1.0;" x1="409.5" x2="409.5" y1="288.4375" y2="310.0469"/><rect fill="none" height="108.0469" rx="5" ry="5" style="stroke:#000000;stroke-width:1.5;" width="334" x="275.5" y="202"/><rect fill="#F1F1F1" height="21.6094" rx="5" ry="5" style="stroke:#F1F1F1;stroke-width:1.5;" width="22" x="659" y="288"/><text fill="#000000" font-family="sans-serif" font-size="14" lengthAdjust="spacing" textLength="12" x="664" y="304.5332">   </text><rect fill="none" height="21.6094" rx="5" ry="5" style="stroke:#000000;stroke-width:1.5;" width="22" x="659" y="288"/><rect fill="#F1F1F1" height="21.6094" rx="5" ry="5" style="stroke:#F1F1F1;stroke-width:1.5;" width="338" x="741.5" y="288"/><text fill="#000000" font-family="sans-serif" font-size="14" font-weight="bold" lengthAdjust="spacing" textLength="118" x="746.5" y="304.5332">CodedValueType</text><text fill="#000000" font-family="sans-serif" font-size="14" lengthAdjust="spacing" textLength="200" x="874.5" y="304.5332">(110153, DCM, Source Role ID)</text><line style="stroke:#000000;stroke-width:1.0;" x1="869.5" x2="869.5" y1="288" y2="309.6094"/><rect fill="none" height="21.6094" rx="5" ry="5" style="stroke:#000000;stroke-width:1.5;" width="338" x="741.5" y="288"/><rect fill="#F1F1F1" height="86.4375" rx="5" ry="5" style="stroke:#F1F1F1;stroke-width:1.5;" width="359" x="263" y="328"/><text fill="#000000" font-family="sans-serif" font-size="14" font-weight="bold" lengthAdjust="spacing" textLength="191" x="268" y="344.5332">ParticipantObjectTypeCode</text><text fill="#000000" font-family="sans-serif" font-size="14" lengthAdjust="spacing" textLength="8" x="501" y="344.5332">2</text><line style="stroke:#000000;stroke-width:1.0;" x1="496" x2="496" y1="328" y2="349.6094"/><line style="stroke:#000000;stroke-width:1.0;" x1="263" x2="622" y1="349.6094" y2="349.6094"/><text fill="#000000" font-family="sans-serif" font-size="14" font-weight="bold" lengthAdjust="spacing" textLength="223" x="268" y="366.1426">ParticipantObjectTypeCodeRole</text><text fill="#000000" font-family="sans-serif" font-size="14" lengthAdjust="spacing" textLength="8" x="501" y="366.1426">3</text><line style="stroke:#000000;stroke-width:1.0;" x1="496" x2="496" y1="349.6094" y2="371.2188"/><line style="stroke:#000000;stroke-width:1.0;" x1="263" x2="622" y1="371.2188" y2="371.2188"/><text fill="#000000" font-family="sans-serif" font-size="14" font-weight="bold" lengthAdjust="spacing" textLength="205" x="268" y="387.752">ParticipantObjectIDTypeCode</text><text fill="#000000" font-family="sans-serif" font-size="14" lengthAdjust="spacing" textLength="12" x="501" y="387.752">   </text><line style="stroke:#000000;stroke-width:1.0;" x1="496" x2="496" y1="371.2188" y2="392.8281"/><line style="stroke:#000000;stroke-width:1.0;" x1="263" x2="622" y1="392.8281" y2="392.8281"/><text fill="#000000" font-family="sans-serif" font-size="14" font-weight="bold" lengthAdjust="spacing" textLength="135" x="268" y="409.3613">ParticipantObjectID</text><text fill="#000000" font-family="sans-serif" font-size="14" lengthAdjust="spacing" textLength="116" x="501" y="409.3613">study-instance-uid</text><line style="stroke:#000000;stroke-width:1.0;" x1="496" x2="496" y1="392.8281" y2="414.4375"/><rect fill="none" height="86.4375" rx="5" ry="5" style="stroke:#000000;stroke-width:1.5;" width="359" x="263" y="328"/><rect fill="#F1F1F1" height="21.6094" rx="5" ry="5" style="stroke:#F1F1F1;stroke-width:1.5;" width="22" x="659" y="371"/><text fill="#000000" font-family="sans-serif" font-size="14" lengthAdjust="spacing" textLength="12" x="664" y="387.5332">   </text><rect fill="none" height="21.6094" rx="5" ry="5" style="stroke:#000000;stroke-width:1.5;" width="22" x="659" y="371"/><rect fill="#F1F1F1" height="21.6094" rx="5" ry="5" style="stroke:#F1F1F1;stroke-width:1.5;" width="362" x="729.5" y="371"/><text fill="#000000" font-family="sans-serif" font-size="14" font-weight="bold" lengthAdjust="spacing" textLength="118" x="734.5" y="387.5332">CodedValueType</text><text fill="#000000" font-family="sans-serif" font-size="14" lengthAdjust="spacing" textLength="224" x="862.5" y="387.5332">(110180, DCM, Study Instance UID)</text><line style="stroke:#000000;stroke-width:1.0;" x1="857.5" x2="857.5" y1="371" y2="392.6094"/><rect fill="none" height="21.6094" rx="5" ry="5" style="stroke:#000000;stroke-width:1.5;" width="362" x="729.5" y="371"/><rect fill="#F1F1F1" height="15" rx="5" ry="5" style="stroke:#F1F1F1;stroke-width:1.5;" width="30" x="430.5" y="432"/><rect fill="none" height="15" rx="5" ry="5" style="stroke:#000000;stroke-width:1.5;" width="30" x="430.5" y="432"/><rect fill="#F1F1F1" height="108.0469" rx="5" ry="5" style="stroke:#F1F1F1;stroke-width:1.5;" width="349" x="268" y="466"/><text fill="#000000" font-family="sans-serif" font-size="14" font-weight="bold" lengthAdjust="spacing" textLength="191" x="273" y="482.5332">ParticipantObjectTypeCode</text><text fill="#000000" font-family="sans-serif" font-size="14" lengthAdjust="spacing" textLength="8" x="506" y="482.5332">1</text><line style="stroke:#000000;stroke-width:1.0;" x1="501" x2="501" y1="466" y2="487.6094"/><line style="stroke:#000000;stroke-width:1.0;" x1="268" x2="617" y1="487.6094" y2="487.6094"/><text fill="#000000" font-family="sans-serif" font-size="14" font-weight="bold" lengthAdjust="spacing" textLength="223" x="273" y="504.1426">ParticipantObjectTypeCodeRole</text><text fill="#000000" font-family="sans-serif" font-size="14" lengthAdjust="spacing" textLength="8" x="506" y="504.1426">1</text><line style="stroke:#000000;stroke-width:1.0;" x1="501" x2="501" y1="487.6094" y2="509.2188"/><line style="stroke:#000000;stroke-width:1.0;" x1="268" x2="617" y1="509.2188" y2="509.2188"/><text fill="#000000" font-family="sans-serif" font-size="14" font-weight="bold" lengthAdjust="spacing" textLength="205" x="273" y="525.752">ParticipantObjectIDTypeCode</text><text fill="#000000" font-family="sans-serif" font-size="14" lengthAdjust="spacing" textLength="12" x="506" y="525.752">   </text><line style="stroke:#000000;stroke-width:1.0;" x1="501" x2="501" y1="509.2188" y2="530.8281"/><line style="stroke:#000000;stroke-width:1.0;" x1="268" x2="617" y1="530.8281" y2="530.8281"/><text fill="#000000" font-family="sans-serif" font-size="14" font-weight="bold" lengthAdjust="spacing" textLength="135" x="273" y="547.3613">ParticipantObjectID</text><text fill="#000000" font-family="sans-serif" font-size="14" lengthAdjust="spacing" textLength="84" x="506" y="547.3613">the patient ID</text><line style="stroke:#000000;stroke-width:1.0;" x1="501" x2="501" y1="530.8281" y2="552.4375"/><line style="stroke:#000000;stroke-width:1.0;" x1="268" x2="617" y1="552.4375" y2="552.4375"/><text fill="#000000" font-family="sans-serif" font-size="14" font-weight="bold" lengthAdjust="spacing" textLength="160" x="273" y="568.9707">ParticipantObjectName</text><text fill="#000000" font-family="sans-serif" font-size="14" lengthAdjust="spacing" textLength="106" x="506" y="568.9707">the patient name</text><line style="stroke:#000000;stroke-width:1.0;" x1="501" x2="501" y1="552.4375" y2="574.0469"/><rect fill="none" height="108.0469" rx="5" ry="5" style="stroke:#000000;stroke-width:1.5;" width="349" x="268" y="466"/><rect fill="#F1F1F1" height="21.6094" rx="5" ry="5" style="stroke:#F1F1F1;stroke-width:1.5;" width="22" x="659" y="508"/><text fill="#000000" font-family="sans-serif" font-size="14" lengthAdjust="spacing" textLength="12" x="664" y="524.5332">   </text><rect fill="none" height="21.6094" rx="5" ry="5" style="stroke:#000000;stroke-width:1.5;" width="22" x="659" y="508"/><rect fill="#F1F1F1" height="21.6094" rx="5" ry="5" style="stroke:#F1F1F1;stroke-width:1.5;" width="335" x="743" y="508"/><text fill="#000000" font-family="sans-serif" font-size="14" font-weight="bold" lengthAdjust="spacing" textLength="118" x="748" y="524.5332">CodedValueType</text><text fill="#000000" font-family="sans-serif" font-size="14" lengthAdjust="spacing" textLength="197" x="876" y="524.5332">(2, RFC-3991, Patient Number)</text><line style="stroke:#000000;stroke-width:1.0;" x1="871" x2="871" y1="508" y2="529.6094"/><rect fill="none" height="21.6094" rx="5" ry="5" style="stroke:#000000;stroke-width:1.5;" width="335" x="743" y="508"/><path d="M670.6551,21 L683.6551,21 C690.8086,21 700.7598,21 712.5302,21 " fill="none" style="stroke:#000000;stroke-width:1.0;stroke-dasharray:3.0,3.0;"/><path d="M712.5302,24.022 L714.7967,21 L712.5302,17.978 L720.0852,21 L712.5302,24.022 " fill="#000000" style="stroke:#000000;stroke-width:1.0;"/><ellipse cx="670.6551" cy="21" fill="#000000" rx="3" ry="3" style="stroke:#000000;stroke-width:1.0;"/><path d="M554,21 L567,21 C596.5326,21 630.8053,21 651.5589,21 " fill="none" style="stroke:#000000;stroke-width:1.0;stroke-dasharray:3.0,3.0;"/><path d="M651.5589,24.1042 L653.8871,21 L651.5589,17.8958 L659.3194,21 L651.5589,24.1042 " fill="#000000" style="stroke:#000000;stroke-width:1.0;"/><ellipse cx="554" cy="21" fill="#000000" rx="3" ry="3" style="stroke:#000000;stroke-width:1.0;"/><path d="M670.6551,108 L683.6551,108 C696.9739,108 719.991,108 746.3907,108 " fill="none" style="stroke:#000000;stroke-width:1.0;stroke-dasharray:3.0,3.0;"/><path d="M746.3907,111.0122 L748.6499,108 L746.3907,104.9878 L753.9213,108 L746.3907,111.0122 " fill="#000000" style="stroke:#000000;stroke-width:1.0;"/><ellipse cx="670.6551" cy="108" fill="#000000" rx="3" ry="3" style="stroke:#000000;stroke-width:1.0;"/><path d="M554,108 L567,108 C596.5326,108 630.8053,108 651.5589,108 " fill="none" style="stroke:#000000;stroke-width:1.0;stroke-dasharray:3.0,3.0;"/><path d="M651.5589,111.1042 L653.8871,108 L651.5589,104.8958 L659.3194,108 L651.5589,111.1042 " fill="#000000" style="stroke:#000000;stroke-width:1.0;"/><ellipse cx="554" cy="108" fill="#000000" rx="3" ry="3" style="stroke:#000000;stroke-width:1.0;"/><path d="M215.5,330 L215.5,317 C215.5,257.9838 223.9893,237.2841 263,193 C277.3455,176.7152 295.1387,162.7121 313.8927,150.8348 " fill="none" style="stroke:#000000;stroke-width:1.0;stroke-dasharray:3.0,3.0;"/><path d="M315.4714,153.3921 L315.8107,149.6508 L312.314,148.2774 L320.286,146.8881 L315.4714,153.3921 " fill="#000000" style="stroke:#000000;stroke-width:1.0;"/><ellipse cx="215.5" cy="330" fill="#000000" rx="3" ry="3" style="stroke:#000000;stroke-width:1.0;"/><path d="M670.6551,299 L683.6551,299 C694.8637,299 712.9408,299 734.1223,299 " fill="none" style="stroke:#000000;stroke-width:1.0;stroke-dasharray:3.0,3.0;"/><path d="M734.1223,302.0462 L736.4069,299 L734.1223,295.9538 L741.7377,299 L734.1223,302.0462 " fill="#000000" style="stroke:#000000;stroke-width:1.0;"/><ellipse cx="670.6551" cy="299" fill="#000000" rx="3" ry="3" style="stroke:#000000;stroke-width:1.0;"/><path d="M598,299 L611,299 C624.4659,299 639.6462,299 651.303,299 " fill="none" style="stroke:#000000;stroke-width:1.0;stroke-dasharray:3.0,3.0;"/><path d="M651.303,302.1162 L653.6402,299 L651.303,295.8838 L659.0935,299 L651.303,302.1162 " fill="#000000" style="stroke:#000000;stroke-width:1.0;"/><ellipse cx="598" cy="299" fill="#000000" rx="3" ry="3" style="stroke:#000000;stroke-width:1.0;"/><path d="M214,350 L227,350 C248.1146,350 244.7254,329.5768 263,319 C266.132,317.1873 269.3249,315.4141 272.5675,313.6805 " fill="none" style="stroke:#000000;stroke-width:1.0;stroke-dasharray:3.0,3.0;"/><path d="M273.9687,316.3694 L274.5842,312.6295 L271.1663,310.9915 L279.2898,310.1774 L273.9687,316.3694 " fill="#000000" style="stroke:#000000;stroke-width:1.0;"/><ellipse cx="214" cy="350" fill="#000000" rx="3" ry="3" style="stroke:#000000;stroke-width:1.0;"/><path d="M670.6551,382 L683.6551,382 C692.7101,382 706.2477,382 722.2834,382 " fill="none" style="stroke:#000000;stroke-width:1.0;stroke-dasharray:3.0,3.0;"/><path d="M722.2834,385.0146 L724.5443,382 L722.2834,378.9854 L729.8198,382 L722.2834,385.0146 " fill="#000000" style="stroke:#000000;stroke-width:1.0;"/><ellipse cx="670.6551" cy="382" fill="#000000" rx="3" ry="3" style="stroke:#000000;stroke-width:1.0;"/><path d="M610,382 L623,382 C632.374,382 642.7885,382 651.4714,382 " fill="none" style="stroke:#000000;stroke-width:1.0;stroke-dasharray:3.0,3.0;"/><path d="M651.4714,385.0815 L653.7825,382 L651.4714,378.9185 L659.1751,382 L651.4714,385.0815 " fill="#000000" style="stroke:#000000;stroke-width:1.0;"/><ellipse cx="610" cy="382" fill="#000000" rx="3" ry="3" style="stroke:#000000;stroke-width:1.0;"/><path d="M214,371 L227,371 C236.3513,371 245.9313,371 255.6059,371 " fill="none" style="stroke:#000000;stroke-width:1.0;stroke-dasharray:3.0,3.0;"/><path d="M255.6059,374.1106 L257.9388,371 L255.6059,367.8894 L263.3823,371 L255.6059,374.1106 " fill="#000000" style="stroke:#000000;stroke-width:1.0;"/><ellipse cx="214" cy="371" fill="#000000" rx="3" ry="3" style="stroke:#000000;stroke-width:1.0;"/><path d="M214,393 L227,393 C247.8273,393 243.7741,414.991 263,423 C317.7232,445.7963 389.7602,444.1261 423.3094,441.7442 " fill="none" style="stroke:#000000;stroke-width:1.0;stroke-dasharray:3.0,3.0;"/><path d="M423.552,444.8107 L425.6093,441.5623 L423.0668,438.6777 L430.9757,441.1377 L423.552,444.8107 " fill="#000000" style="stroke:#000000;stroke-width:1.0;"/><ellipse cx="214" cy="393" fill="#000000" rx="3" ry="3" style="stroke:#000000;stroke-width:1.0;"/><path d="M670.6551,519 L683.6551,519 C695.1685,519 713.9291,519 735.8571,519 " fill="none" style="stroke:#000000;stroke-width:1.0;stroke-dasharray:3.0,3.0;"/><path d="M735.8571,522.0208 L738.1227,519 L735.8571,515.9792 L743.4091,519 L735.8571,522.0208 " fill="#000000" style="stroke:#000000;stroke-width:1.0;"/><ellipse cx="670.6551" cy="519" fill="#000000" rx="3" ry="3" style="stroke:#000000;stroke-width:1.0;"/><path d="M606,519 L619,519 C629.8968,519 642.0905,519 651.8766,519 " fill="none" style="stroke:#000000;stroke-width:1.0;stroke-dasharray:3.0,3.0;"/><path d="M651.8766,522.0291 L654.1484,519 L651.8766,515.9709 L659.4493,519 L651.8766,522.0291 " fill="#000000" style="stroke:#000000;stroke-width:1.0;"/><ellipse cx="606" cy="519" fill="#000000" rx="3" ry="3" style="stroke:#000000;stroke-width:1.0;"/><path d="M214,415 L227,415 C251.5855,415 242.7128,443.1121 263,457 C265.383,458.6313 267.8126,460.2247 270.2829,461.781 " fill="none" style="stroke:#000000;stroke-width:1.0;stroke-dasharray:3.0,3.0;"/><path d="M268.6696,464.433 L272.2719,462.991 L271.8962,459.129 L276.9129,465.8142 L268.6696,464.433 " fill="#000000" style="stroke:#000000;stroke-width:1.0;"/><ellipse cx="214" cy="415" fill="#000000" rx="3" ry="3" style="stroke:#000000;stroke-width:1.0;"/><!--MD5=[5c080dbfb1b1eedcfd80eacafa21e5cd]
@startjson
{
	"event": {
	   "eventID" : [
	       { "CodedValueType" : "(110105, DCM, DICOM Study Deleted)"}
	       ],
	   "EventActionCode": "D",
	   "EventDateTime" : "date-time",
	   "EventOutcomeIndicator": "0",
	   "EventTypeCode" : [
	   	{ "CodedValueType" : "not specialized (seems odd)"}
		],
	   "traceID" : "asdf",
	   "parentID" : "lkjl",
	   "childID" : "huh"
	   },
	"ActiveParticipant" : {
	   "UserID" : "UserID of the deleting process",
	   "AlternativeUserID" : "theotherID",
	   "Username" : "if known",
	   "UserIsRequestor" : "TRUE",
	   "RoleIDCode" : [
	   	{ "CodedValueType" : "(110153, DCM, Source Role ID)"}
		]
	   },
	"ParticipatingObject" : {
	   "ParticipantObjectTypeCode" : 2,
	   "ParticipantObjectTypeCodeRole" : 3,
	   "ParticipantObjectIDTypeCode" : [
	       { "CodedValueType" : "(110180, DCM, Study Instance UID)"}
	       ],
	   "ParticipantObjectID" : "study-instance-uid"
	   },
	"more participating objects" : [],
	"ParticipatingObject" : {
	    "ParticipantObjectTypeCode" : 1,
	    "ParticipantObjectTypeCodeRole" : 1,
	    "ParticipantObjectIDTypeCode" : [
	        { "CodedValueType" : "(2, RFC-3991, Patient Number)"}
	        ],
	    "ParticipantObjectID" : "the patient ID",
	    "ParticipantObjectName" : "the patient name"
	   }
}
@endjson

PlantUML version 1.2022.8(Sun Sep 25 05:00:33 EDT 2022)
(GPL source distribution)
Java Runtime: Java(TM) SE Runtime Environment
JVM: Java HotSpot(TM) Client VM
Default Encoding: Cp1252
Language: en
Country: US
--></g></svg>