<?xml version="1.0" encoding="UTF-8" standalone="no"?><svg xmlns="http://www.w3.org/2000/svg" xmlns:xlink="http://www.w3.org/1999/xlink" contentStyleType="text/css" height="300px" preserveAspectRatio="none" style="width:912px;height:300px;background:#FFFFFF;" version="1.1" viewBox="0 0 912 300" width="912px" zoomAndPan="magnify"><defs/><g><rect fill="#F1F1F1" height="43.2188" rx="5" ry="5" style="stroke:#F1F1F1;stroke-width:1.5;" width="151" x="10" y="149.5"/><text fill="#000000" font-family="sans-serif" font-size="14" font-weight="bold" lengthAdjust="spacing" textLength="41" x="15" y="166.0332">event</text><text fill="#000000" font-family="sans-serif" font-size="14" lengthAdjust="spacing" textLength="12" x="144" y="166.0332">   </text><line style="stroke:#000000;stroke-width:1.0;" x1="139" x2="139" y1="149.5" y2="171.1094"/><line style="stroke:#000000;stroke-width:1.0;" x1="10" x2="161" y1="171.1094" y2="171.1094"/><text fill="#000000" font-family="sans-serif" font-size="14" font-weight="bold" lengthAdjust="spacing" textLength="119" x="15" y="187.6426">ActiveParticipant</text><text fill="#000000" font-family="sans-serif" font-size="14" lengthAdjust="spacing" textLength="12" x="144" y="187.6426">   </text><line style="stroke:#000000;stroke-width:1.0;" x1="139" x2="139" y1="171.1094" y2="192.7188"/><rect fill="none" height="43.2188" rx="5" ry="5" style="stroke:#000000;stroke-width:1.5;" width="151" x="10" y="149.5"/><rect fill="#F1F1F1" height="172.875" rx="5" ry="5" style="stroke:#F1F1F1;stroke-width:1.5;" width="245" x="212.5" y="10.5"/><text fill="#000000" font-family="sans-serif" font-size="14" font-weight="bold" lengthAdjust="spacing" textLength="55" x="217.5" y="27.0332">eventID</text><text fill="#000000" font-family="sans-serif" font-size="14" lengthAdjust="spacing" textLength="12" x="393.5" y="27.0332">   </text><line style="stroke:#000000;stroke-width:1.0;" x1="388.5" x2="388.5" y1="10.5" y2="32.1094"/><line style="stroke:#000000;stroke-width:1.0;" x1="212.5" x2="457.5" y1="32.1094" y2="32.1094"/><text fill="#000000" font-family="sans-serif" font-size="14" font-weight="bold" lengthAdjust="spacing" textLength="122" x="217.5" y="48.6426">EventActionCode</text><text fill="#000000" font-family="sans-serif" font-size="14" lengthAdjust="spacing" textLength="9" x="393.5" y="48.6426">E</text><line style="stroke:#000000;stroke-width:1.0;" x1="388.5" x2="388.5" y1="32.1094" y2="53.7188"/><line style="stroke:#000000;stroke-width:1.0;" x1="212.5" x2="457.5" y1="53.7188" y2="53.7188"/><text fill="#000000" font-family="sans-serif" font-size="14" font-weight="bold" lengthAdjust="spacing" textLength="106" x="217.5" y="70.252">EventDateTime</text><text fill="#000000" font-family="sans-serif" font-size="14" lengthAdjust="spacing" textLength="59" x="393.5" y="70.252">date-time</text><line style="stroke:#000000;stroke-width:1.0;" x1="388.5" x2="388.5" y1="53.7188" y2="75.3281"/><line style="stroke:#000000;stroke-width:1.0;" x1="212.5" x2="457.5" y1="75.3281" y2="75.3281"/><text fill="#000000" font-family="sans-serif" font-size="14" font-weight="bold" lengthAdjust="spacing" textLength="166" x="217.5" y="91.8613">EventOutcomeIndicator</text><text fill="#000000" font-family="sans-serif" font-size="14" lengthAdjust="spacing" textLength="8" x="393.5" y="91.8613">0</text><line style="stroke:#000000;stroke-width:1.0;" x1="388.5" x2="388.5" y1="75.3281" y2="96.9375"/><line style="stroke:#000000;stroke-width:1.0;" x1="212.5" x2="457.5" y1="96.9375" y2="96.9375"/><text fill="#000000" font-family="sans-serif" font-size="14" font-weight="bold" lengthAdjust="spacing" textLength="111" x="217.5" y="113.4707">EventTypeCode</text><text fill="#000000" font-family="sans-serif" font-size="14" lengthAdjust="spacing" textLength="12" x="393.5" y="113.4707">   </text><line style="stroke:#000000;stroke-width:1.0;" x1="388.5" x2="388.5" y1="96.9375" y2="118.5469"/><line style="stroke:#000000;stroke-width:1.0;" x1="212.5" x2="457.5" y1="118.5469" y2="118.5469"/><text fill="#000000" font-family="sans-serif" font-size="14" font-weight="bold" lengthAdjust="spacing" textLength="50" x="217.5" y="135.0801">traceID</text><text fill="#000000" font-family="sans-serif" font-size="14" lengthAdjust="spacing" textLength="27" x="393.5" y="135.0801">asdf</text><line style="stroke:#000000;stroke-width:1.0;" x1="388.5" x2="388.5" y1="118.5469" y2="140.1563"/><line style="stroke:#000000;stroke-width:1.0;" x1="212.5" x2="457.5" y1="140.1563" y2="140.1563"/><text fill="#000000" font-family="sans-serif" font-size="14" font-weight="bold" lengthAdjust="spacing" textLength="60" x="217.5" y="156.6895">parentID</text><text fill="#000000" font-family="sans-serif" font-size="14" lengthAdjust="spacing" textLength="16" x="393.5" y="156.6895">lkjl</text><line style="stroke:#000000;stroke-width:1.0;" x1="388.5" x2="388.5" y1="140.1563" y2="161.7656"/><line style="stroke:#000000;stroke-width:1.0;" x1="212.5" x2="457.5" y1="161.7656" y2="161.7656"/><text fill="#000000" font-family="sans-serif" font-size="14" font-weight="bold" lengthAdjust="spacing" textLength="48" x="217.5" y="178.2988">childID</text><text fill="#000000" font-family="sans-serif" font-size="14" lengthAdjust="spacing" textLength="24" x="393.5" y="178.2988">huh</text><line style="stroke:#000000;stroke-width:1.0;" x1="388.5" x2="388.5" y1="161.7656" y2="183.375"/><rect fill="none" height="172.875" rx="5" ry="5" style="stroke:#000000;stroke-width:1.5;" width="245" x="212.5" y="10.5"/><rect fill="#F1F1F1" height="21.6094" rx="5" ry="5" style="stroke:#F1F1F1;stroke-width:1.5;" width="22" x="509" y="10"/><text fill="#000000" font-family="sans-serif" font-size="14" lengthAdjust="spacing" textLength="12" x="514" y="26.5332">   </text><rect fill="none" height="21.6094" rx="5" ry="5" style="stroke:#000000;stroke-width:1.5;" width="22" x="509" y="10"/><rect fill="#F1F1F1" height="21.6094" rx="5" ry="5" style="stroke:#F1F1F1;stroke-width:1.5;" width="330" x="570" y="10"/><text fill="#000000" font-family="sans-serif" font-size="14" font-weight="bold" lengthAdjust="spacing" textLength="118" x="575" y="26.5332">CodedValueType</text><text fill="#000000" font-family="sans-serif" font-size="14" lengthAdjust="spacing" textLength="192" x="703" y="26.5332">(110108, DCM, Network Entry)</text><line style="stroke:#000000;stroke-width:1.0;" x1="698" x2="698" y1="10" y2="31.6094"/><rect fill="none" height="21.6094" rx="5" ry="5" style="stroke:#000000;stroke-width:1.5;" width="330" x="570" y="10"/><rect fill="#F1F1F1" height="21.6094" rx="5" ry="5" style="stroke:#F1F1F1;stroke-width:1.5;" width="22" x="509" y="97"/><text fill="#000000" font-family="sans-serif" font-size="14" lengthAdjust="spacing" textLength="12" x="514" y="113.5332">   </text><rect fill="none" height="21.6094" rx="5" ry="5" style="stroke:#000000;stroke-width:1.5;" width="22" x="509" y="97"/><rect fill="#F1F1F1" height="21.6094" rx="5" ry="5" style="stroke:#F1F1F1;stroke-width:1.5;" width="288" x="591" y="97"/><text fill="#000000" font-family="sans-serif" font-size="14" font-weight="bold" lengthAdjust="spacing" textLength="118" x="596" y="113.5332">CodedValueType</text><text fill="#000000" font-family="sans-serif" font-size="14" lengthAdjust="spacing" textLength="150" x="724" y="113.5332">(110124, DCM, Detach)</text><line style="stroke:#000000;stroke-width:1.0;" x1="719" x2="719" y1="97" y2="118.6094"/><rect fill="none" height="21.6094" rx="5" ry="5" style="stroke:#000000;stroke-width:1.5;" width="288" x="591" y="97"/><rect fill="#F1F1F1" height="86.4375" rx="5" ry="5" style="stroke:#F1F1F1;stroke-width:1.5;" width="274" x="198" y="202"/><text fill="#000000" font-family="sans-serif" font-size="14" font-weight="bold" lengthAdjust="spacing" textLength="47" x="203" y="218.5332">UserID</text><text fill="#000000" font-family="sans-serif" font-size="14" lengthAdjust="spacing" textLength="130" x="337" y="218.5332">UserID of the system</text><line style="stroke:#000000;stroke-width:1.0;" x1="332" x2="332" y1="202" y2="223.6094"/><line style="stroke:#000000;stroke-width:1.0;" x1="198" x2="472" y1="223.6094" y2="223.6094"/><text fill="#000000" font-family="sans-serif" font-size="14" font-weight="bold" lengthAdjust="spacing" textLength="124" x="203" y="240.1426">AlternativeUserID</text><text fill="#000000" font-family="sans-serif" font-size="14" lengthAdjust="spacing" textLength="66" x="337" y="240.1426">theotherID</text><line style="stroke:#000000;stroke-width:1.0;" x1="332" x2="332" y1="223.6094" y2="245.2188"/><line style="stroke:#000000;stroke-width:1.0;" x1="198" x2="472" y1="245.2188" y2="245.2188"/><text fill="#000000" font-family="sans-serif" font-size="14" font-weight="bold" lengthAdjust="spacing" textLength="71" x="203" y="261.752">Username</text><text fill="#000000" font-family="sans-serif" font-size="14" lengthAdjust="spacing" textLength="51" x="337" y="261.752">if known</text><line style="stroke:#000000;stroke-width:1.0;" x1="332" x2="332" y1="245.2188" y2="266.8281"/><line style="stroke:#000000;stroke-width:1.0;" x1="198" x2="472" y1="266.8281" y2="266.8281"/><text fill="#000000" font-family="sans-serif" font-size="14" font-weight="bold" lengthAdjust="spacing" textLength="119" x="203" y="283.3613">UserIsRequestor</text><text fill="#000000" font-family="sans-serif" font-size="14" lengthAdjust="spacing" textLength="44" x="337" y="283.3613">FALSE</text><line style="stroke:#000000;stroke-width:1.0;" x1="332" x2="332" y1="266.8281" y2="288.4375"/><rect fill="none" height="86.4375" rx="5" ry="5" style="stroke:#000000;stroke-width:1.5;" width="274" x="198" y="202"/><path d="M520.5621,21 L533.5621,21 C540.7772,21 550.8337,21 562.6367,21 " fill="none" style="stroke:#000000;stroke-width:1.0;stroke-dasharray:3.0,3.0;"/><path d="M562.6367,24.026 L564.9062,21 L562.6367,17.974 L570.2017,21 L562.6367,24.026 " fill="#000000" style="stroke:#000000;stroke-width:1.0;"/><ellipse cx="520.5621" cy="21" fill="#000000" rx="3" ry="3" style="stroke:#000000;stroke-width:1.0;"/><path d="M446.5,21 L459.5,21 C473.6115,21 489.5594,21 501.6087,21 " fill="none" style="stroke:#000000;stroke-width:1.0;stroke-dasharray:3.0,3.0;"/><path d="M501.6087,24.0594 L503.9032,21 L501.6087,17.9406 L509.2572,21 L501.6087,24.0594 " fill="#000000" style="stroke:#000000;stroke-width:1.0;"/><ellipse cx="446.5" cy="21" fill="#000000" rx="3" ry="3" style="stroke:#000000;stroke-width:1.0;"/><path d="M520.5621,108 L533.5621,108 C544.8196,108 562.9944,108 583.9275,108 " fill="none" style="stroke:#000000;stroke-width:1.0;stroke-dasharray:3.0,3.0;"/><path d="M583.9275,111.005 L586.1813,108 L583.9275,104.995 L591.44,108 L583.9275,111.005 " fill="#000000" style="stroke:#000000;stroke-width:1.0;"/><ellipse cx="520.5621" cy="108" fill="#000000" rx="3" ry="3" style="stroke:#000000;stroke-width:1.0;"/><path d="M446.5,108 L459.5,108 C473.6115,108 489.5594,108 501.6087,108 " fill="none" style="stroke:#000000;stroke-width:1.0;stroke-dasharray:3.0,3.0;"/><path d="M501.6087,111.0594 L503.9032,108 L501.6087,104.9406 L509.2572,108 L501.6087,111.0594 " fill="#000000" style="stroke:#000000;stroke-width:1.0;"/><ellipse cx="446.5" cy="108" fill="#000000" rx="3" ry="3" style="stroke:#000000;stroke-width:1.0;"/><path d="M149,160 L162,160 C176.3896,160 191.067,158.0419 205.4834,154.816 " fill="none" style="stroke:#000000;stroke-width:1.0;stroke-dasharray:3.0,3.0;"/><path d="M206.203,157.8209 L207.7371,154.2764 L204.7639,151.8111 L212.9956,153.0172 L206.203,157.8209 " fill="#000000" style="stroke:#000000;stroke-width:1.0;"/><ellipse cx="149" cy="160" fill="#000000" rx="3" ry="3" style="stroke:#000000;stroke-width:1.0;"/><path d="M149,182 L162,182 C165.5121,182 187.0474,189.4655 213.7813,199.2567 " fill="none" style="stroke:#000000;stroke-width:1.0;stroke-dasharray:3.0,3.0;"/><path d="M212.7105,202.1696 L215.966,200.0598 L214.852,196.3437 L221.0636,201.9336 L212.7105,202.1696 " fill="#000000" style="stroke:#000000;stroke-width:1.0;"/><ellipse cx="149" cy="182" fill="#000000" rx="3" ry="3" style="stroke:#000000;stroke-width:1.0;"/><!--MD5=[1e0b8dd8f835678b2faf621b65b93d8d]
@startjson
{
	"event": {
	   "eventID" : [
	       { "CodedValueType" : "(110108, DCM, Network Entry)"}
	       ],
	   "EventActionCode": "E",
	   "EventDateTime" : "date-time",
	   "EventOutcomeIndicator": "0",
	   "EventTypeCode" : [
	   	{ "CodedValueType" : "(110124, DCM, Detach)"}
		],
	   "traceID" : "asdf",
	   "parentID" : "lkjl",
	   "childID" : "huh"
	   },
	"ActiveParticipant" : {
	   "UserID" : "UserID of the system",
	   "AlternativeUserID" : "theotherID",
	   "Username" : "if known",
	   "UserIsRequestor" : "FALSE"
	   }
}
@endjson

PlantUML version 1.2022.8(Sun Sep 25 05:00:33 EDT 2022)
(GPL source distribution)
Java Runtime: Java(TM) SE Runtime Environment
JVM: Java HotSpot(TM) Client VM
Default Encoding: Cp1252
Language: en
Country: US
--></g></svg>