<?xml version="1.0" encoding="UTF-8" standalone="no"?><svg xmlns="http://www.w3.org/2000/svg" xmlns:xlink="http://www.w3.org/1999/xlink" contentStyleType="text/css" height="235px" preserveAspectRatio="none" style="width:851px;height:235px;background:#FFFFFF;" version="1.1" viewBox="0 0 851 235" width="851px" zoomAndPan="magnify"><defs/><g><rect fill="#F1F1F1" height="43.2188" rx="5" ry="5" style="stroke:#F1F1F1;stroke-width:1.5;" width="151" x="10" y="100.5"/><text fill="#000000" font-family="sans-serif" font-size="14" font-weight="bold" lengthAdjust="spacing" textLength="41" x="15" y="117.0332">event</text><text fill="#000000" font-family="sans-serif" font-size="14" lengthAdjust="spacing" textLength="12" x="144" y="117.0332">   </text><line style="stroke:#000000;stroke-width:1.0;" x1="139" x2="139" y1="100.5" y2="122.1094"/><line style="stroke:#000000;stroke-width:1.0;" x1="10" x2="161" y1="122.1094" y2="122.1094"/><text fill="#000000" font-family="sans-serif" font-size="14" font-weight="bold" lengthAdjust="spacing" textLength="119" x="15" y="138.6426">ActiveParticipant</text><text fill="#000000" font-family="sans-serif" font-size="14" lengthAdjust="spacing" textLength="12" x="144" y="138.6426">   </text><line style="stroke:#000000;stroke-width:1.0;" x1="139" x2="139" y1="122.1094" y2="143.7188"/><rect fill="none" height="43.2188" rx="5" ry="5" style="stroke:#000000;stroke-width:1.5;" width="151" x="10" y="100.5"/><rect fill="#F1F1F1" height="108.0469" rx="5" ry="5" style="stroke:#F1F1F1;stroke-width:1.5;" width="245" x="212.5" y="11"/><text fill="#000000" font-family="sans-serif" font-size="14" font-weight="bold" lengthAdjust="spacing" textLength="55" x="217.5" y="27.5332">eventID</text><text fill="#000000" font-family="sans-serif" font-size="14" lengthAdjust="spacing" textLength="12" x="393.5" y="27.5332">   </text><line style="stroke:#000000;stroke-width:1.0;" x1="388.5" x2="388.5" y1="11" y2="32.6094"/><line style="stroke:#000000;stroke-width:1.0;" x1="212.5" x2="457.5" y1="32.6094" y2="32.6094"/><text fill="#000000" font-family="sans-serif" font-size="14" font-weight="bold" lengthAdjust="spacing" textLength="122" x="217.5" y="49.1426">EventActionCode</text><text fill="#000000" font-family="sans-serif" font-size="14" lengthAdjust="spacing" textLength="9" x="393.5" y="49.1426">E</text><line style="stroke:#000000;stroke-width:1.0;" x1="388.5" x2="388.5" y1="32.6094" y2="54.2188"/><line style="stroke:#000000;stroke-width:1.0;" x1="212.5" x2="457.5" y1="54.2188" y2="54.2188"/><text fill="#000000" font-family="sans-serif" font-size="14" font-weight="bold" lengthAdjust="spacing" textLength="106" x="217.5" y="70.752">EventDateTime</text><text fill="#000000" font-family="sans-serif" font-size="14" lengthAdjust="spacing" textLength="59" x="393.5" y="70.752">date-time</text><line style="stroke:#000000;stroke-width:1.0;" x1="388.5" x2="388.5" y1="54.2188" y2="75.8281"/><line style="stroke:#000000;stroke-width:1.0;" x1="212.5" x2="457.5" y1="75.8281" y2="75.8281"/><text fill="#000000" font-family="sans-serif" font-size="14" font-weight="bold" lengthAdjust="spacing" textLength="166" x="217.5" y="92.3613">EventOutcomeIndicator</text><text fill="#000000" font-family="sans-serif" font-size="14" lengthAdjust="spacing" textLength="8" x="393.5" y="92.3613">0</text><line style="stroke:#000000;stroke-width:1.0;" x1="388.5" x2="388.5" y1="75.8281" y2="97.4375"/><line style="stroke:#000000;stroke-width:1.0;" x1="212.5" x2="457.5" y1="97.4375" y2="97.4375"/><text fill="#000000" font-family="sans-serif" font-size="14" font-weight="bold" lengthAdjust="spacing" textLength="111" x="217.5" y="113.9707">EventTypeCode</text><text fill="#000000" font-family="sans-serif" font-size="14" lengthAdjust="spacing" textLength="12" x="393.5" y="113.9707">   </text><line style="stroke:#000000;stroke-width:1.0;" x1="388.5" x2="388.5" y1="97.4375" y2="119.0469"/><rect fill="none" height="108.0469" rx="5" ry="5" style="stroke:#000000;stroke-width:1.5;" width="245" x="212.5" y="11"/><rect fill="#F1F1F1" height="21.6094" rx="5" ry="5" style="stroke:#F1F1F1;stroke-width:1.5;" width="330" x="509" y="10"/><text fill="#000000" font-family="sans-serif" font-size="14" font-weight="bold" lengthAdjust="spacing" textLength="118" x="514" y="26.5332">CodedValueType</text><text fill="#000000" font-family="sans-serif" font-size="14" lengthAdjust="spacing" textLength="192" x="642" y="26.5332">(110108, DCM, Network Entry)</text><line style="stroke:#000000;stroke-width:1.0;" x1="637" x2="637" y1="10" y2="31.6094"/><rect fill="none" height="21.6094" rx="5" ry="5" style="stroke:#000000;stroke-width:1.5;" width="330" x="509" y="10"/><rect fill="#F1F1F1" height="21.6094" rx="5" ry="5" style="stroke:#F1F1F1;stroke-width:1.5;" width="288" x="530" y="97"/><text fill="#000000" font-family="sans-serif" font-size="14" font-weight="bold" lengthAdjust="spacing" textLength="118" x="535" y="113.5332">CodedValueType</text><text fill="#000000" font-family="sans-serif" font-size="14" lengthAdjust="spacing" textLength="150" x="663" y="113.5332">(110124, DCM, Detach)</text><line style="stroke:#000000;stroke-width:1.0;" x1="658" x2="658" y1="97" y2="118.6094"/><rect fill="none" height="21.6094" rx="5" ry="5" style="stroke:#000000;stroke-width:1.5;" width="288" x="530" y="97"/><rect fill="#F1F1F1" height="86.4375" rx="5" ry="5" style="stroke:#F1F1F1;stroke-width:1.5;" width="274" x="198" y="137"/><text fill="#000000" font-family="sans-serif" font-size="14" font-weight="bold" lengthAdjust="spacing" textLength="47" x="203" y="153.5332">UserID</text><text fill="#000000" font-family="sans-serif" font-size="14" lengthAdjust="spacing" textLength="130" x="337" y="153.5332">UserID of the system</text><line style="stroke:#000000;stroke-width:1.0;" x1="332" x2="332" y1="137" y2="158.6094"/><line style="stroke:#000000;stroke-width:1.0;" x1="198" x2="472" y1="158.6094" y2="158.6094"/><text fill="#000000" font-family="sans-serif" font-size="14" font-weight="bold" lengthAdjust="spacing" textLength="124" x="203" y="175.1426">AlternativeUserID</text><text fill="#000000" font-family="sans-serif" font-size="14" lengthAdjust="spacing" textLength="66" x="337" y="175.1426">theotherID</text><line style="stroke:#000000;stroke-width:1.0;" x1="332" x2="332" y1="158.6094" y2="180.2188"/><line style="stroke:#000000;stroke-width:1.0;" x1="198" x2="472" y1="180.2188" y2="180.2188"/><text fill="#000000" font-family="sans-serif" font-size="14" font-weight="bold" lengthAdjust="spacing" textLength="71" x="203" y="196.752">Username</text><text fill="#000000" font-family="sans-serif" font-size="14" lengthAdjust="spacing" textLength="51" x="337" y="196.752">if known</text><line style="stroke:#000000;stroke-width:1.0;" x1="332" x2="332" y1="180.2188" y2="201.8281"/><line style="stroke:#000000;stroke-width:1.0;" x1="198" x2="472" y1="201.8281" y2="201.8281"/><text fill="#000000" font-family="sans-serif" font-size="14" font-weight="bold" lengthAdjust="spacing" textLength="119" x="203" y="218.3613">UserIsRequestor</text><text fill="#000000" font-family="sans-serif" font-size="14" lengthAdjust="spacing" textLength="44" x="337" y="218.3613">FALSE</text><line style="stroke:#000000;stroke-width:1.0;" x1="332" x2="332" y1="201.8281" y2="223.4375"/><rect fill="none" height="86.4375" rx="5" ry="5" style="stroke:#000000;stroke-width:1.5;" width="274" x="198" y="137"/><path d="M446.5,21 L459.5,21 C473.1362,21 487.2612,21 501.4545,21 " fill="none" style="stroke:#000000;stroke-width:1.0;stroke-dasharray:3.0,3.0;"/><path d="M501.4545,24.1558 L503.8214,21 L501.4545,17.8442 L509.3441,21 L501.4545,24.1558 " fill="#000000" style="stroke:#000000;stroke-width:1.0;"/><ellipse cx="446.5" cy="21" fill="#000000" rx="3" ry="3" style="stroke:#000000;stroke-width:1.0;"/><path d="M446.5,108 L459.5,108 C480.0222,108 501.6514,108 522.9545,108 " fill="none" style="stroke:#000000;stroke-width:1.0;stroke-dasharray:3.0,3.0;"/><path d="M522.9545,111.0077 L525.2102,108 L522.9545,104.9923 L530.4737,108 L522.9545,111.0077 " fill="#000000" style="stroke:#000000;stroke-width:1.0;"/><ellipse cx="446.5" cy="108" fill="#000000" rx="3" ry="3" style="stroke:#000000;stroke-width:1.0;"/><path d="M149,111 L162,111 C176.1206,111 190.6786,109.5431 205.071,107.1479 " fill="none" style="stroke:#000000;stroke-width:1.0;stroke-dasharray:3.0,3.0;"/><path d="M205.6051,110.1512 L207.3234,106.7474 L204.5369,104.1447 L212.579,105.8126 L205.6051,110.1512 " fill="#000000" style="stroke:#000000;stroke-width:1.0;"/><ellipse cx="149" cy="111" fill="#000000" rx="3" ry="3" style="stroke:#000000;stroke-width:1.0;"/><path d="M149,133 L162,133 C173.6956,133 185.6854,134.0182 197.6293,135.7549 " fill="none" style="stroke:#000000;stroke-width:1.0;stroke-dasharray:3.0,3.0;"/><path d="M197.1608,138.726 L199.8577,136.1063 L198.0979,132.7837 L205.0572,136.9264 L197.1608,138.726 " fill="#000000" style="stroke:#000000;stroke-width:1.0;"/><ellipse cx="149" cy="133" fill="#000000" rx="3" ry="3" style="stroke:#000000;stroke-width:1.0;"/><!--MD5=[a36e68d79f3132000ac7b573905a1aab]
@startjson
{
	"event": {
	   "eventID" : { "CodedValueType" : "(110108, DCM, Network Entry)"},
	   "EventActionCode": "E",
	   "EventDateTime" : "date-time",
	   "EventOutcomeIndicator": "0",
	   "EventTypeCode" : { "CodedValueType" : "(110124, DCM, Detach)"}
	   },
	"ActiveParticipant" : {
	   "UserID" : "UserID of the system",
	   "AlternativeUserID" : "theotherID",
	   "Username" : "if known",
	   "UserIsRequestor" : "FALSE"
	   }
}
@endjson

PlantUML version 1.2022.8(Sun Sep 25 05:00:33 EDT 2022)
(GPL source distribution)
Java Runtime: Java(TM) SE Runtime Environment
JVM: Java HotSpot(TM) Client VM
Default Encoding: Cp1252
Language: en
Country: US
--></g></svg>