<?xml version="1.0" encoding="UTF-8" standalone="no"?><svg xmlns="http://www.w3.org/2000/svg" xmlns:xlink="http://www.w3.org/1999/xlink" contentStyleType="text/css" height="339px" preserveAspectRatio="none" style="width:983px;height:339px;background:#FFFFFF;" version="1.1" viewBox="0 0 983 339" width="983px" zoomAndPan="magnify"><defs/><g><rect fill="#F1F1F1" height="64.8281" rx="5" ry="5" style="stroke:#F1F1F1;stroke-width:1.5;" width="166" x="10" y="148.5"/><text fill="#000000" font-family="sans-serif" font-size="14" font-weight="bold" lengthAdjust="spacing" textLength="41" x="15" y="165.0332">event</text><text fill="#000000" font-family="sans-serif" font-size="14" lengthAdjust="spacing" textLength="12" x="159" y="165.0332">   </text><line style="stroke:#000000;stroke-width:1.0;" x1="154" x2="154" y1="148.5" y2="170.1094"/><line style="stroke:#000000;stroke-width:1.0;" x1="10" x2="176" y1="170.1094" y2="170.1094"/><text fill="#000000" font-family="sans-serif" font-size="14" font-weight="bold" lengthAdjust="spacing" textLength="119" x="15" y="186.6426">ActiveParticipant</text><text fill="#000000" font-family="sans-serif" font-size="14" lengthAdjust="spacing" textLength="12" x="159" y="186.6426">   </text><line style="stroke:#000000;stroke-width:1.0;" x1="154" x2="154" y1="170.1094" y2="191.7188"/><line style="stroke:#000000;stroke-width:1.0;" x1="10" x2="176" y1="191.7188" y2="191.7188"/><text fill="#000000" font-family="sans-serif" font-size="14" font-weight="bold" lengthAdjust="spacing" textLength="134" x="15" y="208.252">ParticipatingObject</text><text fill="#000000" font-family="sans-serif" font-size="14" lengthAdjust="spacing" textLength="12" x="159" y="208.252">   </text><line style="stroke:#000000;stroke-width:1.0;" x1="154" x2="154" y1="191.7188" y2="213.3281"/><rect fill="none" height="64.8281" rx="5" ry="5" style="stroke:#000000;stroke-width:1.5;" width="166" x="10" y="148.5"/><rect fill="#F1F1F1" height="108.0469" rx="5" ry="5" style="stroke:#F1F1F1;stroke-width:1.5;" width="245" x="286" y="11"/><text fill="#000000" font-family="sans-serif" font-size="14" font-weight="bold" lengthAdjust="spacing" textLength="55" x="291" y="27.5332">eventID</text><text fill="#000000" font-family="sans-serif" font-size="14" lengthAdjust="spacing" textLength="12" x="467" y="27.5332">   </text><line style="stroke:#000000;stroke-width:1.0;" x1="462" x2="462" y1="11" y2="32.6094"/><line style="stroke:#000000;stroke-width:1.0;" x1="286" x2="531" y1="32.6094" y2="32.6094"/><text fill="#000000" font-family="sans-serif" font-size="14" font-weight="bold" lengthAdjust="spacing" textLength="122" x="291" y="49.1426">EventActionCode</text><text fill="#000000" font-family="sans-serif" font-size="14" lengthAdjust="spacing" textLength="10" x="467" y="49.1426">C</text><line style="stroke:#000000;stroke-width:1.0;" x1="462" x2="462" y1="32.6094" y2="54.2188"/><line style="stroke:#000000;stroke-width:1.0;" x1="286" x2="531" y1="54.2188" y2="54.2188"/><text fill="#000000" font-family="sans-serif" font-size="14" font-weight="bold" lengthAdjust="spacing" textLength="106" x="291" y="70.752">EventDateTime</text><text fill="#000000" font-family="sans-serif" font-size="14" lengthAdjust="spacing" textLength="59" x="467" y="70.752">date-time</text><line style="stroke:#000000;stroke-width:1.0;" x1="462" x2="462" y1="54.2188" y2="75.8281"/><line style="stroke:#000000;stroke-width:1.0;" x1="286" x2="531" y1="75.8281" y2="75.8281"/><text fill="#000000" font-family="sans-serif" font-size="14" font-weight="bold" lengthAdjust="spacing" textLength="166" x="291" y="92.3613">EventOutcomeIndicator</text><text fill="#000000" font-family="sans-serif" font-size="14" lengthAdjust="spacing" textLength="8" x="467" y="92.3613">0</text><line style="stroke:#000000;stroke-width:1.0;" x1="462" x2="462" y1="75.8281" y2="97.4375"/><line style="stroke:#000000;stroke-width:1.0;" x1="286" x2="531" y1="97.4375" y2="97.4375"/><text fill="#000000" font-family="sans-serif" font-size="14" font-weight="bold" lengthAdjust="spacing" textLength="111" x="291" y="113.9707">EventTypeCode</text><text fill="#000000" font-family="sans-serif" font-size="14" lengthAdjust="spacing" textLength="12" x="467" y="113.9707">   </text><line style="stroke:#000000;stroke-width:1.0;" x1="462" x2="462" y1="97.4375" y2="119.0469"/><rect fill="none" height="108.0469" rx="5" ry="5" style="stroke:#000000;stroke-width:1.5;" width="245" x="286" y="11"/><rect fill="#F1F1F1" height="21.6094" rx="5" ry="5" style="stroke:#F1F1F1;stroke-width:1.5;" width="330" x="641" y="10"/><text fill="#000000" font-family="sans-serif" font-size="14" font-weight="bold" lengthAdjust="spacing" textLength="118" x="646" y="26.5332">CodedValueType</text><text fill="#000000" font-family="sans-serif" font-size="14" lengthAdjust="spacing" textLength="192" x="774" y="26.5332">(110109, DCM, Order Record)</text><line style="stroke:#000000;stroke-width:1.0;" x1="769" x2="769" y1="10" y2="31.6094"/><rect fill="none" height="21.6094" rx="5" ry="5" style="stroke:#000000;stroke-width:1.5;" width="330" x="641" y="10"/><rect fill="#F1F1F1" height="21.6094" rx="5" ry="5" style="stroke:#F1F1F1;stroke-width:1.5;" width="278" x="667" y="97"/><text fill="#000000" font-family="sans-serif" font-size="14" font-weight="bold" lengthAdjust="spacing" textLength="118" x="672" y="113.5332">CodedValueType</text><text fill="#000000" font-family="sans-serif" font-size="14" lengthAdjust="spacing" textLength="140" x="800" y="113.5332">(110122, DCM, Login)</text><line style="stroke:#000000;stroke-width:1.0;" x1="795" x2="795" y1="97" y2="118.6094"/><rect fill="none" height="21.6094" rx="5" ry="5" style="stroke:#000000;stroke-width:1.5;" width="278" x="667" y="97"/><rect fill="#F1F1F1" height="86.4375" rx="5" ry="5" style="stroke:#F1F1F1;stroke-width:1.5;" width="391" x="213" y="137"/><text fill="#000000" font-family="sans-serif" font-size="14" font-weight="bold" lengthAdjust="spacing" textLength="47" x="218" y="153.5332">UserID</text><text fill="#000000" font-family="sans-serif" font-size="14" lengthAdjust="spacing" textLength="247" x="352" y="153.5332">UserID of the person creating the order</text><line style="stroke:#000000;stroke-width:1.0;" x1="347" x2="347" y1="137" y2="158.6094"/><line style="stroke:#000000;stroke-width:1.0;" x1="213" x2="604" y1="158.6094" y2="158.6094"/><text fill="#000000" font-family="sans-serif" font-size="14" font-weight="bold" lengthAdjust="spacing" textLength="124" x="218" y="175.1426">AlternativeUserID</text><text fill="#000000" font-family="sans-serif" font-size="14" lengthAdjust="spacing" textLength="66" x="352" y="175.1426">theotherID</text><line style="stroke:#000000;stroke-width:1.0;" x1="347" x2="347" y1="158.6094" y2="180.2188"/><line style="stroke:#000000;stroke-width:1.0;" x1="213" x2="604" y1="180.2188" y2="180.2188"/><text fill="#000000" font-family="sans-serif" font-size="14" font-weight="bold" lengthAdjust="spacing" textLength="71" x="218" y="196.752">Username</text><text fill="#000000" font-family="sans-serif" font-size="14" lengthAdjust="spacing" textLength="51" x="352" y="196.752">if known</text><line style="stroke:#000000;stroke-width:1.0;" x1="347" x2="347" y1="180.2188" y2="201.8281"/><line style="stroke:#000000;stroke-width:1.0;" x1="213" x2="604" y1="201.8281" y2="201.8281"/><text fill="#000000" font-family="sans-serif" font-size="14" font-weight="bold" lengthAdjust="spacing" textLength="119" x="218" y="218.3613">UserIsRequestor</text><text fill="#000000" font-family="sans-serif" font-size="14" lengthAdjust="spacing" textLength="37" x="352" y="218.3613">TRUE</text><line style="stroke:#000000;stroke-width:1.0;" x1="347" x2="347" y1="201.8281" y2="223.4375"/><rect fill="none" height="86.4375" rx="5" ry="5" style="stroke:#000000;stroke-width:1.5;" width="391" x="213" y="137"/><rect fill="#F1F1F1" height="86.4375" rx="5" ry="5" style="stroke:#F1F1F1;stroke-width:1.5;" width="302" x="257.5" y="241"/><text fill="#000000" font-family="sans-serif" font-size="14" font-weight="bold" lengthAdjust="spacing" textLength="191" x="262.5" y="257.5332">ParticipantObjectTypeCode</text><text fill="#000000" font-family="sans-serif" font-size="14" lengthAdjust="spacing" textLength="8" x="495.5" y="257.5332">1</text><line style="stroke:#000000;stroke-width:1.0;" x1="490.5" x2="490.5" y1="241" y2="262.6094"/><line style="stroke:#000000;stroke-width:1.0;" x1="257.5" x2="559.5" y1="262.6094" y2="262.6094"/><text fill="#000000" font-family="sans-serif" font-size="14" font-weight="bold" lengthAdjust="spacing" textLength="223" x="262.5" y="279.1426">ParticipantObjectTypeCodeRole</text><text fill="#000000" font-family="sans-serif" font-size="14" lengthAdjust="spacing" textLength="8" x="495.5" y="279.1426">1</text><line style="stroke:#000000;stroke-width:1.0;" x1="490.5" x2="490.5" y1="262.6094" y2="284.2188"/><line style="stroke:#000000;stroke-width:1.0;" x1="257.5" x2="559.5" y1="284.2188" y2="284.2188"/><text fill="#000000" font-family="sans-serif" font-size="14" font-weight="bold" lengthAdjust="spacing" textLength="205" x="262.5" y="300.752">ParticipantObjectIDTypeCode</text><text fill="#000000" font-family="sans-serif" font-size="14" lengthAdjust="spacing" textLength="8" x="495.5" y="300.752">2</text><line style="stroke:#000000;stroke-width:1.0;" x1="490.5" x2="490.5" y1="284.2188" y2="305.8281"/><line style="stroke:#000000;stroke-width:1.0;" x1="257.5" x2="559.5" y1="305.8281" y2="305.8281"/><text fill="#000000" font-family="sans-serif" font-size="14" font-weight="bold" lengthAdjust="spacing" textLength="135" x="262.5" y="322.3613">ParticipantObjectID</text><text fill="#000000" font-family="sans-serif" font-size="14" lengthAdjust="spacing" textLength="59" x="495.5" y="322.3613">patient-id</text><line style="stroke:#000000;stroke-width:1.0;" x1="490.5" x2="490.5" y1="305.8281" y2="327.4375"/><rect fill="none" height="86.4375" rx="5" ry="5" style="stroke:#000000;stroke-width:1.5;" width="302" x="257.5" y="241"/><path d="M520,21 L533,21 C565.5471,21 600.2809,21 633.6756,21 " fill="none" style="stroke:#000000;stroke-width:1.0;stroke-dasharray:3.0,3.0;"/><path d="M633.6756,24.021 L635.9413,21 L633.6756,17.979 L641.228,21 L633.6756,24.021 " fill="#000000" style="stroke:#000000;stroke-width:1.0;"/><ellipse cx="520" cy="21" fill="#000000" rx="3" ry="3" style="stroke:#000000;stroke-width:1.0;"/><path d="M520,108 L533,108 C574.0854,108 618.6552,108 659.6172,108 " fill="none" style="stroke:#000000;stroke-width:1.0;stroke-dasharray:3.0,3.0;"/><path d="M659.6172,111.0419 L661.8986,108 L659.6172,104.9581 L667.222,108 L659.6172,111.0419 " fill="#000000" style="stroke:#000000;stroke-width:1.0;"/><ellipse cx="520" cy="108" fill="#000000" rx="3" ry="3" style="stroke:#000000;stroke-width:1.0;"/><path d="M164,159 L177,159 C198.1146,159 194.5899,138.339 213,128 C233.5033,116.4855 256.4182,106.7171 279.1327,98.5608 " fill="none" style="stroke:#000000;stroke-width:1.0;stroke-dasharray:3.0,3.0;"/><path d="M280.1693,101.5066 L281.342,97.7833 L278.096,95.615 L286.4971,95.9691 L280.1693,101.5066 " fill="#000000" style="stroke:#000000;stroke-width:1.0;"/><ellipse cx="164" cy="159" fill="#000000" rx="3" ry="3" style="stroke:#000000;stroke-width:1.0;"/><path d="M164,180 L177,180 C186.3352,180 195.8826,180 205.5264,180 " fill="none" style="stroke:#000000;stroke-width:1.0;stroke-dasharray:3.0,3.0;"/><path d="M205.5264,183.101 L207.8522,180 L205.5264,176.899 L213.279,180 L205.5264,183.101 " fill="#000000" style="stroke:#000000;stroke-width:1.0;"/><ellipse cx="164" cy="180" fill="#000000" rx="3" ry="3" style="stroke:#000000;stroke-width:1.0;"/><path d="M164,203 L177,203 C197.5456,203 194.6762,222.7069 213,232 C224.9305,238.0507 237.6396,243.4532 250.6298,248.2663 " fill="none" style="stroke:#000000;stroke-width:1.0;stroke-dasharray:3.0,3.0;"/><path d="M249.5844,251.1633 L252.8026,249.0504 L251.6753,245.3692 L257.8724,250.8799 L249.5844,251.1633 " fill="#000000" style="stroke:#000000;stroke-width:1.0;"/><ellipse cx="164" cy="203" fill="#000000" rx="3" ry="3" style="stroke:#000000;stroke-width:1.0;"/><!--MD5=[3d818edcdedf236b84e8f0fa707f2963]
@startjson
{
	"event": {
	   "eventID" :  { "CodedValueType" : "(110109, DCM, Order Record)"},
	   "EventActionCode": "C",
	   "EventDateTime" : "date-time",
	   "EventOutcomeIndicator": "0",
	   "EventTypeCode" : { "CodedValueType" : "(110122, DCM, Login)"}
	},
	"ActiveParticipant" : {
	   "UserID" : "UserID of the person creating the order",
	   "AlternativeUserID" : "theotherID",
	   "Username" : "if known",
	   "UserIsRequestor" : "TRUE"
	   },
	"ParticipatingObject" : {
	   "ParticipantObjectTypeCode" : 1,
	   "ParticipantObjectTypeCodeRole" : 1,
	   "ParticipantObjectIDTypeCode" : 2,
	   "ParticipantObjectID" : "patient-id"
	   }
}
@endjson

PlantUML version 1.2022.8(Sun Sep 25 05:00:33 EDT 2022)
(GPL source distribution)
Java Runtime: Java(TM) SE Runtime Environment
JVM: Java HotSpot(TM) Client VM
Default Encoding: Cp1252
Language: en
Country: US
--></g></svg>