<?xml version="1.0" encoding="UTF-8" standalone="no"?><svg xmlns="http://www.w3.org/2000/svg" xmlns:xlink="http://www.w3.org/1999/xlink" contentStyleType="text/css" height="317px" preserveAspectRatio="none" style="width:1053px;height:317px;background:#FFFFFF;" version="1.1" viewBox="0 0 1053 317" width="1053px" zoomAndPan="magnify"><defs/><g><rect fill="#F1F1F1" height="64.8281" rx="5" ry="5" style="stroke:#F1F1F1;stroke-width:1.5;" width="166" x="10" y="126.5"/><text fill="#000000" font-family="sans-serif" font-size="14" font-weight="bold" lengthAdjust="spacing" textLength="41" x="15" y="143.0332">event</text><text fill="#000000" font-family="sans-serif" font-size="14" lengthAdjust="spacing" textLength="12" x="159" y="143.0332">   </text><line style="stroke:#000000;stroke-width:1.0;" x1="154" x2="154" y1="126.5" y2="148.1094"/><line style="stroke:#000000;stroke-width:1.0;" x1="10" x2="176" y1="148.1094" y2="148.1094"/><text fill="#000000" font-family="sans-serif" font-size="14" font-weight="bold" lengthAdjust="spacing" textLength="119" x="15" y="164.6426">ActiveParticipant</text><text fill="#000000" font-family="sans-serif" font-size="14" lengthAdjust="spacing" textLength="12" x="159" y="164.6426">   </text><line style="stroke:#000000;stroke-width:1.0;" x1="154" x2="154" y1="148.1094" y2="169.7188"/><line style="stroke:#000000;stroke-width:1.0;" x1="10" x2="176" y1="169.7188" y2="169.7188"/><text fill="#000000" font-family="sans-serif" font-size="14" font-weight="bold" lengthAdjust="spacing" textLength="134" x="15" y="186.252">ParticipatingObject</text><text fill="#000000" font-family="sans-serif" font-size="14" lengthAdjust="spacing" textLength="12" x="159" y="186.252">   </text><line style="stroke:#000000;stroke-width:1.0;" x1="154" x2="154" y1="169.7188" y2="191.3281"/><rect fill="none" height="64.8281" rx="5" ry="5" style="stroke:#000000;stroke-width:1.5;" width="166" x="10" y="126.5"/><rect fill="#F1F1F1" height="86.4375" rx="5" ry="5" style="stroke:#F1F1F1;stroke-width:1.5;" width="245" x="317.5" y="11"/><text fill="#000000" font-family="sans-serif" font-size="14" font-weight="bold" lengthAdjust="spacing" textLength="55" x="322.5" y="27.5332">eventID</text><text fill="#000000" font-family="sans-serif" font-size="14" lengthAdjust="spacing" textLength="12" x="498.5" y="27.5332">   </text><line style="stroke:#000000;stroke-width:1.0;" x1="493.5" x2="493.5" y1="11" y2="32.6094"/><line style="stroke:#000000;stroke-width:1.0;" x1="317.5" x2="562.5" y1="32.6094" y2="32.6094"/><text fill="#000000" font-family="sans-serif" font-size="14" font-weight="bold" lengthAdjust="spacing" textLength="122" x="322.5" y="49.1426">EventActionCode</text><text fill="#000000" font-family="sans-serif" font-size="14" lengthAdjust="spacing" textLength="9" x="498.5" y="49.1426">U</text><line style="stroke:#000000;stroke-width:1.0;" x1="493.5" x2="493.5" y1="32.6094" y2="54.2188"/><line style="stroke:#000000;stroke-width:1.0;" x1="317.5" x2="562.5" y1="54.2188" y2="54.2188"/><text fill="#000000" font-family="sans-serif" font-size="14" font-weight="bold" lengthAdjust="spacing" textLength="106" x="322.5" y="70.752">EventDateTime</text><text fill="#000000" font-family="sans-serif" font-size="14" lengthAdjust="spacing" textLength="59" x="498.5" y="70.752">date-time</text><line style="stroke:#000000;stroke-width:1.0;" x1="493.5" x2="493.5" y1="54.2188" y2="75.8281"/><line style="stroke:#000000;stroke-width:1.0;" x1="317.5" x2="562.5" y1="75.8281" y2="75.8281"/><text fill="#000000" font-family="sans-serif" font-size="14" font-weight="bold" lengthAdjust="spacing" textLength="166" x="322.5" y="92.3613">EventOutcomeIndicator</text><text fill="#000000" font-family="sans-serif" font-size="14" lengthAdjust="spacing" textLength="8" x="498.5" y="92.3613">0</text><line style="stroke:#000000;stroke-width:1.0;" x1="493.5" x2="493.5" y1="75.8281" y2="97.4375"/><rect fill="none" height="86.4375" rx="5" ry="5" style="stroke:#000000;stroke-width:1.5;" width="245" x="317.5" y="11"/><rect fill="#F1F1F1" height="21.6094" rx="5" ry="5" style="stroke:#F1F1F1;stroke-width:1.5;" width="337" x="704" y="10"/><text fill="#000000" font-family="sans-serif" font-size="14" font-weight="bold" lengthAdjust="spacing" textLength="118" x="709" y="26.5332">CodedValueType</text><text fill="#000000" font-family="sans-serif" font-size="14" lengthAdjust="spacing" textLength="199" x="837" y="26.5332">(110110, DCM, Patient Record)</text><line style="stroke:#000000;stroke-width:1.0;" x1="832" x2="832" y1="10" y2="31.6094"/><rect fill="none" height="21.6094" rx="5" ry="5" style="stroke:#000000;stroke-width:1.5;" width="337" x="704" y="10"/><rect fill="#F1F1F1" height="86.4375" rx="5" ry="5" style="stroke:#F1F1F1;stroke-width:1.5;" width="454" x="213" y="115"/><text fill="#000000" font-family="sans-serif" font-size="14" font-weight="bold" lengthAdjust="spacing" textLength="47" x="218" y="131.5332">UserID</text><text fill="#000000" font-family="sans-serif" font-size="14" lengthAdjust="spacing" textLength="310" x="352" y="131.5332">UserID of the person modifying the patient record</text><line style="stroke:#000000;stroke-width:1.0;" x1="347" x2="347" y1="115" y2="136.6094"/><line style="stroke:#000000;stroke-width:1.0;" x1="213" x2="667" y1="136.6094" y2="136.6094"/><text fill="#000000" font-family="sans-serif" font-size="14" font-weight="bold" lengthAdjust="spacing" textLength="124" x="218" y="153.1426">AlternativeUserID</text><text fill="#000000" font-family="sans-serif" font-size="14" lengthAdjust="spacing" textLength="66" x="352" y="153.1426">theotherID</text><line style="stroke:#000000;stroke-width:1.0;" x1="347" x2="347" y1="136.6094" y2="158.2188"/><line style="stroke:#000000;stroke-width:1.0;" x1="213" x2="667" y1="158.2188" y2="158.2188"/><text fill="#000000" font-family="sans-serif" font-size="14" font-weight="bold" lengthAdjust="spacing" textLength="71" x="218" y="174.752">Username</text><text fill="#000000" font-family="sans-serif" font-size="14" lengthAdjust="spacing" textLength="51" x="352" y="174.752">if known</text><line style="stroke:#000000;stroke-width:1.0;" x1="347" x2="347" y1="158.2188" y2="179.8281"/><line style="stroke:#000000;stroke-width:1.0;" x1="213" x2="667" y1="179.8281" y2="179.8281"/><text fill="#000000" font-family="sans-serif" font-size="14" font-weight="bold" lengthAdjust="spacing" textLength="119" x="218" y="196.3613">UserIsRequestor</text><text fill="#000000" font-family="sans-serif" font-size="14" lengthAdjust="spacing" textLength="37" x="352" y="196.3613">TRUE</text><line style="stroke:#000000;stroke-width:1.0;" x1="347" x2="347" y1="179.8281" y2="201.4375"/><rect fill="none" height="86.4375" rx="5" ry="5" style="stroke:#000000;stroke-width:1.5;" width="454" x="213" y="115"/><rect fill="#F1F1F1" height="86.4375" rx="5" ry="5" style="stroke:#F1F1F1;stroke-width:1.5;" width="302" x="289" y="219"/><text fill="#000000" font-family="sans-serif" font-size="14" font-weight="bold" lengthAdjust="spacing" textLength="191" x="294" y="235.5332">ParticipantObjectTypeCode</text><text fill="#000000" font-family="sans-serif" font-size="14" lengthAdjust="spacing" textLength="8" x="527" y="235.5332">2</text><line style="stroke:#000000;stroke-width:1.0;" x1="522" x2="522" y1="219" y2="240.6094"/><line style="stroke:#000000;stroke-width:1.0;" x1="289" x2="591" y1="240.6094" y2="240.6094"/><text fill="#000000" font-family="sans-serif" font-size="14" font-weight="bold" lengthAdjust="spacing" textLength="223" x="294" y="257.1426">ParticipantObjectTypeCodeRole</text><text fill="#000000" font-family="sans-serif" font-size="14" lengthAdjust="spacing" textLength="8" x="527" y="257.1426">3</text><line style="stroke:#000000;stroke-width:1.0;" x1="522" x2="522" y1="240.6094" y2="262.2188"/><line style="stroke:#000000;stroke-width:1.0;" x1="289" x2="591" y1="262.2188" y2="262.2188"/><text fill="#000000" font-family="sans-serif" font-size="14" font-weight="bold" lengthAdjust="spacing" textLength="205" x="294" y="278.752">ParticipantObjectIDTypeCode</text><text fill="#000000" font-family="sans-serif" font-size="14" lengthAdjust="spacing" textLength="8" x="527" y="278.752">2</text><line style="stroke:#000000;stroke-width:1.0;" x1="522" x2="522" y1="262.2188" y2="283.8281"/><line style="stroke:#000000;stroke-width:1.0;" x1="289" x2="591" y1="283.8281" y2="283.8281"/><text fill="#000000" font-family="sans-serif" font-size="14" font-weight="bold" lengthAdjust="spacing" textLength="135" x="294" y="300.3613">ParticipantObjectID</text><text fill="#000000" font-family="sans-serif" font-size="14" lengthAdjust="spacing" textLength="59" x="527" y="300.3613">patient-id</text><line style="stroke:#000000;stroke-width:1.0;" x1="522" x2="522" y1="283.8281" y2="305.4375"/><rect fill="none" height="86.4375" rx="5" ry="5" style="stroke:#000000;stroke-width:1.5;" width="302" x="289" y="219"/><path d="M551.5,21 L564.5,21 C607.3074,21 653.4669,21 696.6787,21 " fill="none" style="stroke:#000000;stroke-width:1.0;stroke-dasharray:3.0,3.0;"/><path d="M696.6787,24.1001 L699.0038,21 L696.6787,17.8999 L704.4289,21 L696.6787,24.1001 " fill="#000000" style="stroke:#000000;stroke-width:1.0;"/><ellipse cx="551.5" cy="21" fill="#000000" rx="3" ry="3" style="stroke:#000000;stroke-width:1.0;"/><path d="M164,137 L177,137 C198.1146,137 194.1585,115.5303 213,106 C243.0402,90.8052 277.56,79.9913 310.448,72.3167 " fill="none" style="stroke:#000000;stroke-width:1.0;stroke-dasharray:3.0,3.0;"/><path d="M311.1232,75.2892 L312.6774,71.8103 L309.7728,69.3442 L317.8794,70.6287 L311.1232,75.2892 " fill="#000000" style="stroke:#000000;stroke-width:1.0;"/><ellipse cx="164" cy="137" fill="#000000" rx="3" ry="3" style="stroke:#000000;stroke-width:1.0;"/><path d="M164,158 L177,158 C186.3496,158 195.8865,158 205.5206,158 " fill="none" style="stroke:#000000;stroke-width:1.0;stroke-dasharray:3.0,3.0;"/><path d="M205.5206,161.0982 L207.8442,158 L205.5206,154.9018 L213.2661,158 L205.5206,161.0982 " fill="#000000" style="stroke:#000000;stroke-width:1.0;"/><ellipse cx="164" cy="158" fill="#000000" rx="3" ry="3" style="stroke:#000000;stroke-width:1.0;"/><path d="M164,181 L177,181 C197.5456,181 194.5167,201.0283 213,210 C234.5451,220.4579 258.2765,228.8617 282.022,235.6018 " fill="none" style="stroke:#000000;stroke-width:1.0;stroke-dasharray:3.0,3.0;"/><path d="M281.2065,238.5488 L284.2322,236.2135 L282.8375,232.6549 L289.3893,237.6406 L281.2065,238.5488 " fill="#000000" style="stroke:#000000;stroke-width:1.0;"/><ellipse cx="164" cy="181" fill="#000000" rx="3" ry="3" style="stroke:#000000;stroke-width:1.0;"/><!--MD5=[32ee69c5cf4bf461242c9eba05a47317]
@startjson
{
	"event": {
	   "eventID" :
	       { "CodedValueType" : "(110110, DCM, Patient Record)"},
	   "EventActionCode": "U",
	   "EventDateTime" : "date-time",
	   "EventOutcomeIndicator": "0"
	},
	"ActiveParticipant" : {
	   "UserID" : "UserID of the person modifying the patient record",
	   "AlternativeUserID" : "theotherID",
	   "Username" : "if known",
	   "UserIsRequestor" : "TRUE"
	   },
	"ParticipatingObject" : {
	   "ParticipantObjectTypeCode" : 2,
	   "ParticipantObjectTypeCodeRole" : 3,
	   "ParticipantObjectIDTypeCode" : 2,
	   "ParticipantObjectID" : "patient-id"
	   }
}
@endjson

PlantUML version 1.2022.8(Sun Sep 25 05:00:33 EDT 2022)
(GPL source distribution)
Java Runtime: Java(TM) SE Runtime Environment
JVM: Java HotSpot(TM) Client VM
Default Encoding: Cp1252
Language: en
Country: US
--></g></svg>