<?xml version="1.0" encoding="UTF-8" standalone="no"?><svg xmlns="http://www.w3.org/2000/svg" xmlns:xlink="http://www.w3.org/1999/xlink" contentStyleType="text/css" height="317px" preserveAspectRatio="none" style="width:1140px;height:317px;background:#FFFFFF;" version="1.1" viewBox="0 0 1140 317" width="1140px" zoomAndPan="magnify"><defs/><g><rect fill="#F1F1F1" height="64.8281" rx="5" ry="5" style="stroke:#F1F1F1;stroke-width:1.5;" width="228" x="10" y="126.5"/><text fill="#000000" font-family="sans-serif" font-size="14" font-weight="bold" lengthAdjust="spacing" textLength="41" x="15" y="143.0332">event</text><text fill="#000000" font-family="sans-serif" font-size="14" lengthAdjust="spacing" textLength="12" x="221" y="143.0332">   </text><line style="stroke:#000000;stroke-width:1.0;" x1="216" x2="216" y1="126.5" y2="148.1094"/><line style="stroke:#000000;stroke-width:1.0;" x1="10" x2="238" y1="148.1094" y2="148.1094"/><text fill="#000000" font-family="sans-serif" font-size="14" font-weight="bold" lengthAdjust="spacing" textLength="182" x="15" y="164.6426">ActiveParticipant - person</text><text fill="#000000" font-family="sans-serif" font-size="14" lengthAdjust="spacing" textLength="12" x="221" y="164.6426">   </text><line style="stroke:#000000;stroke-width:1.0;" x1="216" x2="216" y1="148.1094" y2="169.7188"/><line style="stroke:#000000;stroke-width:1.0;" x1="10" x2="238" y1="169.7188" y2="169.7188"/><text fill="#000000" font-family="sans-serif" font-size="14" font-weight="bold" lengthAdjust="spacing" textLength="196" x="15" y="186.252">ParticipatingObject - patient</text><text fill="#000000" font-family="sans-serif" font-size="14" lengthAdjust="spacing" textLength="12" x="221" y="186.252">   </text><line style="stroke:#000000;stroke-width:1.0;" x1="216" x2="216" y1="169.7188" y2="191.3281"/><rect fill="none" height="64.8281" rx="5" ry="5" style="stroke:#000000;stroke-width:1.5;" width="228" x="10" y="126.5"/><rect fill="#F1F1F1" height="86.4375" rx="5" ry="5" style="stroke:#F1F1F1;stroke-width:1.5;" width="245" x="379.5" y="11"/><text fill="#000000" font-family="sans-serif" font-size="14" font-weight="bold" lengthAdjust="spacing" textLength="55" x="384.5" y="27.5332">eventID</text><text fill="#000000" font-family="sans-serif" font-size="14" lengthAdjust="spacing" textLength="12" x="560.5" y="27.5332">   </text><line style="stroke:#000000;stroke-width:1.0;" x1="555.5" x2="555.5" y1="11" y2="32.6094"/><line style="stroke:#000000;stroke-width:1.0;" x1="379.5" x2="624.5" y1="32.6094" y2="32.6094"/><text fill="#000000" font-family="sans-serif" font-size="14" font-weight="bold" lengthAdjust="spacing" textLength="122" x="384.5" y="49.1426">EventActionCode</text><text fill="#000000" font-family="sans-serif" font-size="14" lengthAdjust="spacing" textLength="9" x="560.5" y="49.1426">U</text><line style="stroke:#000000;stroke-width:1.0;" x1="555.5" x2="555.5" y1="32.6094" y2="54.2188"/><line style="stroke:#000000;stroke-width:1.0;" x1="379.5" x2="624.5" y1="54.2188" y2="54.2188"/><text fill="#000000" font-family="sans-serif" font-size="14" font-weight="bold" lengthAdjust="spacing" textLength="106" x="384.5" y="70.752">EventDateTime</text><text fill="#000000" font-family="sans-serif" font-size="14" lengthAdjust="spacing" textLength="59" x="560.5" y="70.752">date-time</text><line style="stroke:#000000;stroke-width:1.0;" x1="555.5" x2="555.5" y1="54.2188" y2="75.8281"/><line style="stroke:#000000;stroke-width:1.0;" x1="379.5" x2="624.5" y1="75.8281" y2="75.8281"/><text fill="#000000" font-family="sans-serif" font-size="14" font-weight="bold" lengthAdjust="spacing" textLength="166" x="384.5" y="92.3613">EventOutcomeIndicator</text><text fill="#000000" font-family="sans-serif" font-size="14" lengthAdjust="spacing" textLength="8" x="560.5" y="92.3613">0</text><line style="stroke:#000000;stroke-width:1.0;" x1="555.5" x2="555.5" y1="75.8281" y2="97.4375"/><rect fill="none" height="86.4375" rx="5" ry="5" style="stroke:#000000;stroke-width:1.5;" width="245" x="379.5" y="11"/><rect fill="#F1F1F1" height="21.6094" rx="5" ry="5" style="stroke:#F1F1F1;stroke-width:1.5;" width="359" x="767.5" y="10"/><text fill="#000000" font-family="sans-serif" font-size="14" font-weight="bold" lengthAdjust="spacing" textLength="118" x="772.5" y="26.5332">CodedValueType</text><text fill="#000000" font-family="sans-serif" font-size="14" lengthAdjust="spacing" textLength="221" x="900.5" y="26.5332">(110111, DCM, Procedure Record)</text><line style="stroke:#000000;stroke-width:1.0;" x1="895.5" x2="895.5" y1="10" y2="31.6094"/><rect fill="none" height="21.6094" rx="5" ry="5" style="stroke:#000000;stroke-width:1.5;" width="359" x="767.5" y="10"/><rect fill="#F1F1F1" height="86.4375" rx="5" ry="5" style="stroke:#F1F1F1;stroke-width:1.5;" width="454" x="275" y="115"/><text fill="#000000" font-family="sans-serif" font-size="14" font-weight="bold" lengthAdjust="spacing" textLength="47" x="280" y="131.5332">UserID</text><text fill="#000000" font-family="sans-serif" font-size="14" lengthAdjust="spacing" textLength="310" x="414" y="131.5332">UserID of the person modifying the patient record</text><line style="stroke:#000000;stroke-width:1.0;" x1="409" x2="409" y1="115" y2="136.6094"/><line style="stroke:#000000;stroke-width:1.0;" x1="275" x2="729" y1="136.6094" y2="136.6094"/><text fill="#000000" font-family="sans-serif" font-size="14" font-weight="bold" lengthAdjust="spacing" textLength="124" x="280" y="153.1426">AlternativeUserID</text><text fill="#000000" font-family="sans-serif" font-size="14" lengthAdjust="spacing" textLength="66" x="414" y="153.1426">theotherID</text><line style="stroke:#000000;stroke-width:1.0;" x1="409" x2="409" y1="136.6094" y2="158.2188"/><line style="stroke:#000000;stroke-width:1.0;" x1="275" x2="729" y1="158.2188" y2="158.2188"/><text fill="#000000" font-family="sans-serif" font-size="14" font-weight="bold" lengthAdjust="spacing" textLength="71" x="280" y="174.752">Username</text><text fill="#000000" font-family="sans-serif" font-size="14" lengthAdjust="spacing" textLength="51" x="414" y="174.752">if known</text><line style="stroke:#000000;stroke-width:1.0;" x1="409" x2="409" y1="158.2188" y2="179.8281"/><line style="stroke:#000000;stroke-width:1.0;" x1="275" x2="729" y1="179.8281" y2="179.8281"/><text fill="#000000" font-family="sans-serif" font-size="14" font-weight="bold" lengthAdjust="spacing" textLength="119" x="280" y="196.3613">UserIsRequestor</text><text fill="#000000" font-family="sans-serif" font-size="14" lengthAdjust="spacing" textLength="37" x="414" y="196.3613">TRUE</text><line style="stroke:#000000;stroke-width:1.0;" x1="409" x2="409" y1="179.8281" y2="201.4375"/><rect fill="none" height="86.4375" rx="5" ry="5" style="stroke:#000000;stroke-width:1.5;" width="454" x="275" y="115"/><rect fill="#F1F1F1" height="86.4375" rx="5" ry="5" style="stroke:#F1F1F1;stroke-width:1.5;" width="359" x="322.5" y="219"/><text fill="#000000" font-family="sans-serif" font-size="14" font-weight="bold" lengthAdjust="spacing" textLength="191" x="327.5" y="235.5332">ParticipantObjectTypeCode</text><text fill="#000000" font-family="sans-serif" font-size="14" lengthAdjust="spacing" textLength="8" x="560.5" y="235.5332">2</text><line style="stroke:#000000;stroke-width:1.0;" x1="555.5" x2="555.5" y1="219" y2="240.6094"/><line style="stroke:#000000;stroke-width:1.0;" x1="322.5" x2="681.5" y1="240.6094" y2="240.6094"/><text fill="#000000" font-family="sans-serif" font-size="14" font-weight="bold" lengthAdjust="spacing" textLength="223" x="327.5" y="257.1426">ParticipantObjectTypeCodeRole</text><text fill="#000000" font-family="sans-serif" font-size="14" lengthAdjust="spacing" textLength="8" x="560.5" y="257.1426">3</text><line style="stroke:#000000;stroke-width:1.0;" x1="555.5" x2="555.5" y1="240.6094" y2="262.2188"/><line style="stroke:#000000;stroke-width:1.0;" x1="322.5" x2="681.5" y1="262.2188" y2="262.2188"/><text fill="#000000" font-family="sans-serif" font-size="14" font-weight="bold" lengthAdjust="spacing" textLength="205" x="327.5" y="278.752">ParticipantObjectIDTypeCode</text><text fill="#000000" font-family="sans-serif" font-size="14" lengthAdjust="spacing" textLength="12" x="560.5" y="278.752">   </text><line style="stroke:#000000;stroke-width:1.0;" x1="555.5" x2="555.5" y1="262.2188" y2="283.8281"/><line style="stroke:#000000;stroke-width:1.0;" x1="322.5" x2="681.5" y1="283.8281" y2="283.8281"/><text fill="#000000" font-family="sans-serif" font-size="14" font-weight="bold" lengthAdjust="spacing" textLength="135" x="327.5" y="300.3613">ParticipantObjectID</text><text fill="#000000" font-family="sans-serif" font-size="14" lengthAdjust="spacing" textLength="116" x="560.5" y="300.3613">study-instance-uid</text><line style="stroke:#000000;stroke-width:1.0;" x1="555.5" x2="555.5" y1="283.8281" y2="305.4375"/><rect fill="none" height="86.4375" rx="5" ry="5" style="stroke:#000000;stroke-width:1.5;" width="359" x="322.5" y="219"/><rect fill="#F1F1F1" height="21.6094" rx="5" ry="5" style="stroke:#F1F1F1;stroke-width:1.5;" width="362" x="766" y="262"/><text fill="#000000" font-family="sans-serif" font-size="14" font-weight="bold" lengthAdjust="spacing" textLength="118" x="771" y="278.5332">CodedValueType</text><text fill="#000000" font-family="sans-serif" font-size="14" lengthAdjust="spacing" textLength="224" x="899" y="278.5332">(110180, DCM, Study Instance UID)</text><line style="stroke:#000000;stroke-width:1.0;" x1="894" x2="894" y1="262" y2="283.6094"/><rect fill="none" height="21.6094" rx="5" ry="5" style="stroke:#000000;stroke-width:1.5;" width="362" x="766" y="262"/><path d="M613.5,21 L626.5,21 C669.8268,21 716.4534,21 760.3483,21 " fill="none" style="stroke:#000000;stroke-width:1.0;stroke-dasharray:3.0,3.0;"/><path d="M760.3483,24.0358 L762.6252,21 L760.3483,17.9642 L767.9378,21 L760.3483,24.0358 " fill="#000000" style="stroke:#000000;stroke-width:1.0;"/><ellipse cx="613.5" cy="21" fill="#000000" rx="3" ry="3" style="stroke:#000000;stroke-width:1.0;"/><path d="M226,137 L239,137 C260.1146,137 256.1585,115.5303 275,106 C305.0402,90.8052 339.56,79.9913 372.448,72.3167 " fill="none" style="stroke:#000000;stroke-width:1.0;stroke-dasharray:3.0,3.0;"/><path d="M373.1232,75.2892 L374.6774,71.8103 L371.7728,69.3442 L379.8794,70.6287 L373.1232,75.2892 " fill="#000000" style="stroke:#000000;stroke-width:1.0;"/><ellipse cx="226" cy="137" fill="#000000" rx="3" ry="3" style="stroke:#000000;stroke-width:1.0;"/><path d="M226,158 L239,158 C248.3496,158 257.8865,158 267.5206,158 " fill="none" style="stroke:#000000;stroke-width:1.0;stroke-dasharray:3.0,3.0;"/><path d="M267.5206,161.0982 L269.8442,158 L267.5206,154.9018 L275.2661,158 L267.5206,161.0982 " fill="#000000" style="stroke:#000000;stroke-width:1.0;"/><ellipse cx="226" cy="158" fill="#000000" rx="3" ry="3" style="stroke:#000000;stroke-width:1.0;"/><path d="M670.5,273 L683.5,273 C707.915,273 733.605,273 758.972,273 " fill="none" style="stroke:#000000;stroke-width:1.0;stroke-dasharray:3.0,3.0;"/><path d="M758.972,276.0005 L761.2224,273 L758.972,269.9995 L766.4732,273 L758.972,276.0005 " fill="#000000" style="stroke:#000000;stroke-width:1.0;"/><ellipse cx="670.5" cy="273" fill="#000000" rx="3" ry="3" style="stroke:#000000;stroke-width:1.0;"/><path d="M226,181 L239,181 C259.5456,181 256.5167,201.0283 275,210 C287.9042,216.2636 301.5928,221.7904 315.5989,226.6643 " fill="none" style="stroke:#000000;stroke-width:1.0;stroke-dasharray:3.0,3.0;"/><path d="M314.603,229.6046 L317.8041,227.4112 L316.5947,223.724 L322.9496,229.1539 L314.603,229.6046 " fill="#000000" style="stroke:#000000;stroke-width:1.0;"/><ellipse cx="226" cy="181" fill="#000000" rx="3" ry="3" style="stroke:#000000;stroke-width:1.0;"/><!--MD5=[81b7dbc9e9e468d84d5c4855c91ce8f1]
@startjson
{
	"event": {
	   "eventID" :  {"CodedValueType" : "(110111, DCM, Procedure Record)"},
	   "EventActionCode": "U",
	   "EventDateTime" : "date-time",
	   "EventOutcomeIndicator": "0"
	},
	"ActiveParticipant - person" : {
	   "UserID" : "UserID of the person modifying the patient record",
	   "AlternativeUserID" : "theotherID",
	   "Username" : "if known",
	   "UserIsRequestor" : "TRUE"
	   },
	"ParticipatingObject - patient" : {
	   "ParticipantObjectTypeCode" : "2",
	   "ParticipantObjectTypeCodeRole" : "3",
	   "ParticipantObjectIDTypeCode" : {"CodedValueType" : "(110180, DCM, Study Instance UID)"},
	   "ParticipantObjectID" : "study-instance-uid"
	   }
}
@endjson

PlantUML version 1.2022.8(Sun Sep 25 05:00:33 EDT 2022)
(GPL source distribution)
Java Runtime: Java(TM) SE Runtime Environment
JVM: Java HotSpot(TM) Client VM
Default Encoding: Cp1252
Language: en
Country: US
--></g></svg>