<?xml version="1.0" encoding="UTF-8" standalone="no"?><svg xmlns="http://www.w3.org/2000/svg" xmlns:xlink="http://www.w3.org/1999/xlink" contentStyleType="text/css" height="573px" preserveAspectRatio="none" style="width:1553px;height:573px;background:#FFFFFF;" version="1.1" viewBox="0 0 1553 573" width="1553px" zoomAndPan="magnify"><defs/><g><rect fill="#F1F1F1" height="86.4375" rx="5" ry="5" style="stroke:#F1F1F1;stroke-width:1.5;" width="360" x="10" y="254"/><text fill="#000000" font-family="sans-serif" font-size="14" font-weight="bold" lengthAdjust="spacing" textLength="41" x="15" y="270.5332">event</text><text fill="#000000" font-family="sans-serif" font-size="14" lengthAdjust="spacing" textLength="12" x="353" y="270.5332">   </text><line style="stroke:#000000;stroke-width:1.0;" x1="348" x2="348" y1="254" y2="275.6094"/><line style="stroke:#000000;stroke-width:1.0;" x1="10" x2="370" y1="275.6094" y2="275.6094"/><text fill="#000000" font-family="sans-serif" font-size="14" font-weight="bold" lengthAdjust="spacing" textLength="280" x="15" y="292.1426">ActiveParticipant-process issuing query</text><text fill="#000000" font-family="sans-serif" font-size="14" lengthAdjust="spacing" textLength="12" x="353" y="292.1426">   </text><line style="stroke:#000000;stroke-width:1.0;" x1="348" x2="348" y1="275.6094" y2="297.2188"/><line style="stroke:#000000;stroke-width:1.0;" x1="10" x2="370" y1="297.2188" y2="297.2188"/><text fill="#000000" font-family="sans-serif" font-size="14" font-weight="bold" lengthAdjust="spacing" textLength="328" x="15" y="313.752">ActiveParticipant-process responding to query</text><text fill="#000000" font-family="sans-serif" font-size="14" lengthAdjust="spacing" textLength="12" x="353" y="313.752">   </text><line style="stroke:#000000;stroke-width:1.0;" x1="348" x2="348" y1="297.2188" y2="318.8281"/><line style="stroke:#000000;stroke-width:1.0;" x1="10" x2="370" y1="318.8281" y2="318.8281"/><text fill="#000000" font-family="sans-serif" font-size="14" font-weight="bold" lengthAdjust="spacing" textLength="134" x="15" y="335.3613">ParticipatingObject</text><text fill="#000000" font-family="sans-serif" font-size="14" lengthAdjust="spacing" textLength="12" x="353" y="335.3613">   </text><line style="stroke:#000000;stroke-width:1.0;" x1="348" x2="348" y1="318.8281" y2="340.4375"/><rect fill="none" height="86.4375" rx="5" ry="5" style="stroke:#000000;stroke-width:1.5;" width="360" x="10" y="254"/><rect fill="#F1F1F1" height="151.2656" rx="5" ry="5" style="stroke:#F1F1F1;stroke-width:1.5;" width="245" x="476" y="10.5"/><text fill="#000000" font-family="sans-serif" font-size="14" font-weight="bold" lengthAdjust="spacing" textLength="55" x="481" y="27.0332">eventID</text><text fill="#000000" font-family="sans-serif" font-size="14" lengthAdjust="spacing" textLength="12" x="657" y="27.0332">   </text><line style="stroke:#000000;stroke-width:1.0;" x1="652" x2="652" y1="10.5" y2="32.1094"/><line style="stroke:#000000;stroke-width:1.0;" x1="476" x2="721" y1="32.1094" y2="32.1094"/><text fill="#000000" font-family="sans-serif" font-size="14" font-weight="bold" lengthAdjust="spacing" textLength="122" x="481" y="48.6426">EventActionCode</text><text fill="#000000" font-family="sans-serif" font-size="14" lengthAdjust="spacing" textLength="9" x="657" y="48.6426">E</text><line style="stroke:#000000;stroke-width:1.0;" x1="652" x2="652" y1="32.1094" y2="53.7188"/><line style="stroke:#000000;stroke-width:1.0;" x1="476" x2="721" y1="53.7188" y2="53.7188"/><text fill="#000000" font-family="sans-serif" font-size="14" font-weight="bold" lengthAdjust="spacing" textLength="106" x="481" y="70.252">EventDateTime</text><text fill="#000000" font-family="sans-serif" font-size="14" lengthAdjust="spacing" textLength="59" x="657" y="70.252">date-time</text><line style="stroke:#000000;stroke-width:1.0;" x1="652" x2="652" y1="53.7188" y2="75.3281"/><line style="stroke:#000000;stroke-width:1.0;" x1="476" x2="721" y1="75.3281" y2="75.3281"/><text fill="#000000" font-family="sans-serif" font-size="14" font-weight="bold" lengthAdjust="spacing" textLength="166" x="481" y="91.8613">EventOutcomeIndicator</text><text fill="#000000" font-family="sans-serif" font-size="14" lengthAdjust="spacing" textLength="8" x="657" y="91.8613">0</text><line style="stroke:#000000;stroke-width:1.0;" x1="652" x2="652" y1="75.3281" y2="96.9375"/><line style="stroke:#000000;stroke-width:1.0;" x1="476" x2="721" y1="96.9375" y2="96.9375"/><text fill="#000000" font-family="sans-serif" font-size="14" font-weight="bold" lengthAdjust="spacing" textLength="111" x="481" y="113.4707">EventTypeCode</text><text fill="#000000" font-family="sans-serif" font-size="14" lengthAdjust="spacing" textLength="12" x="657" y="113.4707">   </text><line style="stroke:#000000;stroke-width:1.0;" x1="652" x2="652" y1="96.9375" y2="118.5469"/><line style="stroke:#000000;stroke-width:1.0;" x1="476" x2="721" y1="118.5469" y2="118.5469"/><text fill="#000000" font-family="sans-serif" font-size="14" font-weight="bold" lengthAdjust="spacing" textLength="50" x="481" y="135.0801">traceID</text><text fill="#000000" font-family="sans-serif" font-size="14" lengthAdjust="spacing" textLength="27" x="657" y="135.0801">asdf</text><line style="stroke:#000000;stroke-width:1.0;" x1="652" x2="652" y1="118.5469" y2="140.1563"/><line style="stroke:#000000;stroke-width:1.0;" x1="476" x2="721" y1="140.1563" y2="140.1563"/><text fill="#000000" font-family="sans-serif" font-size="14" font-weight="bold" lengthAdjust="spacing" textLength="60" x="481" y="156.6895">parentID</text><text fill="#000000" font-family="sans-serif" font-size="14" lengthAdjust="spacing" textLength="16" x="657" y="156.6895">lkjl</text><line style="stroke:#000000;stroke-width:1.0;" x1="652" x2="652" y1="140.1563" y2="161.7656"/><rect fill="none" height="151.2656" rx="5" ry="5" style="stroke:#000000;stroke-width:1.5;" width="245" x="476" y="10.5"/><rect fill="#F1F1F1" height="21.6094" rx="5" ry="5" style="stroke:#F1F1F1;stroke-width:1.5;" width="22" x="971.5" y="10"/><text fill="#000000" font-family="sans-serif" font-size="14" lengthAdjust="spacing" textLength="12" x="976.5" y="26.5332">   </text><rect fill="none" height="21.6094" rx="5" ry="5" style="stroke:#000000;stroke-width:1.5;" width="22" x="971.5" y="10"/><rect fill="#F1F1F1" height="21.6094" rx="5" ry="5" style="stroke:#F1F1F1;stroke-width:1.5;" width="282" x="1218" y="10"/><text fill="#000000" font-family="sans-serif" font-size="14" font-weight="bold" lengthAdjust="spacing" textLength="118" x="1223" y="26.5332">CodedValueType</text><text fill="#000000" font-family="sans-serif" font-size="14" lengthAdjust="spacing" textLength="144" x="1351" y="26.5332">(110112, DCM, Query)</text><line style="stroke:#000000;stroke-width:1.0;" x1="1346" x2="1346" y1="10" y2="31.6094"/><rect fill="none" height="21.6094" rx="5" ry="5" style="stroke:#000000;stroke-width:1.5;" width="282" x="1218" y="10"/><rect fill="#F1F1F1" height="21.6094" rx="5" ry="5" style="stroke:#F1F1F1;stroke-width:1.5;" width="22" x="971.5" y="96"/><text fill="#000000" font-family="sans-serif" font-size="14" lengthAdjust="spacing" textLength="12" x="976.5" y="112.5332">   </text><rect fill="none" height="21.6094" rx="5" ry="5" style="stroke:#000000;stroke-width:1.5;" width="22" x="971.5" y="96"/><rect fill="#F1F1F1" height="21.6094" rx="5" ry="5" style="stroke:#F1F1F1;stroke-width:1.5;" width="314" x="1202" y="96"/><text fill="#000000" font-family="sans-serif" font-size="14" font-weight="bold" lengthAdjust="spacing" textLength="118" x="1207" y="112.5332">CodedValueType</text><text fill="#000000" font-family="sans-serif" font-size="14" lengthAdjust="spacing" textLength="176" x="1335" y="112.5332">not specialized (seems odd)</text><line style="stroke:#000000;stroke-width:1.0;" x1="1330" x2="1330" y1="96" y2="117.6094"/><rect fill="none" height="21.6094" rx="5" ry="5" style="stroke:#000000;stroke-width:1.5;" width="314" x="1202" y="96"/><rect fill="#F1F1F1" height="108.0469" rx="5" ry="5" style="stroke:#F1F1F1;stroke-width:1.5;" width="334" x="431.5" y="180"/><text fill="#000000" font-family="sans-serif" font-size="14" font-weight="bold" lengthAdjust="spacing" textLength="47" x="436.5" y="196.5332">UserID</text><text fill="#000000" font-family="sans-serif" font-size="14" lengthAdjust="spacing" textLength="190" x="570.5" y="196.5332">UserID of the sending process</text><line style="stroke:#000000;stroke-width:1.0;" x1="565.5" x2="565.5" y1="180" y2="201.6094"/><line style="stroke:#000000;stroke-width:1.0;" x1="431.5" x2="765.5" y1="201.6094" y2="201.6094"/><text fill="#000000" font-family="sans-serif" font-size="14" font-weight="bold" lengthAdjust="spacing" textLength="124" x="436.5" y="218.1426">AlternativeUserID</text><text fill="#000000" font-family="sans-serif" font-size="14" lengthAdjust="spacing" textLength="66" x="570.5" y="218.1426">theotherID</text><line style="stroke:#000000;stroke-width:1.0;" x1="565.5" x2="565.5" y1="201.6094" y2="223.2188"/><line style="stroke:#000000;stroke-width:1.0;" x1="431.5" x2="765.5" y1="223.2188" y2="223.2188"/><text fill="#000000" font-family="sans-serif" font-size="14" font-weight="bold" lengthAdjust="spacing" textLength="71" x="436.5" y="239.752">Username</text><text fill="#000000" font-family="sans-serif" font-size="14" lengthAdjust="spacing" textLength="51" x="570.5" y="239.752">if known</text><line style="stroke:#000000;stroke-width:1.0;" x1="565.5" x2="565.5" y1="223.2188" y2="244.8281"/><line style="stroke:#000000;stroke-width:1.0;" x1="431.5" x2="765.5" y1="244.8281" y2="244.8281"/><text fill="#000000" font-family="sans-serif" font-size="14" font-weight="bold" lengthAdjust="spacing" textLength="119" x="436.5" y="261.3613">UserIsRequestor</text><text fill="#000000" font-family="sans-serif" font-size="14" lengthAdjust="spacing" textLength="37" x="570.5" y="261.3613">TRUE</text><line style="stroke:#000000;stroke-width:1.0;" x1="565.5" x2="565.5" y1="244.8281" y2="266.4375"/><line style="stroke:#000000;stroke-width:1.0;" x1="431.5" x2="765.5" y1="266.4375" y2="266.4375"/><text fill="#000000" font-family="sans-serif" font-size="14" font-weight="bold" lengthAdjust="spacing" textLength="83" x="436.5" y="282.9707">RoleIDCode</text><text fill="#000000" font-family="sans-serif" font-size="14" lengthAdjust="spacing" textLength="12" x="570.5" y="282.9707">   </text><line style="stroke:#000000;stroke-width:1.0;" x1="565.5" x2="565.5" y1="266.4375" y2="288.0469"/><rect fill="none" height="108.0469" rx="5" ry="5" style="stroke:#000000;stroke-width:1.5;" width="334" x="431.5" y="180"/><rect fill="#F1F1F1" height="21.6094" rx="5" ry="5" style="stroke:#F1F1F1;stroke-width:1.5;" width="22" x="971.5" y="266"/><text fill="#000000" font-family="sans-serif" font-size="14" lengthAdjust="spacing" textLength="12" x="976.5" y="282.5332">   </text><rect fill="none" height="21.6094" rx="5" ry="5" style="stroke:#000000;stroke-width:1.5;" width="22" x="971.5" y="266"/><rect fill="#F1F1F1" height="21.6094" rx="5" ry="5" style="stroke:#F1F1F1;stroke-width:1.5;" width="338" x="1190" y="266"/><text fill="#000000" font-family="sans-serif" font-size="14" font-weight="bold" lengthAdjust="spacing" textLength="118" x="1195" y="282.5332">CodedValueType</text><text fill="#000000" font-family="sans-serif" font-size="14" lengthAdjust="spacing" textLength="200" x="1323" y="282.5332">(110153, DCM, Source Role ID)</text><line style="stroke:#000000;stroke-width:1.0;" x1="1318" x2="1318" y1="266" y2="287.6094"/><rect fill="none" height="21.6094" rx="5" ry="5" style="stroke:#000000;stroke-width:1.5;" width="338" x="1190" y="266"/><rect fill="#F1F1F1" height="108.0469" rx="5" ry="5" style="stroke:#F1F1F1;stroke-width:1.5;" width="355" x="421" y="306"/><text fill="#000000" font-family="sans-serif" font-size="14" font-weight="bold" lengthAdjust="spacing" textLength="47" x="426" y="322.5332">UserID</text><text fill="#000000" font-family="sans-serif" font-size="14" lengthAdjust="spacing" textLength="211" x="560" y="322.5332">UserID of the responding process</text><line style="stroke:#000000;stroke-width:1.0;" x1="555" x2="555" y1="306" y2="327.6094"/><line style="stroke:#000000;stroke-width:1.0;" x1="421" x2="776" y1="327.6094" y2="327.6094"/><text fill="#000000" font-family="sans-serif" font-size="14" font-weight="bold" lengthAdjust="spacing" textLength="124" x="426" y="344.1426">AlternativeUserID</text><text fill="#000000" font-family="sans-serif" font-size="14" lengthAdjust="spacing" textLength="66" x="560" y="344.1426">theotherID</text><line style="stroke:#000000;stroke-width:1.0;" x1="555" x2="555" y1="327.6094" y2="349.2188"/><line style="stroke:#000000;stroke-width:1.0;" x1="421" x2="776" y1="349.2188" y2="349.2188"/><text fill="#000000" font-family="sans-serif" font-size="14" font-weight="bold" lengthAdjust="spacing" textLength="71" x="426" y="365.752">Username</text><text fill="#000000" font-family="sans-serif" font-size="14" lengthAdjust="spacing" textLength="51" x="560" y="365.752">if known</text><line style="stroke:#000000;stroke-width:1.0;" x1="555" x2="555" y1="349.2188" y2="370.8281"/><line style="stroke:#000000;stroke-width:1.0;" x1="421" x2="776" y1="370.8281" y2="370.8281"/><text fill="#000000" font-family="sans-serif" font-size="14" font-weight="bold" lengthAdjust="spacing" textLength="119" x="426" y="387.3613">UserIsRequestor</text><text fill="#000000" font-family="sans-serif" font-size="14" lengthAdjust="spacing" textLength="44" x="560" y="387.3613">FALSE</text><line style="stroke:#000000;stroke-width:1.0;" x1="555" x2="555" y1="370.8281" y2="392.4375"/><line style="stroke:#000000;stroke-width:1.0;" x1="421" x2="776" y1="392.4375" y2="392.4375"/><text fill="#000000" font-family="sans-serif" font-size="14" font-weight="bold" lengthAdjust="spacing" textLength="83" x="426" y="408.9707">RoleIDCode</text><text fill="#000000" font-family="sans-serif" font-size="14" lengthAdjust="spacing" textLength="12" x="560" y="408.9707">   </text><line style="stroke:#000000;stroke-width:1.0;" x1="555" x2="555" y1="392.4375" y2="414.0469"/><rect fill="none" height="108.0469" rx="5" ry="5" style="stroke:#000000;stroke-width:1.5;" width="355" x="421" y="306"/><rect fill="#F1F1F1" height="21.6094" rx="5" ry="5" style="stroke:#F1F1F1;stroke-width:1.5;" width="22" x="971.5" y="392"/><text fill="#000000" font-family="sans-serif" font-size="14" lengthAdjust="spacing" textLength="12" x="976.5" y="408.5332">   </text><rect fill="none" height="21.6094" rx="5" ry="5" style="stroke:#000000;stroke-width:1.5;" width="22" x="971.5" y="392"/><rect fill="#F1F1F1" height="21.6094" rx="5" ry="5" style="stroke:#F1F1F1;stroke-width:1.5;" width="364" x="1177" y="392"/><text fill="#000000" font-family="sans-serif" font-size="14" font-weight="bold" lengthAdjust="spacing" textLength="118" x="1182" y="408.5332">CodedValueType</text><text fill="#000000" font-family="sans-serif" font-size="14" lengthAdjust="spacing" textLength="226" x="1310" y="408.5332">(110152, DCM, Destination Role ID)</text><line style="stroke:#000000;stroke-width:1.0;" x1="1305" x2="1305" y1="392" y2="413.6094"/><rect fill="none" height="21.6094" rx="5" ry="5" style="stroke:#000000;stroke-width:1.5;" width="364" x="1177" y="392"/><rect fill="#F1F1F1" height="129.6563" rx="5" ry="5" style="stroke:#F1F1F1;stroke-width:1.5;" width="383" x="407" y="432"/><text fill="#000000" font-family="sans-serif" font-size="14" font-weight="bold" lengthAdjust="spacing" textLength="191" x="412" y="448.5332">ParticipantObjectTypeCode</text><text fill="#000000" font-family="sans-serif" font-size="14" lengthAdjust="spacing" textLength="8" x="645" y="448.5332">2</text><line style="stroke:#000000;stroke-width:1.0;" x1="640" x2="640" y1="432" y2="453.6094"/><line style="stroke:#000000;stroke-width:1.0;" x1="407" x2="790" y1="453.6094" y2="453.6094"/><text fill="#000000" font-family="sans-serif" font-size="14" font-weight="bold" lengthAdjust="spacing" textLength="223" x="412" y="470.1426">ParticipantObjectTypeCodeRole</text><text fill="#000000" font-family="sans-serif" font-size="14" lengthAdjust="spacing" textLength="8" x="645" y="470.1426">3</text><line style="stroke:#000000;stroke-width:1.0;" x1="640" x2="640" y1="453.6094" y2="475.2188"/><line style="stroke:#000000;stroke-width:1.0;" x1="407" x2="790" y1="475.2188" y2="475.2188"/><text fill="#000000" font-family="sans-serif" font-size="14" font-weight="bold" lengthAdjust="spacing" textLength="205" x="412" y="491.752">ParticipantObjectIDTypeCode</text><text fill="#000000" font-family="sans-serif" font-size="14" lengthAdjust="spacing" textLength="12" x="645" y="491.752">   </text><line style="stroke:#000000;stroke-width:1.0;" x1="640" x2="640" y1="475.2188" y2="496.8281"/><line style="stroke:#000000;stroke-width:1.0;" x1="407" x2="790" y1="496.8281" y2="496.8281"/><text fill="#000000" font-family="sans-serif" font-size="14" font-weight="bold" lengthAdjust="spacing" textLength="135" x="412" y="513.3613">ParticipantObjectID</text><text fill="#000000" font-family="sans-serif" font-size="14" lengthAdjust="spacing" textLength="84" x="645" y="513.3613">sop-class-uid</text><line style="stroke:#000000;stroke-width:1.0;" x1="640" x2="640" y1="496.8281" y2="518.4375"/><line style="stroke:#000000;stroke-width:1.0;" x1="407" x2="790" y1="518.4375" y2="518.4375"/><text fill="#000000" font-family="sans-serif" font-size="14" font-weight="bold" lengthAdjust="spacing" textLength="163" x="412" y="534.9707">ParticipantObjectQuery</text><text fill="#000000" font-family="sans-serif" font-size="14" lengthAdjust="spacing" textLength="140" x="645" y="534.9707">big base64binary blob</text><line style="stroke:#000000;stroke-width:1.0;" x1="640" x2="640" y1="518.4375" y2="540.0469"/><line style="stroke:#000000;stroke-width:1.0;" x1="407" x2="790" y1="540.0469" y2="540.0469"/><text fill="#000000" font-family="sans-serif" font-size="14" font-weight="bold" lengthAdjust="spacing" textLength="161" x="412" y="556.5801">ParticipantObjectDetail</text><text fill="#000000" font-family="sans-serif" font-size="14" lengthAdjust="spacing" textLength="12" x="645" y="556.5801">   </text><line style="stroke:#000000;stroke-width:1.0;" x1="640" x2="640" y1="540.0469" y2="561.6563"/><rect fill="none" height="129.6563" rx="5" ry="5" style="stroke:#000000;stroke-width:1.5;" width="383" x="407" y="432"/><rect fill="#F1F1F1" height="21.6094" rx="5" ry="5" style="stroke:#F1F1F1;stroke-width:1.5;" width="22" x="971.5" y="475"/><text fill="#000000" font-family="sans-serif" font-size="14" lengthAdjust="spacing" textLength="12" x="976.5" y="491.5332">   </text><rect fill="none" height="21.6094" rx="5" ry="5" style="stroke:#000000;stroke-width:1.5;" width="22" x="971.5" y="475"/><rect fill="#F1F1F1" height="21.6094" rx="5" ry="5" style="stroke:#F1F1F1;stroke-width:1.5;" width="337" x="1190.5" y="475"/><text fill="#000000" font-family="sans-serif" font-size="14" font-weight="bold" lengthAdjust="spacing" textLength="118" x="1195.5" y="491.5332">CodedValueType</text><text fill="#000000" font-family="sans-serif" font-size="14" lengthAdjust="spacing" textLength="199" x="1323.5" y="491.5332">(110181, DCM, SOP Class UID)</text><line style="stroke:#000000;stroke-width:1.0;" x1="1318.5" x2="1318.5" y1="475" y2="496.6094"/><rect fill="none" height="21.6094" rx="5" ry="5" style="stroke:#000000;stroke-width:1.5;" width="337" x="1190.5" y="475"/><rect fill="#F1F1F1" height="21.6094" rx="5" ry="5" style="stroke:#F1F1F1;stroke-width:1.5;" width="313" x="827" y="540"/><text fill="#000000" font-family="sans-serif" font-size="14" font-weight="bold" lengthAdjust="spacing" textLength="105" x="832" y="556.5332">TransferSyntax</text><text fill="#000000" font-family="sans-serif" font-size="14" lengthAdjust="spacing" textLength="188" x="947" y="556.5332">dicom-transfer-syntax-base64</text><line style="stroke:#000000;stroke-width:1.0;" x1="942" x2="942" y1="540" y2="561.6094"/><rect fill="none" height="21.6094" rx="5" ry="5" style="stroke:#000000;stroke-width:1.5;" width="313" x="827" y="540"/><path d="M983.0361,21 L996.0361,21 C1029.2746,21 1125.4996,21 1210.4534,21 " fill="none" style="stroke:#000000;stroke-width:1.0;stroke-dasharray:3.0,3.0;"/><path d="M1210.4534,24.0637 L1212.7512,21 L1210.4534,17.9363 L1218.1126,21 L1210.4534,24.0637 " fill="#000000" style="stroke:#000000;stroke-width:1.0;"/><ellipse cx="983.0361" cy="21" fill="#000000" rx="3" ry="3" style="stroke:#000000;stroke-width:1.0;"/><path d="M710,21 L723,21 C813.3483,21 921.3566,21 964.1791,21 " fill="none" style="stroke:#000000;stroke-width:1.0;stroke-dasharray:3.0,3.0;"/><path d="M964.1791,24.0683 L966.4803,21 L964.1791,17.9317 L971.8499,21 L964.1791,24.0683 " fill="#000000" style="stroke:#000000;stroke-width:1.0;"/><ellipse cx="710" cy="21" fill="#000000" rx="3" ry="3" style="stroke:#000000;stroke-width:1.0;"/><path d="M983.0361,107 L996.0361,107 C1027.2065,107 1113.7693,107 1194.483,107 " fill="none" style="stroke:#000000;stroke-width:1.0;stroke-dasharray:3.0,3.0;"/><path d="M1194.483,110.1163 L1196.8202,107 L1194.483,103.8837 L1202.2737,107 L1194.483,110.1163 " fill="#000000" style="stroke:#000000;stroke-width:1.0;"/><ellipse cx="983.0361" cy="107" fill="#000000" rx="3" ry="3" style="stroke:#000000;stroke-width:1.0;"/><path d="M710,107 L723,107 C813.3483,107 921.3566,107 964.1791,107 " fill="none" style="stroke:#000000;stroke-width:1.0;stroke-dasharray:3.0,3.0;"/><path d="M964.1791,110.0683 L966.4803,107 L964.1791,103.9317 L971.8499,107 L964.1791,110.0683 " fill="#000000" style="stroke:#000000;stroke-width:1.0;"/><ellipse cx="710" cy="107" fill="#000000" rx="3" ry="3" style="stroke:#000000;stroke-width:1.0;"/><path d="M358,264 L371,264 C415.3221,264 376.4428,203.1045 407,171 C424.4229,152.6949 446.4973,138.0593 469.4041,126.4513 " fill="none" style="stroke:#000000;stroke-width:1.0;stroke-dasharray:3.0,3.0;"/><path d="M470.744,129.173 L471.4454,125.4464 L468.0643,123.7296 L476.2084,123.1016 L470.744,129.173 " fill="#000000" style="stroke:#000000;stroke-width:1.0;"/><ellipse cx="358" cy="264" fill="#000000" rx="3" ry="3" style="stroke:#000000;stroke-width:1.0;"/><path d="M983.0361,277 L996.0361,277 C1025.6306,277 1105.1583,277 1182.2043,277 " fill="none" style="stroke:#000000;stroke-width:1.0;stroke-dasharray:3.0,3.0;"/><path d="M1182.2043,280.1709 L1184.5825,277 L1182.2043,273.8291 L1190.1315,277 L1182.2043,280.1709 " fill="#000000" style="stroke:#000000;stroke-width:1.0;"/><ellipse cx="983.0361" cy="277" fill="#000000" rx="3" ry="3" style="stroke:#000000;stroke-width:1.0;"/><path d="M754,277 L767,277 C839.8643,277 926.5546,277 964.1069,277 " fill="none" style="stroke:#000000;stroke-width:1.0;stroke-dasharray:3.0,3.0;"/><path d="M964.1069,280.0599 L966.4018,277 L964.1069,273.9401 L971.7567,277 L964.1069,280.0599 " fill="#000000" style="stroke:#000000;stroke-width:1.0;"/><ellipse cx="754" cy="277" fill="#000000" rx="3" ry="3" style="stroke:#000000;stroke-width:1.0;"/><path d="M358,286 L371,286 C388.423,286 406.4127,284.5265 424.2844,282.0756 " fill="none" style="stroke:#000000;stroke-width:1.0;stroke-dasharray:3.0,3.0;"/><path d="M424.728,285.1356 L426.5795,281.7429 L423.8409,279.0155 L431.9346,280.9668 L424.728,285.1356 " fill="#000000" style="stroke:#000000;stroke-width:1.0;"/><ellipse cx="358" cy="286" fill="#000000" rx="3" ry="3" style="stroke:#000000;stroke-width:1.0;"/><path d="M983.0361,403 L996.0361,403 C1024.0571,403 1096.8425,403 1169.9016,403 " fill="none" style="stroke:#000000;stroke-width:1.0;stroke-dasharray:3.0,3.0;"/><path d="M1169.9016,406.0106 L1172.1595,403 L1169.9016,399.9894 L1177.4281,403 L1169.9016,406.0106 " fill="#000000" style="stroke:#000000;stroke-width:1.0;"/><ellipse cx="983.0361" cy="403" fill="#000000" rx="3" ry="3" style="stroke:#000000;stroke-width:1.0;"/><path d="M765,403 L778,403 C846.5335,403 927.9547,403 964.0992,403 " fill="none" style="stroke:#000000;stroke-width:1.0;stroke-dasharray:3.0,3.0;"/><path d="M964.0992,406.116 L966.4362,403 L964.0992,399.884 L971.8892,403 L964.0992,406.116 " fill="#000000" style="stroke:#000000;stroke-width:1.0;"/><ellipse cx="765" cy="403" fill="#000000" rx="3" ry="3" style="stroke:#000000;stroke-width:1.0;"/><path d="M358,308 L371,308 C385.0299,308 399.4271,308.9555 413.8344,310.6073 " fill="none" style="stroke:#000000;stroke-width:1.0;stroke-dasharray:3.0,3.0;"/><path d="M413.464,313.6206 L416.0943,310.8851 L414.2048,307.5941 L421.3675,311.5333 L413.464,313.6206 " fill="#000000" style="stroke:#000000;stroke-width:1.0;"/><ellipse cx="358" cy="308" fill="#000000" rx="3" ry="3" style="stroke:#000000;stroke-width:1.0;"/><path d="M983.0361,486 L996.0361,486 C1025.6912,486 1105.4837,486 1182.677,486 " fill="none" style="stroke:#000000;stroke-width:1.0;stroke-dasharray:3.0,3.0;"/><path d="M1182.677,489.1768 L1185.0595,486 L1182.677,482.8232 L1190.6189,486 L1182.677,489.1768 " fill="#000000" style="stroke:#000000;stroke-width:1.0;"/><ellipse cx="983.0361" cy="486" fill="#000000" rx="3" ry="3" style="stroke:#000000;stroke-width:1.0;"/><path d="M778,486 L791,486 C854.3021,486 929.3439,486 963.8728,486 " fill="none" style="stroke:#000000;stroke-width:1.0;stroke-dasharray:3.0,3.0;"/><path d="M963.8728,489.1495 L966.2349,486 L963.8728,482.8505 L971.7466,486 L963.8728,489.1495 " fill="#000000" style="stroke:#000000;stroke-width:1.0;"/><ellipse cx="778" cy="486" fill="#000000" rx="3" ry="3" style="stroke:#000000;stroke-width:1.0;"/><path d="M778,551 L791,551 C800.3372,551 809.9299,551 819.6103,551 " fill="none" style="stroke:#000000;stroke-width:1.0;stroke-dasharray:3.0,3.0;"/><path d="M819.6103,554.1116 L821.944,551 L819.6103,547.8884 L827.3894,551 L819.6103,554.1116 " fill="#000000" style="stroke:#000000;stroke-width:1.0;"/><ellipse cx="778" cy="551" fill="#000000" rx="3" ry="3" style="stroke:#000000;stroke-width:1.0;"/><path d="M358,329 L371,329 C415.7368,329 375.4277,391.305 407,423 C408.2235,424.2282 409.4696,425.4365 410.7371,426.6252 " fill="none" style="stroke:#000000;stroke-width:1.0;stroke-dasharray:3.0,3.0;"/><path d="M408.7023,428.9013 L412.4442,428.1513 L412.7719,424.3491 L416.4274,431.7122 L408.7023,428.9013 " fill="#000000" style="stroke:#000000;stroke-width:1.0;"/><ellipse cx="358" cy="329" fill="#000000" rx="3" ry="3" style="stroke:#000000;stroke-width:1.0;"/><!--MD5=[bc30c80b99a8f328034b187db3001549]
@startjson
{
	"event": {
	   "eventID" : [
	       { "CodedValueType" : "(110112, DCM, Query)"}
	       ],
	   "EventActionCode": "E",
	   "EventDateTime" : "date-time",
	   "EventOutcomeIndicator": "0",
	   "EventTypeCode" : [
	   	{ "CodedValueType" : "not specialized (seems odd)"}
		],
	   "traceID" : "asdf",
	   "parentID" : "lkjl"
	   },
	"ActiveParticipant-process issuing query" : {
	   "UserID" : "UserID of the sending process",
	   "AlternativeUserID" : "theotherID",
	   "Username" : "if known",
	   "UserIsRequestor" : "TRUE",
	   "RoleIDCode" : [
	   	{ "CodedValueType" : "(110153, DCM, Source Role ID)"}
		]
	   },
	"ActiveParticipant-process responding to query" : {
	   "UserID" : "UserID of the responding process",
	   "AlternativeUserID" : "theotherID",
	   "Username" : "if known",
	   "UserIsRequestor" : "FALSE",
	   "RoleIDCode" : [
	   	{ "CodedValueType" : "(110152, DCM, Destination Role ID)"}
		]
	   },
	"ParticipatingObject" : {
	   "ParticipantObjectTypeCode" : 2,
	   "ParticipantObjectTypeCodeRole" : 3,
	   "ParticipantObjectIDTypeCode" : [
	       { "CodedValueType" : "(110181, DCM, SOP Class UID)"}
	       ],
	   "ParticipantObjectID" : "sop-class-uid",
	   "ParticipantObjectQuery" : "big base64binary blob",
	   "ParticipantObjectDetail" : 
	       {"TransferSyntax" : "dicom-transfer-syntax-base64"}
	      
	   }
}
@endjson

PlantUML version 1.2022.8(Sun Sep 25 05:00:33 EDT 2022)
(GPL source distribution)
Java Runtime: Java(TM) SE Runtime Environment
JVM: Java HotSpot(TM) Client VM
Default Encoding: Cp1252
Language: en
Country: US
--></g></svg>