<?xml version="1.0" encoding="UTF-8" standalone="no"?><svg xmlns="http://www.w3.org/2000/svg" xmlns:xlink="http://www.w3.org/1999/xlink" contentStyleType="text/css" height="235px" preserveAspectRatio="none" style="width:1005px;height:235px;background:#FFFFFF;" version="1.1" viewBox="0 0 1005 235" width="1005px" zoomAndPan="magnify"><defs/><g><rect fill="#F1F1F1" height="43.2188" rx="5" ry="5" style="stroke:#F1F1F1;stroke-width:1.5;" width="151" x="10" y="100.5"/><text fill="#000000" font-family="sans-serif" font-size="14" font-weight="bold" lengthAdjust="spacing" textLength="41" x="15" y="117.0332">event</text><text fill="#000000" font-family="sans-serif" font-size="14" lengthAdjust="spacing" textLength="12" x="144" y="117.0332">   </text><line style="stroke:#000000;stroke-width:1.0;" x1="139" x2="139" y1="100.5" y2="122.1094"/><line style="stroke:#000000;stroke-width:1.0;" x1="10" x2="161" y1="122.1094" y2="122.1094"/><text fill="#000000" font-family="sans-serif" font-size="14" font-weight="bold" lengthAdjust="spacing" textLength="119" x="15" y="138.6426">ActiveParticipant</text><text fill="#000000" font-family="sans-serif" font-size="14" lengthAdjust="spacing" textLength="12" x="144" y="138.6426">   </text><line style="stroke:#000000;stroke-width:1.0;" x1="139" x2="139" y1="122.1094" y2="143.7188"/><rect fill="none" height="43.2188" rx="5" ry="5" style="stroke:#000000;stroke-width:1.5;" width="151" x="10" y="100.5"/><rect fill="#F1F1F1" height="108.0469" rx="5" ry="5" style="stroke:#F1F1F1;stroke-width:1.5;" width="245" x="271.5" y="11"/><text fill="#000000" font-family="sans-serif" font-size="14" font-weight="bold" lengthAdjust="spacing" textLength="55" x="276.5" y="27.5332">eventID</text><text fill="#000000" font-family="sans-serif" font-size="14" lengthAdjust="spacing" textLength="12" x="452.5" y="27.5332">   </text><line style="stroke:#000000;stroke-width:1.0;" x1="447.5" x2="447.5" y1="11" y2="32.6094"/><line style="stroke:#000000;stroke-width:1.0;" x1="271.5" x2="516.5" y1="32.6094" y2="32.6094"/><text fill="#000000" font-family="sans-serif" font-size="14" font-weight="bold" lengthAdjust="spacing" textLength="122" x="276.5" y="49.1426">EventActionCode</text><text fill="#000000" font-family="sans-serif" font-size="14" lengthAdjust="spacing" textLength="9" x="452.5" y="49.1426">E</text><line style="stroke:#000000;stroke-width:1.0;" x1="447.5" x2="447.5" y1="32.6094" y2="54.2188"/><line style="stroke:#000000;stroke-width:1.0;" x1="271.5" x2="516.5" y1="54.2188" y2="54.2188"/><text fill="#000000" font-family="sans-serif" font-size="14" font-weight="bold" lengthAdjust="spacing" textLength="106" x="276.5" y="70.752">EventDateTime</text><text fill="#000000" font-family="sans-serif" font-size="14" lengthAdjust="spacing" textLength="59" x="452.5" y="70.752">date-time</text><line style="stroke:#000000;stroke-width:1.0;" x1="447.5" x2="447.5" y1="54.2188" y2="75.8281"/><line style="stroke:#000000;stroke-width:1.0;" x1="271.5" x2="516.5" y1="75.8281" y2="75.8281"/><text fill="#000000" font-family="sans-serif" font-size="14" font-weight="bold" lengthAdjust="spacing" textLength="166" x="276.5" y="92.3613">EventOutcomeIndicator</text><text fill="#000000" font-family="sans-serif" font-size="14" lengthAdjust="spacing" textLength="8" x="452.5" y="92.3613">0</text><line style="stroke:#000000;stroke-width:1.0;" x1="447.5" x2="447.5" y1="75.8281" y2="97.4375"/><line style="stroke:#000000;stroke-width:1.0;" x1="271.5" x2="516.5" y1="97.4375" y2="97.4375"/><text fill="#000000" font-family="sans-serif" font-size="14" font-weight="bold" lengthAdjust="spacing" textLength="111" x="276.5" y="113.9707">EventTypeCode</text><text fill="#000000" font-family="sans-serif" font-size="14" lengthAdjust="spacing" textLength="12" x="452.5" y="113.9707">   </text><line style="stroke:#000000;stroke-width:1.0;" x1="447.5" x2="447.5" y1="97.4375" y2="119.0469"/><rect fill="none" height="108.0469" rx="5" ry="5" style="stroke:#000000;stroke-width:1.5;" width="245" x="271.5" y="11"/><rect fill="#F1F1F1" height="21.6094" rx="5" ry="5" style="stroke:#F1F1F1;stroke-width:1.5;" width="366" x="627" y="10"/><text fill="#000000" font-family="sans-serif" font-size="14" font-weight="bold" lengthAdjust="spacing" textLength="118" x="632" y="26.5332">CodedValueType</text><text fill="#000000" font-family="sans-serif" font-size="14" lengthAdjust="spacing" textLength="228" x="760" y="26.5332">(110114, DCM, User Authentication)</text><line style="stroke:#000000;stroke-width:1.0;" x1="755" x2="755" y1="10" y2="31.6094"/><rect fill="none" height="21.6094" rx="5" ry="5" style="stroke:#000000;stroke-width:1.5;" width="366" x="627" y="10"/><rect fill="#F1F1F1" height="21.6094" rx="5" ry="5" style="stroke:#F1F1F1;stroke-width:1.5;" width="278" x="671" y="97"/><text fill="#000000" font-family="sans-serif" font-size="14" font-weight="bold" lengthAdjust="spacing" textLength="118" x="676" y="113.5332">CodedValueType</text><text fill="#000000" font-family="sans-serif" font-size="14" lengthAdjust="spacing" textLength="140" x="804" y="113.5332">(110122, DCM, Login)</text><line style="stroke:#000000;stroke-width:1.0;" x1="799" x2="799" y1="97" y2="118.6094"/><rect fill="none" height="21.6094" rx="5" ry="5" style="stroke:#000000;stroke-width:1.5;" width="278" x="671" y="97"/><rect fill="#F1F1F1" height="86.4375" rx="5" ry="5" style="stroke:#F1F1F1;stroke-width:1.5;" width="392" x="198" y="137"/><text fill="#000000" font-family="sans-serif" font-size="14" font-weight="bold" lengthAdjust="spacing" textLength="47" x="203" y="153.5332">UserID</text><text fill="#000000" font-family="sans-serif" font-size="14" lengthAdjust="spacing" textLength="248" x="337" y="153.5332">UserID of the person that authenticated</text><line style="stroke:#000000;stroke-width:1.0;" x1="332" x2="332" y1="137" y2="158.6094"/><line style="stroke:#000000;stroke-width:1.0;" x1="198" x2="590" y1="158.6094" y2="158.6094"/><text fill="#000000" font-family="sans-serif" font-size="14" font-weight="bold" lengthAdjust="spacing" textLength="124" x="203" y="175.1426">AlternativeUserID</text><text fill="#000000" font-family="sans-serif" font-size="14" lengthAdjust="spacing" textLength="66" x="337" y="175.1426">theotherID</text><line style="stroke:#000000;stroke-width:1.0;" x1="332" x2="332" y1="158.6094" y2="180.2188"/><line style="stroke:#000000;stroke-width:1.0;" x1="198" x2="590" y1="180.2188" y2="180.2188"/><text fill="#000000" font-family="sans-serif" font-size="14" font-weight="bold" lengthAdjust="spacing" textLength="71" x="203" y="196.752">Username</text><text fill="#000000" font-family="sans-serif" font-size="14" lengthAdjust="spacing" textLength="51" x="337" y="196.752">if known</text><line style="stroke:#000000;stroke-width:1.0;" x1="332" x2="332" y1="180.2188" y2="201.8281"/><line style="stroke:#000000;stroke-width:1.0;" x1="198" x2="590" y1="201.8281" y2="201.8281"/><text fill="#000000" font-family="sans-serif" font-size="14" font-weight="bold" lengthAdjust="spacing" textLength="119" x="203" y="218.3613">UserIsRequestor</text><text fill="#000000" font-family="sans-serif" font-size="14" lengthAdjust="spacing" textLength="44" x="337" y="218.3613">FALSE</text><line style="stroke:#000000;stroke-width:1.0;" x1="332" x2="332" y1="201.8281" y2="223.4375"/><rect fill="none" height="86.4375" rx="5" ry="5" style="stroke:#000000;stroke-width:1.5;" width="392" x="198" y="137"/><path d="M505.5,21 L518.5,21 C551.2606,21 586.0958,21 619.8525,21 " fill="none" style="stroke:#000000;stroke-width:1.0;stroke-dasharray:3.0,3.0;"/><path d="M619.8525,24.0557 L622.1443,21 L619.8525,17.9443 L627.4918,21 L619.8525,24.0557 " fill="#000000" style="stroke:#000000;stroke-width:1.0;"/><ellipse cx="505.5" cy="21" fill="#000000" rx="3" ry="3" style="stroke:#000000;stroke-width:1.0;"/><path d="M505.5,108 L518.5,108 C565.7584,108 617.3339,108 663.7618,108 " fill="none" style="stroke:#000000;stroke-width:1.0;stroke-dasharray:3.0,3.0;"/><path d="M663.7618,111.0818 L666.0731,108 L663.7618,104.9182 L671.4662,108 L663.7618,111.0818 " fill="#000000" style="stroke:#000000;stroke-width:1.0;"/><ellipse cx="505.5" cy="108" fill="#000000" rx="3" ry="3" style="stroke:#000000;stroke-width:1.0;"/><path d="M149,111 L162,111 C195.5241,111 231.2643,106.302 264.3804,99.9087 " fill="none" style="stroke:#000000;stroke-width:1.0;stroke-dasharray:3.0,3.0;"/><path d="M264.9718,102.8953 L266.6204,99.4652 L263.7891,96.922 L271.847,98.4303 L264.9718,102.8953 " fill="#000000" style="stroke:#000000;stroke-width:1.0;"/><ellipse cx="149" cy="111" fill="#000000" rx="3" ry="3" style="stroke:#000000;stroke-width:1.0;"/><path d="M149,133 L162,133 C178.2706,133 195.0582,134.1288 211.8117,136.0366 " fill="none" style="stroke:#000000;stroke-width:1.0;stroke-dasharray:3.0,3.0;"/><path d="M211.4396,139.1139 L214.1196,136.3156 L212.1837,132.9593 L219.5048,136.9667 L211.4396,139.1139 " fill="#000000" style="stroke:#000000;stroke-width:1.0;"/><ellipse cx="149" cy="133" fill="#000000" rx="3" ry="3" style="stroke:#000000;stroke-width:1.0;"/><!--MD5=[ab0ec30deb46a4a21a306a193d98f87d]
@startjson
{
	"event": {
	   "eventID" :
	       { "CodedValueType" : "(110114, DCM, User Authentication)"},
	   "EventActionCode": "E",
	   "EventDateTime" : "date-time",
	   "EventOutcomeIndicator": "0",
	   "EventTypeCode" : 
	   	{ "CodedValueType" : "(110122, DCM, Login)"}
	},
	"ActiveParticipant" : {
	   "UserID" : "UserID of the person that authenticated",
	   "AlternativeUserID" : "theotherID",
	   "Username" : "if known",
	   "UserIsRequestor" : "FALSE"
	   }
}
@endjson

PlantUML version 1.2022.8(Sun Sep 25 05:00:33 EDT 2022)
(GPL source distribution)
Java Runtime: Java(TM) SE Runtime Environment
JVM: Java HotSpot(TM) Client VM
Default Encoding: Cp1252
Language: en
Country: US
--></g></svg>